<svg xmlns="http://www.w3.org/2000/svg" width="24" height="24" fill="currentColor" viewBox="2.01 2.00 6.01 6.01"><path d="M6.196 2.353a.5.5 0 0 1 .809.588l-.292.401c-.084.115-.125.173-.14.23L6.57 3.6c-.01.059.013.15.059.334q.026.104.038.211c.013.12.1.218.216.247l.734.176a.5.5 0 0 1-.232.972l-.025-.006a.9.9 0 0 0-.233-.04.3.3 0 0 0-.27.237.9.9 0 0 0 .012.236.09.09 0 0 0 .06.079l.724.232a.5.5 0 1 1-.304.952l-.205-.065c-.193-.062-.289-.093-.367-.076l-.033.009c-.076.025-.163.124-.337.32q-.111.126-.243.23c-.204.162-.307.243-.463.188a.4.4 0 0 1-.06-.029c-.14-.088-.14-.249-.14-.57V6.052a.5.5 0 0 0-1 0v1.182c0 .322 0 .483-.14.571a.4.4 0 0 1-.06.03c-.157.054-.259-.027-.463-.189a2 2 0 0 1-.243-.23c-.174-.196-.26-.295-.337-.32l-.033-.01c-.078-.016-.175.015-.367.077l-.205.065a.5.5 0 0 1-.305-.952l.723-.232a.09.09 0 0 0 .062-.08.9.9 0 0 0 .01-.236.3.3 0 0 0-.268-.237.9.9 0 0 0-.234.041l-.024.006a.5.5 0 0 1-.232-.972l.734-.176a.29.29 0 0 0 .217-.247q.012-.108.038-.212c.045-.183.067-.275.058-.334l-.005-.025c-.013-.058-.055-.116-.139-.23l-.291-.402a.5.5 0 0 1 .809-.588l.076.106c.121.166.182.25.254.282l.032.012c.076.024.213-.005.485-.063a1.7 1.7 0 0 1 .696 0c.273.058.409.088.484.064l.033-.013c.072-.032.133-.115.254-.281z"/></svg>