<svg xmlns="http://www.w3.org/2000/svg" width="24" height="24" fill="currentColor" viewBox="2.20 2.20 5.60 5.60"><path d="M5.516 2.754c.312 0 .468 0 .59.077l.051.036c.112.092.161.24.26.536.013.04.02.06.028.077.045.093.13.155.233.168.019.002.04.002.085.002.29 0 .462.014.6.084a.8.8 0 0 1 .346.343c.09.174.09.404.09.862v.788c0 .677.001 1.015-.19 1.24a1 1 0 0 1-.09.089c-.224.191-.563.19-1.24.19l-2.56-.003c-.676 0-1.014 0-1.239-.192a1 1 0 0 1-.088-.09C2.2 6.739 2.2 6.4 2.2 5.725v-.786c0-.466 0-.7.095-.877a.8.8 0 0 1 .328-.328c.141-.075.319-.09.623-.094.039 0 .058 0 .074-.002a.3.3 0 0 0 .237-.172l.024-.067c.1-.294.15-.441.262-.532l.05-.036c.121-.076.278-.076.588-.076zM5 4.293a1 1 0 1 0 0 2 1 1 0 0 0 0-2"/></svg>