<svg xmlns="http://www.w3.org/2000/svg" width="24" height="24" fill="currentColor" viewBox="1.97 1.97 6.07 6.07"><path d="M6.074 2.275A1.05 1.05 0 0 1 7.56 3.76l-.024.024c-.053.053-.105.131-.08.202a2.58 2.58 0 0 1-.289 2.278c-.133.2-.2.3-.203.382v.036c.007.083.064.165.18.33l.164.234a.5.5 0 0 1-.82.574l-.16-.229c-.115-.166-.173-.248-.25-.282l-.033-.013c-.08-.025-.197.004-.432.062a2.56 2.56 0 0 1-1.23 0c-.235-.058-.353-.087-.432-.062l-.034.012c-.076.034-.134.117-.25.283l-.16.229a.5.5 0 0 1-.819-.574l.165-.236c.115-.164.172-.246.178-.329v-.036c-.003-.082-.07-.182-.202-.382a2.597 2.597 0 0 1-.288-2.283c.024-.069-.026-.145-.077-.196L2.44 3.76a1.05 1.05 0 0 1 1.485-1.485l.024.023c.052.052.128.103.197.079a2.6 2.6 0 0 1 1.705 0c.07.024.148-.026.2-.079zM5 3.282a.425.425 0 0 0-.425.425v1.262c0 .237.134.454.346.56l.929.465a.426.426 0 0 0 .38-.761l-.49-.246c-.145-.072-.218-.109-.261-.171l-.018-.028c-.036-.067-.036-.149-.036-.31v-.771a.425.425 0 0 0-.425-.425"/></svg>