<svg xmlns="http://www.w3.org/2000/svg" width="24" height="24" fill="currentColor" viewBox="1.80 1.80 6.40 6.40"><path d="M6.1 2.507A1.5 1.5 0 0 1 7.512 4.51c-.037.1-.001.216.085.28A1.5 1.5 0 0 1 6.7 7.493H3.3a1.5 1.5 0 0 1-.81-2.762.24.24 0 0 0 .11-.204v-.02a1.5 1.5 0 0 1 2.066-1.389c.098.04.214.012.282-.07.275-.33.688-.541 1.152-.541M5 3.7c-.28 0-.422 0-.522.068a.4.4 0 0 0-.11.11c-.068.1-.068.241-.068.521v.073c0 .146 0 .22-.036.271l-.015.019c-.042.047-.138.068-.328.111a.501.501 0 0 0-.327.65c.034.093.145.213.366.452l.342.37c.308.333.462.5.656.516a1 1 0 0 0 .083 0c.194-.016.348-.183.656-.516l.342-.37c.22-.24.332-.359.366-.453a.5.5 0 0 0-.326-.649c-.19-.043-.286-.064-.328-.111l-.015-.019C5.7 4.691 5.7 4.618 5.7 4.472v-.073c0-.28 0-.42-.067-.521a.4.4 0 0 0-.11-.11C5.42 3.7 5.28 3.7 5 3.7"/></svg>