<svg xmlns="http://www.w3.org/2000/svg" width="24" height="24" fill="currentColor" viewBox="1.02 1.02 7.96 7.96"><path d="M5.491 2.652a.5.5 0 0 1 .385.593l-.79 3.717a.5.5 0 0 1-.978-.207l.79-3.718a.5.5 0 0 1 .593-.385m-2.677.79a.5.5 0 0 1 .574.818l-.324.225c-.289.203-.433.304-.445.444a.3.3 0 0 0 0 .052c.012.139.156.24.445.443l.28.196a.5.5 0 0 1-.575.819L1.235 5.363a.5.5 0 0 1 .032-.837l.012-.01zm3.676.122a.5.5 0 0 1 .695-.123l1.536 1.075.011.01a.496.496 0 0 1 .033.837L7.23 6.44a.5.5 0 0 1-.573-.819l.28-.196c.288-.203.433-.304.445-.443a.3.3 0 0 0 0-.052c-.013-.14-.158-.241-.447-.444l-.322-.225a.5.5 0 0 1-.123-.696"/></svg>