<svg xmlns="http://www.w3.org/2000/svg" width="24" height="24" fill="currentColor" viewBox="2.00 2.00 6.00 6.00"><path d="M8 5.48c0 .677 0 1.015-.191 1.24a1 1 0 0 1-.09.089C7.496 7 7.158 7 6.48 7H3.52c-.677 0-1.015 0-1.24-.191a1 1 0 0 1-.089-.09C2 6.496 2 6.158 2 5.48v-.15c0-.169 0-.254.048-.31l.022-.022c.056-.048.14-.048.31-.048h5.24c.17 0 .254 0 .31.048l.022.022C8 5.076 8 5.161 8 5.33zm-5-.03a.45.45 0 0 0 0 .9h.4a.45.45 0 0 0 0-.9zm1.7 0a.45.45 0 0 0 0 .9h1.2a.451.451 0 0 0 0-.9zM6.48 3c.677 0 1.015 0 1.24.191a1 1 0 0 1 .089.09c.084.098.13.219.157.38.026.159.039.238-.009.305l-.022.026c-.059.058-.149.058-.329.058H2.394c-.18 0-.27 0-.329-.058l-.022-.026c-.048-.067-.035-.146-.01-.305a.74.74 0 0 1 .158-.38 1 1 0 0 1 .09-.09C2.504 3 2.842 3 3.52 3z"/></svg>