<svg xmlns="http://www.w3.org/2000/svg" width="24" height="24" fill="currentColor" viewBox="1.80 1.80 6.40 6.40"><path d="M7.06 2.05c.508 0 .762 0 .93.144q.036.03.066.066c.144.168.144.422.144.93v1.62c0 .508 0 .762-.144.93a1 1 0 0 1-.066.066c-.168.144-.422.144-.93.144H6.2a.5.5 0 1 0 0 1h.1a.5.5 0 1 1 0 1H3.7a.5.5 0 1 1 0-1h.1a.5.5 0 1 0 0-1h-.86c-.508 0-.762 0-.93-.144a1 1 0 0 1-.066-.066C1.8 5.572 1.8 5.318 1.8 4.81V3.19c0-.508 0-.762.144-.93a1 1 0 0 1 .066-.066c.168-.144.422-.144.93-.144zm-3.7.8c-.338 0-.508 0-.62.095a.4.4 0 0 0-.044.045c-.096.112-.096.281-.096.62v.78c0 .338 0 .508.096.62a.4.4 0 0 0 .044.044c.112.096.282.095.62.095h3.28c.338 0 .508 0 .62-.095a.4.4 0 0 0 .044-.044c.096-.112.096-.282.096-.62v-.78c0-.339 0-.508-.096-.62a.4.4 0 0 0-.044-.045c-.112-.095-.282-.095-.62-.095z"/></svg>