<svg xmlns="http://www.w3.org/2000/svg" width="24" height="24" fill="currentColor" viewBox="1.65 1.65 6.70 6.70"><path d="M7.35 7.05a.65.65 0 0 1 0 1.3h-4.7a.65.65 0 0 1 0-1.3zm-2.153-5.4a.6.6 0 0 1 .6.6v.119c0 .317 0 .476.083.583a.4.4 0 0 0 .039.044c.098.095.277.115.637.156.189.02.315.062.397.139a.6.6 0 0 1 .189.411c.01.238-.233.517-.716 1.075l-.568.656c-.378.436-.567.655-.81.676a1 1 0 0 1-.103 0c-.242-.02-.431-.24-.81-.676l-.567-.656c-.483-.558-.725-.837-.714-1.075a.6.6 0 0 1 .187-.411c.082-.077.209-.118.398-.14.359-.04.538-.06.636-.155a.4.4 0 0 0 .04-.044c.082-.107.082-.266.082-.583V2.25a.6.6 0 0 1 .6-.6z"/></svg>