<svg xmlns="http://www.w3.org/2000/svg" width="24" height="24" fill="currentColor" viewBox="1.69 1.70 6.61 6.61"><path d="M7.6 5.617a.6.6 0 0 1 .6.6v.01c0 .93 0 1.395-.264 1.703a1 1 0 0 1-.122.122c-.309.264-.774.264-1.704.264H3.89c-.93 0-1.395 0-1.704-.264a1 1 0 0 1-.122-.122C1.8 7.622 1.8 7.156 1.8 6.226v-.01a.6.6 0 0 1 1.2 0v.045c0 .38 0 .571.107.698a1 1 0 0 0 .05.05c.126.108.317.108.697.108h2.29c.38 0 .571 0 .697-.108a1 1 0 0 0 .051-.05C7 6.832 7 6.64 7 6.26v-.045l.011-.12a.6.6 0 0 1 .59-.48M5.048 1.704c.243.02.433.239.81.675l.568.656c.483.558.725.837.715 1.075a.6.6 0 0 1-.187.411c-.083.078-.209.118-.398.14-.36.04-.539.06-.637.155a.4.4 0 0 0-.039.044c-.083.108-.083.266-.083.584v.06a.6.6 0 0 1-.6.6h-.4a.6.6 0 0 1-.6-.6v-.06c0-.318 0-.476-.083-.584a.4.4 0 0 0-.04-.044c-.097-.094-.277-.115-.636-.155-.188-.022-.314-.062-.397-.14a.6.6 0 0 1-.188-.411c-.01-.238.233-.517.716-1.075l.566-.656c.379-.436.568-.654.81-.675a1 1 0 0 1 .103 0"/></svg>