<svg xmlns="http://www.w3.org/2000/svg" width="24" height="24" fill="currentColor" viewBox="1.85 1.85 6.31 6.31"><path d="M4.573 2.65c-.26.01-.57.256-1.192.748l-.519.41c-.655.519-.983.778-1.014 1.12a1 1 0 0 0 0 .144c.03.342.36.601 1.014 1.12l.519.41c.622.492.932.738 1.192.75a.8.8 0 0 0 .68-.33c.099-.137.134-.353.146-.705a.125.125 0 0 1 .2-.097l.457.34c.708.524 1.062.787 1.358.766a.8.8 0 0 0 .547-.276c.195-.225.194-.666.194-1.548V4.498c0-.882 0-1.323-.194-1.548a.8.8 0 0 0-.547-.276c-.296-.021-.65.242-1.358.767L5.6 3.78a.126.126 0 0 1-.2-.098c-.013-.352-.048-.567-.148-.704a.8.8 0 0 0-.679-.328"/></svg>