<svg xmlns="http://www.w3.org/2000/svg" width="24" height="24" fill="currentColor" viewBox="1.80 1.82 6.37 6.37"><path d="M6.72 4.15c.45 0 .675 0 .833.115a.6.6 0 0 1 .133.132c.114.158.114.384.114.833v.92c0 .75 0 1.125-.19 1.388a1 1 0 0 1-.222.22C7.125 7.95 6.75 7.95 6 7.95H4c-.75 0-1.125 0-1.388-.191a1 1 0 0 1-.221-.22C2.2 7.274 2.2 6.9 2.2 6.15v-.92c0-.45-.001-.675.113-.833a.6.6 0 0 1 .133-.132c.158-.115.383-.115.833-.115zm-2.32.8a.6.6 0 1 0 0 1.2h1.2a.601.601 0 0 0 0-1.2zm3.2-2.9a.601.601 0 0 1 0 1.2H2.4a.6.6 0 1 1 0-1.2z"/></svg>