<svg xmlns="http://www.w3.org/2000/svg" width="24" height="24" fill="currentColor" viewBox="1.60 1.60 6.80 6.80"><path d="M3.775 2.7c-.198.022-.428.262-.89.741l-.802.834c-.312.324-.467.486-.483.683a1 1 0 0 0 0 .084c.016.197.171.359.483.682l.803.834c.46.48.691.72.89.742a.55.55 0 0 0 .482-.195c.06-.073.093-.188.11-.36.026-.273.039-.409.114-.446l.031-.011c.081-.02.174.072.359.256.462.457.693.685.889.714a.6.6 0 0 0 .569-.238c.117-.159.117-.484.117-1.133V4.083c0-.65 0-.976-.117-1.135a.6.6 0 0 0-.57-.237c-.195.028-.426.257-.888.715-.184.182-.275.273-.356.254a.1.1 0 0 1-.032-.011c-.074-.036-.09-.172-.12-.444-.017-.155-.049-.26-.106-.33a.55.55 0 0 0-.483-.195m4.027.071a.6.6 0 0 0-.6.6v3.2a.6.6 0 0 0 1.2 0v-3.2a.6.6 0 0 0-.6-.6"/></svg>