<svg xmlns="http://www.w3.org/2000/svg" width="24" height="24" fill="currentColor" viewBox="2.30 2.30 5.40 5.40"><path d="M6.18 2.8c.677 0 1.015 0 1.24.192a1 1 0 0 1 .088.089c.192.224.192.563.192 1.24v1.36c0 .676 0 1.015-.192 1.239a1 1 0 0 1-.089.089c-.224.191-.562.191-1.239.191H3.82c-.677 0-1.015 0-1.24-.191a1 1 0 0 1-.088-.09C2.3 6.697 2.3 6.358 2.3 5.682V4.32c0-.677 0-1.016.192-1.24a1 1 0 0 1 .089-.089c.224-.191.562-.192 1.239-.192zM4.5 4.5c-.354 0-.701.294-.99.65-.352.433-.528.65-.438.912.01.032.031.074.049.102.146.236.462.236 1.094.236h1.202c.701 0 1.052 0 1.163-.222a.4.4 0 0 0 .032-.093c.052-.242-.207-.45-.728-.866C5.401 4.832 4.876 4.5 4.5 4.5m2-1.1a.6.6 0 1 0 0 1.2.6.6 0 0 0 0-1.2"/></svg>