<svg xmlns="http://www.w3.org/2000/svg" width="24" height="24" fill="currentColor" viewBox="1.40 1.40 7.20 7.20"><path d="M6.66 2.425c.508 0 .762 0 .93.144a1 1 0 0 1 .066.067c.144.168.144.422.144.93v2.71a.3.3 0 0 0 .3.3.5.5 0 0 1 0 1H1.9a.5.5 0 0 1 0-1 .3.3 0 0 0 .3-.3v-2.71c0-.508 0-.762.144-.93a1 1 0 0 1 .066-.067c.168-.143.423-.144.93-.144zm-3 .75c-.338 0-.508 0-.62.096a.4.4 0 0 0-.044.044c-.096.113-.096.282-.096.62v1.28c0 .338 0 .508.096.62a.4.4 0 0 0 .044.044c.112.096.282.096.62.096h2.68c.338 0 .508 0 .62-.096a.4.4 0 0 0 .044-.044c.096-.112.097-.282.097-.62v-1.28c0-.339-.001-.507-.097-.62a.4.4 0 0 0-.044-.044c-.112-.096-.282-.096-.62-.096z"/></svg>