<svg xmlns="http://www.w3.org/2000/svg" width="24" height="24" fill="currentColor" viewBox="1.83 1.83 6.35 6.35"><path d="M5.882 2.374a.6.6 0 0 1 .272.102c.228.153.266.566.272 1.344a.51.51 0 0 0 .51.508c.64 0 .96 0 1.124.193a.6.6 0 0 1 .06.085c.126.221.015.522-.203 1.124l-.326.897c-.166.457-.25.686-.426.827a1 1 0 0 1-.08.056c-.193.118-.436.118-.923.118h-.814c-.677 0-1.015 0-1.24-.192a1 1 0 0 1-.088-.088c-.192-.225-.192-.563-.192-1.24V4.894c0-.266 0-.399.04-.522l.02-.054c.05-.12.138-.22.312-.42l.263-.303c.727-.84 1.091-1.26 1.419-1.221M3.027 7.028a.6.6 0 0 1-1.2 0v-2.1a.6.6 0 0 1 1.2 0z"/></svg>