<svg xmlns="http://www.w3.org/2000/svg" width="24" height="24" fill="currentColor" viewBox="1.80 1.80 6.40 6.40"><path d="M3.113 2.873c.136.152.12.383-.01.54a2.47 2.47 0 0 0 .022 3.17c.132.155.15.387.017.54s-.368.171-.505.02a3.203 3.203 0 0 1-.029-4.284c.135-.151.37-.137.505.014m3.775.001c.136-.151.37-.165.505-.013A3.2 3.2 0 0 1 8.2 5.008a3.2 3.2 0 0 1-.837 2.136c-.137.15-.371.132-.505-.021-.133-.154-.114-.384.018-.539a2.465 2.465 0 0 0 .022-3.17c-.13-.157-.145-.388-.01-.54m-2.736.957c.113.157.072.375-.041.532a1.1 1.1 0 0 0-.09 1.14q.039.075.088.143c.113.158.154.375.04.532-.114.156-.337.193-.468.051a1.8 1.8 0 0 1 .003-2.45c.132-.142.354-.105.468.052m1.697-.004c.114-.157.336-.194.469-.052a1.8 1.8 0 0 1 .003 2.45c-.132.142-.355.105-.469-.052s-.073-.374.04-.532A1.08 1.08 0 0 0 6.1 5a1.1 1.1 0 0 0-.209-.64c-.113-.157-.154-.375-.041-.532M5 4.501a.5.5 0 1 1 0 1 .5.5 0 0 1 0-1"/></svg>