<svg xmlns="http://www.w3.org/2000/svg" width="24" height="24" fill="currentColor" viewBox="2.00 2.00 6.00 6.00"><path d="M6.1 2.8c.845 0 1.269 0 1.55.24q.06.051.11.11C8 3.432 8 3.855 8 4.7v.6c0 .846 0 1.269-.24 1.55q-.05.059-.11.11c-.281.24-.704.24-1.55.24H3.9c-.846 0-1.269 0-1.55-.24a1 1 0 0 1-.11-.11C2 6.568 2 6.145 2 5.3v-.6c0-.846 0-1.269.24-1.55q.05-.059.11-.11c.281-.24.705-.24 1.55-.24zm1.085 1.03a.5.5 0 0 0-.705-.064L5.192 4.84a.3.3 0 0 1-.383 0L3.52 3.766a.5.5 0 0 0-.641.768l1.288 1.073a1.3 1.3 0 0 0 1.664 0L7.12 4.534a.5.5 0 0 0 .065-.704"/></svg>