<svg xmlns="http://www.w3.org/2000/svg" width="24" height="24" fill="currentColor" viewBox="2.02 1.99 5.97 5.97"><path d="M4.4 2.632c0-.479.5-.777.912-.579l.082.046 1.738 1.16a.6.6 0 0 1-.666.997l-.302-.201c-.085-.057-.128-.085-.16-.097a.3.3 0 0 0-.398.213c-.007.033-.007.084-.007.186l.001.063a.3.3 0 0 0 .102.197c.012.01.025.02.051.038l1.457 1.02a.45.45 0 0 1-.517.737l-.43-.3c-.165-.117-.248-.175-.315-.186a.3.3 0 0 0-.32.166c-.03.062-.03.163-.03.365a1.5 1.5 0 0 1-1.5 1.5h-.3a1.2 1.2 0 0 1 0-2.4h.107c.182 0 .272 0 .34-.038a.3.3 0 0 0 .116-.116c.038-.068.038-.159.038-.34 0-.1 0-.149-.014-.194a.3.3 0 0 0-.047-.09c-.028-.037-.069-.065-.15-.122l-1.344-.94a.45.45 0 0 1 .516-.738l.16.111c.355.25.533.373.677.324a.3.3 0 0 0 .079-.041c.123-.09.123-.307.123-.74"/></svg>