<svg xmlns="http://www.w3.org/2000/svg" width="24" height="24" fill="currentColor" viewBox="1.58 1.58 6.84 6.84"><path d="M6.63 2.313a.5.5 0 0 1 .5.5v1.39c0 .205 0 .308.054.385l.025.032c.063.069.163.092.363.138l.501.116a.45.45 0 0 1-.202.877l-.042-.01c-.304-.07-.456-.105-.563-.034a.3.3 0 0 0-.042.033c-.093.089-.093.245-.093.557v.516a.875.875 0 0 1-.875.875h-.25a.875.875 0 0 1 0-1.75.125.125 0 0 0 .125-.125v-.245a.3.3 0 0 0-.215-.268l-.04-.01-1.047-.242c-.304-.07-.456-.105-.563-.035a.3.3 0 0 0-.042.034c-.093.088-.093.244-.093.556v1.21a.875.875 0 0 1-.875.875h-.25a.875.875 0 0 1 0-1.75.125.125 0 0 0 .125-.125V5.11c0-.206 0-.309-.053-.386l-.026-.031c-.063-.07-.163-.092-.363-.139l-.762-.175a.45.45 0 1 1 .203-.877l.303.07c.304.07.456.105.563.034a.3.3 0 0 0 .042-.033c.093-.09.093-.245.093-.557v-.203a.5.5 0 0 1 .5-.5zm-2.5 1.362c0 .048 0 .071.004.092a.3.3 0 0 0 .19.238c.019.008.042.013.088.024l1.115.257c.216.05.323.074.407.043a.3.3 0 0 0 .148-.117c.049-.075.049-.186.049-.407 0-.18 0-.27-.038-.338a.3.3 0 0 0-.117-.117c-.068-.038-.158-.038-.338-.038H4.494c-.059 0-.088 0-.112.005a.3.3 0 0 0-.247.246c-.004.025-.004.054-.004.112"/></svg>