<svg xmlns="http://www.w3.org/2000/svg" width="24" height="24" fill="currentColor" viewBox="1.95 1.95 6.10 6.10"><path d="M5.3 1.948c.349 0 .524 0 .685.056q.034.013.07.028c.155.068.283.188.54.426l.35.326c.282.263.423.395.505.563l.032.075c.067.174.068.367.068.753v2.357c0 .678 0 1.017-.192 1.241a1 1 0 0 1-.089.088c-.225.192-.564.192-1.241.19l-2.06-.001c-.676-.001-1.014-.002-1.238-.194a1 1 0 0 1-.089-.087c-.191-.225-.191-.564-.191-1.24V3.468c0-.677 0-1.015.192-1.24a1 1 0 0 1 .089-.088c.224-.192.563-.192 1.24-.192zm.007.77a.4.4 0 0 0-.208.087c-.149.12-.15.427-.15 1.043 0 .283 0 .425.07.526a.4.4 0 0 0 .106.107c.102.07.244.069.528.069.615 0 .923 0 1.043-.149a.4.4 0 0 0 .086-.208c.02-.19-.197-.408-.632-.842-.435-.435-.653-.654-.843-.633"/></svg>