<svg xmlns="http://www.w3.org/2000/svg" width="24" height="24" fill="currentColor" viewBox="2.15 2.15 5.70 5.70"><path d="M5 2.15c.442 0 .922.476 1.517.754.674.314 1.012.471 1.09.596a.4.4 0 0 1 .03.056c.062.134.035.326-.02.708C7.275 6.654 5.95 7.85 5 7.85c-.952 0-2.278-1.272-2.618-3.686-.056-.392-.083-.588-.017-.725.013-.027.016-.032.032-.058.084-.127.42-.267 1.091-.548.593-.249 1.072-.683 1.512-.683m-.147 1.212c-.115-.052-.175-.018-.294.05-.174.099-.365.22-.58.29-.33.108-.496.163-.544.227l-.018.03c-.038.07-.027.172-.003.378.134 1.162.643 1.906 1.137 2.196.122.071.183.107.3.055l.045-.025c.104-.075.105-.173.105-.368v-2.47c0-.174 0-.262-.103-.337a.3.3 0 0 0-.045-.026"/></svg>