<svg xmlns="http://www.w3.org/2000/svg" width="24" height="24" fill="currentColor" viewBox="2.00 2.00 6.00 6.00"><path d="M3.655 5.4c.418 0 .627 0 .767.118a1 1 0 0 1 .061.06c.117.14.118.349.118.767v.71c0 .417 0 .627-.118.766a1 1 0 0 1-.061.062C4.282 8 4.073 8 3.655 8h-.71c-.418 0-.627 0-.766-.117a1 1 0 0 1-.062-.062C2 7.681 2 7.472 2 7.055v-.71c0-.418 0-.627.117-.767a1 1 0 0 1 .062-.06c.14-.118.348-.119.766-.119zm2.748 2a.3.3 0 0 1 0 .6H5.7a.3.3 0 0 1 0-.6zm1.297 0a.3.3 0 0 1 0 .6h-.2a.3.3 0 0 1 0-.6zM3.176 6.1c-.212 0-.318 0-.388.06l-.027.027c-.06.07-.06.177-.06.388v.25c0 .211 0 .317.06.387q.012.015.027.028c.07.06.176.06.388.06h.25c.21 0 .316 0 .386-.06l.029-.028c.06-.07.06-.176.06-.387v-.25c0-.211 0-.317-.06-.388l-.029-.028c-.07-.06-.175-.06-.386-.06zm4.524.3a.3.3 0 0 1 0 .6h-2a.3.3 0 0 1 0-.6zm-1.8-1a.3.3 0 0 1 0 .6h-.2a.3.3 0 0 1 0-.6zm1.803 0a.3.3 0 0 1 0 .6H7a.3.3 0 0 1 0-.6zM3.655 2c.418 0 .627 0 .767.117a1 1 0 0 1 .061.06c.118.14.118.35.118.768v.71c0 .418 0 .627-.118.767a1 1 0 0 1-.061.06c-.14.118-.349.118-.767.118h-.71c-.418 0-.627 0-.766-.118a1 1 0 0 1-.062-.06C2 4.282 2 4.073 2 3.655v-.71c0-.418 0-.628.117-.767a1 1 0 0 1 .062-.06C2.319 2 2.527 2 2.945 2zm3.4 0c.418 0 .628 0 .767.117a1 1 0 0 1 .06.06c.118.14.118.35.118.768v.71c0 .418 0 .627-.117.767a1 1 0 0 1-.06.06c-.14.118-.35.118-.768.118h-.71c-.418 0-.627 0-.767-.118a1 1 0 0 1-.06-.06c-.118-.14-.118-.349-.118-.767v-.71c0-.418 0-.628.118-.767a1 1 0 0 1 .06-.06C5.718 2 5.927 2 6.345 2zm-3.88.7c-.21 0-.317 0-.387.06l-.027.027c-.06.07-.06.176-.06.388v.25c0 .211 0 .317.06.388l.027.027c.07.06.176.06.388.06h.25c.21 0 .316 0 .386-.06l.029-.027c.06-.07.06-.177.06-.388v-.25c0-.212 0-.318-.06-.388l-.029-.027c-.07-.06-.175-.06-.386-.06zm3.4 0c-.211 0-.316 0-.387.06l-.028.027c-.06.07-.06.176-.06.388v.25c0 .211 0 .317.06.388l.028.027c.07.06.176.06.387.06h.25c.212 0 .318 0 .388-.06l.027-.027c.06-.07.06-.177.06-.388v-.25c0-.212 0-.318-.06-.388l-.027-.027c-.07-.06-.176-.06-.388-.06z"/></svg>