<svg xmlns="http://www.w3.org/2000/svg" width="24" height="24" fill="currentColor" viewBox="2.00 2.00 6.00 6.00"><path d="M3.655 5.4c.418 0 .627 0 .767.118a1 1 0 0 1 .061.06c.117.14.118.349.118.767v.71c0 .417 0 .627-.118.766a1 1 0 0 1-.061.062C4.282 8 4.073 8 3.655 8h-.71c-.418 0-.627 0-.766-.117a1 1 0 0 1-.062-.062C2 7.681 2 7.472 2 7.055v-.71c0-.418 0-.627.117-.767a1 1 0 0 1 .062-.06c.14-.118.348-.119.766-.119zm2.822 1.95c.116 0 .174 0 .218.024a.2.2 0 0 1 .082.082c.024.044.024.102.024.219 0 .116 0 .174-.024.219a.2.2 0 0 1-.082.082c-.044.023-.102.023-.218.023h-.751c-.117 0-.175 0-.22-.023a.2.2 0 0 1-.082-.082C5.4 7.849 5.4 7.79 5.4 7.674c0-.115 0-.174.024-.218a.2.2 0 0 1 .083-.082c.044-.023.102-.024.219-.024zm1.199 0c.116 0 .174 0 .219.024a.2.2 0 0 1 .082.082C8 7.5 8 7.558 8 7.675c0 .116 0 .174-.023.219a.2.2 0 0 1-.082.082c-.045.023-.103.023-.22.023-.115 0-.174 0-.218-.023a.2.2 0 0 1-.083-.082c-.023-.045-.023-.103-.023-.22 0-.115 0-.174.023-.218a.2.2 0 0 1 .083-.082c.044-.023.102-.024.219-.024m-4.5-1.25c-.212 0-.318 0-.388.06l-.027.027c-.06.07-.06.177-.06.388v.25c0 .211 0 .317.06.387q.012.015.027.028c.07.06.176.06.388.06h.25c.21 0 .316 0 .386-.06l.029-.028c.06-.07.06-.176.06-.387v-.25c0-.211 0-.317-.06-.388l-.029-.028c-.07-.06-.175-.06-.386-.06zm3.1-.696c.112 0 .168 0 .211.023a.2.2 0 0 1 .087.087c.022.042.022.099.022.21v.047c0 .07 0 .104-.01.132a.2.2 0 0 1-.132.134.2.2 0 0 1-.05.007l-.165.002a.201.201 0 0 0-.185.142.5.5 0 0 0-.008.132v.254c0 .112 0 .17-.022.212a.2.2 0 0 1-.087.087c-.042.022-.1.022-.211.022-.112 0-.169 0-.211-.022a.2.2 0 0 1-.087-.087c-.022-.043-.023-.1-.023-.212v-.789c0-.169 0-.254.048-.31l.023-.022c.056-.048.14-.049.31-.049zm1.4 0c.111 0 .167.001.21.023a.2.2 0 0 1 .088.087c.021.042.021.099.021.21v.79c0 .17 0 .255-.048.311l-.022.022c-.056.048-.14.048-.31.048h-.49c-.112 0-.168 0-.21-.022a.2.2 0 0 1-.089-.087c-.022-.043-.021-.1-.021-.21V6.53c0-.07 0-.104.008-.133a.2.2 0 0 1 .133-.133.2.2 0 0 1 .052-.008l.164-.002a.2.2 0 0 0 .052-.007.2.2 0 0 0 .133-.134.5.5 0 0 0 .008-.134v-.254c0-.112 0-.169.022-.211a.2.2 0 0 1 .088-.087c.043-.022.099-.023.21-.023M3.656 2c.417 0 .626 0 .766.117a1 1 0 0 1 .061.06c.118.14.118.35.118.768v.71c0 .418 0 .627-.118.767a1 1 0 0 1-.061.06c-.14.118-.349.118-.767.118h-.71c-.418 0-.627 0-.766-.118a1 1 0 0 1-.062-.06C2 4.282 2 4.073 2 3.655v-.71c0-.418 0-.628.117-.767a1 1 0 0 1 .062-.06C2.319 2 2.527 2 2.945 2zm3.399 0c.418 0 .628 0 .767.117a1 1 0 0 1 .06.06c.118.14.118.35.118.768v.71c0 .418 0 .627-.117.767a1 1 0 0 1-.06.06c-.14.118-.35.118-.768.118h-.71c-.418 0-.627 0-.767-.118a1 1 0 0 1-.06-.06c-.118-.14-.118-.349-.118-.767v-.71c0-.418 0-.628.118-.767a1 1 0 0 1 .06-.06C5.718 2 5.927 2 6.345 2zm-3.88.7c-.21 0-.317 0-.387.06l-.027.027c-.06.07-.06.176-.06.388v.25c0 .211 0 .317.06.388l.027.027c.07.06.176.06.388.06h.25c.21 0 .316 0 .386-.06l.029-.027c.06-.07.06-.177.06-.388v-.25c0-.212 0-.318-.06-.388l-.029-.027c-.07-.06-.175-.06-.386-.06zm3.4 0c-.211 0-.316 0-.387.06l-.028.027c-.06.07-.06.176-.06.388v.25c0 .211 0 .317.06.388l.028.027c.07.06.176.06.387.06h.25c.212 0 .318 0 .388-.06l.027-.027c.06-.07.06-.177.06-.388v-.25c0-.212 0-.318-.06-.388l-.027-.027c-.07-.06-.176-.06-.388-.06z"/></svg>