<svg xmlns="http://www.w3.org/2000/svg" width="24" height="24" fill="currentColor" viewBox="1.90 1.90 6.20 6.20"><path d="M4.5 3c.845 0 1.269 0 1.55.24q.06.05.11.11a.8.8 0 0 1 .163.32c.041.152.212.244.348.164.599-.349.898-.524 1.131-.42a.5.5 0 0 1 .091.052c.207.15.207.496.207 1.188v.732c0 .714 0 1.072-.213 1.221a.5.5 0 0 1-.093.051c-.239.101-.542-.088-1.148-.467-.125-.078-.286.004-.326.146a.8.8 0 0 1-.27.424C5.768 7 5.344 7 4.5 7h-.7c-.846 0-1.269 0-1.55-.24a1 1 0 0 1-.11-.11c-.24-.281-.24-.704-.24-1.55v-.2c0-.845 0-1.269.24-1.55q.05-.06.11-.11C2.531 3 2.954 3 3.8 3z"/></svg>