<svg xmlns="http://www.w3.org/2000/svg" width="24" height="24" fill="currentColor" viewBox="2.24 2.25 5.52 5.52"><path d="M6.066 2.336c.797-.104 1.196-.156 1.447.054a1 1 0 0 1 .097.097c.21.251.158.65.054 1.447l-.101.775c-.04.3-.06.45-.12.586l-.03.059c-.07.131-.177.238-.39.452l-1.03 1.029c-.597.598-.896.897-1.264.926a1 1 0 0 1-.157 0c-.368-.03-.667-.328-1.265-.926l-.142-.142c-.598-.598-.897-.897-.926-1.265a1 1 0 0 1 0-.157c.03-.368.328-.667.926-1.265l1.029-1.028c.214-.214.321-.321.452-.391l.059-.03c.135-.06.285-.08.586-.12zm-.779 1.246a.8.8 0 1 0 1.13 1.13.8.8 0 0 0-1.13-1.13"/></svg>