<svg xmlns="http://www.w3.org/2000/svg" width="24" height="24" fill="currentColor" viewBox="2.00 2.00 6.00 6.00"><path d="M6.29 2.6c.761 0 1.142 0 1.395.216a1 1 0 0 1 .1.1C8 3.168 8 3.549 8 4.31v1.38c0 .761 0 1.142-.216 1.394a1 1 0 0 1-.1.1c-.252.216-.633.216-1.394.216H3.71c-.761 0-1.142 0-1.395-.216a1 1 0 0 1-.1-.1C2 6.832 2 6.451 2 5.69V4.31c0-.761 0-1.142.216-1.394a1 1 0 0 1 .1-.1C2.567 2.6 2.948 2.6 3.71 2.6zm-2.096.97a.6.6 0 0 0-.18.104C3.8 3.854 3.8 4.236 3.8 5c0 .763 0 1.146.215 1.326a.6.6 0 0 0 .18.104c.262.096.594-.095 1.255-.477.662-.382.993-.573 1.041-.849a.6.6 0 0 0 0-.208c-.048-.276-.38-.467-1.04-.849-.662-.382-.994-.573-1.257-.477"/></svg>