<svg xmlns="http://www.w3.org/2000/svg" width="24" height="24" fill="currentColor" viewBox="1.84 1.84 6.32 6.32"><path d="M7.312 1.839c.12 0 .231.063.291.166l.015.026c.223.383.335.574.373.779.028.15.027.305-.003.455a1.4 1.4 0 0 1-.164.4c-.085.153-.128.23-.14.295l-.004.03c-.006.065.019.173.068.39q.057.251.057.535c0 .555-.165 1.018-.478 1.374-.196.223-.294.335-.32.416L7 6.741c-.018.084.004.187.049.392l.061.282c.092.424-.282.806-.71.74a.226.226 0 0 1-.193-.223v-.456a.4.4 0 0 0-.8 0v.158a.39.39 0 0 1-.4.382.39.39 0 0 1-.4-.382v-.21a.401.401 0 0 0-.8 0v.507a.23.23 0 0 1-.194.223c-.428.067-.803-.315-.71-.739l.06-.283c.045-.205.067-.307.05-.39l-.01-.037c-.025-.081-.123-.192-.319-.415-.313-.356-.478-.82-.478-1.375q0-.284.058-.535c.049-.217.073-.325.066-.39l-.004-.029c-.012-.065-.054-.142-.139-.296a1.4 1.4 0 0 1-.163-.4 1.2 1.2 0 0 1-.003-.455c.039-.205.15-.396.373-.779l.016-.026a.335.335 0 0 1 .589.02l.162.324c.136.271.204.406.307.466.017.01.027.016.046.024.11.046.29.013.648-.052a4.7 4.7 0 0 1 .845-.071q.456 0 .843.071c.359.065.538.098.648.052l.046-.023c.103-.06.17-.195.306-.466l.164-.326a.34.34 0 0 1 .3-.185m-3.706 2.76c-.233-.109-.35-.163-.476-.104a.4.4 0 0 0-.051.03c-.113.083-.119.183-.13.381q-.011.173.022.332c.057.276.211.487.427.588.217.101.478.083.726-.05q.144-.076.268-.196c.145-.137.217-.206.208-.346a.4.4 0 0 0-.01-.057c-.035-.136-.152-.19-.385-.299l-.299-.14zm3.276-.104c-.127-.06-.244-.005-.477.104l-.3.14-.299.139c-.233.109-.35.163-.385.299a.4.4 0 0 0-.01.057c-.009.14.064.209.208.346q.125.119.269.196c.248.133.509.151.725.05s.37-.312.428-.588q.034-.16.022-.332c-.012-.198-.018-.297-.132-.38a.4.4 0 0 0-.05-.03"/></svg>