<svg xmlns="http://www.w3.org/2000/svg" width="24" height="24" fill="currentColor" viewBox="2.00 2.00 6.00 6.00"><path d="M5 2c2.3 0 3 .7 3 3s-.7 3-3 3-3-.7-3-3 .7-3 3-3m.897 4.214-.076.029v-.001l-.003.003-.039.016a2 2 0 0 1-.164.055A2.3 2.3 0 0 1 5 6.4a2.3 2.3 0 0 1-.615-.084 2 2 0 0 1-.202-.071l-.004-.002a.4.4 0 1 0-.358.715h.002l.002.003q.004 0 .008.003l.02.01.07.029q.088.036.242.082a3.06 3.06 0 0 0 1.982-.112l.02-.01.007-.002.003-.002.002-.001.068-.043a.4.4 0 0 0-.35-.701M6.4 4.1c-.4.001-.5.303-.5.5v.6c0 .201.1.501.5.501.399 0 .5-.3.5-.5v-.6c0-.2-.101-.501-.5-.5M3.6 4.1c-.4.001-.5.303-.5.5V5.2c0 .201.1.5.5.501.4 0 .5-.3.5-.5v-.6c0-.199-.1-.5-.5-.5"/></svg>