<svg xmlns="http://www.w3.org/2000/svg" width="24" height="24" fill="currentColor" viewBox="1.50 1.50 7.00 7.00"><path d="M5.22 1.5c1.015 0 1.522 0 1.86.287q.071.061.133.134c.287.337.287.844.287 1.86V6.22c0 1.015 0 1.522-.287 1.86q-.061.071-.134.133c-.337.287-.844.287-1.86.287H4.78c-1.015 0-1.522 0-1.86-.287a1 1 0 0 1-.133-.134C2.5 7.742 2.5 7.235 2.5 6.22V3.78c0-1.015 0-1.522.287-1.86q.061-.071.134-.133c.337-.287.844-.287 1.86-.287zm-.215 1.39c-.518 0-.937.447-.938.999 0 .143.03.28.08.403.022.053-.022.117-.08.117-.517 0-.937.448-.937 1s.42 1 .937 1a.9.9 0 0 0 .355-.075c.072-.031.163.024.146.1l-.057.263c-.049.271.055.401.33.412h.328c.275-.01.38-.14.331-.412l-.059-.262c-.016-.077.075-.132.147-.101q.166.073.354.074c.518 0 .938-.447.938-.999s-.42-1-.938-1c-.058 0-.102-.064-.08-.118.052-.123.08-.26.08-.402 0-.552-.42-1-.937-1"/></svg>