<svg xmlns="http://www.w3.org/2000/svg" width="24" height="24" fill="currentColor" viewBox="1.32 1.34 7.42 7.42"><path d="M5 2.8c1 0 1.5-.7 2.6-.1s1.7 4.6.4 4.9-1.3-1-3-1-1.7 1.3-3 1-.5-4.3.4-4.9 1.6.1 2.6.1m1.63 2.364a.5.5 0 1 0 0 1 .5.5 0 0 0 0-1M3.336 3.497a.4.4 0 0 0-.4.4c0 .155 0 .233-.028.293a.3.3 0 0 1-.146.146c-.06.027-.137.027-.292.027h-.04a.4.4 0 0 0 0 .8c.193 0 .29 0 .36.043a.3.3 0 0 1 .103.103c.043.07.043.168.043.361v.027a.4.4 0 0 0 .8 0v-.04c0-.181 0-.272.038-.34a.3.3 0 0 1 .116-.116c.068-.038.159-.038.34-.038a.4.4 0 0 0 0-.8h-.028c-.155 0-.232 0-.292-.027a.3.3 0 0 1-.146-.146c-.028-.06-.028-.138-.028-.292 0-.221-.18-.4-.4-.4m2.393.767a.5.5 0 1 0 0 1 .5.5 0 0 0 0-1m1.8 0a.5.5 0 1 0 0 1 .5.5 0 0 0 0-1m-.9-.9a.5.5 0 1 0 .001 1 .5.5 0 0 0 0-1"/></svg>