<svg xmlns="http://www.w3.org/2000/svg" width="24" height="24" fill="currentColor" viewBox="1.29 1.13 7.41 7.41"><path d="M6.985 1.882c0-.166.179-.262.31-.16.699.54 2.23 1.987.84 3.442l-.031.032c-.074.081-.101.15-.104.259V5.5C8 7.2 7.2 8 5 8s-3-.8-3-2.5a.45.45 0 0 0-.128-.313c-1.428-1.463.116-2.922.818-3.465.132-.102.31-.006.31.16 0 .207-.066.409-.142.602q-.03.075-.054.162c-.055.195-.082.292.044.452a1 1 0 0 0 .059.06c.156.13.347.081.729-.015Q4.201 2.999 5 3c.527 0 .974.046 1.35.14.382.095.573.142.729.011a1 1 0 0 0 .058-.06c.125-.16.097-.258.042-.453a2 2 0 0 0-.052-.154c-.076-.193-.141-.395-.142-.602M3.8 5.1c-.533-.3-.9-.633-1-.1s.167 1.506.8 1.507 1-.274 1-.607-.267-.5-.8-.8M7.184 5c-.1-.533-.467-.2-1 .1-.534.3-.8.467-.8.8s.367.607 1 .607.9-.974.8-1.507"/></svg>