<svg xmlns="http://www.w3.org/2000/svg" width="24" height="24" fill="currentColor" viewBox="1.84 1.87 6.32 6.32"><path d="M7.844 2.373c.02.004.044.012.062.02.147.07.17.23.216.551.057.398.063.895-.098 1.393a1.5 1.5 0 0 0-.06.221c-.003.037.003.09.014.198q.021.21.022.444c0 1.7-.8 2.5-3 2.5s-3-.8-3-2.5q0-.233.021-.443a1.3 1.3 0 0 0 .011-.215 1.5 1.5 0 0 0-.058-.204 3.1 3.1 0 0 1-.097-1.394c.046-.32.07-.482.216-.55a.3.3 0 0 1 .062-.021c.159-.035.291.094.556.353.128.125.192.188.262.217a.4.4 0 0 0 .12.03c.077.007.188-.026.41-.093C3.905 2.76 4.4 2.7 5 2.7c.598 0 1.092.06 1.495.18.223.066.335.1.411.092a.4.4 0 0 0 .12-.029c.07-.03.134-.092.262-.218.265-.258.398-.387.556-.352M3.8 4.8c-.533-.2-.9-.233-.9.2s.167 1.107.7 1.107 1-.274 1-.607-.267-.5-.8-.7m3.283.2c0-.433-.366-.4-.9-.2-.533.2-.799.367-.8.7 0 .333.468.607 1 .607.534 0 .7-.674.7-1.107"/></svg>