<svg xmlns="http://www.w3.org/2000/svg" width="24" height="24" fill="currentColor" viewBox="1.50 1.50 7.00 7.00"><path d="M5.22 1.5c1.015 0 1.522 0 1.86.287q.071.061.133.134c.287.337.287.844.287 1.86V6.22c0 1.015 0 1.522-.287 1.86q-.061.071-.134.133c-.337.287-.844.287-1.86.287H4.78c-1.015 0-1.522 0-1.86-.287a1 1 0 0 1-.133-.134C2.5 7.742 2.5 7.235 2.5 6.22V3.78c0-1.015 0-1.522.287-1.86q.061-.071.134-.133c.337-.287.844-.287 1.86-.287zm.113 1.6a.4.4 0 0 0-.666 0L3.622 4.667a.6.6 0 0 0 0 .666L4.667 6.9a.4.4 0 0 0 .666 0l1.045-1.567a.6.6 0 0 0 0-.666z"/></svg>