<svg xmlns="http://www.w3.org/2000/svg" width="24" height="24" fill="currentColor" viewBox="1.50 1.55 6.88 6.88"><path d="M4.22 3.4c1.015 0 1.522 0 1.86.288a1 1 0 0 1 .132.132c.287.337.288.845.288 1.86v.44c0 1.014 0 1.522-.288 1.859q-.06.071-.133.132c-.337.288-.844.288-1.86.288H3.78c-1.015 0-1.522 0-1.86-.288a1 1 0 0 1-.132-.132c-.287-.337-.288-.845-.288-1.86v-.44c0-1.014 0-1.522.288-1.859q.06-.071.133-.132c.337-.288.844-.289 1.86-.289zM2.83 6.523a.55.55 0 1 0 .001 1.101.55.55 0 0 0-.001-1.1m2.344 0a.55.55 0 1 0 0 1.101.55.55 0 0 0 0-1.1m-.559-4.918c.432-.098.88.137 1.78.608l.39.204c.898.47 1.348.707 1.513 1.117q.035.09.055.18c.099.432-.136.882-.607 1.781l-.205.389-.142.27c-.052.097-.195.06-.195-.051v-.44c0-.49 0-.92-.042-1.267-.044-.364-.144-.731-.413-1.046a2 2 0 0 0-.212-.212c-.315-.269-.681-.37-1.045-.414-.348-.042-.778-.04-1.267-.04h-.44a.121.121 0 0 1-.106-.181c.262-.463.464-.725.756-.842q.088-.035.18-.056M2.831 4.181a.55.55 0 1 0 .001 1.1.55.55 0 0 0-.001-1.1m2.344 0a.55.55 0 1 0 0 1.1.55.55 0 0 0 0-1.1"/></svg>