<svg xmlns="http://www.w3.org/2000/svg" width="24" height="24" fill="currentColor" viewBox="1.31 1.30 7.39 7.39"><path d="M2.827 2.7c.95 0 1.529.79 1.529 1.518 0 .366-.149.684-.33.941a4 4 0 0 1-.641.682l-.03.025a.248.248 0 0 0 .163.436h.484a.5.5 0 0 1 0 1H2.107c-.035 0-.17.004-.296-.035a.67.67 0 0 1-.374-.3 1 1 0 0 1-.067-.145.7.7 0 0 1-.016-.417c.044-.147.142-.251.151-.261.16-.189.38-.374.585-.538.22-.177.434-.34.639-.519a3 3 0 0 0 .48-.503c.11-.158.147-.277.147-.366a.524.524 0 0 0-.529-.518c-.148 0-.291.074-.42.189a1.2 1.2 0 0 0-.18.197l-.003.006-.001.001v.001h-.001l-.06.078a.501.501 0 0 1-.783-.614l.002-.003.007-.011a1 1 0 0 1 .092-.127c.06-.076.15-.176.265-.278.226-.199.595-.439 1.082-.439m4.99 1.177a.5.5 0 0 1 .764.646l-.307.363c-.235.277-.353.416-.364.579a1 1 0 0 0 0 .07c.011.163.129.302.364.58l.307.363a.5.5 0 0 1-.763.645c-.312-.368-.467-.552-.667-.572a.5.5 0 0 0-.104 0c-.2.02-.355.204-.666.572a.5.5 0 0 1-.764-.645l.308-.364c.234-.277.351-.416.363-.579a1 1 0 0 0 0-.07c-.012-.163-.13-.301-.363-.578l-.308-.364a.5.5 0 0 1 .764-.646c.31.368.466.551.667.572a.5.5 0 0 0 .102 0c.2-.02.356-.204.668-.572"/></svg>