<svg xmlns="http://www.w3.org/2000/svg" width="24" height="24" fill="currentColor" viewBox="1.41 1.41 7.19 7.19"><path d="M4.11 2.7c.368 0 .605.39.438.716l-.502.977c-.145.281-.218.422-.225.574v.066c.007.152.08.293.225.575l.502.976a.492.492 0 0 1-.865.469l-.178-.313c-.194-.339-.29-.508-.431-.532a.3.3 0 0 0-.099 0c-.14.024-.237.193-.43.532l-.17.296a.523.523 0 0 1-.908-.514l.495-.886c.16-.288.24-.432.252-.588a1 1 0 0 0 0-.096c-.011-.156-.092-.3-.252-.588l-.495-.888a.522.522 0 0 1 .908-.513l.169.296c.194.34.291.51.432.533a.3.3 0 0 0 .097 0c.141-.023.238-.193.433-.533l.177-.312A.49.49 0 0 1 4.11 2.7M7 2.7a1.6 1.6 0 0 1 0 3.2c-.186 0-.28 0-.354.03a.4.4 0 0 0-.216.216c-.03.074-.03.168-.03.355v.309a.5.5 0 0 1-1-.01V4.22c0-.677 0-1.015.193-1.24a1 1 0 0 1 .087-.088c.225-.192.564-.192 1.24-.192zm-.005.95a.65.65 0 1 0 0 1.3.65.65 0 0 0 0-1.3"/></svg>