<svg xmlns="http://www.w3.org/2000/svg" width="24" height="24" fill="currentColor" viewBox="2.04 2.04 5.92 5.92"><path d="M5 2.041a2.4 2.4 0 0 1 2.4 2.4v2.683c0 .362 0 .543-.055.637a.4.4 0 0 1-.446.185c-.105-.028-.233-.156-.49-.412-.118-.118-.177-.178-.242-.207a.4.4 0 0 0-.335 0c-.065.03-.124.089-.243.207l-.09.09c-.203.204-.305.305-.427.328a.4.4 0 0 1-.145 0c-.122-.023-.224-.124-.427-.328l-.09-.09c-.119-.118-.178-.177-.243-.207a.4.4 0 0 0-.335 0c-.065.03-.124.089-.242.207-.256.256-.384.384-.489.411a.4.4 0 0 1-.446-.185C2.6 7.666 2.6 7.486 2.6 7.124V4.442a2.4 2.4 0 0 1 2.4-2.4M4 3.524c-.332 0-.6.358-.6.8 0 .441.268.8.6.8.33 0 .6-.359.6-.8s-.27-.8-.6-.8m2 0c-.332 0-.6.358-.6.8 0 .441.268.8.6.8.33 0 .6-.359.6-.8s-.27-.8-.6-.8"/></svg>