<svg xmlns="http://www.w3.org/2000/svg" width="24" height="24" fill="currentColor" viewBox="1.80 1.80 6.40 6.40"><path d="M4.45 2.305a.45.45 0 0 1 .63-.09c.246.185.32.467.345.667a.28.28 0 0 0 .322.236c1.071-.2 2.453.551 2.453 2.057 0 1-.6 2.7-3.2 2.7s-3.2-1.7-3.2-2.7c0-1.545 1.454-2.295 2.535-2.038.1.023.209-.045.196-.147-.006-.053-.04-.096-.073-.138a.45.45 0 0 1-.009-.547m.326 3.801-.058.049a1 1 0 0 1-.083.065.36.36 0 0 1-.41-.02c-.02-.014-.039-.033-.078-.072a.35.35 0 1 0-.494.494l.5.5a.35.35 0 0 0 .471.022c.138-.115.207-.173.285-.193a.36.36 0 0 1 .182 0c.078.02.147.078.285.193a.35.35 0 0 0 .472-.022l.5-.5a.35.35 0 1 0-.495-.494c-.04.039-.06.059-.078.073a.36.36 0 0 1-.41.018c-.02-.013-.042-.03-.084-.066l-.056-.046a.35.35 0 0 0-.449 0M2.828 5.12c.052.235.077.352.145.424a.36.36 0 0 0 .194.107c.098.02.21-.022.436-.103.454-.165.681-.247.745-.375a.36.36 0 0 0 .008-.307c-.057-.131-.28-.225-.725-.412-.35-.148-.524-.221-.648-.184a.36.36 0 0 0-.216.18c-.06.115-.02.3.061.67m3.576-.7c-.416.192-.624.288-.68.406a.36.36 0 0 0 .027.356c.073.108.294.171.734.297.204.059.306.088.393.07a.36.36 0 0 0 .213-.134c.054-.07.072-.174.108-.384.058-.334.087-.5.036-.605a.36.36 0 0 0-.255-.196c-.114-.022-.268.048-.576.19"/></svg>