<svg xmlns="http://www.w3.org/2000/svg" width="24" height="24" fill="currentColor" viewBox="1.30 1.30 7.40 7.40"><path d="M4.001 2.7a.5.5 0 0 1 .5.5v3.6a.5.5 0 0 1-1 0v-.7a.6.6 0 1 0-1.201 0v.7a.5.5 0 0 1-1 0V3.2a.5.5 0 0 1 1 0v.7a.6.6 0 0 0 1.201 0v-.7a.5.5 0 0 1 .5-.5m3.1 0a1.6 1.6 0 1 1 0 3.2c-.187 0-.281 0-.355.03a.4.4 0 0 0-.216.216c-.03.074-.03.168-.03.355v.309a.5.5 0 0 1-1-.01V4.22c0-.677 0-1.015.192-1.24a1 1 0 0 1 .088-.088c.225-.192.564-.192 1.24-.192zm-.006.95a.65.65 0 1 0 0 1.3.65.65 0 0 0 0-1.3"/></svg>