<svg xmlns="http://www.w3.org/2000/svg" width="24" height="24" fill="currentColor" viewBox="2.05 2.04 5.91 5.91"><path d="M5.94 2.809c.667-.214 1.483-.015 1.822.6.66 1.197-.503 2.855-1.6 3.708-.175.136-.263.204-.498.06a.5.5 0 0 1-.083-.066c-.19-.2-.127-.331 0-.594l.333-.694a.4.4 0 0 0-.105-.48l-.49-.409c-.21-.176-.316-.264-.35-.384l-.01-.053c-.018-.124.045-.246.17-.491l.443-.873a.7.7 0 0 1 .132-.207l.024-.02c.055-.044.097-.059.182-.088zm-3.704.602c.338-.616 1.155-.817 1.824-.601q.099.032.181.069c.144.064.215.096.277.236l.022.06c.039.148-.013.251-.118.457l-.425.836a.4.4 0 0 0 .1.488l.505.421c.207.172.31.258.344.376l.012.052c.018.121-.04.243-.157.485l-.18.377c-.16.33-.239.496-.408.547a1 1 0 0 1-.072.014c-.175.02-.298-.09-.545-.306-1.012-.892-1.967-2.4-1.36-3.51"/></svg>