<svg xmlns="http://www.w3.org/2000/svg" width="24" height="24" fill="currentColor" viewBox="2.05 2.05 5.91 5.91"><path d="M5.94 2.609c.668-.214 1.483-.015 1.822.6.925 1.678-1.733 4.265-2.77 4.265-1.025 0-3.674-2.583-2.757-4.262.338-.617 1.155-.818 1.825-.602.13.042.196.063.272.164.03.04.068.128.076.178.02.125-.023.214-.11.391l-.102.21c-.111.228-.167.342-.153.458l.009.05c.028.113.12.2.304.375l.303.289c.127.12.19.18.223.25a.4.4 0 0 1 .022.275c-.021.074-.074.144-.18.283l-.198.259a.325.325 0 0 0 .501.413l.597-.67c.213-.24.32-.36.326-.5a.4.4 0 0 0-.001-.06c-.015-.141-.128-.255-.353-.482l-.254-.255c-.178-.178-.266-.268-.291-.38l-.008-.05c-.01-.116.047-.228.16-.452L5.387 3a.6.6 0 0 1 .099-.154.4.4 0 0 1 .098-.075q.143-.091.357-.161"/></svg>