<svg xmlns="http://www.w3.org/2000/svg" width="24" height="24" fill="currentColor" viewBox="1.30 1.30 7.40 7.40"><path d="M6.95 3.5c.393 0 .657.403.5.764L6.773 5.81c-.423.968-.635 1.453-.979 1.494a.6.6 0 0 1-.14 0c-.344-.04-.556-.525-.98-1.494L4.02 4.316a.583.583 0 1 1 1.083-.431l.117.324c.2.552.3.828.478.854a.3.3 0 0 0 .072 0c.179-.017.29-.288.513-.832l.161-.392A.55.55 0 0 1 6.95 3.5M1.8 2.7a.5.5 0 0 1 .5.5v2.35c0 .232 0 .35.038.441.05.122.148.22.27.27.092.039.21.039.442.039h.55a.5.5 0 1 1 0 1h-.59c-.761 0-1.142 0-1.395-.216a1 1 0 0 1-.1-.1C1.3 6.732 1.3 6.351 1.3 5.59V3.2a.5.5 0 0 1 .5-.5M8.05 6a.65.65 0 1 1 0 1.301.65.65 0 0 1 0-1.301"/></svg>