<svg xmlns="http://www.w3.org/2000/svg" width="24" height="24" fill="currentColor" viewBox="1.50 1.50 7.00 7.00"><path d="M5.62 1.5c1.015 0 1.523 0 1.86.287q.07.061.132.134c.288.337.288.844.288 1.86V6.22c0 1.015 0 1.522-.288 1.86q-.06.071-.133.133c-.336.287-.844.287-1.859.287H4.38c-1.015 0-1.523 0-1.86-.287a1 1 0 0 1-.132-.134C2.1 7.742 2.1 7.235 2.1 6.22V3.78c0-1.015 0-1.522.288-1.86q.06-.071.133-.133C2.857 1.5 3.365 1.5 4.38 1.5zM5 2.3a.4.4 0 0 0-.4.4c0 .093 0 .139-.01.177a.3.3 0 0 1-.213.213c-.038.01-.084.01-.177.01h-.25c-.424 0-.635 0-.775.12a1 1 0 0 0-.056.054C3 3.414 3 3.627 3 4.05v.8c0 .423 0 .635.12.775q.026.03.056.056c.14.12.351.12.774.12h.08c.254 0 .381 0 .465.072l.034.033c.072.084.072.211.072.465v.83a.4.4 0 1 0 .8 0v-.83c0-.254 0-.38.071-.465l.034-.033c.084-.072.21-.072.464-.072h.08c.424 0 .635 0 .775-.12a1 1 0 0 0 .056-.056c.12-.14.12-.352.12-.774V4.05c0-.423 0-.635-.12-.776a1 1 0 0 0-.056-.054c-.14-.12-.351-.12-.774-.12h-.251c-.093 0-.139 0-.177-.01a.3.3 0 0 1-.212-.213c-.01-.038-.01-.084-.01-.177a.4.4 0 0 0-.4-.4m-.85 1.6c.187 0 .28 0 .346.048q.032.024.056.056c.047.066.048.16.048.347v.199c0 .187 0 .28-.048.346a.3.3 0 0 1-.056.056C4.43 5 4.336 5 4.15 5s-.28 0-.346-.048a.3.3 0 0 1-.055-.056C3.7 4.831 3.7 4.737 3.7 4.55v-.2c0-.187 0-.28.048-.346a.3.3 0 0 1 .055-.056c.065-.047.16-.048.346-.048m1.7 0c.187 0 .281 0 .347.048a.3.3 0 0 1 .055.055c.048.066.048.16.048.348v.198c0 .188 0 .282-.048.347a.3.3 0 0 1-.055.056C6.131 5 6.037 5 5.85 5c-.188 0-.282 0-.348-.048a.3.3 0 0 1-.055-.056C5.4 4.831 5.4 4.736 5.4 4.55V4.35c0-.188 0-.282.048-.348a.3.3 0 0 1 .055-.055c.066-.048.16-.048.348-.048"/></svg>