<svg xmlns="http://www.w3.org/2000/svg" width="24" height="24" fill="currentColor" viewBox="2.10 2.10 5.80 5.80"><path d="M5.022 2.1h.377a.6.6 0 0 1 .41 1.039c-.109.1-.163.15-.178.177l-.006.012a.5.5 0 0 0-.03.141l-.009.056c-.018.117-.026.176-.026.213 0 .196.05.293.21.407.03.021.113.063.278.147C7.747 5.154 7.372 7.9 5 7.9S2.254 5.153 3.953 4.292c.168-.085.252-.128.283-.15.156-.113.204-.206.207-.398.001-.039-.007-.099-.024-.219l-.007-.049c-.011-.078-.017-.117-.03-.145l-.007-.012a1.4 1.4 0 0 0-.18-.179A.6.6 0 0 1 4.6 2.1h.421"/></svg>