<svg xmlns="http://www.w3.org/2000/svg" width="24" height="24" fill="currentColor" viewBox="1.35 1.35 7.35 7.35"><path d="m3.047 2.747.052.012.04.01.004.002.038.015.023.008.024.013.034.02.003.002q.01.006.032.022l.044.032c.16.14.19.327.2.393.01.086.01.189.01.257v2.27c0 .174 0 .262.035.328a.3.3 0 0 0 .127.125c.067.035.155.034.33.032a.5.5 0 0 1 .012 1l-.998.012H1.95a.5.5 0 0 1 0-1h.032c.254 0 .38 0 .465-.071l.033-.034c.072-.084.072-.211.072-.465V4.694a.23.23 0 0 0-.378-.176.5.5 0 0 1-.644-.765l.888-.749c.051-.043.13-.11.202-.157a.62.62 0 0 1 .428-.1m4.77 1.13a.501.501 0 0 1 .764.646l-.308.362c-.235.278-.352.416-.364.58a1 1 0 0 0 0 .07c.012.163.13.302.364.579l.308.363a.5.5 0 0 1-.764.646c-.311-.368-.467-.552-.667-.573a.5.5 0 0 0-.103 0c-.2.021-.356.205-.667.573a.5.5 0 0 1-.763-.646l.307-.364c.234-.277.352-.415.363-.578a1 1 0 0 0 0-.07c-.012-.164-.129-.302-.363-.579l-.307-.363a.501.501 0 0 1 .763-.647c.311.368.467.552.667.572a.5.5 0 0 0 .103 0c.2-.02.356-.204.667-.572"/></svg>