<svg xmlns="http://www.w3.org/2000/svg" width="24" height="24" fill="currentColor" viewBox="1.80 1.80 6.40 6.40"><path d="M5.16 1.8c1.353 0 2.03 0 2.479.384q.095.082.177.177c.384.45.384 1.126.384 2.479v.32c0 1.353 0 2.03-.384 2.479a2 2 0 0 1-.177.177c-.45.384-1.126.384-2.479.384h-.32c-1.353 0-2.03 0-2.479-.384a2 2 0 0 1-.177-.177C1.8 7.189 1.8 6.513 1.8 5.16v-.32c0-1.353 0-2.03.384-2.479q.082-.095.177-.177C2.811 1.8 3.487 1.8 4.84 1.8zm.773 1.135c-.616-.066-1.114.081-1.49.382-.365.292-.57.692-.686 1.054a4 4 0 0 0-.171.992 4 4 0 0 0 0 .423l.002.028c.006.354.14.689.411.932.274.245.643.357 1.044.358.4 0 .77-.113 1.043-.358.278-.25.412-.594.412-.958 0-.363-.134-.709-.412-.958-.274-.245-.642-.357-1.043-.357-.139 0-.245-.142-.161-.252a1 1 0 0 1 .154-.161c.156-.125.396-.223.797-.18a.476.476 0 0 0 .1-.945m-.89 2.488c.228 0 .35.063.41.115.053.048.095.124.095.25 0 .127-.042.202-.096.25-.058.052-.18.115-.409.115s-.352-.063-.41-.115c-.054-.048-.096-.124-.096-.25s.042-.202.096-.25c.058-.052.181-.115.41-.115"/></svg>