<svg xmlns="http://www.w3.org/2000/svg" width="24" height="24" fill="currentColor" viewBox="1.80 1.80 6.40 6.40"><path d="M5.16 1.8c1.353 0 2.03 0 2.479.384q.095.082.177.177c.384.45.384 1.126.384 2.479v.32c0 1.353 0 2.03-.384 2.479a2 2 0 0 1-.177.177c-.45.384-1.126.384-2.479.384h-.32c-1.353 0-2.03 0-2.479-.384a2 2 0 0 1-.177-.177C1.8 7.189 1.8 6.513 1.8 5.16v-.32c0-1.353 0-2.03.384-2.479q.082-.095.177-.177C2.811 1.8 3.487 1.8 4.84 1.8zm-.655 1.13a.68.68 0 0 0-.623.414l-.035.111-.251 1.1c-.106.464.278.861.714.837.266-.016.638-.013.925.068a.65.65 0 0 1 .268.129c.028.027.047.057.047.124 0 .152-.044.219-.08.256a.54.54 0 0 1-.284.125c-.31.058-.726-.008-1.014-.123a.476.476 0 0 0-.354.883c.412.164 1.013.272 1.542.173.27-.05.559-.162.784-.388.234-.237.356-.555.356-.926 0-.333-.13-.609-.34-.81a1.6 1.6 0 0 0-.668-.358 3 3 0 0 0-.548-.094.296.296 0 0 1-.27-.354.28.28 0 0 1 .273-.218h.939a.475.475 0 0 0 0-.95z"/></svg>