<svg xmlns="http://www.w3.org/2000/svg" width="24" height="24" fill="currentColor" viewBox="1.80 1.80 6.40 6.40"><path d="M5.16 1.8c1.353 0 2.03 0 2.479.384q.095.082.177.177c.384.45.384 1.126.384 2.479v.32c0 1.353 0 2.03-.384 2.479a2 2 0 0 1-.177.177c-.45.384-1.126.384-2.479.384h-.32c-1.353 0-2.03 0-2.479-.384a2 2 0 0 1-.177-.177C1.8 7.189 1.8 6.513 1.8 5.16v-.32c0-1.353 0-2.03.384-2.479q.082-.095.177-.177C2.811 1.8 3.487 1.8 4.84 1.8zm-.294 1.126c-.47 0-.85.169-1.106.454-.248.275-.35.622-.35.93a.476.476 0 0 0 .95 0c0-.11.038-.22.106-.294.058-.065.17-.141.4-.141s.341.076.4.14a.45.45 0 0 1 .106.296c0 .06-.026.15-.125.282-.1.132-.25.272-.441.425-.193.154-.392.294-.602.45-.196.145-.408.31-.566.484-.01.01-.113.113-.158.262a.7.7 0 0 0 .013.4c.014.045.04.103.064.144a.66.66 0 0 0 .359.3c.128.043.263.038.299.038h1.912a.476.476 0 0 0 0-.95h-.6c-.203 0-.286-.26-.128-.386.212-.17.434-.368.605-.594.172-.227.317-.515.317-.855 0-.31-.102-.656-.35-.931-.256-.285-.635-.454-1.105-.454"/></svg>