<svg xmlns="http://www.w3.org/2000/svg" width="24" height="24" fill="currentColor" viewBox="1.80 1.80 6.40 6.40"><path d="M5.16 1.8c1.353 0 2.03 0 2.479.384q.095.082.177.177c.384.45.384 1.126.384 2.479v.32c0 1.353 0 2.03-.384 2.479a2 2 0 0 1-.177.177c-.45.384-1.126.384-2.479.384h-.32c-1.353 0-2.03 0-2.479-.384a2 2 0 0 1-.177-.177C1.8 7.189 1.8 6.513 1.8 5.16v-.32c0-1.353 0-2.03.384-2.479q.082-.095.177-.177C2.811 1.8 3.487 1.8 4.84 1.8zm-.244 1.126c-.389 0-.693.087-.933.242a1.5 1.5 0 0 0-.443.459.475.475 0 0 0 .791.527.6.6 0 0 1 .169-.188c.058-.038.175-.091.416-.091.371 0 .535.12.605.217a.17.17 0 0 1 .027.13.3.3 0 0 1-.052.136.34.34 0 0 1-.152.101 1 1 0 0 1-.248.053l-.123.013a.509.509 0 0 0-.248.086.49.49 0 0 0-.207.318l-.005.056a.3.3 0 0 0 0 .05l.005.058a.49.49 0 0 0 .348.382c.046.013.09.02.106.021l.124.013c.084.01.17.025.248.053a.34.34 0 0 1 .152.101c.017.022.04.062.052.134a.17.17 0 0 1-.027.13c-.07.098-.233.218-.605.219-.24 0-.357-.053-.416-.09a.6.6 0 0 1-.169-.189.476.476 0 0 0-.791.527c.077.115.21.308.443.46.24.154.545.242.933.242.869 0 1.461-.46 1.586-1.082l.003-.019a.3.3 0 0 0 .006-.057v-.017c0-.335-.093-.618-.264-.84a.116.116 0 0 1 0-.142c.172-.221.264-.504.264-.838v-.02a.3.3 0 0 0-.006-.055l-.003-.02c-.125-.622-.717-1.08-1.586-1.08"/></svg>