<svg xmlns="http://www.w3.org/2000/svg" width="24" height="24" fill="currentColor" viewBox="1.32 1.31 7.38 7.38"><path d="M7.1 2.7a1.6 1.6 0 0 1 0 3.2c-.186 0-.28 0-.354.03a.4.4 0 0 0-.216.216c-.03.074-.03.168-.03.355v.309a.5.5 0 0 1-1-.01V4.22c0-.677 0-1.015.192-1.24a1 1 0 0 1 .088-.088c.225-.192.564-.192 1.24-.192zm-5.298.468c.471-.493 1.37-.628 2.239-.251a.476.476 0 0 1-.378.872c-.614-.267-1.052-.091-1.174.036a.44.44 0 0 0-.11.286q-.002.145.112.226c.134.093.3.137.574.198.245.055.599.128.91.346.725.505.713 1.677-.093 2.168q-.002.003-.006.004l-.003.003v-.001c-.386.238-.859.276-1.265.22-.412-.059-.838-.225-1.144-.489a.476.476 0 0 1 .621-.719c.14.12.382.229.655.267.277.039.504-.005.637-.088l.009-.006a.35.35 0 0 0 .168-.298c.004-.131-.052-.233-.121-.282-.134-.093-.3-.136-.576-.198-.244-.055-.597-.129-.909-.346a1.2 1.2 0 0 1-.518-1.005c0-.348.137-.697.372-.943m5.293.481a.65.65 0 1 0 0 1.302.65.65 0 0 0 0-1.302"/></svg>