<svg xmlns="http://www.w3.org/2000/svg" width="24" height="24" fill="currentColor" viewBox="2.08 2.08 5.85 5.85"><path d="M5 2.077c1.78 0 2.9 1.12 2.9 2.5 0 .583-.2 1.085-.566 1.469-.202.211-.303.317-.331.402l-.01.037c-.02.087.003.194.049.406l.062.285c.093.424-.282.806-.71.74a.23.23 0 0 1-.194-.224v-.455a.4.4 0 0 0-.8 0v.159a.39.39 0 0 1-.4.381.39.39 0 0 1-.4-.381v-.209a.4.4 0 0 0-.8 0v.505a.23.23 0 0 1-.194.224c-.428.066-.803-.316-.71-.74l.062-.286c.046-.212.069-.318.049-.405l-.01-.038c-.03-.085-.13-.19-.331-.401C2.3 5.66 2.1 5.16 2.1 4.576c0-1.38 1.12-2.5 2.9-2.5m-1.25 2.2a.75.75 0 1 0 0 1.5.75.75 0 0 0 0-1.5m2.5 0a.75.75 0 1 0 0 1.5.75.75 0 0 0 0-1.5"/></svg>