<svg xmlns="http://www.w3.org/2000/svg" width="24" height="24" fill="currentColor" viewBox="1.88 1.90 6.23 6.23"><path d="M5.062 1.906c.125.02.285.174.604.481C6.668 3.352 7.9 4.054 7.9 5.101c0 .6-.4 1.43-1.4 1.43a1.2 1.2 0 0 1-.386-.062c-.246-.082-.37-.123-.43-.084l-.023.018c-.052.05-.042.15-.023.347q.014.153.048.311c.105.495.158.742.127.834-.035.1-.061.133-.152.188-.083.05-.276.05-.661.05s-.577 0-.66-.05c-.091-.055-.117-.088-.152-.188-.03-.092.022-.339.127-.834q.034-.159.048-.312c.019-.198.028-.297-.023-.347l-.024-.018c-.06-.04-.184.002-.43.085q-.18.061-.386.063c-1 0-1.4-.83-1.4-1.43 0-1.048 1.232-1.75 2.234-2.715.32-.307.48-.462.604-.481a.3.3 0 0 1 .124 0"/></svg>