<svg xmlns="http://www.w3.org/2000/svg" width="24" height="24" fill="currentColor" viewBox="0.85 0.85 8.30 8.30"><path d="M5.8 8.485c0 .296 0 .445-.084.543a.4.4 0 0 1-.038.039c-.099.083-.247.083-.543.083h-.27c-.296 0-.444 0-.543-.083a.4.4 0 0 1-.038-.04C4.2 8.93 4.2 8.782 4.2 8.486v-.27c0-.296 0-.444.084-.542a.4.4 0 0 1 .038-.04c.099-.083.247-.083.543-.083h.27c.296 0 .444 0 .543.084a.4.4 0 0 1 .038.038c.084.099.084.247.084.543zm0-2.3c0 .296 0 .444-.084.542a.4.4 0 0 1-.038.039c-.099.084-.247.084-.543.084h-.27c-.296 0-.444 0-.543-.084a.4.4 0 0 1-.038-.04C4.2 6.63 4.2 6.482 4.2 6.186v-.27c0-.296 0-.444.084-.542a.4.4 0 0 1 .038-.04c.099-.083.247-.083.543-.083h.27c.296 0 .444 0 .543.084a.4.4 0 0 1 .038.039c.084.098.084.246.084.542zm0-2.2c0 .296 0 .444-.084.542a.4.4 0 0 1-.038.039c-.099.083-.247.083-.543.083h-.27c-.296 0-.444 0-.543-.083a.4.4 0 0 1-.038-.04C4.2 4.43 4.2 4.282 4.2 3.985v-.27c0-.295 0-.443.084-.542a.4.4 0 0 1 .038-.038c.099-.084.247-.084.543-.084h.27c.296 0 .444 0 .543.084a.4.4 0 0 1 .038.038c.084.099.084.247.084.543zm0-2.2c0 .296 0 .444-.084.543a.4.4 0 0 1-.038.038c-.099.084-.247.084-.543.084h-.27c-.296 0-.444 0-.543-.084a.4.4 0 0 1-.038-.038C4.2 2.229 4.2 2.08 4.2 1.785v-.27c0-.296 0-.445.084-.543a.4.4 0 0 1 .038-.039C4.421.85 4.57.85 4.865.85h.27c.296 0 .444 0 .543.083a.4.4 0 0 1 .038.04c.084.097.084.246.084.542z"/></svg>