<svg xmlns="http://www.w3.org/2000/svg" width="24" height="24" fill="currentColor" viewBox="2.00 2.00 6.00 6.00"><path d="M7.335 3.1c.296 0 .444 0 .542.083a.4.4 0 0 1 .04.04C8 3.32 8 3.468 8 3.764v.27c0 .296 0 .444-.084.542a.4.4 0 0 1-.039.04c-.098.083-.246.083-.542.083h-.27c-.296 0-.444 0-.542-.084a.4.4 0 0 1-.039-.038C6.4 4.478 6.4 4.33 6.4 4.034v-.27c0-.296 0-.445.084-.543a.4.4 0 0 1 .04-.039c.097-.083.245-.083.541-.083zm-2.2 2.2c.296 0 .444 0 .542.084a.4.4 0 0 1 .039.038c.084.099.084.247.084.543v.27c0 .296 0 .445-.084.543a.4.4 0 0 1-.039.039c-.098.083-.246.083-.542.083h-.27c-.296 0-.444 0-.542-.083a.4.4 0 0 1-.039-.04C4.2 6.68 4.2 6.532 4.2 6.236v-.27c0-.296 0-.444.084-.542a.4.4 0 0 1 .039-.04c.098-.083.246-.083.542-.083zm0-2.2c.296 0 .444 0 .542.084a.4.4 0 0 1 .039.04c.084.097.084.245.084.542v.27c0 .295 0 .443-.084.542a.4.4 0 0 1-.039.038c-.098.084-.246.084-.542.084h-.27c-.296 0-.444 0-.542-.084a.4.4 0 0 1-.039-.038C4.2 4.478 4.2 4.33 4.2 4.034v-.27c0-.296 0-.444.084-.542a.4.4 0 0 1 .039-.039c.098-.083.246-.083.542-.083zm-2.2 2.2c.296 0 .444 0 .542.084a.4.4 0 0 1 .039.038c.084.099.084.247.084.543v.27c0 .296 0 .445-.084.543a.4.4 0 0 1-.04.039c-.097.083-.245.083-.541.083h-.27c-.296 0-.444 0-.542-.083a.4.4 0 0 1-.04-.04C2 6.68 2 6.532 2 6.236v-.27c0-.296 0-.444.084-.542a.4.4 0 0 1 .039-.04c.098-.083.246-.083.542-.083z"/></svg>