<svg xmlns="http://www.w3.org/2000/svg" width="24" height="24" fill="currentColor" viewBox="0 0 10 10"><path d="M7.26 2.646c-.27-.23-.7-.173-1.559-.061l-1.145.149c-.723.094-1.085.141-1.237.355a.6.6 0 0 0-.105.261c-.018.127.028.26.134.43.221.356.332.534.325.69a1 1 0 0 1-.008.066c-.028.153-.154.279-.404.53l-.352.351c-.378.379-.568.568-.588.8a1 1 0 0 0 0 .111c.02.232.21.422.589.8.372.372.558.559.787.579a1 1 0 0 0 .109 0c.228-.02.415-.207.787-.58l.366-.365c.248-.248.372-.372.523-.4a1 1 0 0 1 .066-.008c.154-.009.334.1.695.318.151.09.272.13.387.118a.6.6 0 0 0 .295-.119c.2-.151.244-.5.335-1.194l.154-1.18c.112-.859.168-1.288-.06-1.558a1 1 0 0 0-.093-.093"/></svg>