<svg xmlns="http://www.w3.org/2000/svg" width="24" height="24" fill="currentColor" viewBox="0 0 10 10"><path d="M1.878 4.933c.03-.352.373-.616 1.06-1.145l.915-.705c.578-.445.868-.668 1.127-.624a.6.6 0 0 1 .258.112c.103.077.165.204.21.399.094.407.141.611.257.716a1 1 0 0 0 .052.042c.128.089.306.089.66.089h.498c.535 0 .803 0 .982.15q.042.036.078.078c.15.179.15.447.15.982 0 .526 0 .79-.148.965a1 1 0 0 1-.077.078c-.176.147-.44.147-.966.147h-.518c-.35 0-.525 0-.653.087a1 1 0 0 0-.052.04c-.115.103-.165.308-.267.718-.042.17-.099.284-.19.356a.6.6 0 0 1-.29.124c-.25.034-.528-.179-1.083-.606l-.943-.726c-.687-.528-1.03-.793-1.06-1.145a1 1 0 0 1 0-.132"/></svg>