<svg xmlns="http://www.w3.org/2000/svg" width="24" height="24" fill="currentColor" viewBox="0 0 10 10"><path d="M2.74 7.355c.27.228.7.172 1.559.06l1.145-.149c.724-.094 1.085-.141 1.237-.355a.6.6 0 0 0 .105-.26c.019-.128-.027-.261-.133-.431-.222-.356-.333-.533-.325-.689a1 1 0 0 1 .007-.067c.028-.153.154-.278.405-.53l.351-.351c.379-.378.568-.568.588-.8a1 1 0 0 0 0-.11c-.02-.233-.21-.422-.588-.8-.373-.373-.559-.56-.787-.58a1 1 0 0 0-.11 0c-.228.02-.414.207-.787.58l-.366.366c-.247.247-.371.371-.523.4a1 1 0 0 1-.065.008c-.154.008-.335-.1-.696-.318-.15-.091-.271-.131-.387-.118a.6.6 0 0 0-.295.118c-.2.152-.244.5-.335 1.194l-.154 1.18c-.112.859-.168 1.289.06 1.559q.043.05.094.093"/></svg>