<svg xmlns="http://www.w3.org/2000/svg" width="24" height="24" fill="currentColor" viewBox="0 0 10 10"><path d="m6.8 3.85-.001-.089a.6.6 0 0 0-.56-.56H6.1a.6.6 0 0 1-.6-.6V2.6a.6.6 0 0 1 .6-.6h.73c.112 0 .25 0 .368.014a.9.9 0 0 1 .586.301.9.9 0 0 1 .202.487c.015.118.014.256.014.368v.73a.6.6 0 0 1-1.2 0zM2 3.17c0-.112 0-.25.014-.368a.9.9 0 0 1 .301-.586.9.9 0 0 1 .487-.202C2.92 1.999 3.058 2 3.17 2h.73a.6.6 0 0 1 0 1.2h-.05l-.089.001a.6.6 0 0 0-.56.56V3.9a.6.6 0 0 1-.6.6H2.6a.6.6 0 0 1-.6-.6zM5.5 7.4a.6.6 0 0 1 .6-.6h.05l.089-.001a.6.6 0 0 0 .56-.56V6.1a.6.6 0 0 1 .6-.6H7.4a.6.6 0 0 1 .6.6v.73c0 .112 0 .25-.014.368a.9.9 0 0 1-.301.586.9.9 0 0 1-.487.202C7.08 8.001 6.942 8 6.83 8H6.1a.6.6 0 0 1-.6-.6M3.17 8c-.112 0-.25 0-.368-.014a.9.9 0 0 1-.586-.301.9.9 0 0 1-.202-.487C1.999 7.08 2 6.942 2 6.83V6.1a.6.6 0 0 1 1.2 0v.05l.001.089a.6.6 0 0 0 .65.56H3.9a.6.6 0 0 1 .6.6V7.4a.6.6 0 0 1-.6.6z"/></svg>