<svg xmlns="http://www.w3.org/2000/svg" width="24" height="24" fill="currentColor" viewBox="0 0 10 10"><path d="M5.073 5.306c.102.019.16.066.278.16.63.506.67 1.244.67 1.364 0 .185-.187.924-2.311.924S1.4 7.014 1.4 6.83c0-.12.04-.858.67-1.364.116-.094.175-.141.277-.16L2.39 5.3c.103-.008.227.045.474.153a2.1 2.1 0 0 0 1.69 0c.246-.108.37-.161.473-.153zm2.551-.01c.102.02.16.066.277.16.63.506.67 1.244.67 1.364 0 .142-.109.603-1.102.814l-.173.036c-.315.044-.432-.05-.454-.368L6.84 6.82l-.004-.113a2.7 2.7 0 0 0-.093-.537q-.05-.177-.05-.185c-.065-.26-.026-.342.216-.457l.195-.085c.247-.107.37-.16.474-.153zM3.71 2.2a1.294 1.294 0 1 1 0 2.589 1.294 1.294 0 0 1 0-2.589m2.55 0a1.294 1.294 0 1 1-.183 2.574c-.107-.015-.16-.023-.243-.086a.45.45 0 0 1-.146-.22c-.026-.1.006-.22.069-.461a2.06 2.06 0 0 0 .005-1.031c-.061-.242-.092-.363-.066-.463a.45.45 0 0 1 .15-.219c.083-.061.137-.069.244-.083q.083-.01.17-.01M4.995 3.75q-.001.003-.002 0v-.001q.007-.03.013-.059zm.023-.134q-.004.025-.01.051.015-.09.015-.183h.001q0 .067-.006.132"/></svg>