<svg xmlns="http://www.w3.org/2000/svg" width="24" height="24" fill="currentColor" viewBox="0 0 10 10"><path d="M4.2 2.6c0-.328 0-.492.081-.608a.5.5 0 0 1 .11-.11C4.509 1.8 4.673 1.8 5 1.8s.492 0 .608.081a.5.5 0 0 1 .11.11c.082.117.082.281.082.609s0 .492-.081.608a.5.5 0 0 1-.11.11C5.491 3.4 5.327 3.4 5 3.4s-.492 0-.608-.081a.5.5 0 0 1-.11-.11C4.2 3.091 4.2 2.927 4.2 2.6M4.2 5c0-.328 0-.492.081-.608a.5.5 0 0 1 .11-.11C4.509 4.2 4.673 4.2 5 4.2s.492 0 .608.081a.5.5 0 0 1 .11.11c.082.117.082.281.082.609s0 .492-.081.608a.5.5 0 0 1-.11.11C5.491 5.8 5.327 5.8 5 5.8s-.492 0-.608-.081a.5.5 0 0 1-.11-.11C4.2 5.491 4.2 5.327 4.2 5M4.2 7.4c0-.328 0-.492.081-.608a.5.5 0 0 1 .11-.11C4.509 6.6 4.673 6.6 5 6.6s.492 0 .608.081a.5.5 0 0 1 .11.11c.082.117.082.281.082.609s0 .492-.081.608a.5.5 0 0 1-.11.11C5.491 8.2 5.327 8.2 5 8.2s-.492 0-.608-.081a.5.5 0 0 1-.11-.11C4.2 7.891 4.2 7.727 4.2 7.4"/></svg>