<svg xmlns="http://www.w3.org/2000/svg" width="24" height="24" fill="currentColor" viewBox="0 0 10 10"><path d="M2 3.85c0-.28 0-.421.067-.522a.4.4 0 0 1 .11-.11c.102-.068.242-.068.523-.068.28 0 .421 0 .522.067a.4.4 0 0 1 .11.11c.068.102.068.242.068.523 0 .28 0 .421-.067.522a.4.4 0 0 1-.11.11c-.102.068-.242.068-.523.068-.28 0-.421 0-.522-.067a.4.4 0 0 1-.11-.11C2 4.27 2 4.13 2 3.85M4.3 3.85c0-.28 0-.421.067-.522a.4.4 0 0 1 .11-.11C4.58 3.15 4.72 3.15 5 3.15c.28 0 .421 0 .522.067a.4.4 0 0 1 .11.11c.068.102.068.242.068.523 0 .28 0 .421-.067.522a.4.4 0 0 1-.11.11C5.42 4.55 5.28 4.55 5 4.55c-.28 0-.421 0-.522-.067a.4.4 0 0 1-.11-.11C4.3 4.27 4.3 4.13 4.3 3.85M6.6 3.85c0-.28 0-.421.067-.522a.4.4 0 0 1 .11-.11c.102-.068.242-.068.523-.068.28 0 .421 0 .522.067a.4.4 0 0 1 .11.11C8 3.43 8 3.57 8 3.85c0 .28 0 .421-.067.522a.4.4 0 0 1-.11.11c-.102.068-.242.068-.523.068-.28 0-.421 0-.522-.067a.4.4 0 0 1-.11-.11C6.6 4.27 6.6 4.13 6.6 3.85M2 6.15c0-.28 0-.421.067-.522a.4.4 0 0 1 .11-.11c.102-.068.242-.068.523-.068.28 0 .421 0 .522.067a.4.4 0 0 1 .11.11c.068.102.068.242.068.523 0 .28 0 .421-.067.522a.4.4 0 0 1-.11.11c-.102.068-.242.068-.523.068-.28 0-.421 0-.522-.067a.4.4 0 0 1-.11-.11C2 6.57 2 6.43 2 6.15M4.3 6.15c0-.28 0-.421.067-.522a.4.4 0 0 1 .11-.11C4.58 5.45 4.72 5.45 5 5.45c.28 0 .421 0 .522.067a.4.4 0 0 1 .11.11c.068.102.068.242.068.523 0 .28 0 .421-.067.522a.4.4 0 0 1-.11.11C5.42 6.85 5.28 6.85 5 6.85c-.28 0-.421 0-.522-.067a.4.4 0 0 1-.11-.11C4.3 6.57 4.3 6.43 4.3 6.15M6.6 6.15c0-.28 0-.421.067-.522a.4.4 0 0 1 .11-.11c.102-.068.242-.068.523-.068.28 0 .421 0 .522.067a.4.4 0 0 1 .11.11C8 5.73 8 5.87 8 6.15c0 .28 0 .421-.067.522a.4.4 0 0 1-.11.11c-.102.068-.242.068-.523.068-.28 0-.421 0-.522-.067a.4.4 0 0 1-.11-.11C6.6 6.57 6.6 6.43 6.6 6.15"/></svg>