<svg xmlns="http://www.w3.org/2000/svg" width="24" height="24" fill="currentColor" viewBox="0 0 10 10"><path d="M4.5 6.75c0 .515 0 .773-.13.955a.7.7 0 0 1-.165.166C4.023 8 3.765 8 3.25 8s-.773 0-.955-.13a.7.7 0 0 1-.166-.165C2 7.523 2 7.265 2 6.75s0-.773.13-.955a.7.7 0 0 1 .165-.166c.182-.129.44-.129.955-.129s.773 0 .955.13a.7.7 0 0 1 .166.165c.129.182.129.44.129.955m3.5 0c0 .515 0 .773-.13.955a.7.7 0 0 1-.165.166C7.523 8 7.265 8 6.75 8s-.773 0-.955-.13a.7.7 0 0 1-.166-.165C5.5 7.523 5.5 7.265 5.5 6.75s0-.773.13-.955a.7.7 0 0 1 .165-.166c.182-.129.44-.129.955-.129s.773 0 .955.13a.7.7 0 0 1 .166.165C8 5.977 8 6.235 8 6.75m-3.5-3.5c0 .515 0 .773-.13.955a.7.7 0 0 1-.165.166c-.182.129-.44.129-.955.129s-.773 0-.955-.13a.7.7 0 0 1-.166-.165C2 4.023 2 3.765 2 3.25s0-.773.13-.955a.7.7 0 0 1 .165-.166C2.477 2 2.735 2 3.25 2s.773 0 .955.13a.7.7 0 0 1 .166.165c.129.182.129.44.129.955m3.5 0c0 .515 0 .773-.13.955a.7.7 0 0 1-.165.166c-.182.129-.44.129-.955.129s-.773 0-.955-.13a.7.7 0 0 1-.166-.165C5.5 4.023 5.5 3.765 5.5 3.25s0-.773.13-.955a.7.7 0 0 1 .165-.166C5.977 2 6.235 2 6.75 2s.773 0 .955.13a.7.7 0 0 1 .166.165C8 2.477 8 2.735 8 3.25"/></svg>