<svg xmlns="http://www.w3.org/2000/svg" width="24" height="24" fill="currentColor" viewBox="0 0 10 10"><path d="M6.65 5.25a.5.5 0 0 1 .5.5c0 .092 0 .139.01.177a.3.3 0 0 0 .213.212c.038.01.084.01.177.01a.5.5 0 0 1 0 1c-.093 0-.139 0-.177.01a.3.3 0 0 0-.213.213c-.01.038-.01.085-.01.178a.5.5 0 0 1-1 0c0-.094 0-.14-.01-.179a.3.3 0 0 0-.212-.211c-.038-.01-.085-.01-.178-.01a.5.5 0 0 1 0-1c.093 0 .14 0 .178-.01a.3.3 0 0 0 .212-.213c.01-.038.01-.085.01-.177a.5.5 0 0 1 .5-.5m-3.45.2c.515 0 .773 0 .955.13q.097.068.166.165c.13.182.13.44.13.955s0 .773-.13.955a.7.7 0 0 1-.166.165c-.182.13-.44.13-.955.13s-.773 0-.955-.13a.7.7 0 0 1-.166-.165c-.129-.182-.129-.44-.129-.955s0-.773.13-.955a.7.7 0 0 1 .165-.166c.182-.129.44-.129.955-.129m0-3.5c.515 0 .773 0 .955.13q.097.068.166.165c.13.182.13.44.13.955s0 .773-.13.955a.7.7 0 0 1-.166.165c-.182.13-.44.13-.955.13s-.773 0-.955-.13a.7.7 0 0 1-.166-.165c-.129-.182-.129-.44-.129-.955s0-.773.13-.955a.7.7 0 0 1 .165-.166c.182-.129.44-.129.955-.129m3.5 0c.515 0 .773 0 .955.13q.096.068.166.165c.13.182.13.44.13.955s0 .773-.13.955a.7.7 0 0 1-.166.165c-.182.13-.44.13-.955.13s-.773 0-.955-.13a.7.7 0 0 1-.166-.165c-.129-.182-.129-.44-.129-.955s0-.773.13-.955a.7.7 0 0 1 .165-.166c.182-.129.44-.129.955-.129"/></svg>