<svg xmlns="http://www.w3.org/2000/svg" width="24" height="24" fill="currentColor" viewBox="0 0 10 10"><path d="M5 6.9c.22 0 .4.18.4.4v.4a.4.4 0 0 1-.8 0v-.4a.4.4 0 0 1 .4-.4m-1.91-.557a.4.4 0 0 1 .567.566l-.283.283a.4.4 0 1 1-.566-.567zm3.253 0a.4.4 0 0 1 .566 0l.283.282a.4.4 0 0 1-.566.567l-.283-.283a.4.4 0 0 1 0-.566M4.998 3.797a1.2 1.2 0 1 1-.001 2.401 1.2 1.2 0 0 1 0-2.4M2.7 4.6a.4.4 0 1 1 0 .8h-.4a.4.4 0 0 1 0-.8zm5 0a.4.4 0 1 1 0 .8h-.4a.4.4 0 0 1 0-.8zM2.808 2.807a.4.4 0 0 1 .566 0l.283.283a.4.4 0 0 1-.567.566l-.282-.282a.4.4 0 0 1 0-.567m3.818 0a.4.4 0 0 1 .566.567l-.283.282a.4.4 0 1 1-.566-.566zM5 1.9c.22 0 .4.18.4.4v.4a.4.4 0 0 1-.8 0v-.4a.4.4 0 0 1 .4-.4"/></svg>