<svg xmlns="http://www.w3.org/2000/svg" width="24" height="24" fill="currentColor" viewBox="0 0 10 10"><path d="M7.4 6.5a.6.6 0 1 1 0 1.2H2.6a.6.6 0 0 1 0-1.2zM4 4.5a.6.6 0 0 1 0 1.2H2.6a.6.6 0 0 1 0-1.2zm2.5-2A.5.5 0 0 1 7 3c0 .093 0 .14.008.179a.4.4 0 0 0 .314.314c.039.007.085.007.178.007a.5.5 0 0 1 0 1c-.093 0-.14 0-.178.008a.4.4 0 0 0-.314.314C7 4.862 7 4.908 7 5a.5.5 0 0 1-1 0c0-.092 0-.139-.008-.178a.4.4 0 0 0-.314-.314C5.639 4.5 5.593 4.5 5.5 4.5a.5.5 0 0 1 0-1c.093 0 .14 0 .178-.007a.4.4 0 0 0 .314-.314C6 3.139 6 3.093 6 3a.5.5 0 0 1 .5-.5M4 2.3a.6.6 0 0 1 0 1.2H2.6a.6.6 0 0 1 0-1.2z"/></svg>