<svg xmlns="http://www.w3.org/2000/svg" width="24" height="24" fill="currentColor" viewBox="0 0 10 10"><path d="M5.05 7.025a.8.8 0 1 1-.002 1.601.8.8 0 0 1 .001-1.601m0-5.65c1.278 0 2.4.863 2.4 2.1l-.007.194c-.032.443-.173.81-.394 1.112-.242.33-.55.538-.79.681-.112.068-.244.14-.325.185-.128.073-.197.21-.263.343a.69.69 0 0 1-.622.385.7.7 0 0 1-.7-.7c0-.507.294-.83.541-1.018.119-.09.246-.165.35-.225.119-.068.2-.111.3-.17.185-.112.303-.206.38-.31.065-.09.13-.226.13-.478 0-.263-.28-.7-1-.7-.353.001-.59.103-.752.238-.168.14-.3.351-.37.632a.7.7 0 1 1-1.357-.339 2.57 2.57 0 0 1 .831-1.368c.438-.365 1-.562 1.647-.562"/></svg>