<svg xmlns="http://www.w3.org/2000/svg" width="24" height="24" fill="currentColor" viewBox="0 0 10 10"><path d="M7.114 3.74a.5.5 0 1 1 .573.819.194.194 0 0 0-.062.247l.233.465a.4.4 0 0 1-.716.357l-.132-.265c-.068-.135-.102-.203-.157-.233l-.031-.014c-.06-.02-.13 0-.271.042-.193.057-.29.085-.33.142l-.019.033c-.029.063-.008.145.033.31l.053.21a.4.4 0 0 1-.777.194l-.1-.404c-.034-.135-.05-.202-.097-.243l-.021-.016c-.051-.035-.123-.035-.267-.034h-.053c-.144 0-.216-.001-.267.034l-.021.016c-.046.04-.063.108-.096.243l-.101.404a.4.4 0 0 1-.776-.194l.053-.21c.04-.165.06-.247.032-.31L3.778 5.3c-.04-.057-.137-.085-.33-.142-.14-.041-.211-.062-.27-.042l-.032.014c-.055.03-.09.098-.157.233l-.132.265a.4.4 0 1 1-.715-.357l.232-.466a.194.194 0 0 0-.061-.246.5.5 0 0 1 .574-.818c.201.14.336.265.626.383.286.116.737.226 1.487.226s1.201-.11 1.487-.226c.29-.118.425-.242.627-.383"/></svg>