<svg xmlns="http://www.w3.org/2000/svg" width="24" height="24" fill="currentColor" viewBox="0 0 10 10"><path d="M3.33 5.5c.112 0 .25 0 .368.014a.9.9 0 0 1 .586.301.9.9 0 0 1 .202.487c.015.118.014.256.014.368v.73a.6.6 0 0 1-1.2 0v-.05l-.001-.089a.6.6 0 0 0-.56-.56H2.6a.6.6 0 0 1-.6-.6V6.1a.6.6 0 0 1 .6-.6zM8 6.1a.6.6 0 0 1-.6.6h-.05l-.089.001a.6.6 0 0 0-.56.56V7.4a.6.6 0 0 1-.6.6H6.1a.6.6 0 0 1-.6-.6v-.73c0-.112 0-.25.014-.368a.9.9 0 0 1 .301-.586.9.9 0 0 1 .487-.202c.118-.015.256-.014.368-.014h.73a.6.6 0 0 1 .6.6M4.5 3.33c0 .112 0 .25-.014.368a.9.9 0 0 1-.301.586.9.9 0 0 1-.487.202c-.118.015-.256.014-.368.014H2.6a.6.6 0 0 1 0-1.2h.05l.089-.001a.6.6 0 0 0 .56-.56V2.6a.6.6 0 0 1 .6-.6H3.9a.6.6 0 0 1 .6.6zm2.2-.68.001.089a.6.6 0 0 0 .65.56H7.4a.6.6 0 0 1 .6.6V3.9a.6.6 0 0 1-.6.6h-.73c-.112 0-.25 0-.368-.014a.9.9 0 0 1-.586-.301.9.9 0 0 1-.202-.487C5.499 3.58 5.5 3.442 5.5 3.33V2.6a.6.6 0 0 1 1.2 0z"/></svg>