<svg xmlns="http://www.w3.org/2000/svg" width="24" height="24" fill="currentColor" viewBox="0 0 10 10"><path d="M3.776 5.167c.473-.003.71-.004.866.13q.033.029.061.061c.133.157.133.393.131.866l-.003.572c-.001.256-.003.384-.023.458a.553.553 0 0 1-.803.33.6.6 0 0 1-.106-.083.23.23 0 0 0-.31.008l-.095.093c-.22.22-.33.33-.462.356a.5.5 0 0 1-.173 0c-.131-.027-.241-.136-.46-.356s-.33-.33-.356-.461a.4.4 0 0 1 0-.172c.026-.132.136-.243.355-.462l.095-.094a.23.23 0 0 0 .007-.31.6.6 0 0 1-.084-.108.553.553 0 0 1 .33-.802c.073-.02.202-.023.458-.024zm3.365-3.125c.131.026.241.136.46.355.22.22.33.33.356.462a.5.5 0 0 1 0 .173c-.026.131-.136.24-.355.46l-.094.095a.227.227 0 0 0-.007.31q.06.064.083.107a.553.553 0 0 1-.331.803c-.073.02-.201.022-.456.023l-.573.003c-.473.002-.71.003-.866-.13a1 1 0 0 1-.062-.061c-.133-.157-.132-.393-.13-.866l.003-.573c.001-.255.003-.384.023-.457a.554.554 0 0 1 .803-.331.6.6 0 0 1 .107.083c.086.08.227.076.31-.007l.094-.095c.22-.22.33-.328.462-.354a.4.4 0 0 1 .173 0"/></svg>