<svg xmlns="http://www.w3.org/2000/svg" width="24" height="24" fill="currentColor" viewBox="0 0 10 10"><path d="M4.706 2.11c-.228-.106-.523.054-1.113.374l-.635.345c-.612.332-.917.498-.95.752a.5.5 0 0 0-.002.105c.021.256.32.435.917.792l.634.381c.602.361.902.541 1.138.439a.5.5 0 0 0 .092-.052c.098-.07.15-.185.177-.359.043-.272.064-.409.134-.478l.033-.028c.079-.059.196-.059.429-.059h.036a1.2 1.2 0 0 1 0 2.4h-2.1a.6.6 0 0 0 0 1.2h2.1a2.4 2.4 0 0 0 0-4.799h-.033c-.237 0-.356 0-.437-.061l-.032-.029c-.07-.072-.088-.207-.122-.477-.025-.193-.075-.318-.177-.394a.5.5 0 0 0-.09-.053"/></svg>