<svg xmlns="http://www.w3.org/2000/svg" width="24" height="24" fill="currentColor" viewBox="0 0 10 10"><path d="M6.2 2a.6.6 0 0 1 .6.6v2.252c0 .126 0 .19.013.243a.5.5 0 0 0 .289.349c.05.022.113.033.236.057.222.041.333.062.4.101a.45.45 0 0 1 .187.568c-.03.072-.107.155-.262.32l-.583.624c-.59.631-.885.948-1.144.88a.5.5 0 0 1-.1-.04C5.6 7.828 5.6 7.395 5.6 6.532V2.6c0-.332.269-.601.6-.601m-3.26.86c.586-.585.879-.878 1.132-.807q.051.015.098.04c.23.13.23.544.23 1.371V7.4a.6.6 0 1 1-1.2 0V5.033c0-.112 0-.168-.01-.216a.5.5 0 0 0-.304-.366c-.046-.019-.1-.029-.21-.05-.204-.037-.307-.057-.368-.09a.45.45 0 0 1-.187-.603c.032-.062.106-.136.253-.283z"/></svg>