<svg xmlns="http://www.w3.org/2000/svg" width="24" height="24" fill="currentColor" viewBox="0 0 10 10"><path d="M3.45 2.14c.243.025.414.296.754.837l.308.488c.135.214.201.322.22.411a.5.5 0 0 1-.272.55c-.23.111-.345.167-.385.212a.2.2 0 0 0-.052.083C4 4.776 4 4.84 4 4.968V7.4a.601.601 0 0 1-1.2 0V4.969c0-.128 0-.192-.023-.248a.2.2 0 0 0-.052-.082c-.04-.045-.155-.101-.386-.213a.5.5 0 0 1-.271-.55c.018-.09.085-.197.22-.411l.308-.488c.34-.541.511-.812.754-.836a.5.5 0 0 1 .1 0M6.6 2.1c.331 0 .6.269.6.6v2.432c0 .128 0 .191.024.247.016.04.023.05.052.083.04.045.154.1.384.212a.5.5 0 0 1 .272.55c-.018.09-.086.197-.22.41l-.308.49c-.34.54-.51.81-.753.835a.5.5 0 0 1-.101 0c-.243-.024-.413-.295-.754-.836l-.308-.488c-.134-.214-.202-.322-.22-.411a.5.5 0 0 1 .271-.55c.231-.112.347-.168.387-.214a.2.2 0 0 0 .05-.081C6 5.323 6 5.259 6 5.13v-2.43a.6.6 0 0 1 .6-.601"/></svg>