<svg xmlns="http://www.w3.org/2000/svg" width="24" height="24" fill="currentColor" viewBox="0 0 10 10"><path d="M2.09 6.6c.025-.243.296-.414.837-.754l.488-.308c.214-.135.322-.202.411-.22a.5.5 0 0 1 .55.271c.112.231.168.346.213.386a.2.2 0 0 0 .082.052c.056.023.12.023.248.023h2.43a.6.6 0 1 1 0 1.2H4.919c-.128 0-.192 0-.247.023a.2.2 0 0 0-.083.052c-.045.04-.1.155-.212.385a.5.5 0 0 1-.55.272c-.09-.019-.197-.086-.411-.221l-.488-.307c-.541-.34-.812-.51-.836-.754a.5.5 0 0 1 0-.1m-.04-3.15a.6.6 0 0 1 .6-.6h2.43c.129 0 .193 0 .249-.024a.2.2 0 0 0 .081-.05c.046-.04.102-.156.214-.387a.5.5 0 0 1 .55-.272c.09.019.197.086.41.221l.49.308c.54.34.81.51.835.754a.5.5 0 0 1 0 .1c-.025.243-.295.414-.836.754l-.488.308c-.214.135-.322.201-.411.22a.5.5 0 0 1-.55-.272c-.111-.23-.167-.345-.212-.385a.2.2 0 0 0-.083-.052c-.056-.023-.12-.023-.247-.023H2.65c-.331 0-.6-.27-.6-.6"/></svg>