<svg xmlns="http://www.w3.org/2000/svg" width="24" height="24" fill="currentColor" viewBox="0 0 10 10"><path d="M2.015 3.818c0-.331.27-.6.6-.6h2.253c.125 0 .189 0 .243-.012a.5.5 0 0 0 .349-.29c.021-.051.033-.113.056-.237.042-.222.063-.333.102-.4a.45.45 0 0 1 .568-.187c.071.031.154.109.32.263l.623.583c.632.59.948.884.88 1.144a.5.5 0 0 1-.039.1c-.127.236-.56.236-1.424.236h-3.93a.6.6 0 0 1-.6-.6m.86 3.26c-.585-.585-.878-.878-.806-1.132a.5.5 0 0 1 .04-.098c.129-.23.543-.23 1.371-.23h3.936a.6.6 0 0 1 0 1.2H5.048c-.111 0-.167 0-.215.01a.5.5 0 0 0-.367.303c-.018.046-.028.101-.048.21-.039.205-.058.307-.091.369a.45.45 0 0 1-.604.186c-.062-.032-.135-.106-.282-.253z"/></svg>