<svg xmlns="http://www.w3.org/2000/svg" width="24" height="24" fill="currentColor" viewBox="0 0 10 10"><path d="M4.974 5.306c.102.019.16.066.277.16.63.506.669 1.244.669 1.364 0 .185-.185.924-2.31.924S1.3 7.014 1.3 6.83c0-.12.04-.858.669-1.364.116-.094.175-.141.277-.16l.045-.006c.104-.008.227.045.474.153a2.1 2.1 0 0 0 1.69 0c.247-.108.37-.161.474-.153zM7.1 2.826c.262 0 .475.212.475.474v.055c0 .254 0 .38.072.465l.033.033c.085.072.211.072.465.072H8.2a.475.475 0 0 1 0 .95h-.055c-.254 0-.38 0-.465.072l-.033.033c-.072.084-.072.211-.072.465V5.5a.475.475 0 0 1-.95 0v-.055c0-.254 0-.38-.072-.465l-.033-.033c-.084-.072-.211-.072-.465-.072H6a.475.475 0 0 1 0-.95h.055c.254 0 .38 0 .465-.072l.033-.033c.072-.085.072-.211.072-.465V3.3c0-.262.213-.475.475-.475M3.61 2.2a1.294 1.294 0 1 1-.001 2.588A1.294 1.294 0 0 1 3.61 2.2"/></svg>