<svg xmlns="http://www.w3.org/2000/svg" width="24" height="24" fill="currentColor" viewBox="0 0 10 10"><path d="M5.474 5.306c.102.02.16.066.276.16.63.506.67 1.244.67 1.364 0 .186-.186.924-2.31.924S1.8 7.015 1.8 6.83c0-.12.04-.858.669-1.364.117-.094.175-.14.277-.16l.045-.006c.104-.008.227.046.474.153a2.1 2.1 0 0 0 1.69 0c.246-.107.37-.161.474-.153zM7.6 5a.5.5 0 1 1 0 1 .5.5 0 0 1 0-1M4.11 2.2a1.294 1.294 0 1 1 0 2.588 1.294 1.294 0 0 1 0-2.588m3.49 0c.42 0 .6.311.6.515s-.1 1.05-.15 1.254-.13.47-.45.47-.4-.266-.45-.47S7 2.919 7 2.715s.18-.514.6-.515"/></svg>