<svg xmlns="http://www.w3.org/2000/svg" width="24" height="24" fill="currentColor" viewBox="0 0 10 10"><path d="M5.73 1.8c1.1 0 1.65 0 2.015.311q.078.067.143.145c.312.365.312.914.312 2.014v1.46c0 1.1 0 1.65-.312 2.014a1.3 1.3 0 0 1-.143.145C7.38 8.2 6.83 8.2 5.73 8.2H4.27c-1.1 0-1.65 0-2.015-.311a1.3 1.3 0 0 1-.143-.145C1.8 7.38 1.8 6.83 1.8 5.73V4.27c0-1.1 0-1.65.312-2.014a1.3 1.3 0 0 1 .143-.145C2.62 1.8 3.17 1.8 4.27 1.8zM4.317 5.28c-.26-.113-.412-.175-.645.011a1.36 1.36 0 0 0-.542 1.103c0 .206.35.847 1.872.847 1.622 0 1.872-.641 1.872-.847a1.36 1.36 0 0 0-.542-1.104c-.229-.183-.385-.123-.646-.01a1.71 1.71 0 0 1-1.369 0m.685-2.63a1.047 1.047 0 1 0 0 2.092c.578 0 1.048-.468 1.048-1.046 0-.577-.47-1.046-1.048-1.046"/></svg>