<svg xmlns="http://www.w3.org/2000/svg" width="24" height="24" fill="currentColor" viewBox="0 0 10 10"><path d="M2.808 2.767a2.4 2.4 0 0 1 4.03 2.245c-.068.291-.102.437-.081.528l.01.039c.03.088.112.169.273.33l.522.522a.8.8 0 0 1-1.13 1.131l-.548-.547c-.157-.157-.236-.236-.322-.266l-.039-.011c-.088-.022-.23.009-.515.07a2.4 2.4 0 0 1-2.2-.647 2.4 2.4 0 0 1 0-3.394M4.5 2.95a.5.5 0 0 0-.5.5c0 .093 0 .14-.008.178a.4.4 0 0 1-.314.315c-.039.007-.085.007-.178.007a.5.5 0 1 0 0 1c.093 0 .14 0 .178.008a.4.4 0 0 1 .314.314C4 5.311 4 5.357 4 5.45a.5.5 0 0 0 1 0c0-.093 0-.14.008-.178a.4.4 0 0 1 .314-.314c.038-.008.085-.008.178-.008a.5.5 0 0 0 0-1c-.093 0-.14 0-.178-.007a.4.4 0 0 1-.314-.315C5 3.59 5 3.543 5 3.45a.5.5 0 0 0-.5-.5"/></svg>