<svg xmlns="http://www.w3.org/2000/svg" width="24" height="24" fill="currentColor" viewBox="0 0 10 10"><path d="M8.111 3.161c.424.566-.14 1.273-.918 1.344s-1.274.283-1.84.849c-.565.566-.776 1.06-.847 1.838s-.779 1.344-1.345.92a.85.85 0 0 1-.324-.444c-.069-.241-.103-.361-.119-.379l-.007-.007c-.017-.015-.138-.05-.378-.119a.85.85 0 0 1-.444-.324c-.424-.566.142-1.274.92-1.344.777-.07 1.272-.283 1.838-.848.565-.566.778-1.061.848-1.84.071-.777.778-1.342 1.343-.918a.85.85 0 0 1 .322.433c.074.246.111.368.127.385l.006.007c.017.015.14.052.385.127a.85.85 0 0 1 .433.32"/></svg>