<svg xmlns="http://www.w3.org/2000/svg" width="24" height="24" fill="currentColor" viewBox="0 0 10 10"><path d="M8 5.85c0 .75 0 1.124-.191 1.387a1 1 0 0 1-.221.222c-.263.191-.638.191-1.388.191H3.8c-.75 0-1.125 0-1.388-.191a1 1 0 0 1-.22-.222C2 6.974 2 6.6 2 5.85v-.08c0-.3 0-.45.076-.555a.4.4 0 0 1 .089-.089c.105-.076.255-.076.555-.076H3.9a.4.4 0 0 1 .4.4.7.7 0 0 0 1.4 0 .4.4 0 0 1 .4-.4h1.18c.3 0 .45 0 .555.076a.4.4 0 0 1 .089.089C8 5.32 8 5.47 8 5.77zm-2.52-3.5c1.049 0 1.574 0 1.942.267q.179.13.31.31c.115.159.18.347.218.594.041.274.062.411-.012.534a.4.4 0 0 1-.089.104c-.11.091-.269.091-.584.091h-4.53c-.316 0-.473 0-.584-.091a.4.4 0 0 1-.09-.104c-.073-.123-.052-.26-.011-.534.037-.247.102-.435.218-.594q.13-.18.31-.31c.367-.267.893-.267 1.942-.267z"/></svg>