<svg xmlns="http://www.w3.org/2000/svg" width="24" height="24" fill="currentColor" viewBox="0 0 10 10"><path d="M5 2a3 3 0 1 1 0 6 3 3 0 0 1 0-6m1.545 1.379c-.206-.165-.558-.06-1.262.153l-.369.112c-.451.136-.677.205-.844.356a1 1 0 0 0-.069.07c-.151.166-.22.392-.355.843l-.112.368c-.213.704-.32 1.057-.154 1.263a.5.5 0 0 0 .076.076c.206.165.558.059 1.262-.154l.369-.112c.451-.136.677-.204.844-.355q.036-.033.069-.07c.15-.166.22-.392.355-.843l.112-.37c.213-.703.32-1.055.154-1.26a.5.5 0 0 0-.076-.077M5 4.499A.5.5 0 1 1 4.999 5.5.5.5 0 0 1 5 4.5"/></svg>