<svg xmlns="http://www.w3.org/2000/svg" width="24" height="24" fill="currentColor" viewBox="0 0 10 10"><path d="M6.096 2.138c.465 0 .698 0 .9.093q.044.021.086.046c.19.113.322.306.584.69l.244.358c.312.458.469.687.466.94a1 1 0 0 1-.01.108c-.036.25-.227.45-.609.853l-1.93 2.037c-.366.388-.55.581-.779.6a1 1 0 0 1-.096 0c-.23-.019-.413-.212-.78-.6l-1.93-2.037c-.38-.402-.571-.604-.609-.853a1 1 0 0 1-.008-.109c-.003-.252.153-.48.465-.939l.245-.358c.261-.384.393-.576.584-.69q.04-.025.086-.046c.2-.094.434-.093.899-.093zm.835 1.783a.426.426 0 0 0-.526-.112l-.071.047.002-.002-.002.001q-.012.009-.044.029a1.5 1.5 0 0 1-.228.106c-.214.082-.563.172-1.062.172s-.849-.09-1.063-.172a1.5 1.5 0 0 1-.226-.106q-.034-.02-.044-.029h-.002l.002.001a.425.425 0 0 0-.534.662h.001v.001l.002.001.004.004.011.008.03.022q.036.025.098.062c.083.049.201.11.355.168.31.118.761.228 1.366.229.604 0 1.056-.11 1.366-.229a2.4 2.4 0 0 0 .453-.23l.03-.022.011-.008.006-.006.062-.06a.426.426 0 0 0 .003-.537"/></svg>