<svg xmlns="http://www.w3.org/2000/svg" width="24" height="24" fill="currentColor" viewBox="0 0 10 10"><path d="M4.223 2.006A1.2 1.2 0 0 1 5.3 3.2l-.007.122c-.033.329-.2.617-.444.813-.19.152-.285.228-.314.282l-.012.025c-.024.056-.024.134-.024.29V6.5a.7.7 0 1 0 1.4 0V5.4c0-.222 0-.333.024-.39a.3.3 0 0 1 .407-.15c.056.027.128.111.272.28l.6.7.089.103c.044.052.066.078.078.095a.3.3 0 0 1-.211.459c-.021.003-.055.003-.123.003h-.084c-.143.013-.217.072-.26.21l-.03.124A1.5 1.5 0 0 1 3.699 6.5V4.733c0-.157 0-.235-.024-.291l-.011-.024c-.03-.054-.125-.13-.315-.283a1.2 1.2 0 0 1-.443-.813L2.9 3.2A1.2 1.2 0 0 1 4.1 2zM4.1 2.7a.5.5 0 1 0 0 1 .5.5 0 0 0 0-1"/></svg>