<svg xmlns="http://www.w3.org/2000/svg" width="24" height="24" fill="currentColor" viewBox="0 0 10 10"><path d="M5.745 2.2h-1.49c-1.198 0-1.797 0-2.001.341a.7.7 0 0 0-.066.147c-.12.379.277.827 1.071 1.724l.663.749c.224.252.336.378.4.53q.014.033.025.068c.053.156.053.324.053.661v.522c0 .664 0 .995.115 1.1a.35.35 0 0 0 .31.082c.152-.033.316-.321.646-.898.05-.087.075-.13.092-.178a.6.6 0 0 0 .029-.109c.008-.049.008-.099.008-.2V6.42c0-.337 0-.505.053-.661l.025-.068c.064-.152.176-.278.4-.53l.663-.75c.794-.896 1.192-1.344 1.07-1.723a.7.7 0 0 0-.065-.147c-.204-.341-.803-.341-2-.341"/></svg>