<svg xmlns="http://www.w3.org/2000/svg" width="24" height="24" fill="currentColor" viewBox="0 0 10 10"><path d="M5 1.65a.7.7 0 0 1 .7.7c0 .11.09.2.2.2h.31c.507 0 .761 0 .93.143q.035.031.066.068c.144.168.144.422.144.93v.119c0 .507 0 .76-.144.93a1 1 0 0 1-.066.067c-.169.143-.423.143-.93.143-.102 0-.153 0-.195.01a.4.4 0 0 0-.306.305c-.009.042-.009.093-.009.195v2.19a.7.7 0 0 1-1.4 0V5.46c0-.102 0-.153-.01-.195a.4.4 0 0 0-.305-.306c-.042-.009-.093-.009-.195-.009-.507 0-.761 0-.93-.143a1 1 0 0 1-.066-.068c-.144-.168-.144-.422-.144-.93V3.69c0-.507 0-.761.144-.93a1 1 0 0 1 .066-.067c.169-.143.423-.143.93-.143h.31a.2.2 0 0 0 .2-.2.7.7 0 0 1 .7-.7"/></svg>