<svg xmlns="http://www.w3.org/2000/svg" width="24" height="24" fill="currentColor" viewBox="0 0 10 10"><path d="M6.393 2.35c.442-.17.663-.256.826-.166a.4.4 0 0 1 .065.044c.142.12.142.357.142.831v.187c0 .473 0 .71-.142.83a.4.4 0 0 1-.065.044c-.163.09-.384.005-.826-.165l-.025-.01a.4.4 0 0 0-.542.373v2.834a.7.7 0 1 1-1.4 0V4.228c0-.385 0-.578-.113-.694a.4.4 0 0 0-.052-.045c-.131-.095-.322-.068-.703-.013l-.333.048c-.346.05-.52.075-.607-.05a.3.3 0 0 1-.029-.056c-.054-.143.052-.26.264-.493.349-.382.876-.773 1.573-.773H5.66c.106 0 .208.042.282.117.112.112.28.147.427.09z"/></svg>