<svg xmlns="http://www.w3.org/2000/svg" width="24" height="24" fill="currentColor" viewBox="0 0 10 10"><path d="M4.424 6.358c.178.445.267.668.178.833a.4.4 0 0 1-.044.064c-.12.145-.36.145-.84.145H1.965c-.48 0-.72 0-.84-.145a.4.4 0 0 1-.044-.064c-.09-.165 0-.388.178-.833l.192-.48c.087-.22.131-.329.218-.395l.04-.027c.094-.056.212-.056.448-.056h1.37c.236 0 .354 0 .449.056l.039.027c.087.066.13.176.218.395zM7.827 5.4c.236 0 .354 0 .448.056l.04.027c.087.066.13.176.218.395l.192.48c.178.445.267.668.178.833a.4.4 0 0 1-.044.064c-.12.145-.36.145-.84.145H6.264c-.48 0-.72 0-.84-.145a.4.4 0 0 1-.043-.064c-.09-.165 0-.388.178-.833l.192-.48c.087-.22.13-.329.218-.395l.04-.027c.094-.056.212-.056.447-.056zM6.626 3.558c.178.445.267.668.177.833a.4.4 0 0 1-.044.064c-.12.145-.36.145-.84.145H4.165c-.48 0-.72 0-.84-.145a.4.4 0 0 1-.043-.064c-.09-.165-.001-.388.177-.833l.192-.48c.088-.219.131-.328.218-.395l.04-.027c.094-.056.212-.056.448-.056h1.37c.237 0 .354 0 .449.056l.04.027c.086.067.13.176.218.395z"/></svg>