<svg xmlns="http://www.w3.org/2000/svg" width="24" height="24" fill="currentColor" viewBox="0 0 10 10"><path d="M4.9 1.376c.36 0 .65.29.65.649v2.67c0 .174 0 .261.031.324l.016.027c.037.06.135.119.33.236A1.798 1.798 0 0 1 5 8.625a1.8 1.8 0 0 1-.836-3.394c.104-.055.156-.082.182-.104a.26.26 0 0 0 .097-.16c.007-.034.007-.078.007-.166 0-.117 0-.175-.016-.222a.3.3 0 0 0-.187-.188c-.047-.015-.105-.015-.222-.015H4a.55.55 0 0 1 0-1.101h.05c.093 0 .14 0 .178-.01a.3.3 0 0 0 .212-.212c.01-.039.01-.085.01-.178s0-.14-.01-.177a.3.3 0 0 0-.212-.213c-.038-.01-.085-.01-.178-.01H4a.55.55 0 0 1 0-1.1zm.1 4.64a.81.81 0 1 0 0 1.618.81.81 0 0 0 0-1.619"/></svg>