<svg xmlns="http://www.w3.org/2000/svg" width="24" height="24" fill="currentColor" viewBox="0 0 10 10"><path d="M7.5 5.35a2.5 2.5 0 0 1-5 0v-.56c0-.338 0-.507.096-.619a.4.4 0 0 1 .044-.044c.112-.096.282-.096.62-.096h.08c.338 0 .507 0 .62.096a.4.4 0 0 1 .044.044c.096.112.096.281.096.62v.558a.9.9 0 0 0 1.8 0v-.558c0-.339 0-.508.096-.62a.4.4 0 0 1 .045-.044c.112-.096.281-.096.62-.096h.079c.338 0 .508 0 .62.096a.4.4 0 0 1 .044.044c.096.112.096.281.096.62zM4.1 2.74c0 .178 0 .266-.028.337a.4.4 0 0 1-.226.226c-.07.028-.16.028-.337.028H3.09c-.177 0-.266 0-.336-.028a.4.4 0 0 1-.226-.226c-.028-.07-.028-.16-.028-.337s0-.266.028-.336a.4.4 0 0 1 .226-.227c.07-.027.159-.027.336-.027h.42c.177 0 .265 0 .336.027a.4.4 0 0 1 .226.227c.028.07.028.159.028.336m3.4 0c0 .178 0 .266-.028.337a.4.4 0 0 1-.226.226c-.07.028-.16.028-.336.028h-.42c-.177 0-.265 0-.336-.028a.4.4 0 0 1-.226-.226c-.028-.07-.028-.16-.028-.337s0-.266.028-.336a.4.4 0 0 1 .226-.227c.07-.027.16-.027.337-.027h.419c.177 0 .266 0 .336.027a.4.4 0 0 1 .226.227c.028.07.028.159.028.336"/></svg>