<svg xmlns="http://www.w3.org/2000/svg" width="24" height="24" fill="currentColor" viewBox="0 0 10 10"><path d="M5 2.35c.75 0 1.125 0 1.388.192q.129.093.22.22c.136.187.175.43.187.825.005.196.008.294.056.358l.022.026c.055.056.167.076.39.117a.72.72 0 0 1 .446.243c.19.224.19.563.19 1.239v.56c0 .677.001 1.015-.19 1.24a1 1 0 0 1-.09.088c-.224.192-.562.192-1.239.192H3.62c-.677 0-1.015 0-1.24-.192a1 1 0 0 1-.088-.088C2.1 7.145 2.1 6.806 2.1 6.13v-.56c0-.676 0-1.015.192-1.24a.723.723 0 0 1 .444-.242c.223-.04.335-.061.39-.117l.022-.026c.048-.064.05-.162.056-.358.012-.394.052-.638.187-.825q.094-.128.222-.22C3.876 2.35 4.25 2.35 5 2.35m0 2.3a.4.4 0 0 0-.4.4v.05c0 .14 0 .21-.027.263a.25.25 0 0 1-.11.11c-.053.027-.123.027-.262.027a.4.4 0 0 0 0 .8h.05c.092 0 .139 0 .176.012a.25.25 0 0 1 .161.161.6.6 0 0 1 .012.177.4.4 0 0 0 .8 0c0-.093 0-.14.013-.177a.25.25 0 0 1 .16-.16c.038-.013.085-.013.177-.013h.05a.4.4 0 0 0 0-.8c-.14 0-.209 0-.262-.028a.25.25 0 0 1-.11-.11C5.4 5.31 5.4 5.24 5.4 5.1v-.05a.4.4 0 0 0-.4-.4m0-1.5c-.47 0-.707 0-.853.146a.48.48 0 0 0-.124.28c-.03.19-.045.287.015.37q.012.016.028.033c.073.071.186.071.411.071h1.047c.225 0 .338 0 .411-.071q.015-.017.028-.033c.06-.083.045-.18.015-.37a.48.48 0 0 0-.124-.28C5.708 3.15 5.472 3.15 5 3.15"/></svg>