<svg xmlns="http://www.w3.org/2000/svg" width="24" height="24" fill="currentColor" viewBox="0 0 10 10"><path d="m5.546 1.873 2.067.553a.73.73 0 0 1-.07 1.426l-.492.081a.4.4 0 0 0-.313.266l-.524 1.535a.2.2 0 0 0 .093.24l1.498.825a.428.428 0 0 1-.361.773l-1.445-.56a.2.2 0 0 0-.262.122l-.247.729a.428.428 0 0 1-.824-.22l.177-.902a.2.2 0 0 0-.124-.225l-.884-.342a.4.4 0 0 0-.405.068l-.379.325a.73.73 0 0 1-1.136-.863l.904-1.94a.73.73 0 0 1 1.392.316l-.005.499a.4.4 0 0 0 .208.354l.47.26a.2.2 0 0 0 .293-.137l.24-1.21a.4.4 0 0 0-.139-.387l-.385-.318a.73.73 0 0 1 .653-1.268"/></svg>