<svg xmlns="http://www.w3.org/2000/svg" width="24" height="24" fill="currentColor" viewBox="0 0 10 10"><path d="M5.489 6.283c.592.511.889.767.842.996a.4.4 0 0 1-.043.116c-.115.204-.506.204-1.288.204-.783 0-1.174 0-1.289-.204a.4.4 0 0 1-.043-.116c-.047-.23.25-.485.842-.996.217-.187.326-.28.453-.292a.4.4 0 0 1 .073 0c.128.012.236.105.453.292m-2.511-1.14c.547.169.821.253.885.451a.4.4 0 0 1 .017.083c.021.207-.196.394-.63.768l-.4.346c-.37.32-.556.479-.743.446a.4.4 0 0 1-.076-.021c-.177-.07-.252-.302-.401-.767l-.168-.521c-.185-.575-.278-.862-.145-1.03a.4.4 0 0 1 .061-.061c.166-.135.454-.046 1.03.131zM8.37 6.45c-.15.465-.225.698-.402.767a.4.4 0 0 1-.076.021c-.187.033-.372-.126-.742-.445l-.401-.347c-.434-.374-.651-.56-.63-.768a.4.4 0 0 1 .017-.083c.064-.198.338-.282.885-.45l.57-.176c.577-.177.865-.266 1.03-.131a.4.4 0 0 1 .062.062c.133.167.04.455-.145 1.029zM5.045 2.383c.206.018.366.21.685.592l.485.582c.312.374.467.56.432.747a.4.4 0 0 1-.023.075c-.071.176-.304.247-.77.39l-.63.195a.8.8 0 0 1-.236.05c-.054-.001-.107-.017-.212-.05l-.63-.194c-.466-.143-.699-.215-.77-.39a.4.4 0 0 1-.023-.076c-.036-.186.12-.373.433-.747l.485-.582c.319-.382.479-.574.686-.592a1 1 0 0 1 .088 0"/></svg>