<svg xmlns="http://www.w3.org/2000/svg" width="24" height="24" fill="currentColor" viewBox="0 0 10 10"><path d="M6.869 1.9c.31 0 .465 0 .571.08a.4.4 0 0 1 .076.074c.082.106.085.264.09.578.033 2.011.194 3.05.194 3.768 0 .8-.2 1.7-2.8 1.7s-2.8-.9-2.8-1.7c0-.718.161-1.757.194-3.768.006-.314.007-.472.09-.578a.4.4 0 0 1 .075-.074c.107-.08.263-.08.573-.08.325 0 .487 0 .596.087a.4.4 0 0 1 .076.08c.082.113.073.276.057.6l-.012.236c-.022.442-.033.663.087.811a1 1 0 0 0 .056.06c.142.126.364.126.807.126H5.2c.443 0 .664 0 .807-.127a1 1 0 0 0 .055-.059c.12-.148.11-.37.087-.811l-.012-.235c-.016-.325-.024-.488.057-.601a.4.4 0 0 1 .076-.08c.11-.087.273-.087.598-.087m-.256 2.853a.35.35 0 0 0-.346.391c.02.183.034.365.034.556 0 .356-.052.585-.184.7-.153.133-.31.26-.967.292a.364.364 0 0 0-.35.358c0 .194.157.351.35.341 1.702-.087 1.817-.828 1.847-1.54L7 5.7c0-.244-.02-.427-.045-.644a.345.345 0 0 0-.342-.303"/></svg>