<svg xmlns="http://www.w3.org/2000/svg" width="24" height="24" fill="currentColor" viewBox="0 0 10 10"><path d="M6.167 1.9H3.774a.4.4 0 0 0-.373.374l-.001.059v.038a.4.4 0 0 0 .24.349l.06.03c.076.038.114.057.146.082a.4.4 0 0 1 .146.237C4 3.108 4 3.15 4 3.235v.732c0 .104 0 .155-.012.203a.4.4 0 0 1-.106.187c-.034.034-.079.061-.168.114l-.211.128-.033.02a1 1 0 0 0-.47.83v.062a.4.4 0 0 0 .414.389h.392c.311 0 .467 0 .576.086q.023.018.044.04c.095.1.109.255.137.565l.11 1.21a.329.329 0 0 0 .654 0l.11-1.21c.028-.31.042-.465.137-.566a.4.4 0 0 1 .044-.04c.109-.085.265-.085.576-.085h.417A.4.4 0 0 0 7 5.51v-.063a1 1 0 0 0-.502-.85l-.212-.127c-.09-.053-.134-.08-.168-.114a.4.4 0 0 1-.106-.187C6 4.122 6 4.07 6 3.967v-.732c0-.085 0-.127.008-.166a.4.4 0 0 1 .146-.237c.032-.025.07-.044.146-.082l.06-.03.035-.018a.4.4 0 0 0 .205-.331v-.097a.4.4 0 0 0-.374-.373z"/></svg>