<svg xmlns="http://www.w3.org/2000/svg" width="24" height="24" fill="currentColor" viewBox="0 0 10 10"><path d="M5.209 1.55c.13 0 .196 0 .232.01a.3.3 0 0 1 .177.458c-.021.03-.07.074-.167.162-.047.042-.071.063-.087.084a.3.3 0 0 0 .002.372c.016.02.039.041.086.083l.2.178c.164.146.247.219.268.311a.3.3 0 0 1 .006.1c-.01.094-.082.177-.226.342s-.217.248-.227.342a.3.3 0 0 0 .007.1c.022.092.104.166.268.311l.128.115c.159.14.238.21.26.301a.3.3 0 0 1 .008.084c-.004.094-.067.178-.194.347-.127.17-.19.254-.194.348a.3.3 0 0 0 .008.083c.022.09.102.16.26.301l.271.242c.12.105.178.158.212.227l.015.03c.028.072.028.151.028.31v.52c0 .507 0 .761-.143.93a1 1 0 0 1-.068.066c-.168.143-.422.143-.93.143H4.59c-.507 0-.761 0-.93-.143a1 1 0 0 1-.066-.067c-.143-.168-.144-.422-.144-.93v-.86l.246-4.008c.024-.399.036-.599.155-.73a1 1 0 0 1 .056-.05c.137-.112.337-.112.737-.112zm-.56 5.2a1 1 0 0 0-.177.008.4.4 0 0 0-.314.314 1 1 0 0 0-.008.178c0 .093 0 .14.008.179a.4.4 0 0 0 .314.313 1 1 0 0 0 .178.008h.6c.093 0 .14 0 .178-.008a.4.4 0 0 0 .315-.313 1 1 0 0 0 .007-.179c0-.093 0-.14-.007-.178a.4.4 0 0 0-.315-.314 1 1 0 0 0-.178-.008z"/></svg>