<svg xmlns="http://www.w3.org/2000/svg" width="24" height="24" fill="currentColor" viewBox="0 0 10 10"><path d="M5.595 8.35c.227 0 .34 0 .427-.082l.034-.038c.072-.096.06-.192.038-.383-.034-.28-.128-.62-.375-.845a.07.07 0 0 1-.02-.052V5.09a.24.24 0 0 1 .24-.24c.343 0 .515 0 .63-.106a.4.4 0 0 0 .045-.05c.096-.123.081-.283.053-.603C6.567 2.987 6.2 1.651 5 1.65c-1.188 0-1.56 1.366-1.665 2.442-.03.318-.046.477.05.602q.021.025.045.049c.115.107.286.107.63.107a.24.24 0 0 1 .24.24v1.86q0 .03-.021.052c-.247.226-.341.564-.375.846-.022.19-.034.286.038.382l.034.038c.087.082.2.082.427.082z"/></svg>