<svg xmlns="http://www.w3.org/2000/svg" width="24" height="24" fill="currentColor" viewBox="0 0 10 10"><path d="M5 2a3 3 0 1 1 0 6 3 3 0 0 1 0-6m.333 1.102a.5.5 0 0 0-.667 0c-.076.067-.144.211-.28.5-.04.085-.06.128-.085.165a.5.5 0 0 1-.258.187c-.043.013-.09.02-.184.031-.316.04-.474.06-.562.112a.5.5 0 0 0-.206.633c.04.093.157.202.39.42.069.065.103.098.13.134a.5.5 0 0 1 .098.303c0 .045-.01.091-.027.184-.06.313-.09.47-.068.569a.5.5 0 0 0 .54.392c.1-.01.24-.087.52-.24a1 1 0 0 1 .166-.083.5.5 0 0 1 .32 0c.041.014.083.037.166.082.28.154.419.231.52.241a.5.5 0 0 0 .54-.392c.021-.1-.01-.256-.069-.569-.017-.093-.027-.14-.027-.184a.5.5 0 0 1 .099-.303c.026-.036.06-.069.13-.134.232-.218.348-.327.39-.42a.5.5 0 0 0-.207-.633c-.088-.051-.245-.072-.561-.112a1 1 0 0 1-.184-.03.5.5 0 0 1-.258-.188 1 1 0 0 1-.087-.165c-.135-.289-.203-.433-.279-.5"/></svg>