<svg xmlns="http://www.w3.org/2000/svg" width="24" height="24" fill="currentColor" viewBox="0 0 10 10"><path d="M5 2a3 3 0 1 1 0 6 3 3 0 0 1 0-6m.208 1.027a.5.5 0 0 0-.416 0c-.167.077-.287.334-.526.847-.047.1-.071.151-.104.194a.5.5 0 0 1-.094.094 1 1 0 0 1-.194.104c-.513.239-.77.359-.847.526a.5.5 0 0 0 0 .416c.077.167.334.287.847.526.1.047.151.071.194.104a.5.5 0 0 1 .094.094c.033.043.057.093.104.194.239.513.359.77.526.847a.5.5 0 0 0 .416 0c.167-.077.287-.334.526-.847.047-.1.071-.151.104-.194a.5.5 0 0 1 .094-.094c.043-.033.093-.057.194-.104.513-.239.77-.359.847-.526a.5.5 0 0 0 0-.416c-.077-.167-.334-.287-.847-.526-.1-.047-.151-.071-.194-.104a.5.5 0 0 1-.094-.094 1 1 0 0 1-.104-.194c-.239-.513-.359-.77-.526-.847"/></svg>