<svg xmlns="http://www.w3.org/2000/svg" width="24" height="24" fill="currentColor" viewBox="0 0 10 10"><path d="M6.8 2.4c.553 0 1.4.696 1.4 2s-.847 2-1.4 2h-.63c-.253 0-.38 0-.464.072l-.034.033c-.072.084-.072.211-.072.465v.523a.3.3 0 0 1-.45.257c-.202-.113-.303-.168-.413-.176a1 1 0 0 0-.074 0c-.11.008-.211.063-.413.176s-.304.168-.413.176a1 1 0 0 1-.074 0c-.11-.008-.21-.064-.413-.176-.202-.113-.303-.168-.413-.176a1 1 0 0 0-.074 0c-.11.008-.21.063-.413.176l-.007.004A.3.3 0 0 1 2 7.494V4.4c0-1.305.848-2 1.4-2zm0 .8c-.376 0-.7.448-.7 1.2s.324 1.2.7 1.2c.377 0 .7-.448.7-1.2s-.323-1.2-.7-1.2"/></svg>