<svg xmlns="http://www.w3.org/2000/svg" width="24" height="24" fill="currentColor" viewBox="0 0 10 10"><path d="M5 1.4a.5.5 0 0 1 .5.5c0 .13.099.24.228.264 1.51.283 2.134 1.448 2.36 2.49.088.406.132.61.017.758a.4.4 0 0 1-.054.056c-.142.123-.388.082-.879.001q-.38-.063-.887-.11c-.337-.031-.505-.046-.63.05a.4.4 0 0 0-.048.045c-.107.115-.107.29-.107.642V7.2c0 .173.039.256.062.292a.2.2 0 0 0 .091.076.44.44 0 0 0 .193.034l.026-.002h.029c.076 0 .161-.03.242-.079a1 1 0 0 0 .106-.077.5.5 0 0 1 .769.63l-.065.08-.01.01-.019.018-.06.052c-.05.04-.12.092-.207.144a1.5 1.5 0 0 1-.714.22l-.066.004a1.5 1.5 0 0 1-.63-.12 1.2 1.2 0 0 1-.527-.45Q4.5 7.692 4.5 7.2V6.096c0-.352 0-.527-.106-.642a.4.4 0 0 0-.05-.045c-.123-.096-.292-.081-.629-.05q-.506.047-.888.11c-.49.081-.737.122-.879 0a.4.4 0 0 1-.053-.057c-.115-.148-.07-.352.017-.758.226-1.042.85-2.207 2.36-2.49A.274.274 0 0 0 4.5 1.9a.5.5 0 0 1 .5-.5"/></svg>