<svg xmlns="http://www.w3.org/2000/svg" width="24" height="24" fill="currentColor" viewBox="1.20 1.18 7.62 7.62"><path d="M2.498 3.213c.271.065.418.63.711 1.76l.36 1.382a.353.353 0 1 1-.69.15l-.005-.03c-.02-.114-.03-.17-.068-.207l-.016-.014c-.042-.03-.1-.03-.215-.03h-.371c-.116 0-.173 0-.215.03l-.018.014c-.037.036-.047.093-.067.206l-.005.032a.352.352 0 1 1-.688-.15l.359-1.383c.293-1.13.44-1.695.712-1.76a.5.5 0 0 1 .216 0m5.77.037a.533.533 0 0 1 .435.839l-.88 1.244c-.148.21-.222.315-.227.401a.3.3 0 0 0 .14.27c.073.046.201.047.458.047h.256a.35.35 0 1 1 0 .699H7.13a.531.531 0 0 1-.433-.838l.879-1.245c.148-.21.222-.314.226-.4a.3.3 0 0 0-.14-.27c-.073-.046-.201-.046-.457-.046H6.95a.35.35 0 0 1 0-.701zm-5.81 1.245a.16.16 0 0 0-.136 0c-.075.035-.117.268-.198.732-.021.118-.031.177-.011.222a.16.16 0 0 0 .055.066c.041.028.101.029.221.029s.18 0 .22-.029a.16.16 0 0 0 .057-.066c.02-.045.01-.104-.011-.222-.082-.464-.122-.697-.197-.732M6 4.65a.35.35 0 0 1 0 .7H4.3a.35.35 0 1 1 0-.7z"/></svg>