<svg xmlns="http://www.w3.org/2000/svg" width="24" height="24" fill="currentColor" viewBox="1.35 1.30 7.40 7.40"><path d="M5.7 1.3a.5.5 0 0 1 .5.5l.001.103c.013.151.058.224.185.304.015.01.059.032.146.077a1.65 1.65 0 0 1 .874 1.724c-.065.408-.098.612-.089.673.003.021 0 .006.005.027.013.06.112.23.308.572a1.748 1.748 0 0 1-1.128 2.573c-.167.038-.302.176-.302.347a.5.5 0 0 1-1 0 .3.3 0 0 0-.301-.3h-.198a.3.3 0 0 0-.301.3.5.5 0 0 1-1 0 .3.3 0 0 0-.3-.3h-.362a.5.5 0 0 1 0-1 .3.3 0 0 0 .3-.3V3.4a.3.3 0 0 0-.3-.3.5.5 0 0 1 0-1H3.1a.3.3 0 0 0 .3-.3.5.5 0 0 1 1 0 .3.3 0 0 0 .3.3h.2a.3.3 0 0 0 .3-.3.5.5 0 0 1 .5-.5M4.038 6.15c0 .328 0 .492.09.603a.4.4 0 0 0 .056.055c.11.091.275.091.604.091h1.324a.75.75 0 0 0 0-1.5H4.788c-.33 0-.493 0-.604.091a.4.4 0 0 0-.056.055c-.09.111-.09.275-.09.604m0-2.4c0 .233 0 .35.047.438a.4.4 0 0 0 .164.164c.089.047.205.047.439.047h1.089a.65.65 0 0 0 0-1.3h-1.09c-.233 0-.35 0-.438.048a.4.4 0 0 0-.164.164c-.047.088-.047.205-.047.438"/></svg>