<svg xmlns="http://www.w3.org/2000/svg" width="24" height="24" fill="currentColor" viewBox="1.80 1.70 6.60 6.60"><path d="M3.011 1.792a.5.5 0 0 1 .697.119l.728 1.027c.253.358.38.537.556.558a.4.4 0 0 0 .074.002c.177-.012.313-.184.586-.527l.856-1.082a.5.5 0 0 1 .784.622L6.19 3.904c-.13.163-.194.244-.216.307a.4.4 0 0 0 .247.511c.063.022.167.022.375.022a.45.45 0 0 1 0 .9h-.744a.35.35 0 1 0 0 .7h.644a.45.45 0 0 1 0 .9h-.44c-.144 0-.216 0-.274.02a.4.4 0 0 0-.262.261c-.019.059-.019.13-.019.275a.5.5 0 0 1-1 0c0-.144 0-.216-.018-.275a.4.4 0 0 0-.262-.262c-.058-.018-.13-.018-.274-.018h-.451a.45.45 0 0 1 0-.9h.655a.35.35 0 0 0 0-.7h-.755a.45.45 0 0 1 0-.901c.276 0 .413 0 .497-.04a.4.4 0 0 0 .219-.425c-.015-.09-.095-.203-.254-.428l-.965-1.362a.5.5 0 0 1 .12-.697"/></svg>