<svg xmlns="http://www.w3.org/2000/svg" width="24" height="24" fill="currentColor" viewBox="2.00 2.00 6.00 6.00"><path d="M5 2c1.205 0 2 .84 2 1.8q-.001.316-.109.592c-.103.27-.155.406-.153.467.001.016 0 .011.003.027.008.061.08.183.224.428.15.255.235.553.235.886 0 .602-.276 1.084-.72 1.392C6.06 7.884 5.527 8 5 8c-.528 0-1.06-.116-1.48-.408A1.65 1.65 0 0 1 2.8 6.2c0-.333.085-.631.235-.886.144-.245.216-.367.224-.428l.002-.027c.002-.061-.05-.196-.153-.466A1.7 1.7 0 0 1 3 3.8C3 2.84 3.794 2 5 2m0 3.55c-.358 0-.623.09-.78.207A.51.51 0 0 0 4 6.2c0 .197.073.317.205.408.155.108.423.192.795.192.371 0 .639-.084.794-.192A.45.45 0 0 0 6 6.2a.51.51 0 0 0-.22-.443c-.157-.116-.422-.207-.78-.207M5 3.2c-.602 0-.8.36-.8.6 0 .129.052.254.163.353.11.099.31.197.637.197.326 0 .526-.098.637-.197.111-.1.163-.224.163-.353 0-.24-.198-.6-.8-.6"/></svg>