<svg xmlns="http://www.w3.org/2000/svg" width="24" height="24" fill="currentColor" viewBox="1.96 2.00 6.00 6.00"><path d="M4.864 2c.708 0 1.251.292 1.607.706.336.393.493.88.493 1.293 0 .517-.231.955-.493 1.294-.263.34-.604.642-.925.9-.167.134-.076.407.138.407h.78a.7.7 0 0 1 0 1.4h-2.72c-.031 0-.194.005-.349-.039a.87.87 0 0 1-.5-.378 1 1 0 0 1-.09-.18.88.88 0 0 1-.023-.553c.054-.18.168-.314.174-.321.21-.272.527-.527.808-.741.314-.241.603-.445.906-.688.293-.235.532-.455.693-.663.162-.21.201-.35.201-.438a.65.65 0 0 0-.156-.381c-.095-.11-.253-.218-.544-.218a.88.88 0 0 0-.776.417.7.7 0 0 1-1.25-.63v-.002h.001v-.001l.001-.002.001-.002.004-.006.008-.016.027-.048q.033-.056.09-.14c.078-.11.194-.251.354-.393a2.28 2.28 0 0 1 1.54-.578"/></svg>