<svg xmlns="http://www.w3.org/2000/svg" width="24" height="24" fill="currentColor" viewBox="2.00 2.00 6.00 6.00"><path d="M5 2c.722 0 1.314.406 1.701.964.386.556.599 1.294.599 2.089C7.3 6.59 6.443 8 5 8S2.7 6.59 2.7 5.053c0-.795.212-1.533.598-2.09C3.685 2.407 4.278 2 5 2m-.381 4.052c-.15.167-.225.25-.212.382.002.014.007.04.011.054.037.128.108.162.248.23A.8.8 0 0 0 5 6.8c.47 0 1.1-.512 1.1-1.747 0-.241-.287-.326-.448-.147zM5 3.2c-.234 0-.492.128-.716.45-.224.323-.385.812-.385 1.404 0 .226.267.307.418.14L5.41 3.98c.144-.159.215-.238.21-.36l-.007-.052c-.026-.12-.09-.161-.216-.245A.7.7 0 0 0 5 3.2"/></svg>