<svg xmlns="http://www.w3.org/2000/svg" width="24" height="24" fill="currentColor" viewBox="2.00 2.00 6.00 6.00"><path d="M5 5.6c.91 0 1.475.518 1.695 1.25.08.27.121.406.029.558a1 1 0 0 1-.044.06c-.12.132-.293.132-.64.132H3.96c-.348 0-.521 0-.64-.133a1 1 0 0 1-.045-.06c-.093-.151-.052-.287.029-.558.22-.73.785-1.249 1.695-1.249M2.046 2.611a.4.4 0 0 1 .541-.164l1.334.71a.5.5 0 0 1 0 .884l-1.334.712a.4.4 0 0 1-.377-.707l.21-.112c.26-.139.39-.208.402-.313a.2.2 0 0 0 0-.043c-.011-.105-.141-.175-.402-.314l-.21-.112a.4.4 0 0 1-.164-.541m5.364-.164a.4.4 0 0 1 .377.705l-.21.112c-.26.14-.39.209-.402.314a.2.2 0 0 0 0 .043c.012.105.142.174.402.313l.21.112a.4.4 0 0 1-.377.707L6.077 4.04a.5.5 0 0 1 0-.883z"/></svg>