<svg xmlns="http://www.w3.org/2000/svg" width="24" height="24" fill="currentColor" viewBox="2.00 2.00 6.00 6.00"><path d="M3.046 5.997a.5.5 0 0 1 .707 0l.008.006q.017.016.057.047a1.95 1.95 0 0 0 2.42-.047l.009-.006.078-.065a.501.501 0 0 1 .629.772l-.017.016-.031.029a2.799 2.799 0 0 1-.491.34 2.95 2.95 0 0 1-3.32-.34l-.032-.029-.017-.016a.5.5 0 0 1 0-.707M2.047 2.76a.4.4 0 0 1 .541-.164l1.334.711a.5.5 0 0 1 0 .883l-1.334.712a.4.4 0 0 1-.377-.706l.21-.112c.26-.14.391-.209.402-.314a.2.2 0 0 0 0-.043c-.011-.105-.141-.175-.402-.314l-.21-.112a.4.4 0 0 1-.164-.54m5.365-.164a.4.4 0 0 1 .377.705l-.21.112c-.26.14-.391.209-.402.314a.2.2 0 0 0 0 .043c.01.105.141.175.402.314l.21.112a.4.4 0 0 1-.377.706L6.078 4.19a.5.5 0 0 1 0-.883z"/></svg>