<svg xmlns="http://www.w3.org/2000/svg" width="24" height="24" fill="currentColor" viewBox="2.10 2.11 5.80 5.80"><path d="M5 5.65a2.95 2.95 0 0 1 1.906.701l.031.03.014.013.002.001.064.08a.5.5 0 0 1-.691.692l-.077-.062-.002-.001v-.001l-.008-.006-.057-.047a1.95 1.95 0 0 0-2.364 0l-.057.047-.009.006a.5.5 0 1 1-.706-.707h.001v-.001l.002-.001.014-.014.031-.029a2.825 2.825 0 0 1 .491-.34c.33-.18.813-.361 1.415-.361M3.753 7.104H3.75l.001-.001zM2.9 2.75c.5 0 .8.4.8 1s-.3 1-.8 1-.8-.4-.8-1 .3-1 .8-1m4.2 0c.5 0 .8.4.8 1s-.3 1-.8 1-.8-.4-.8-1 .3-1 .8-1"/></svg>