<svg xmlns="http://www.w3.org/2000/svg" width="24" height="24" fill="currentColor" viewBox="1.81 1.81 6.39 6.39"><path d="M6.04 5.25c.347 0 .52 0 .64.132a1 1 0 0 1 .044.06c.092.152.052.287-.03.558C6.476 6.731 5.91 7.25 5 7.25c-.91 0-1.476-.519-1.695-1.25-.081-.27-.122-.406-.03-.559a1 1 0 0 1 .045-.06c.119-.132.293-.131.64-.131zM3.1 2.75c.39 0 .692.155.886.297a1.7 1.7 0 0 1 .306.293l.007.009.002.003.002.002c-.003.003-.035.027-.403.296l.404-.296a.501.501 0 0 1-.74.667l-.066-.074v.001l-.015-.017a1 1 0 0 0-.088-.077.5.5 0 0 0-.295-.104.5.5 0 0 0-.295.104 1 1 0 0 0-.088.077l-.017.017a.5.5 0 0 1-.803-.594l.002-.002.003-.003.006-.01.019-.024q.023-.028.062-.07c.052-.056.128-.127.225-.198.194-.142.496-.297.886-.297m3.8 0c.39 0 .691.155.885.297a1.7 1.7 0 0 1 .307.293l.007.009.002.003.002.002-.404.296.405-.296a.501.501 0 0 1-.74.667l-.066-.074v.001l-.016-.017a1 1 0 0 0-.087-.077.5.5 0 0 0-.295-.104.5.5 0 0 0-.295.104 1 1 0 0 0-.088.077l-.017.017a.5.5 0 0 1-.803-.594l.001-.002.003-.003.007-.01.019-.024.062-.07c.052-.056.128-.127.225-.198.194-.142.495-.297.886-.297"/></svg>