<svg xmlns="http://www.w3.org/2000/svg" width="24" height="24" fill="currentColor" viewBox="1.89 1.89 6.22 6.22"><path d="M6.04 5.704c.347 0 .521 0 .64.133a1 1 0 0 1 .045.06c.092.152.051.288-.03.558-.22.731-.785 1.25-1.695 1.25s-1.476-.519-1.695-1.25c-.082-.27-.122-.406-.03-.558a1 1 0 0 1 .044-.06c.12-.132.293-.133.64-.133zM2.938 2.343a.3.3 0 0 1 .324 0c.08.051.14.198.26.491.025.06.037.089.054.114a.3.3 0 0 0 .08.081c.026.018.056.03.115.054.293.12.44.18.49.26a.3.3 0 0 1 0 .323c-.05.08-.197.14-.49.26-.059.024-.09.036-.115.054a.3.3 0 0 0-.08.08.6.6 0 0 0-.054.115c-.12.293-.18.44-.26.491a.3.3 0 0 1-.324 0c-.08-.051-.14-.198-.26-.491a.6.6 0 0 0-.053-.114.3.3 0 0 0-.081-.081.7.7 0 0 0-.114-.054c-.293-.12-.44-.18-.492-.26a.3.3 0 0 1 0-.323c.052-.08.199-.14.492-.26a.7.7 0 0 0 .114-.054.3.3 0 0 0 .08-.08.6.6 0 0 0 .055-.115c.12-.293.18-.44.26-.491m3.801 0a.3.3 0 0 1 .322 0c.08.051.141.198.261.491a.6.6 0 0 0 .054.114q.032.049.08.081c.026.018.056.03.115.054.293.12.44.18.49.26a.3.3 0 0 1 0 .323c-.05.08-.197.14-.49.26-.06.024-.09.036-.115.054a.3.3 0 0 0-.08.08.6.6 0 0 0-.054.115c-.12.293-.18.44-.26.491a.3.3 0 0 1-.323 0c-.08-.051-.14-.198-.26-.491a.6.6 0 0 0-.054-.114.3.3 0 0 0-.08-.081c-.026-.018-.056-.03-.116-.054-.292-.12-.439-.18-.49-.26a.3.3 0 0 1 0-.323c.051-.08.198-.14.49-.26.06-.024.09-.036.116-.054a.3.3 0 0 0 .08-.08.6.6 0 0 0 .053-.115c.12-.293.181-.44.261-.491"/></svg>