<svg xmlns="http://www.w3.org/2000/svg" width="24" height="24" fill="currentColor" viewBox="0.63 0.63 8.74 8.74"><path d="M6.062 5.25c.347 0 .521 0 .64.132a1 1 0 0 1 .044.06c.093.152.052.287-.03.558-.219.73-.784 1.25-1.695 1.25-.91 0-1.475-.52-1.695-1.25-.081-.27-.122-.406-.03-.559a1 1 0 0 1 .045-.06c.119-.132.293-.131.64-.131zM1.94 5.08a.4.4 0 0 1 .079.028c.18.089.221.304.301.736.042.222.07.434.065.583-.015.473-.471.998-1.162.747-.691-.252-.703-.947-.41-1.32.091-.116.25-.261.423-.405.34-.279.509-.418.704-.369m6.12 0c.195-.049.365.09.704.37.174.143.332.288.424.404.292.373.28 1.068-.41 1.32-.691.251-1.148-.274-1.163-.747a3 3 0 0 1 .065-.583c.08-.432.12-.647.301-.736a.4.4 0 0 1 .079-.028M3.12 2.75c.39 0 .692.155.886.297a1.7 1.7 0 0 1 .307.293l.006.009.002.003.002.002c-.005.004-.048.037-.403.296l.404-.296a.5.5 0 0 1-.739.667l-.066-.074v.001l-.016-.017a1 1 0 0 0-.088-.077.5.5 0 0 0-.295-.104.5.5 0 0 0-.295.104 1 1 0 0 0-.088.077l-.016.017a.5.5 0 0 1-.804-.594h.001v-.002l.004-.003.007-.01.018-.024q.024-.028.063-.07c.052-.056.127-.127.224-.198.194-.142.496-.297.886-.297m3.8 0c.391 0 .693.155.887.297a1.7 1.7 0 0 1 .306.293l.007.009.002.003.002.002c-.003.003-.038.03-.403.296l.404-.296a.501.501 0 0 1-.74.667l-.066-.074v.001l-.015-.017a1 1 0 0 0-.088-.077.5.5 0 0 0-.295-.104.5.5 0 0 0-.295.104 1 1 0 0 0-.088.077l-.017.017a.5.5 0 0 1-.803-.594l.002-.002.003-.003.006-.01.019-.024q.023-.028.063-.07a1.7 1.7 0 0 1 .224-.198c.194-.142.496-.297.886-.297"/></svg>