<svg xmlns="http://www.w3.org/2000/svg" width="24" height="24" fill="currentColor" viewBox="1.76 1.76 6.48 6.48"><path d="M6.045 5.78c.348 0 .522 0 .641.133a1 1 0 0 1 .045.06c.093.151.052.287-.03.558-.219.73-.785 1.25-1.696 1.25S3.53 7.26 3.31 6.53c-.081-.27-.122-.407-.03-.559a1 1 0 0 1 .046-.06c.119-.131.292-.131.64-.131zm.76-3.487a.3.3 0 0 1 .33 0c.068.045.122.156.23.376.033.066.049.099.071.125q.05.06.122.09c.032.012.069.017.14.028.245.035.367.053.43.103a.3.3 0 0 1 .102.315c-.022.078-.11.164-.286.336a.7.7 0 0 0-.097.105.3.3 0 0 0-.047.144c-.002.034.005.07.017.142.042.243.062.365.034.44a.3.3 0 0 1-.268.195c-.08.003-.19-.054-.408-.168a.7.7 0 0 0-.13-.06.3.3 0 0 0-.151 0 .7.7 0 0 0-.13.06c-.219.114-.328.171-.409.168a.3.3 0 0 1-.268-.194c-.028-.076-.007-.198.035-.44.012-.073.018-.109.016-.143a.3.3 0 0 0-.047-.144.7.7 0 0 0-.096-.105c-.177-.172-.265-.258-.287-.336a.3.3 0 0 1 .102-.315c.063-.05.186-.068.43-.103.072-.01.108-.016.14-.029a.3.3 0 0 0 .122-.089c.022-.026.038-.06.07-.125.11-.22.165-.33.232-.376m-3.94-.024a.3.3 0 0 1 .332 0c.067.045.122.155.231.376.032.065.049.098.07.125a.3.3 0 0 0 .123.089c.032.012.068.018.14.028.244.036.365.053.429.104.094.075.135.2.102.315-.021.078-.11.164-.286.336-.052.051-.079.076-.097.106a.3.3 0 0 0-.046.143.6.6 0 0 0 .015.143c.042.242.063.364.035.44a.3.3 0 0 1-.268.194c-.081.004-.19-.054-.408-.169-.064-.033-.097-.05-.13-.06a.3.3 0 0 0-.151 0c-.034.01-.066.027-.13.06-.218.115-.328.173-.409.17a.3.3 0 0 1-.268-.195c-.029-.076-.008-.198.034-.44.012-.072.019-.108.017-.143a.3.3 0 0 0-.047-.143.7.7 0 0 0-.097-.106c-.176-.172-.264-.258-.286-.336a.3.3 0 0 1 .103-.315c.063-.05.185-.068.428-.104.072-.01.109-.015.14-.028a.3.3 0 0 0 .123-.089c.022-.027.038-.06.07-.125.11-.22.164-.331.232-.376"/></svg>