<svg xmlns="http://www.w3.org/2000/svg" width="24" height="24" fill="currentColor" viewBox="1.50 1.70 6.60 6.60"><path d="M5.6 1.7c.644 0 1.148.176 1.494.357a2.8 2.8 0 0 1 .51.342l.032.03.01.01.007.006v.001h.001a.5.5 0 0 1-.63.77l-.073-.058-.002-.001-.001-.001v-.002h-.001l-.006-.005-.056-.045c-.053-.042-.139-.1-.254-.16A2.2 2.2 0 0 0 5.6 2.7c-.539 0-.938.25-1.22.66-.072.104.01.24.138.24H5.8a.5.5 0 0 1 0 1H4.351c-.03 0-.045 0-.065.002a.43.43 0 0 0-.359.358L3.925 5l.002.04a.43.43 0 0 0 .359.358c.02.002.035.002.065.002h1.45a.5.5 0 0 1 0 1H4.517c-.127 0-.21.136-.138.24.282.41.681.66 1.22.66.456 0 .802-.124 1.031-.243a1.8 1.8 0 0 0 .31-.205l.007-.008-.001.003.078-.065a.5.5 0 0 1 .693.694l-.064.078-.018.017a1.4 1.4 0 0 1-.142.12 3 3 0 0 1-.4.252c-.346.18-.85.357-1.494.357-.91 0-1.6-.45-2.043-1.091a3 3 0 0 1-.188-.312c-.13-.248-.196-.371-.278-.427l-.037-.023c-.089-.047-.206-.047-.44-.047H2.3a.5.5 0 0 1 0-1h.244a.39.39 0 0 0 .381-.4c0-.215-.166-.4-.381-.4H2.3a.5.5 0 0 1 0-1h.314c.234 0 .351 0 .44-.047l.037-.023c.082-.056.147-.18.278-.427q.085-.162.188-.312C4 2.15 4.69 1.701 5.6 1.701"/></svg>