<svg xmlns="http://www.w3.org/2000/svg" width="24" height="24" fill="currentColor" viewBox="1.70 1.70 6.60 6.60"><path d="M5.01 1.838c.496-.203 1.489-.281 2.175.542a.5.5 0 0 1-.769.64c-.314-.376-.781-.358-1.026-.258-.34.14-.485.35-.559.641a2.3 2.3 0 0 0-.06.48c-.01.303-.014.455.082.572l.044.046c.114.1.28.1.61.1H5.9a.5.5 0 0 1 0 1h-.316c-.317 0-.475 0-.58.075a.4.4 0 0 0-.043.036c-.093.09-.126.273-.193.641-.066.36-.099.54-.089.606.028.185.09.26.267.32.063.021.2.021.476.021H6.8a.5.5 0 0 1 0 1H3.58c-.108 0-.219 0-.302-.005a1 1 0 0 1-.174-.03.55.55 0 0 1-.388-.427c-.044-.247.1-.415.125-.444a1 1 0 0 1 .128-.122c.067-.053.162-.118.258-.184.33-.226.485-.528.555-.914.022-.118.033-.178.018-.253a.44.44 0 0 0-.245-.293C3.485 5.6 3.407 5.6 3.252 5.6H3.2a.5.5 0 0 1 0-1c.153 0 .23 0 .288-.018.13-.04.22-.131.261-.26.02-.058.02-.142.02-.31.002-.289.024-.581.093-.854.142-.56.48-1.047 1.149-1.32"/></svg>