<svg xmlns="http://www.w3.org/2000/svg" width="24" height="24" fill="currentColor" viewBox="1.70 1.60 6.70 6.70"><path d="M7.3 1.6a.5.5 0 0 1 0 1h-.537c-.156 0-.233 0-.273.018a.18.18 0 0 0-.116.165c-.004.043.027.128.088.298.027.075.04.113.056.135.029.04.061.063.109.076.026.008.06.008.127.008H7.3a.5.5 0 0 1 0 1h-.436c-.135 0-.203 0-.251.03l-.02.014c-.044.036-.07.109-.122.255-.173.49-.511.902-.948 1.17-.39.238-.585.358-.598.452a.2.2 0 0 0-.001.04c.006.095.16.205.47.424l.996.707a.5.5 0 0 1-.58.815L2.739 6.026h-.002v-.001l-.003-.002-.008-.006a.51.51 0 0 1 .292-.917H4.35c.333 0 .635-.13.859-.343.136-.13.204-.194.173-.309a.3.3 0 0 0-.018-.044C5.307 4.3 5.192 4.3 4.961 4.3H2.9a.5.5 0 0 1 0-1h1.96c.247 0 .37 0 .423-.115a.3.3 0 0 0 .016-.048c.024-.124-.057-.183-.217-.3A1.24 1.24 0 0 0 4.35 2.6H2.8a.5.5 0 0 1 0-1z"/></svg>