<svg xmlns="http://www.w3.org/2000/svg" width="24" height="24" fill="currentColor" viewBox="1.20 1.18 7.62 7.62"><path d="M2.497 3.213c.272.065.419.63.712 1.76l.36 1.382a.353.353 0 1 1-.69.15l-.005-.03c-.02-.114-.03-.17-.067-.207l-.018-.014c-.042-.03-.1-.03-.215-.03h-.37c-.116 0-.174 0-.216.03l-.016.014c-.038.036-.048.093-.068.206l-.005.032a.352.352 0 1 1-.688-.15l.358-1.383c.294-1.13.44-1.695.712-1.76a.5.5 0 0 1 .216 0m2.48.037c.59 0 1.07.479 1.07 1.07q0 .155-.059.299l-.061.147a.34.34 0 0 0 .039.33l.068.094a.84.84 0 0 1 .157.487c0 .592-.481 1.072-1.074 1.073-.495 0-.743 0-.909-.137a.6.6 0 0 1-.081-.081c-.137-.166-.137-.414-.137-.91V4.237c0-.36 0-.541.076-.677a.6.6 0 0 1 .233-.234c.136-.075.317-.075.678-.075m2.928.002c.249 0 .454.091.586.17a1.4 1.4 0 0 1 .207.154l.015.013.008.007v.001a.35.35 0 0 1-.44.54l-.054-.044-.018-.015a1 1 0 0 0-.077-.055.46.46 0 0 0-.227-.072.585.585 0 0 0-.584.584v.93c0 .323.262.585.584.585.077 0 .157-.03.227-.073a1 1 0 0 0 .077-.054l.018-.015a.35.35 0 0 1 .494.495l-.247-.247.247.248-.008.008-.015.013a1 1 0 0 1-.207.153c-.132.08-.337.17-.586.17a1.283 1.283 0 0 1-1.283-1.282v-.931c0-.709.575-1.283 1.283-1.283m-2.962 2.04a.379.379 0 0 0 0 .758h.225a.38.38 0 1 0 0-.758zm-2.486-.797a.16.16 0 0 0-.136 0c-.075.035-.116.267-.198.731-.02.118-.03.178-.01.223a.16.16 0 0 0 .055.066c.04.028.1.029.22.029s.18 0 .221-.029a.16.16 0 0 0 .056-.066c.02-.045.01-.104-.01-.222-.082-.464-.123-.697-.198-.732m2.457-.545a.35.35 0 0 0-.35.35v.058c0 .194.157.35.35.35h.11a.38.38 0 1 0 0-.758z"/></svg>