<svg xmlns="http://www.w3.org/2000/svg" width="24" height="24" fill="currentColor" viewBox="2.00 2.00 6.00 6.00"><path d="M4.94 2.004C6.365 2.084 7.5 3.395 7.5 5l-.014.307a3 3 0 0 1-.093.528c-.076.291-.114.437-.089.537l.013.042c.037.097.13.177.319.339l.02.016a.7.7 0 0 1-.912 1.063c-.157-.135-.236-.203-.315-.227a.3.3 0 0 0-.134-.018c-.083.003-.202.06-.44.173-.324.154-.68.24-1.054.24l-.14-.004c-1.426-.08-2.56-1.39-2.56-2.996 0-1.657 1.208-3 2.7-3zM4.8 3.401c-.582 0-1.3.573-1.3 1.6 0 1.025.718 1.599 1.3 1.599S6.1 6.026 6.1 5s-.717-1.6-1.3-1.6"/></svg>