<svg xmlns="http://www.w3.org/2000/svg" width="24" height="24" fill="currentColor" viewBox="1.62 1.61 6.77 6.77"><path d="M7.763 2c.417 0 .716.402.596.802L6.927 7.575A.597.597 0 0 1 5.78 7.56l-.047-.172c-.278-1.02-.418-1.531-.682-1.566a.4.4 0 0 0-.103 0c-.264.035-.404.546-.682 1.566l-.046.17a.597.597 0 0 1-1.148.016L1.64 2.802a.623.623 0 0 1 1.193-.359L3.179 3.6c.128.427.193.64.296.7a.3.3 0 0 0 .285.009c.107-.054.182-.265.333-.685.28-.78.421-1.17.627-1.28a.6.6 0 0 1 .56 0c.206.11.346.5.626 1.28.15.42.226.63.333.685a.3.3 0 0 0 .285-.008c.103-.06.168-.274.296-.701l.347-1.157A.62.62 0 0 1 7.763 2"/></svg>