<svg xmlns="http://www.w3.org/2000/svg" width="24" height="24" fill="currentColor" viewBox="2.00 2.00 5.99 5.99"><path d="M6.829 2c.561 0 .88.644.538 1.09l-.89 1.165c-.234.306-.351.46-.38.633a.7.7 0 0 0 0 .224c.029.174.146.327.38.633l.89 1.165a.678.678 0 0 1-1.07.832l-.7-.887c-.26-.329-.39-.493-.561-.509a.4.4 0 0 0-.073 0c-.17.016-.3.18-.56.51l-.699.885a.679.679 0 0 1-1.072-.833l.89-1.163c.234-.306.351-.46.38-.633a.7.7 0 0 0 0-.224c-.029-.173-.146-.327-.38-.633l-.89-1.165a.678.678 0 0 1 1.072-.832l.699.887c.26.328.39.493.56.508a.4.4 0 0 0 .073 0c.17-.015.3-.18.56-.508l.7-.887A.68.68 0 0 1 6.83 2"/></svg>