<svg xmlns="http://www.w3.org/2000/svg" width="24" height="24" fill="currentColor" viewBox="2.03 2.00 6.01 6.01"><path d="M5.3 2a2.001 2.001 0 0 1 0 4.001h-.06c-.508 0-.762 0-.93.144a1 1 0 0 0-.067.066c-.143.169-.143.422-.143.93v.218a.65.65 0 0 1-1.3-.008V3.9c0-.846 0-1.27.24-1.55q.05-.06.11-.112C3.43 2 3.854 2 4.7 2zm-.566 1.302c-.265 0-.398 0-.49.068a.4.4 0 0 0-.075.073c-.068.093-.068.226-.068.492v.132c0 .266 0 .399.068.492a.4.4 0 0 0 .074.073c.093.068.226.07.491.07h.567a.7.7 0 0 0 0-1.4z"/></svg>