<svg xmlns="http://www.w3.org/2000/svg" width="24" height="24" fill="currentColor" viewBox="2.00 2.00 6.00 6.00"><path d="M7.5 7.097c0 .096 0 .143-.004.184a.8.8 0 0 1-.715.715C6.74 8 6.693 8 6.597 8c-.055 0-.083 0-.108-.002a.8.8 0 0 1-.595-.327c-.016-.021-.03-.044-.06-.09l-.701-1.109c-.396-.625-.594-.938-.777-.964a.4.4 0 0 0-.316.091c-.14.12-.14.49-.14 1.231v.47a.7.7 0 0 1-1.4 0V2.903c0-.096 0-.144.004-.184a.8.8 0 0 1 .715-.715C3.26 2 3.307 2 3.403 2c.055 0 .083 0 .108.002a.8.8 0 0 1 .595.327c.016.021.03.044.06.091l.7 1.107c.396.625.594.938.777.964a.4.4 0 0 0 .316-.092c.14-.12.14-.49.14-1.23V2.7a.7.7 0 0 1 .7-.7H6.8a.7.7 0 0 1 .7.7z"/></svg>