<svg xmlns="http://www.w3.org/2000/svg" width="24" height="24" fill="currentColor" viewBox="2.00 2.01 6.00 6.00"><path d="M5.094 2.013c.468.055.749.742 1.312 2.114l1.188 2.896a.716.716 0 1 1-1.348.48l-.068-.224c-.047-.153-.07-.23-.127-.278l-.026-.019c-.061-.04-.142-.04-.302-.04H4.277c-.16 0-.24 0-.302.04l-.026.02c-.056.047-.08.124-.126.277l-.068.224a.716.716 0 1 1-1.349-.48l1.187-2.896c.564-1.372.846-2.059 1.313-2.114a.8.8 0 0 1 .188 0m-.647 3.216c-.08.265-.12.398-.063.493a.3.3 0 0 0 .028.038c.074.083.213.083.49.083H5.1c.277 0 .415 0 .49-.083a.3.3 0 0 0 .027-.038c.058-.095.018-.228-.063-.493l-.099-.325c-.175-.575-.262-.862-.422-.882a.3.3 0 0 0-.064 0c-.16.02-.248.307-.423.882z"/></svg>