<svg xmlns="http://www.w3.org/2000/svg" width="24" height="24" fill="currentColor" viewBox="2.00 1.95 6.00 6.00"><path d="M7.4 2.6a.6.6 0 1 1 0 1.2c-.093 0-.14 0-.178.008a.4.4 0 0 0-.314.314c-.008.039-.008.085-.008.178v1.3c0 .093 0 .14.008.178a.4.4 0 0 0 .314.314c.039.008.085.008.178.008a.6.6 0 0 1 0 1.2h-.6a1.1 1.1 0 0 1-1.1-1.1V4.428c0-.212 0-.317-.038-.4a.4.4 0 0 0-.189-.188c-.082-.039-.188-.039-.4-.039-.243 0-.365 0-.447.04a.37.37 0 0 0-.189.189c-.039.082-.038.223-.037.506v.015c0 .808-.235 1.876-1.24 2.63a.6.6 0 0 1-.72-.96c.594-.446.76-1.079.76-1.67q0-.123-.008-.24C3.18 4.157 3.175 4.08 3.128 4a.44.44 0 0 0-.17-.158c-.083-.04-.175-.04-.358-.04a.6.6 0 1 1 0-1.2z"/></svg>