<svg xmlns="http://www.w3.org/2000/svg" width="24" height="24" fill="currentColor" viewBox="1.75 1.70 6.60 6.60"><path d="M5.8 1.7a1.8 1.8 0 0 1 0 3.6h-.9a.4.4 0 1 0 0 .8h.7a.5.5 0 0 1 0 1h-.4c-.28 0-.421 0-.522.068a.4.4 0 0 0-.11.11c-.068.1-.068.241-.068.522a.5.5 0 0 1-1 0v-.2c0-.093 0-.14-.007-.178a.4.4 0 0 0-.315-.314C3.14 7.1 3.093 7.1 3 7.1a.5.5 0 0 1 0-1h.1a.4.4 0 1 0 0-.8H3a.5.5 0 0 1 0-1c.093 0 .14 0 .178-.007a.4.4 0 0 0 .315-.314c.007-.04.007-.086.007-.179V2.643c0-.52.422-.942.943-.942zM4.5 3.54c0 .339 0 .508.096.62a.4.4 0 0 0 .045.045c.112.095.281.095.62.095h.54a.8.8 0 0 0 0-1.6h-.54c-.339 0-.508 0-.62.097a.4.4 0 0 0-.045.044c-.096.112-.096.281-.096.62z"/></svg>