<svg xmlns="http://www.w3.org/2000/svg" width="24" height="24" fill="currentColor" viewBox="1.95 2.06 6.16 6.16"><path d="M7.409 2.317a.7.7 0 0 1 0 1.4h-.544c-.116 0-.174 0-.221.027l-.02.013c-.043.033-.066.087-.11.194L5.032 7.528l-.004.006a1 1 0 0 1-.051.096l-.019.03a1 1 0 0 1-.061.074l-.029.03a1 1 0 0 1-.06.05q-.028.021-.056.04-.008.006-.015.01c-.012.008-.025.01-.037.017q-.034.018-.07.032a.7.7 0 0 1-.136.036l-.05.005a1 1 0 0 1-.092.002l-.033-.003a1 1 0 0 1-.105-.017l-.022-.008c-.025-.007-.05-.011-.075-.021l-.033-.018-.012-.007a1 1 0 0 1-.105-.063l-.011-.01a1 1 0 0 1-.09-.085q-.003 0-.004-.003a.7.7 0 0 1-.079-.11L3.78 7.61l-.786-1.362c-.05-.088-.076-.132-.116-.158l-.018-.01c-.043-.022-.094-.022-.195-.022h-.013a.7.7 0 0 1 0-1.4h.6a.7.7 0 0 1 .642.347c.16.278.24.417.35.422a.2.2 0 0 0 .044-.002c.108-.02.168-.166.29-.458l.92-2.224a.7.7 0 0 1 .714-.426z"/></svg>