<svg xmlns="http://www.w3.org/2000/svg" width="24" height="24" fill="currentColor" viewBox="1.40 1.25 7.50 7.50"><path d="M5 1.25a.45.45 0 0 1 .45.45v.273c0 .07.057.126.127.126a1.65 1.65 0 0 1 1.617 1.975c-.08.401-.121.602-.115.663l.004.027c.01.06.101.234.282.58A1.75 1.75 0 0 1 5.812 7.9a.36.36 0 0 0-.361.36v.04a.45.45 0 0 1-.9 0 .4.4 0 0 0-.4-.4h-.419c-.097 0-.216 0-.317-.012a.76.76 0 0 1-.496-.254.76.76 0 0 1-.17-.41c-.012-.102-.011-.22-.011-.318V3.094c0-.098 0-.217.012-.318a.76.76 0 0 1 .17-.41l.037-.038.046-.044a.4.4 0 0 1 .056-.041l.053-.037a.8.8 0 0 1 .303-.095c.1-.012.22-.012.317-.012h.419a.4.4 0 0 0 .4-.399.45.45 0 0 1 .45-.45m.45 5.289c0 .199.162.36.361.36a.75.75 0 0 0 0-1.5.36.36 0 0 0-.36.36zm-1.712-.046v.011a.4.4 0 0 0 .395.395h.022a.4.4 0 0 0 .395-.395v-.709a.4.4 0 0 0-.395-.396h-.022a.4.4 0 0 0-.395.395v.699m1.713-2.22c0 .07.056.126.126.126a.65.65 0 0 0 0-1.3.126.126 0 0 0-.126.126zm-1.713-.28v.011a.4.4 0 0 0 .395.395h.022a.4.4 0 0 0 .395-.395v-.51a.4.4 0 0 0-.395-.395h-.022a.4.4 0 0 0-.395.395v.499"/></svg>