<svg xmlns="http://www.w3.org/2000/svg" width="24" height="24" fill="currentColor" viewBox="1.80 1.70 6.59 6.59"><path d="M4.7 1.7a.5.5 0 0 1 .5.5c0 .173.175.292.335.228l.48-.192a.5.5 0 1 1 .37.928l-.945.378a.382.382 0 0 0 .284.71l.29-.116a.5.5 0 0 1 .371.927l-.707.283c-.219.088-.328.131-.395.218l-.027.04c-.056.094-.056.212-.056.448v.271c0 .402 0 .603.193.72.02.012.06.03.083.038.214.07.327-.028.554-.223.308-.266.445-.585.48-.755a.5.5 0 0 1 .98.195c-.124.619-.772 1.788-2.35 1.976-.064.008-.166.021-.258.019a.69.69 0 0 1-.49-.212.7.7 0 0 1-.18-.393c-.013-.091-.012-.196-.012-.268v-.605c0-.255 0-.383-.044-.469a.4.4 0 0 0-.32-.216c-.095-.009-.214.039-.45.134a.5.5 0 1 1-.372-.929l.946-.379a.382.382 0 1 0-.284-.708l-.29.116a.5.5 0 1 1-.372-.928l.708-.284c.219-.087.328-.131.395-.218l.027-.04c.056-.094.056-.212.056-.447V2.2a.5.5 0 0 1 .5-.5"/></svg>