<svg xmlns="http://www.w3.org/2000/svg" width="24" height="24" fill="currentColor" viewBox="1.30 1.30 7.40 7.40"><path d="M5 1.3a.5.5 0 0 1 .5.5V2a.194.194 0 0 0 .152.175l.053.009c.375.055.764.167 1.034.36a.5.5 0 0 1-.58.813c-.08-.057-.286-.138-.6-.184-.299-.044-.64-.048-.95.003-.316.051-.554.151-.696.273-.118.102-.188.231-.167.452.016.16.095.278.332.398.265.133.628.215 1.077.313.413.09.912.196 1.313.397.428.215.818.579.878 1.193a1.36 1.36 0 0 1-.621 1.312 2.4 2.4 0 0 1-.923.34c-.122.022-.183.032-.222.061a.2.2 0 0 0-.058.07c-.022.042-.022.1-.022.214a.5.5 0 0 1-1 0c0-.131 0-.197-.03-.245a.2.2 0 0 0-.04-.046c-.042-.037-.11-.048-.247-.07a4 4 0 0 1-.2-.037c-.423-.09-.848-.236-1.134-.45a.5.5 0 0 1 .6-.8c.113.085.37.193.74.271.355.075.761.11 1.133.085.382-.025.674-.11.847-.225.14-.093.2-.197.182-.383-.016-.16-.095-.277-.333-.397-.264-.133-.627-.215-1.076-.313-.412-.09-.913-.195-1.313-.397C3.2 4.978 2.81 4.613 2.75 4c-.054-.553.15-.999.509-1.308.334-.288.775-.435 1.19-.503a.06.06 0 0 0 .05-.058V1.8a.5.5 0 0 1 .5-.5"/></svg>