<svg xmlns="http://www.w3.org/2000/svg" width="24" height="24" fill="currentColor" viewBox="2.00 2.00 6.00 6.00"><path d="M7.277 2.01c.074.009.174.03.276.087l.057.04.055.042.028.028.047.05.023.033.04.057a.7.7 0 0 1 .087.275c.01.086.01.186.01.258v4.24c0 .072 0 .172-.01.258a.7.7 0 0 1-.236.454.7.7 0 0 1-.377.158C7.191 8 7.091 8 7.02 8H6.1a.5.5 0 0 1 0-1h.1c.28 0 .42 0 .522-.067a.4.4 0 0 0 .11-.11c.067-.102.067-.242.067-.523s0-.422-.067-.523a.4.4 0 0 0-.11-.11C6.62 5.6 6.48 5.6 6.199 5.6H3.86c-.338 0-.507 0-.62.095a.4.4 0 0 0-.044.045c-.095.112-.095.281-.095.62V7.5a.5.5 0 0 1-1 0V2.88c0-.072-.001-.172.01-.258a.7.7 0 0 1 .158-.377l.03-.03.05-.048.05-.037.048-.033a.7.7 0 0 1 .276-.087C2.808 2 2.908 2 2.979 2h4.04c.072 0 .172 0 .258.01M3.1 3.9c0 .28 0 .421.067.522a.4.4 0 0 0 .11.11c.101.068.242.068.523.068.28 0 .421 0 .522-.068a.4.4 0 0 0 .11-.11c.068-.101.068-.242.068-.523V3.7c0-.28 0-.421-.067-.522a.4.4 0 0 0-.11-.11C4.22 3 4.08 3 3.8 3s-.422 0-.523.067a.4.4 0 0 0-.11.11C3.1 3.28 3.1 3.42 3.1 3.7zm2.4 0c0 .28 0 .42.067.522a.4.4 0 0 0 .111.11c.1.068.241.068.522.068.28 0 .42 0 .521-.068a.4.4 0 0 0 .111-.11C6.9 4.32 6.9 4.18 6.9 3.9v-.2c0-.28 0-.421-.067-.522a.4.4 0 0 0-.11-.11C6.62 3 6.48 3 6.2 3s-.421 0-.522.067a.4.4 0 0 0-.11.111c-.068.1-.068.241-.068.522z"/></svg>