<svg xmlns="http://www.w3.org/2000/svg" width="24" height="24" fill="currentColor" viewBox="0 0 10 10"><path d="M6.7 2.9c2.781 0 2.781 4.2 0 4.2H3.3c-2.8 0-2.8-4.2 0-4.2zm-.016 2.415a.5.5 0 1 0 0 1 .5.5 0 0 0 0-1M3.29 3.648a.4.4 0 0 0-.4.4c0 .155 0 .233-.027.293a.3.3 0 0 1-.146.146c-.06.027-.138.027-.292.027h-.041a.4.4 0 0 0 0 .8c.193 0 .29 0 .361.043a.3.3 0 0 1 .103.103c.042.071.042.168.042.361v.027a.4.4 0 0 0 .8 0v-.04c0-.18 0-.272.038-.34a.3.3 0 0 1 .116-.116c.068-.038.159-.038.34-.038a.4.4 0 0 0 0-.8h-.028c-.155 0-.232 0-.292-.027a.3.3 0 0 1-.146-.146c-.028-.06-.028-.138-.028-.292a.4.4 0 0 0-.4-.4m2.494.767a.5.5 0 1 0 0 1 .5.5 0 0 0 0-1m1.8 0a.5.5 0 1 0 0 1 .5.5 0 0 0 0-1m-.9-.9a.5.5 0 1 0 .001 1 .5.5 0 0 0 0-1"/></svg>