<svg xmlns="http://www.w3.org/2000/svg" width="24" height="24" fill="currentColor" viewBox="0 0 10 10"><path d="M5 2.077c1.78 0 2.9 1.12 2.9 2.5 0 .583-.2 1.085-.566 1.469-.201.211-.302.317-.33.402-.005.015-.007.021-.01.037-.02.087.003.194.049.406l.061.285c.093.424-.282.806-.71.74a.226.226 0 0 1-.193-.223v-.456a.4.4 0 0 0-.8 0v.158A.39.39 0 0 1 5 7.777a.39.39 0 0 1-.4-.381v-.209a.4.4 0 0 0-.8 0v.505a.23.23 0 0 1-.194.224c-.428.066-.802-.316-.71-.74l.062-.286c.046-.212.069-.318.049-.405l-.01-.038c-.03-.085-.13-.19-.331-.401C2.3 5.66 2.1 5.16 2.1 4.576c0-1.38 1.12-2.499 2.9-2.5m-.452 2.129a.35.35 0 0 0-.495 0 .286.286 0 0 1-.406 0 .35.35 0 1 0-.494.494.286.286 0 0 1 0 .405.35.35 0 0 0 .494.495.286.286 0 0 1 .406 0 .35.35 0 0 0 .495-.495.286.286 0 0 1 0-.405.35.35 0 0 0 0-.494m2.3 0a.35.35 0 0 0-.494 0 .286.286 0 0 1-.406 0 .35.35 0 1 0-.494.494.286.286 0 0 1 0 .405.35.35 0 0 0 .494.495.286.286 0 0 1 .406 0 .35.35 0 0 0 .495-.495.286.286 0 0 1 0-.405.35.35 0 0 0 0-.494"/></svg>