<svg xmlns="http://www.w3.org/2000/svg" width="24" height="24" fill="currentColor" viewBox="0 0 10 10"><path d="M5.16 1.8c1.353 0 2.03 0 2.479.384q.095.082.177.177c.384.45.384 1.126.384 2.479v.32c0 1.353 0 2.03-.384 2.479a2 2 0 0 1-.177.177c-.45.384-1.126.384-2.479.384h-.32c-1.353 0-2.03 0-2.479-.384a2 2 0 0 1-.177-.177C1.8 7.189 1.8 6.513 1.8 5.16v-.32c0-1.353 0-2.03.384-2.479q.082-.095.177-.177C2.811 1.8 3.487 1.8 4.84 1.8zM3.45 6.2a.65.65 0 1 0 0 1.3.65.65 0 0 0 0-1.3m3.2 0a.65.65 0 1 0 0 1.3.65.65 0 0 0 0-1.3m-3.2-1.8a.65.65 0 1 0 0 1.3.65.65 0 0 0 0-1.3m3.2 0a.65.65 0 1 0 0 1.3.65.65 0 0 0 0-1.3m-3.2-1.8a.65.65 0 1 0 0 1.301.65.65 0 0 0 0-1.301m3.2 0A.65.65 0 1 0 6.651 3.9a.65.65 0 0 0 0-1.301"/></svg>