<svg xmlns="http://www.w3.org/2000/svg" width="24" height="24" fill="currentColor" viewBox="0 0 10 10"><path d="M5 1.638a2.1 2.1 0 0 1 .686 4.082.28.28 0 0 0-.186.269v.06a.3.3 0 0 0 .288.288H6.3a.5.5 0 0 1 0 1h-.275c-.21 0-.316 0-.392.05a.3.3 0 0 0-.082.083c-.051.076-.051.181-.051.392a.5.5 0 0 1-1 0c0-.21 0-.316-.05-.392a.3.3 0 0 0-.083-.082c-.076-.051-.181-.051-.392-.051H3.7a.5.5 0 0 1 0-1h.512a.3.3 0 0 0 .288-.288v-.06a.28.28 0 0 0-.186-.269l-.05-.018A2.1 2.1 0 0 1 5 1.638m0 .944a1.155 1.155 0 1 0 0 2.311 1.155 1.155 0 0 0 0-2.311"/></svg>