<svg xmlns="http://www.w3.org/2000/svg" width="24" height="24" fill="currentColor" viewBox="0 0 10 10"><path d="M5.22 1.5c1.015 0 1.522 0 1.86.287q.071.061.133.134c.287.337.287.844.287 1.86V6.22c0 1.015 0 1.522-.287 1.86q-.061.071-.134.133c-.337.287-.844.287-1.86.287H4.78c-1.015 0-1.522 0-1.86-.287a1 1 0 0 1-.133-.134C2.5 7.742 2.5 7.235 2.5 6.22V3.78c0-1.015 0-1.522.287-1.86q.061-.071.134-.133c.337-.287.844-.287 1.86-.287zm.65 1.75a.94.94 0 0 0-.57.201c-.17.129-.255.193-.297.195h-.019c-.042-.003-.126-.067-.296-.195a.94.94 0 0 0-.57-.201c-.563 0-1.126.509-1 1.354.09.62.651 1.144 1.24 1.747.302.308.453.462.601.474a.4.4 0 0 0 .062.001c.149-.01.303-.164.612-.472.586-.584 1.146-1.084 1.237-1.75.125-.912-.438-1.354-1-1.354"/></svg>