<svg xmlns="http://www.w3.org/2000/svg" width="24" height="24" fill="currentColor" viewBox="0 0 10 10"><path d="M7.3 2.375a.5.5 0 0 1 .373.451l.142 2.122a.5.5 0 0 1-.999.066c-.026-.403-.04-.604-.154-.671a.3.3 0 0 0-.08-.03c-.13-.025-.271.117-.555.4-.105.105-.157.158-.176.217a.2.2 0 0 0-.009.041c-.008.061.023.145.085.313a2.1 2.1 0 0 1-.484 2.21 2.101 2.101 0 0 1-2.97-2.97 2.1 2.1 0 0 1 2.292-.454c.165.07.248.104.31.099a.2.2 0 0 0 .053-.01c.059-.02.111-.072.217-.177l.072-.073c.206-.205.309-.308.315-.401a.25.25 0 0 0-.072-.195c-.066-.066-.212-.076-.502-.097a.5.5 0 0 1 .072-.997l1.98.142zM4.774 5.191a1.155 1.155 0 1 0-1.632 1.635 1.155 1.155 0 0 0 1.632-1.635"/></svg>