<svg xmlns="http://www.w3.org/2000/svg" width="24" height="24" fill="currentColor" viewBox="0 0 10 10"><path d="M4.205 2.7c.273 0 .495.221.495.494V6.85a.45.45 0 0 1-.9 0v-.822c0-.576 0-.865-.128-.915a.2.2 0 0 0-.047-.011c-.071-.01-.173.057-.253.194-.13.232-.218.351-.34.364a.3.3 0 0 1-.064 0c-.122-.013-.21-.132-.341-.365-.08-.137-.18-.202-.252-.193a.2.2 0 0 0-.046.011c-.129.05-.129.338-.129.915v.822a.45.45 0 0 1-.9 0V3.194a.494.494 0 0 1 .936-.221l.254.507c.21.42.315.629.477.647a.3.3 0 0 0 .066 0c.162-.018.267-.228.477-.647l.253-.507a.5.5 0 0 1 .442-.273m2.896 0a1.6 1.6 0 0 1 0 3.2c-.187 0-.281 0-.355.03a.4.4 0 0 0-.216.216c-.03.074-.03.168-.03.355v.309a.5.5 0 0 1-1-.01V4.22c0-.677 0-1.015.192-1.24a1 1 0 0 1 .088-.088c.225-.192.564-.192 1.24-.192zm-.006.95a.65.65 0 1 0 0 1.3.65.65 0 0 0 0-1.3"/></svg>