<svg xmlns="http://www.w3.org/2000/svg" width="24" height="24" fill="currentColor" viewBox="0 0 10 10"><path d="M7.7 3.584v-.03c0-.558 0-.837-.158-1.023a1 1 0 0 0-.073-.073C7.283 2.3 7.004 2.3 6.446 2.3H3.554c-.558 0-.838 0-1.023.158a1 1 0 0 0-.073.073c-.158.186-.158.465-.158 1.023v2.892c0 .558 0 .837.158 1.023a1 1 0 0 0 .073.073c.185.158.465.158 1.023.158h.03c.21 0 .315 0 .379-.043l.026-.02c.057-.05.091-.183.16-.449.084-.326.302-.688.851-.688.55 0 .767.362.851.688.069.266.103.399.16.45l.026.02c.064.042.169.042.38.042h.029c.558 0 .837 0 1.023-.158a1 1 0 0 0 .073-.073c.158-.186.158-.465.158-1.023v-.03c0-.21 0-.315-.043-.379l-.02-.026c-.05-.057-.183-.091-.449-.16C6.862 5.767 6.5 5.549 6.5 5c0-.55.362-.767.688-.851.266-.069.399-.103.45-.16l.02-.026c.042-.064.042-.169.042-.38"/></svg>