<svg xmlns="http://www.w3.org/2000/svg" width="24" height="24" fill="currentColor" viewBox="0 0 10 10"><path d="M5.16 1.8c1.353 0 2.03 0 2.479.384q.095.082.177.177c.384.45.384 1.126.384 2.479v.32c0 1.353 0 2.03-.384 2.479a2 2 0 0 1-.177.177c-.45.384-1.126.384-2.479.384h-.32c-1.353 0-2.03 0-2.479-.384a2 2 0 0 1-.177-.177C1.8 7.189 1.8 6.513 1.8 5.16v-.32c0-1.353 0-2.03.384-2.479q.082-.095.177-.177C2.811 1.8 3.487 1.8 4.84 1.8zm-.093 4.39a.526.526 0 1 0 .002 1.052.526.526 0 0 0-.002-1.053m0-3.43c-.86 0-1.442.494-1.636 1.122a.476.476 0 0 0 .908.281c.069-.222.276-.454.728-.454.26 0 .436.14.52.299.065.122.008.255-.115.32l-.094.045c-.11.052-.304.14-.457.269a.89.89 0 0 0-.328.694.475.475 0 0 0 .853.286c.107-.142.18-.314.34-.39.212-.102.776-.34.808-.99V4.22c0-.702-.588-1.46-1.527-1.46"/></svg>