<svg xmlns="http://www.w3.org/2000/svg" width="24" height="24" fill="currentColor" viewBox="0 0 10 10"><path d="M5.16 1.8c1.353 0 2.03 0 2.479.384q.095.082.177.177c.384.45.384 1.126.384 2.479v.32c0 1.353 0 2.03-.384 2.479a2 2 0 0 1-.177.177c-.45.384-1.126.384-2.479.384h-.32c-1.353 0-2.03 0-2.479-.384a2 2 0 0 1-.177-.177C1.8 7.189 1.8 6.513 1.8 5.16v-.32c0-1.353 0-2.03.384-2.479q.082-.095.177-.177C2.811 1.8 3.487 1.8 4.84 1.8zm.698 1.127a.475.475 0 0 0-.504.443l-.086 1.334c-.007.104-.01.156-.026.198a.3.3 0 0 1-.193.18c-.043.014-.095.014-.199.014-.142 0-.213 0-.265-.02a.3.3 0 0 1-.192-.255c-.004-.056.016-.124.055-.26l.298-1.028a.476.476 0 0 0-.913-.265l-.555 1.915a.675.675 0 0 0 .649.862h.709c.208 0 .313 0 .387.048a.3.3 0 0 1 .1.106c.042.078.035.182.022.39a.476.476 0 0 0 .948.063l.028-.423a.197.197 0 0 1 .196-.184.476.476 0 0 0 0-.95.115.115 0 0 1-.115-.122l.1-1.542a.475.475 0 0 0-.444-.504"/></svg>