<svg xmlns="http://www.w3.org/2000/svg" width="24" height="24" fill="currentColor" viewBox="0 0 10 10"><path d="M5.16 1.8c1.353 0 2.03 0 2.479.384q.095.082.177.177c.384.45.384 1.126.384 2.479v.32c0 1.353 0 2.03-.384 2.479a2 2 0 0 1-.177.177c-.45.384-1.126.384-2.479.384h-.32c-1.353 0-2.03 0-2.479-.384a2 2 0 0 1-.177-.177C1.8 7.189 1.8 6.513 1.8 5.16v-.32c0-1.353 0-2.03.384-2.479q.082-.095.177-.177C2.811 1.8 3.487 1.8 4.84 1.8zM5.09 2.916a.67.67 0 0 0-.466.097c-.096.057-.204.144-.295.216-.185.148-.392.315-.553.453a.476.476 0 0 0 .62.72c.084-.072.215-.007.21.105l-.051 1.268a.7.7 0 0 1-.017.17.3.3 0 0 1-.21.204.7.7 0 0 1-.172.01.476.476 0 0 0 0 .95h1.68a.476.476 0 0 0 0-.95l-.058-.002a.3.3 0 0 1-.274-.285v-.058l.08-1.944c.005-.117.011-.256.001-.367-.01-.103-.045-.344-.272-.495a1 1 0 0 0-.063-.037l-.066-.029z"/></svg>