<svg xmlns="http://www.w3.org/2000/svg" width="24" height="24" fill="currentColor" viewBox="0 0 10 10"><path d="M5.22 1.5c1.015 0 1.522 0 1.86.287q.071.061.133.134c.287.337.287.844.287 1.86V6.22c0 1.015 0 1.522-.287 1.86q-.061.071-.134.133c-.337.287-.844.287-1.86.287H4.78c-1.015 0-1.522 0-1.86-.287a1 1 0 0 1-.133-.134C2.5 7.742 2.5 7.235 2.5 6.22V3.78c0-1.015 0-1.522.287-1.86q.061-.071.134-.133c.337-.287.844-.287 1.86-.287zm-.267 1.486c-.121.019-.301.185-.66.516-.546.503-1.093.928-1.093 1.516 0 .4.25.954.875.954a1 1 0 0 0 .133-.013c.22-.042.33-.063.374-.03.007.005.01.01.017.016.035.042.025.116.005.266q-.011.076-.028.153-.056.254-.057.263c-.049.27.055.4.33.411a9 9 0 0 0 .328 0c.275-.011.38-.14.33-.411q0-.01-.058-.263a2 2 0 0 1-.027-.152c-.021-.15-.032-.225.004-.267l.016-.015c.043-.034.154-.013.375.029a1 1 0 0 0 .133.013c.625 0 .875-.555.875-.954 0-.588-.546-1.013-1.093-1.516-.358-.33-.538-.497-.66-.516a.3.3 0 0 0-.119 0"/></svg>