<svg xmlns="http://www.w3.org/2000/svg" width="24" height="24" fill="currentColor" viewBox="0 0 10 10"><path d="M4.7 7.335c0 .296 0 .444-.084.542a.4.4 0 0 1-.038.04C4.478 8 4.33 8 4.034 8h-.27c-.296 0-.445 0-.543-.084a.4.4 0 0 1-.039-.039C3.1 7.78 3.1 7.631 3.1 7.335v-.27c0-.297 0-.445.083-.543a.4.4 0 0 1 .04-.039c.097-.084.246-.084.542-.084h.27c.296 0 .444 0 .542.084a.4.4 0 0 1 .04.04c.083.097.083.245.083.541zm2.2 0c0 .296 0 .444-.083.542a.4.4 0 0 1-.04.04C6.68 8 6.532 8 6.236 8h-.27c-.296 0-.444 0-.542-.084a.4.4 0 0 1-.04-.039C5.3 7.78 5.3 7.631 5.3 7.335v-.27c0-.297 0-.445.084-.543a.4.4 0 0 1 .038-.039c.099-.084.247-.084.543-.084h.27c.296 0 .445 0 .543.084a.4.4 0 0 1 .039.04c.083.097.083.245.083.541zm-2.2-2.2c0 .296 0 .444-.084.542a.4.4 0 0 1-.038.039c-.099.084-.247.084-.543.084h-.27c-.296 0-.445 0-.543-.084a.4.4 0 0 1-.039-.039C3.1 5.58 3.1 5.431 3.1 5.135v-.27c0-.296 0-.444.083-.542a.4.4 0 0 1 .04-.039c.097-.084.246-.084.542-.084h.27c.296 0 .444 0 .542.084a.4.4 0 0 1 .04.039c.083.098.083.246.083.542zm0-2.2c0 .296 0 .444-.084.542a.4.4 0 0 1-.038.039c-.099.084-.247.084-.543.084h-.27c-.296 0-.445 0-.543-.084a.4.4 0 0 1-.039-.04C3.1 3.38 3.1 3.232 3.1 2.936v-.27c0-.296 0-.444.083-.542a.4.4 0 0 1 .04-.04C3.32 2 3.468 2 3.764 2h.27c.296 0 .444 0 .542.084a.4.4 0 0 1 .04.039c.083.098.083.246.083.542z"/></svg>