<svg xmlns="http://www.w3.org/2000/svg" width="24" height="24" fill="currentColor" viewBox="0 0 10 10"><path d="M5.8 6.235c0 .296 0 .445-.084.543a.4.4 0 0 1-.038.039c-.099.083-.247.083-.543.083h-.27c-.296 0-.444 0-.543-.083a.4.4 0 0 1-.038-.04C4.2 6.68 4.2 6.532 4.2 6.236v-.27c0-.296 0-.444.084-.542a.4.4 0 0 1 .038-.04c.099-.083.247-.083.543-.083h.27c.296 0 .444 0 .543.084a.4.4 0 0 1 .038.038c.084.099.084.247.084.543zm-2.2-2.2c0 .296 0 .444-.084.542a.4.4 0 0 1-.039.04c-.098.083-.246.083-.542.083h-.27c-.297 0-.445 0-.543-.084a.4.4 0 0 1-.039-.038C2 4.478 2 4.33 2 4.034v-.27c0-.296 0-.444.083-.542a.4.4 0 0 1 .04-.039c.097-.083.245-.083.542-.083h.27c.296 0 .444 0 .542.083a.4.4 0 0 1 .04.04c.083.097.083.245.083.542zm2.2 0c0 .296 0 .444-.084.542a.4.4 0 0 1-.038.04c-.099.083-.247.083-.543.083h-.27c-.296 0-.444 0-.543-.084a.4.4 0 0 1-.038-.038C4.2 4.478 4.2 4.33 4.2 4.034v-.27c0-.296 0-.444.084-.542a.4.4 0 0 1 .038-.039c.099-.083.247-.083.543-.083h.27c.296 0 .444 0 .543.083a.4.4 0 0 1 .038.04c.084.097.084.245.084.542zm2.2 0c0 .296 0 .444-.083.542a.4.4 0 0 1-.04.04c-.097.083-.245.083-.542.083h-.27c-.296 0-.444 0-.542-.084a.4.4 0 0 1-.04-.038C6.4 4.478 6.4 4.33 6.4 4.034v-.27c0-.296 0-.445.084-.543a.4.4 0 0 1 .039-.039c.098-.083.246-.083.542-.083h.27c.297 0 .445 0 .543.083a.4.4 0 0 1 .039.04C8 3.32 8 3.468 8 3.764z"/></svg>