<svg xmlns="http://www.w3.org/2000/svg" width="24" height="24" fill="currentColor" viewBox="0 0 10 10"><path d="M4.7 6.235c0 .296 0 .444-.084.542a.4.4 0 0 1-.038.039c-.099.084-.247.084-.543.084h-.27c-.296 0-.445 0-.543-.084a.4.4 0 0 1-.039-.039C3.1 6.68 3.1 6.531 3.1 6.235v-.27c0-.296 0-.444.083-.542a.4.4 0 0 1 .04-.039c.097-.084.246-.084.542-.084h.27c.296 0 .444 0 .542.084a.4.4 0 0 1 .04.039c.083.098.083.246.083.542zm2.2 0c0 .296 0 .444-.083.542a.4.4 0 0 1-.04.039c-.097.084-.246.084-.542.084h-.27c-.296 0-.444 0-.542-.084a.4.4 0 0 1-.04-.039C5.3 6.68 5.3 6.531 5.3 6.235v-.27c0-.296 0-.444.084-.542a.4.4 0 0 1 .038-.039c.099-.084.247-.084.543-.084h.27c.296 0 .445 0 .543.084a.4.4 0 0 1 .039.039c.083.098.083.246.083.542zm-2.2-2.2c0 .296 0 .444-.084.542a.4.4 0 0 1-.038.039c-.099.084-.247.084-.543.084h-.27c-.296 0-.445 0-.543-.084a.4.4 0 0 1-.039-.039C3.1 4.479 3.1 4.331 3.1 4.035v-.27c0-.296 0-.444.083-.542a.4.4 0 0 1 .04-.039c.097-.084.246-.084.542-.084h.27c.296 0 .444 0 .542.084a.4.4 0 0 1 .04.039c.083.098.083.246.083.542zm2.2 0c0 .296 0 .444-.083.542a.4.4 0 0 1-.04.039c-.097.084-.246.084-.542.084h-.27c-.296 0-.444 0-.542-.084a.4.4 0 0 1-.04-.039C5.3 4.479 5.3 4.331 5.3 4.035v-.27c0-.296 0-.444.084-.542a.4.4 0 0 1 .038-.039c.099-.084.247-.084.543-.084h.27c.296 0 .445 0 .543.084a.4.4 0 0 1 .039.039c.083.098.083.246.083.542z"/></svg>