<svg xmlns="http://www.w3.org/2000/svg" width="24" height="24" fill="currentColor" viewBox="0 0 10 10"><path d="M2.665 3.1c-.296 0-.444 0-.542.083a.4.4 0 0 0-.04.04C2 3.32 2 3.468 2 3.764v.27c0 .296 0 .444.084.542a.4.4 0 0 0 .039.04c.098.083.246.083.542.083h.27c.296 0 .444 0 .542-.084a.4.4 0 0 0 .039-.038c.084-.099.084-.247.084-.543v-.27c0-.296 0-.445-.084-.543a.4.4 0 0 0-.04-.039C3.38 3.1 3.232 3.1 2.936 3.1zm2.2 2.2c-.296 0-.444 0-.542.084a.4.4 0 0 0-.039.038c-.084.099-.084.247-.084.543v.27c0 .296 0 .445.084.543a.4.4 0 0 0 .039.039c.098.083.246.083.542.083h.27c.296 0 .444 0 .542-.083a.4.4 0 0 0 .039-.04c.084-.097.084-.246.084-.542v-.27c0-.296 0-.444-.084-.542a.4.4 0 0 0-.039-.04C5.58 5.3 5.431 5.3 5.135 5.3zm0-2.2c-.296 0-.444 0-.542.084a.4.4 0 0 0-.039.04c-.084.097-.084.245-.084.542v.27c0 .295 0 .443.084.542a.4.4 0 0 0 .039.038c.098.084.246.084.542.084h.27c.296 0 .444 0 .542-.084a.4.4 0 0 0 .039-.038c.084-.099.084-.247.084-.543v-.27c0-.296 0-.444-.084-.542a.4.4 0 0 0-.039-.039c-.098-.083-.246-.083-.542-.083zm2.2 2.2c-.296 0-.444 0-.542.084a.4.4 0 0 0-.039.038c-.084.099-.084.247-.084.543v.27c0 .296 0 .445.084.543a.4.4 0 0 0 .04.039c.097.083.245.083.541.083h.27c.296 0 .444 0 .542-.083a.4.4 0 0 0 .04-.04C8 6.68 8 6.532 8 6.236v-.27c0-.296 0-.444-.084-.542a.4.4 0 0 0-.039-.04C7.78 5.3 7.631 5.3 7.335 5.3z"/></svg>