<svg xmlns="http://www.w3.org/2000/svg" width="24" height="24" fill="currentColor" viewBox="0 0 10 10"><path d="M5.3 7.335c0 .296 0 .444.084.542a.4.4 0 0 0 .038.04C5.522 8 5.67 8 5.966 8h.27c.296 0 .445 0 .543-.084a.4.4 0 0 0 .039-.039c.083-.098.083-.246.083-.542v-.27c0-.297 0-.445-.083-.543a.4.4 0 0 0-.04-.039C6.68 6.4 6.532 6.4 6.236 6.4h-.27c-.296 0-.444 0-.542.084a.4.4 0 0 0-.04.04c-.083.097-.083.245-.083.541zm-2.2 0c0 .296 0 .444.083.542a.4.4 0 0 0 .04.04C3.32 8 3.468 8 3.764 8h.27c.296 0 .444 0 .542-.084a.4.4 0 0 0 .04-.039c.083-.098.083-.246.083-.542v-.27c0-.297 0-.445-.084-.543a.4.4 0 0 0-.038-.039C4.478 6.4 4.33 6.4 4.034 6.4h-.27c-.296 0-.445 0-.543.084a.4.4 0 0 0-.039.04c-.083.097-.083.245-.083.541zm2.2-2.2c0 .296 0 .444.084.542a.4.4 0 0 0 .038.039c.099.084.247.084.543.084h.27c.296 0 .445 0 .543-.084a.4.4 0 0 0 .039-.039c.083-.098.083-.246.083-.542v-.27c0-.296 0-.444-.083-.542a.4.4 0 0 0-.04-.039C6.68 4.2 6.532 4.2 6.236 4.2h-.27c-.296 0-.444 0-.542.084a.4.4 0 0 0-.04.039c-.083.098-.083.246-.083.542zm0-2.2c0 .296 0 .444.084.542a.4.4 0 0 0 .038.039c.099.084.247.084.543.084h.27c.296 0 .445 0 .543-.084a.4.4 0 0 0 .039-.04c.083-.097.083-.245.083-.541v-.27c0-.296 0-.444-.083-.542a.4.4 0 0 0-.04-.04C6.68 2 6.532 2 6.236 2h-.27c-.296 0-.444 0-.542.084a.4.4 0 0 0-.04.039c-.083.098-.083.246-.083.542z"/></svg>