<svg xmlns="http://www.w3.org/2000/svg" width="24" height="24" fill="currentColor" viewBox="0 0 10 10"><path d="M2.766 2.715c.395-.02.804.067 1.133.292.34.234.576.606.6 1.076q.013.304-.09.546c-.068.165-.103.248-.103.288v.018c.005.04.047.119.132.276q.13.24.148.556c.025.47-.17.865-.484 1.133-.303.259-.702.389-1.097.41a2.3 2.3 0 0 1-1.217-.277l-.08-.048-.024-.016-.009-.005-.002-.002-.001-.001-.002-.001-.001-.001-.001-.001a.5.5 0 0 1 .583-.813v.001h.002l.027.016q.044.027.14.066c.126.048.31.094.533.083a.85.85 0 0 0 .5-.172.37.37 0 0 0 .135-.319c-.006-.115-.04-.156-.062-.176a.45.45 0 0 0-.205-.093 1.5 1.5 0 0 0-.322-.03h-.134c-.016 0-.052 0-.087-.002-.014-.002-.062-.006-.119-.024a.504.504 0 0 1-.34-.386l-.006-.04-.003-.026v-.069a.5.5 0 0 1 .286-.412c.052-.025.098-.036.111-.04l.085-.015.135-.019c.102-.015.217-.037.323-.076a.5.5 0 0 0 .208-.122c.022-.024.047-.061.042-.154a.37.37 0 0 0-.168-.305.85.85 0 0 0-.514-.119 1 1 0 0 0-.455.12.6.6 0 0 0-.084.057l-.01.008.007-.006.001-.003h.001l.001-.002-.074.067a.5.5 0 0 1-.676-.728v-.001l.001-.001.002-.002.012-.013.022-.021.069-.064c.057-.047.135-.106.237-.163.207-.116.504-.224.894-.245m4.951 1.162a.5.5 0 0 1 .764.646l-.308.363c-.235.277-.352.416-.364.579a1 1 0 0 0 0 .07c.012.163.13.302.364.58l.308.363a.5.5 0 0 1-.764.645c-.311-.368-.467-.552-.667-.572a.5.5 0 0 0-.103 0c-.2.02-.356.204-.666.572a.5.5 0 0 1-.764-.645l.308-.364c.234-.277.35-.416.362-.579a1 1 0 0 0 0-.07c-.011-.163-.129-.301-.363-.578l-.307-.364a.501.501 0 0 1 .764-.646c.31.368.466.551.666.572a.5.5 0 0 0 .103 0c.2-.02.356-.204.667-.572"/></svg>