<svg xmlns="http://www.w3.org/2000/svg" width="24" height="24" fill="currentColor" viewBox="1.50 1.70 7.00 7.00"><path d="M6.534 6.411c.006.051.009.077.008.098a.3.3 0 0 1-.258.288c-.02.003-.046.003-.098.003H3.814c-.052 0-.077 0-.098-.003a.3.3 0 0 1-.258-.288c0-.021.002-.047.008-.098a1 1 0 0 1 .01-.08.3.3 0 0 1 .256-.23l.082-.001h2.372a1 1 0 0 1 .082.002.3.3 0 0 1 .255.229 1 1 0 0 1 .011.08M7.36 3.6c.508 0 .762 0 .93.144q.036.03.066.067c.144.168.144.422.144.93v.16c0 .845 0 1.268-.24 1.548q-.05.06-.11.112a.84.84 0 0 1-.364.173c-.199.048-.299.071-.401.012l-.042-.028c-.091-.075-.107-.197-.14-.44l-.016-.119c-.039-.296-.059-.444-.153-.54a.4.4 0 0 0-.043-.038c-.107-.08-.257-.081-.556-.081h-2.87c-.3 0-.45 0-.556.081a.4.4 0 0 0-.043.038c-.094.096-.114.244-.154.54l-.015.119c-.033.243-.05.365-.141.44l-.041.028c-.103.059-.203.035-.401-.012a.84.84 0 0 1-.475-.285C1.5 6.17 1.5 5.746 1.5 4.9v-.16c0-.507 0-.761.144-.93a1 1 0 0 1 .066-.066c.168-.144.422-.144.93-.144zm-4.86.65a.35.35 0 0 0 0 .7H3a.35.35 0 1 0 0-.7z"/></svg>