<svg xmlns="http://www.w3.org/2000/svg" width="24" height="24" fill="currentColor" viewBox="1.60 1.60 6.80 6.80"><path d="M7.45 2.5c.423 0 .634 0 .775.12a1 1 0 0 1 .055.055c.12.14.12.352.12.775v.15c0 .466 0 .699-.076.882a1 1 0 0 1-.54.541c-.185.077-.418.077-.884.077a.5.5 0 0 0 0 1h.033c.158 0 .297.105.34.257l.072.25c.099.348.149.522.09.655a.4.4 0 0 1-.11.145c-.11.093-.292.093-.653.093H4.528c-.361 0-.542 0-.653-.093a.4.4 0 0 1-.11-.145c-.059-.133-.01-.307.09-.655l.072-.25a.355.355 0 0 1 .34-.257H4.3a.5.5 0 1 0 0-1h-.25a2 2 0 0 1-1.009-.303l-.084-.054-1.111-.731a.55.55 0 0 1-.246-.456c0-.252.204-.456.456-.456h.72l.07-.001a.4.4 0 0 0 .297-.17c.055-.067.084-.101.113-.131a1 1 0 0 1 .629-.294c.041-.004.085-.004.173-.004z"/></svg>