<svg xmlns="http://www.w3.org/2000/svg" width="24" height="24" fill="currentColor" viewBox="1.50 1.50 7.00 7.00"><path d="M6.15 2.5c.221 0 .4.18.4.4v.142c0 .126 0 .188.03.236l.013.02c.034.044.097.068.222.116.262.1.484.215.67.333.091.057.215-.006.215-.113V3.6a.4.4 0 0 1 .8 0v2.76c0 .508 0 .762-.144.93a1 1 0 0 1-.066.066c-.14.12-.339.138-.692.142l-.184.002-.017-.001H7.2l-.001-.002a.4.4 0 0 1-.134-.026.24.24 0 0 1-.086-.061c-.047-.048-.09-.17-.174-.413C6.617 6.454 6.112 5.8 5 5.8s-1.619.654-1.807 1.197c-.084.243-.126.365-.173.413a.24.24 0 0 1-.086.061.4.4 0 0 1-.134.027l-.002.002h-.159l-.038-.001h-.015L2.4 7.499c-.352-.004-.55-.023-.69-.142a1 1 0 0 1-.067-.066C1.5 7.122 1.5 6.867 1.5 6.36V3.6a.4.4 0 0 1 .8 0v.034c0 .108.124.17.214.113.187-.118.41-.233.671-.333.126-.048.188-.072.223-.116l.013-.02c.029-.048.029-.11.029-.236V2.9a.4.4 0 0 1 .8 0l.001.041a.196.196 0 0 0 .202.185l.045-.004a6 6 0 0 1 1.004 0l.046.004a.196.196 0 0 0 .201-.185v-.04c0-.222.18-.401.401-.401m-2.7 1.998c0-.237 0-.355-.082-.415l-.036-.02c-.092-.042-.187.011-.376.118l-.121.073a2.5 2.5 0 0 0-.468.375l-.03.034a.2.2 0 0 0-.034.087c-.002.014-.002.028-.002.056 0 .28 0 .42.017.46.047.103.112.137.224.113.042-.008.176-.106.446-.303q.122-.09.257-.164c.093-.053.14-.08.165-.113a.2.2 0 0 0 .023-.038c.017-.04.017-.087.017-.184zm3.1.032c0 .095 0 .142.017.18a.2.2 0 0 0 .029.047c.026.033.073.057.167.106a2.4 2.4 0 0 1 .303.185c.228.165.341.247.37.256q.194.066.255-.13C7.7 5.145 7.7 5.03 7.7 4.8l-.001-.04a.22.22 0 0 0-.073-.137 2.5 2.5 0 0 0-.582-.44c-.189-.108-.283-.161-.376-.12a.2.2 0 0 0-.036.021c-.081.06-.081.179-.081.415zM5 3.7q-.222 0-.424.016c-.14.011-.21.017-.262.064l-.02.022c-.043.055-.043.13-.043.279v.03c0 .194 0 .292.052.349l.023.022c.06.048.165.041.374.028q.147-.01.3-.01.159 0 .312.008c.202.011.303.017.363-.031l.024-.023c.05-.057.05-.152.05-.343v-.03c0-.15 0-.224-.043-.279l-.02-.022c-.051-.047-.121-.053-.262-.064A5 5 0 0 0 5 3.7"/></svg>