<svg xmlns="http://www.w3.org/2000/svg" width="24" height="24" fill="currentColor" viewBox="1.51 1.60 6.81 6.81"><path d="M3.319 1.6c.28 0 .523.196.583.47l.503 2.33c.088.408.133.612.272.74q.03.027.062.052c.155.108.364.108.78.108h.63c.423 0 .636 0 .776.12q.03.024.056.055c.12.14.119.353.119.775v.234c0 .096 0 .145-.009.187a.4.4 0 0 1-.284.3l-.22.056a.3.3 0 0 0-.22.302c.001.04.016.086.045.177l.112.346a.42.42 0 1 1-.806.234l-.126-.481c-.051-.197-.077-.295-.137-.365a.4.4 0 0 0-.128-.099c-.083-.04-.185-.041-.39-.041-.208 0-.313 0-.398.042a.4.4 0 0 0-.129.104c-.06.072-.083.174-.13.378l-.104.446a.426.426 0 1 1-.826-.21l.117-.423c.014-.05.022-.076.024-.099a.3.3 0 0 0-.169-.306 1 1 0 0 0-.096-.034c-.05-.015-.076-.022-.098-.032a.4.4 0 0 1-.234-.303 1 1 0 0 1-.007-.103l-.163-4.342a.596.596 0 0 1 .595-.618"/></svg>