<svg xmlns="http://www.w3.org/2000/svg" width="24" height="24" fill="currentColor" viewBox="1.45 1.50 7.00 7.00"><path d="M3.02 1.534a.5.5 0 0 1 .647.285v.004l.003.005.005.015.017.05q.021.062.053.176c.042.153.095.378.147.683.068.394.135.924.174 1.603.02.34.029.508.124.613a.4.4 0 0 0 .044.042c.11.09.275.09.605.09H6.41c.03 0 .096-.001.158.006a.6.6 0 0 1 .23.074l.052.037q.014.009.02.015l.033.027.019.018.045.05.015.021.036.052a.6.6 0 0 1 .074.23c.008.062.007.13.007.16v.41c0 .382.023.818.048 1.164.012.171.025.319.034.423l.011.12.003.033.001.008v.103a.5.5 0 0 1-.995-.003v-.003L6.2 8.037l-.003-.035a19 19 0 0 1-.047-.567c-.024-.336-.036-.504-.131-.607a.4.4 0 0 0-.044-.04C5.866 6.7 5.704 6.7 5.38 6.7h-.56c-.325 0-.487 0-.596.087a.4.4 0 0 0-.044.041c-.096.103-.107.271-.131.607a27 27 0 0 1-.047.567l-.003.035-.001.008v.004a.5.5 0 0 1-.995.002V7.94l.004-.032.01-.121c.01-.104.022-.252.034-.423.025-.346.05-.782.05-1.164v-.6c0-1.258-.1-2.13-.194-2.679a6 6 0 0 0-.165-.715l-.008-.026a.5.5 0 0 1 .285-.646"/></svg>