<svg xmlns="http://www.w3.org/2000/svg" width="24" height="24" fill="currentColor" viewBox="1.73 1.77 6.53 6.53"><path d="M6.073 5.8c.405 0 .607 0 .725.12a.4.4 0 0 1 .045.055c.094.138.055.337-.025.734l-.074.37c-.11.552-.166.829-.352 1.004a1 1 0 0 1-.085.07c-.208.147-.49.147-1.053.147h-.508c-.564 0-.846 0-1.054-.148a1 1 0 0 1-.085-.07c-.186-.174-.24-.451-.351-1.004l-.074-.37c-.08-.396-.12-.595-.025-.733a.4.4 0 0 1 .045-.055c.118-.12.32-.12.725-.12zm.366-4.015c.194-.024.292-.036.392.047.011.01.029.028.038.039.083.1.072.197.048.39-.043.353-.162.817-.475 1.13-.213.213-.498.334-.77.403a.35.35 0 0 0-.272.333c0 .178.145.323.324.323H7.15a.35.35 0 0 1 0 .7h-4.3a.35.35 0 1 1 0-.7h1.427a.323.323 0 0 0 .322-.323.35.35 0 0 0-.27-.331c-.271-.07-.554-.19-.768-.403-.312-.313-.43-.777-.474-1.13-.024-.193-.035-.29.048-.39l.038-.04c.1-.082.197-.07.39-.046.353.043.817.161 1.13.474q.04.041.077.087c.12.144.18.217.221.221h.019c.041-.004.102-.076.22-.221q.038-.047.08-.09c.313-.312.777-.43 1.13-.473"/></svg>