<svg xmlns="http://www.w3.org/2000/svg" width="24" height="24" fill="currentColor" viewBox="1.97 1.99 6.05 6.05"><path d="M3.901 2.733c.408-.365.612-.547.845-.608a1 1 0 0 1 .508 0c.233.061.437.243.845.608l1.724 1.543A.596.596 0 0 1 7.5 5.311a.36.36 0 0 0-.313.353l-.007 1.463c-.001.21-.002.316-.028.401a.6.6 0 0 1-.398.396c-.085.026-.19.026-.401.026-.141 0-.212 0-.27-.018a.4.4 0 0 1-.264-.265C5.8 7.61 5.8 7.54 5.8 7.398V6.65a.8.8 0 0 0-1.6 0v.74c0 .149 0 .223-.02.284a.4.4 0 0 1-.256.256c-.06.02-.135.02-.284.02-.223 0-.335 0-.425-.03a.6.6 0 0 1-.386-.385C2.8 7.445 2.8 7.333 2.8 7.11V5.69a.36.36 0 0 0-.312-.359.604.604 0 0 1-.319-1.048z"/></svg>