<svg xmlns="http://www.w3.org/2000/svg" width="24" height="24" fill="currentColor" viewBox="1.54 1.52 6.91 6.91"><path d="M2.265 2.927c.149-.284.224-.425.33-.532a1 1 0 0 1 .416-.251c.143-.044.303-.044.623-.044h2.729c.303 0 .455 0 .591.04a1 1 0 0 1 .437.261c.1.102.171.236.314.503l.673 1.258a.587.587 0 0 1-.469.861.35.35 0 0 0-.323.35L7.58 6.787c-.002.437-.003.655-.112.81a.6.6 0 0 1-.146.145c-.155.108-.376.108-.817.108-.284 0-.426 0-.527-.067a.4.4 0 0 1-.11-.11C5.8 7.57 5.8 7.43 5.8 7.15v-.6a.8.8 0 0 0-1.6 0v.6c0 .28 0 .421-.067.522a.4.4 0 0 1-.11.11c-.102.068-.242.068-.523.068h-.02c-.45 0-.675 0-.833-.115a.6.6 0 0 1-.132-.132C2.4 7.445 2.4 7.22 2.4 6.77V5.398a.36.36 0 0 0-.322-.356.598.598 0 0 1-.467-.874z"/></svg>