<svg xmlns="http://www.w3.org/2000/svg" width="24" height="24" fill="currentColor" viewBox="2.27 2.32 5.43 5.43"><path d="M3.48 7.75h.02c.28 0 .421 0 .522-.067a.4.4 0 0 0 .11-.11C4.2 7.47 4.2 7.33 4.2 7.05v-.6a.8.8 0 0 1 1.6 0v.6c0 .28 0 .421.067.522a.4.4 0 0 0 .11.11c.102.068.244.068.528.068.44 0 .661 0 .816-.108a.6.6 0 0 0 .147-.146c.109-.155.11-.373.11-.81l.006-1.503c.002-.388.003-.583-.065-.758l-.033-.076c-.082-.17-.225-.301-.51-.566l-.68-.631c-.58-.539-.871-.808-1.22-.834a1 1 0 0 0-.15 0c-.35.027-.64.297-1.218.837l-.704.657c-.282.262-.423.394-.504.562l-.033.075c-.067.174-.067.367-.067.752V6.67c0 .45 0 .675.115.833a.6.6 0 0 0 .132.132c.158.115.383.115.833.115"/></svg>