<svg xmlns="http://www.w3.org/2000/svg" width="24" height="24" fill="currentColor" viewBox="1.77 1.70 6.50 6.50"><path d="M6.9 7.4a.4.4 0 0 1 0 .8H3.3a.401.401 0 0 1 0-.8zM5.1 1.7c.66 0 1.069.289 1.29.52.145.151.218.227.268.251l.022.01c.051.02.125.02.272.02h.22c.464 0 .697 0 .786.135a.3.3 0 0 1 .03.059c.056.152-.082.34-.357.714l-.433.587c-.14.19-.209.284-.244.393l-.014.049c-.027.111-.017.228.003.462l.104 1.18c.024.274.035.412-.037.504l-.033.036c-.087.08-.224.08-.499.08H3.742c-.282 0-.424 0-.51-.082a.3.3 0 0 1-.034-.039c-.072-.096-.056-.236-.022-.516l.003-.03a.19.19 0 0 0-.088-.177l-.032-.019a2 2 0 0 1-.16-.106c-.597-.446-1.029-1.29-.782-2.784l.027-.105a.6.6 0 0 1 .561-.391h.887a.07.07 0 0 0 .06-.036c.138-.205.57-.714 1.449-.714m0 1.3c-.22 0-.4.179-.4.4v1.8a.4.4 0 0 0 .8 0V3.4c0-.22-.179-.4-.4-.4m-1.989.15c-.137 0-.205 0-.257.037a.2.2 0 0 0-.038.034c-.04.05-.046.114-.056.242-.04.497.02.86.128 1.13.077.192.115.288.25.288a.3.3 0 0 0 .053-.007c.13-.035.145-.16.175-.412l.108-.903c.021-.172.031-.258-.009-.319a.2.2 0 0 0-.038-.043c-.056-.047-.143-.047-.316-.047"/></svg>