<svg xmlns="http://www.w3.org/2000/svg" width="24" height="24" fill="currentColor" viewBox="1.40 1.40 7.20 7.20"><path d="M3 7.2c-.05-.127.067-.252.202-.233q.202.03.424.05c.427.039.923.058 1.412.058.49 0 .98-.02 1.394-.058q.192-.018.37-.044c.132-.02.248.103.198.227-.083.208-.288.372-.564.493a.28.28 0 0 0-.167.222c-.031.308-.047.462-.142.561a.4.4 0 0 1-.043.04c-.108.084-.263.084-.572.084H4.488c-.31 0-.463 0-.572-.085a.4.4 0 0 1-.044-.039c-.094-.1-.11-.253-.14-.56a.28.28 0 0 0-.168-.223c-.276-.121-.48-.285-.564-.493M7.02 5.442c.135-.025.268.077.26.215q-.014.218-.038.427c-.005.043-.038.077-.079.094-.118.05-.392.104-.796.142-.388.036-.855.054-1.328.054s-.947-.018-1.348-.054c-.413-.038-.715-.092-.867-.149-.033-.012-.06-.038-.064-.073a9 9 0 0 1-.039-.44c-.009-.138.125-.241.262-.216.165.03.362.056.574.075.425.039.937.058 1.444.058.508 0 1.019-.02 1.445-.058.212-.02.408-.044.574-.075M6.84 3.94c.198-.04.416.088.43.29q.01.13.017.264c.004.085-.067.153-.143.191-.03.014-.108.04-.253.067-.137.026-.31.049-.51.067-.4.036-.889.054-1.38.054-.493 0-.983-.018-1.382-.054a6 6 0 0 1-.51-.067 1.2 1.2 0 0 1-.252-.067c-.078-.038-.15-.107-.145-.193l.016-.262c.015-.202.233-.33.431-.29.156.03.336.056.53.075.39.039.852.059 1.31.059s.921-.02 1.31-.059c.195-.02.376-.044.531-.075M5.512 1.4c.309 0 .464 0 .572.085q.023.018.043.039c.095.1.111.253.142.56.01.099.075.181.166.221.276.122.482.287.565.495q.034.087.064.186c.024.082-.044.162-.12.2a1 1 0 0 1-.24.068 5 5 0 0 1-.465.066c-.36.036-.798.054-1.24.054s-.88-.018-1.24-.054a5 5 0 0 1-.463-.066 1 1 0 0 1-.24-.068c-.077-.038-.145-.118-.12-.2q.03-.099.064-.186c.084-.208.289-.373.564-.495a.28.28 0 0 0 .168-.22c.03-.308.045-.462.14-.561a.4.4 0 0 1 .044-.04c.109-.084.263-.084.571-.084z"/></svg>