<svg xmlns="http://www.w3.org/2000/svg" width="24" height="24" fill="currentColor" viewBox="1.17 1.20 7.60 7.60"><path d="M5 1.2c1.054 0 1.595.515 1.86.942.074.117.178.258.315.258h.264a.45.45 0 0 1 0 .9.19.19 0 0 0-.19.19V6.4a.1.1 0 0 0 .101.1.45.45 0 0 1 0 .9h-.028c-.24 0-.331.312-.13.441L7.6 8.1c.32.204.176.7-.204.7H2.604c-.38 0-.525-.496-.204-.7l.407-.259c.202-.129.11-.441-.129-.441H2.65a.45.45 0 1 1 0-.9.1.1 0 0 0 .1-.1V3.548a.25.25 0 0 0-.248-.248.45.45 0 0 1 0-.9h.322c.138 0 .242-.141.315-.258.266-.427.806-.942 1.86-.942M3.45 5.93c0 .254 0 .38.071.465l.034.033c.084.072.21.072.465.072h.06c.254 0 .38 0 .465-.072l.033-.033c.072-.084.072-.211.072-.465V3.87c0-.254 0-.38-.072-.465l-.033-.033C4.46 3.3 4.334 3.3 4.08 3.3h-.06c-.254 0-.381 0-.465.072l-.034.033c-.071.084-.071.211-.071.465zm1.899 0c0 .254 0 .38.072.465l.033.033c.084.072.211.072.465.072h.061c.254 0 .38 0 .465-.072l.033-.033c.072-.084.072-.211.072-.465V3.87c0-.254 0-.38-.072-.465l-.033-.033C6.361 3.3 6.234 3.3 5.98 3.3H5.92c-.254 0-.38 0-.465.072l-.033.033c-.072.084-.072.211-.072.465z"/></svg>