<svg xmlns="http://www.w3.org/2000/svg" width="24" height="24" fill="currentColor" viewBox="0.85 0.85 8.30 8.30"><path d="M6.283 7.347c.23-.053.476.156.39.375a.6.6 0 0 1-.06.116.8.8 0 0 1-.371.304c-.105.042-.193.127-.193.24V8.8a.35.35 0 0 1-.699 0v-.3a.3.3 0 0 0-.3-.3h-.1a.3.3 0 0 0-.3.3v.3a.35.35 0 0 1-.7 0v-.418c0-.113-.087-.198-.192-.24a.8.8 0 0 1-.372-.304.6.6 0 0 1-.059-.116c-.086-.219.16-.428.39-.375.326.076.78.153 1.283.153s.957-.077 1.283-.153m-1.632-.67c0 .17-.142.308-.312.294a6 6 0 0 1-.723-.099.27.27 0 0 1-.187-.136 2 2 0 0 1-.06-.122c-.152-.34-.319-.915-.319-1.815s.167-1.475.32-1.814q.03-.067.06-.123a.27.27 0 0 1 .186-.136q.34-.068.723-.098a.29.29 0 0 1 .312.294zm.7-3.755c0-.17.141-.308.311-.294q.383.03.722.098a.27.27 0 0 1 .187.136q.03.055.06.123c.153.34.32.915.32 1.814 0 .9-.167 1.476-.32 1.815q-.03.066-.06.122a.27.27 0 0 1-.187.136 6 6 0 0 1-.722.099.29.29 0 0 1-.312-.294zm2.215.799c-.044-.259.221-.476.426-.312.46.368.709.843.709 1.39 0 .548-.25 1.023-.71 1.391-.204.164-.469-.053-.425-.312.052-.309.084-.666.084-1.079s-.032-.77-.084-1.078m-5.559-.312c.205-.164.47.053.427.312A6.6 6.6 0 0 0 2.351 4.8c0 .412.032.77.083 1.078.044.259-.222.476-.427.312-.458-.368-.707-.843-.707-1.39s.249-1.022.707-1.39M5.001.85a.35.35 0 0 1 .35.35c0 .11.089.2.2.2h.429c.346 0 .519 0 .662.058a.8.8 0 0 1 .372.304q.048.074.08.177c.068.21-.14.403-.356.36C6.296 2.213 5.608 2.1 5 2.1s-1.296.112-1.738.2c-.216.042-.423-.151-.356-.361a.7.7 0 0 1 .08-.177.8.8 0 0 1 .372-.304C3.5 1.4 3.675 1.4 4.02 1.4h.43a.2.2 0 0 0 .2-.2A.35.35 0 0 1 5 .85"/></svg>