<svg xmlns="http://www.w3.org/2000/svg" width="24" height="24" fill="currentColor" viewBox="1.80 1.80 6.40 6.40"><path d="M7.7 4.199a.45.45 0 0 1 .278.805c-.13.102-.278.23-.279.395v.9c0 .846 0 1.27-.239 1.55q-.052.06-.111.11c-.28.24-.704.241-1.55.241h-1.6c-.846 0-1.269 0-1.55-.24a1 1 0 0 1-.11-.11c-.24-.281-.24-.705-.24-1.55v-.9c0-.166-.148-.294-.278-.396a.45.45 0 0 1 .278-.805zM5 6.299a.601.601 0 1 0 .001 1.203.601.601 0 0 0 0-1.202m-.7-1.4a.401.401 0 0 0 0 .801h1.4a.4.4 0 0 0 0-.8zM5 1.8c.332 0 .576.144.702.322.096.135.231.278.397.278h.8c.442 0 .8.36.8.801a.3.3 0 0 1-.3.3H2.6a.3.3 0 0 1-.3-.3c0-.442.36-.8.8-.8h.8c.166 0 .301-.144.397-.28.126-.177.37-.32.703-.32"/></svg>