<svg xmlns="http://www.w3.org/2000/svg" width="24" height="24" fill="currentColor" viewBox="1.50 1.50 7.00 7.00"><path d="M5 1.5a.6.6 0 0 1 .6.6c0 .093 0 .14.01.178a.3.3 0 0 0 .212.212c.038.01.085.01.178.01h.58c.676 0 1.015 0 1.24.191a1 1 0 0 1 .088.09c.192.224.193.562.193 1.239v.26c0 .677-.001 1.015-.193 1.24a1 1 0 0 1-.089.088c-.224.192-.563.192-1.239.192h-.22c-.338 0-.508 0-.62.096a.4.4 0 0 0-.044.044c-.096.113-.096.281-.096.62V7.9a.6.6 0 0 1-1.2 0V6.56c0-.339 0-.507-.096-.62a.4.4 0 0 0-.044-.044C4.148 5.8 3.978 5.8 3.64 5.8h-.22c-.676 0-1.015 0-1.24-.192a1 1 0 0 1-.088-.088c-.192-.225-.193-.563-.193-1.24v-.26c0-.677.001-1.015.193-1.24a1 1 0 0 1 .089-.089c.224-.19.563-.191 1.239-.191H4c.093 0 .14 0 .178-.01a.3.3 0 0 0 .212-.212c.01-.038.01-.085.01-.178a.6.6 0 0 1 .6-.6m-.7 2.95a.35.35 0 0 0 0 .7h1.4a.35.35 0 0 0 0-.7zm-.5-1.3a.35.35 0 1 0 0 .7h2.4a.35.35 0 0 0 0-.7z"/></svg>