<svg xmlns="http://www.w3.org/2000/svg" width="24" height="24" fill="currentColor" viewBox="1.83 1.80 6.40 6.40"><path d="M6.186 8.2h-2.47c-.38 0-.569 0-.697-.088a.5.5 0 0 1-.174-.21c-.063-.142-.028-.328.042-.7.042-.223.063-.335.052-.415a.4.4 0 0 0-.041-.14c-.034-.074-.146-.194-.37-.434A2.31 2.31 0 0 1 1.9 4.6V2.94c0-.508 0-.761.144-.93a1 1 0 0 1 .066-.066c.169-.144.422-.144.93-.144h.989c.441 0 .662 0 .818.11a.6.6 0 0 1 .142.143c.111.156.111.377.111.818 0 .59 0 .884.148 1.092a.8.8 0 0 0 .19.19c.207.147.502.147 1.09.147h.967c.215 0 .323 0 .458.103.013.01.043.037.054.048.118.122.126.19.142.327.07.588-.129 1.454-1.128 1.733-.193.053-.29.08-.324.1q-.214.125-.13.359c.013.037.057.101.146.23.127.186.191.28.214.351a.5.5 0 0 1-.33.627c-.072.022-.185.022-.41.022"/></svg>