<svg xmlns="http://www.w3.org/2000/svg" width="24" height="24" fill="currentColor" viewBox="1.02 1.05 7.95 7.95"><path d="M4.989 5.1c.487 0 .868.422.818.907l-.251 2.452a.602.602 0 0 1-1.199-.015l-.189-2.458a.823.823 0 0 1 .82-.886m.654-4.026c.17-.093.343.064.347.257.017 1.14.51 1.507.51 2.323 0 .285-.116.585-.307.842-.136.182-.396.083-.454-.136-.162-.613-.431-1.106-.739-1.106-.306 0-.577.495-.739 1.107-.058.22-.319.317-.454.135-.19-.257-.306-.558-.307-.842 0-.348.076-.926.692-1.73.135-.177.396-.123.509.069.29.497.242-.533.942-.919"/></svg>