<svg xmlns="http://www.w3.org/2000/svg" width="24" height="24" fill="currentColor" viewBox="1.80 1.80 6.40 6.40"><path d="M5.1 1.8c.14 0 .21 0 .266.017a.4.4 0 0 1 .267.267 1 1 0 0 1 .017.266v.025c0 .116 0 .174.012.222a.4.4 0 0 0 .291.29c.048.013.106.012.222.012s.175 0 .222-.011a.4.4 0 0 0 .291-.291c.012-.048.012-.106.012-.222v-.042c0-.124 0-.186.014-.236a.4.4 0 0 1 .282-.284c.051-.013.113-.013.237-.013.155 0 .233 0 .296.016a.5.5 0 0 1 .354.354c.017.064.017.142.017.297v4.498c0 .55 0 .824-.156 1.007a1 1 0 0 1-.072.072c-.182.156-.457.156-1.007.156H6.56c-.339 0-.508 0-.62-.096a.4.4 0 0 1-.044-.044C5.8 7.948 5.8 7.779 5.8 7.44V6.7a.8.8 0 1 0-1.6 0v.74c0 .339 0 .508-.096.62a.4.4 0 0 1-.044.044c-.112.096-.281.096-.62.096h-.105c-.55 0-.825 0-1.007-.156a1 1 0 0 1-.072-.072C2.1 7.789 2.1 7.515 2.1 6.965V2.467c0-.155 0-.233.017-.297a.5.5 0 0 1 .354-.354c.063-.017.14-.016.296-.016.124 0 .186 0 .237.013a.4.4 0 0 1 .282.284c.014.05.014.112.014.236v.042c0 .116 0 .174.012.222a.4.4 0 0 0 .29.29c.048.013.107.012.223.012s.174 0 .222-.011a.4.4 0 0 0 .29-.291c.013-.048.013-.106.013-.222V2.35c0-.14 0-.21.017-.266a.4.4 0 0 1 .267-.267C4.69 1.8 4.76 1.8 4.9 1.8z"/></svg>