<svg xmlns="http://www.w3.org/2000/svg" width="24" height="24" fill="currentColor" viewBox="1.59 1.59 6.82 6.82"><path d="M5.05 1.592c.23.019.415.216.783.61l1.429 1.532.046.05a.4.4 0 0 1-.219.643l-.066.012-.041.008a.4.4 0 0 0-.314.443l.008.041.464 2.584c.07.392.105.588.01.724a.4.4 0 0 1-.045.054c-.117.117-.316.117-.713.117-.274 0-.41 0-.51-.064a.4.4 0 0 1-.118-.119c-.065-.1-.065-.236-.065-.51V6.91a.7.7 0 1 0-1.399 0v.808c0 .273 0 .41-.064.508a.4.4 0 0 1-.12.12c-.098.064-.235.064-.507.064-.398 0-.597 0-.714-.117a.4.4 0 0 1-.045-.054c-.095-.136-.06-.332.01-.724l.464-2.584.007-.04a.4.4 0 0 0-.313-.444l-.04-.008-.068-.012a.4.4 0 0 1-.217-.643c.007-.01.02-.023.045-.05l1.428-1.531c.369-.395.553-.592.784-.611a1 1 0 0 1 .1 0"/></svg>