<svg xmlns="http://www.w3.org/2000/svg" width="24" height="24" fill="currentColor" viewBox="1.80 1.80 6.40 6.40"><path d="M7.7 6.68c0 .676 0 1.016-.191 1.24a1 1 0 0 1-.09.089c-.224.191-.563.191-1.24.191H3.82c-.676 0-1.015 0-1.24-.191a1 1 0 0 1-.088-.09C2.3 7.697 2.3 7.357 2.3 6.68V5.552c0-.423 0-.635.12-.775a1 1 0 0 1 .055-.056c.14-.12.352-.12.775-.12h3.5c.423 0 .634 0 .775.12a1 1 0 0 1 .055.056c.12.14.12.352.12.775zM5 5.2a1.2 1.2 0 1 0 0 2.401 1.2 1.2 0 0 0 0-2.4m1.18-3.4c.676 0 1.015 0 1.24.191a1 1 0 0 1 .089.09c.191.224.191.563.191 1.24a.48.48 0 0 1-.48.479H2.78a.48.48 0 0 1-.48-.48c0-.676 0-1.015.192-1.24a1 1 0 0 1 .089-.089c.224-.191.563-.191 1.24-.191zm-2.88.65a.35.35 0 0 0 0 .7h1a.35.35 0 1 0 0-.7zm3.2 0a.35.35 0 0 0 0 .7h.2a.35.35 0 1 0 0-.7z"/></svg>