<svg xmlns="http://www.w3.org/2000/svg" width="24" height="24" fill="currentColor" viewBox="0 0 10 10"><path d="M4.337 2.32c.308-.148.462-.223.627-.23h.072c.165.007.319.082.627.23l.508.247.51.245c.31.147.464.221.572.345l.045.057c.097.133.134.3.21.634l.124.551.127.551c.077.334.116.5.086.662l-.016.07c-.044.16-.15.293-.364.56l-.354.441-.352.443c-.212.268-.319.402-.464.48l-.065.032c-.151.064-.322.064-.665.063L5 7.7l-.565.001c-.343.001-.514.001-.665-.063l-.065-.032c-.145-.078-.252-.212-.464-.48l-.352-.443-.353-.44c-.214-.268-.321-.402-.365-.56l-.016-.07c-.03-.163.009-.33.086-.663l.127-.55.124-.552c.076-.334.113-.501.21-.634l.045-.057c.108-.124.263-.198.571-.345l.51-.245z"/></svg>