<svg xmlns="http://www.w3.org/2000/svg" width="24" height="24" fill="currentColor" viewBox="0 0 10 10"><path d="M4.237 2.142c.352-.204.528-.306.721-.316a1 1 0 0 1 .084 0c.193.01.369.112.72.316l.665.386.666.383c.353.202.53.304.635.466a1 1 0 0 1 .042.072c.087.172.087.376.086.783L7.855 5l.001.768c0 .407.001.61-.086.783a1 1 0 0 1-.042.072c-.105.162-.282.264-.635.466l-.666.383-.664.386c-.352.204-.528.306-.721.316a1 1 0 0 1-.084 0c-.193-.01-.369-.112-.72-.316l-.665-.386-.666-.383c-.353-.202-.53-.304-.635-.466a1 1 0 0 1-.042-.072c-.087-.172-.087-.376-.086-.783L2.146 5l-.002-.768c0-.407-.001-.61.086-.783a1 1 0 0 1 .042-.072c.105-.162.282-.264.635-.466l.666-.383z"/></svg>