<svg xmlns="http://www.w3.org/2000/svg" width="24" height="24" fill="currentColor" viewBox="0 0 10 10"><path d="M7.121 2.879a.47.47 0 0 1-.021.684l-.527.465a.426.426 0 0 1-.601-.6l.465-.528a.47.47 0 0 1 .684-.021M4.01 4.01a.426.426 0 0 1-.583.018L2.9 3.563a.47.47 0 1 1 .663-.663l.465.527a.426.426 0 0 1-.018.583M7.121 7.121a.47.47 0 0 1-.684-.021l-.465-.527a.426.426 0 0 1 .6-.601l.528.465a.47.47 0 0 1 .021.684M4.01 5.99a.426.426 0 0 1 .018.583l-.465.527a.47.47 0 1 1-.663-.663l.527-.465a.426.426 0 0 1 .583.018M5 3.6a.426.426 0 0 1-.425-.4L4.53 2.5a.47.47 0 1 1 .938 0l-.044.702c-.014.224-.2.399-.425.399M8 5a.47.47 0 0 1-.5.469L6.8 5.425a.426.426 0 0 1 0-.85l.702-.044A.47.47 0 0 1 8 5M5 8a.47.47 0 0 1-.47-.5l.045-.7a.426.426 0 0 1 .85 0l.044.7a.47.47 0 0 1-.47.5"/></svg>