<svg xmlns="http://www.w3.org/2000/svg" width="24" height="24" fill="currentColor" viewBox="0 0 10 10"><path d="M2.879 2.879a.47.47 0 0 1 .684.021l.465.527a.426.426 0 0 1-.6.601L2.9 3.563a.47.47 0 0 1-.021-.684M4.01 5.99a.426.426 0 0 1 .018.583l-.465.527a.47.47 0 1 1-.663-.663l.527-.465a.426.426 0 0 1 .583.018M7.121 2.879a.47.47 0 0 1-.021.684l-.527.465a.426.426 0 0 1-.601-.6l.465-.528a.47.47 0 0 1 .684-.021M5.99 5.99a.426.426 0 0 1 .583-.018l.527.465a.47.47 0 1 1-.663.663l-.465-.527a.426.426 0 0 1 .018-.583M3.6 5c0 .225-.175.411-.4.425L2.5 5.47a.47.47 0 1 1 0-.938l.702.044c.224.014.399.2.399.425M5 2a.47.47 0 0 1 .469.5l-.044.701a.426.426 0 0 1-.85 0L4.531 2.5A.47.47 0 0 1 5 2M8 5a.47.47 0 0 1-.5.47l-.7-.045a.426.426 0 0 1 0-.85l.7-.044a.47.47 0 0 1 .5.47"/></svg>