<svg xmlns="http://www.w3.org/2000/svg" width="24" height="24" fill="currentColor" viewBox="0 0 10 10"><path d="M8 5a.47.47 0 0 1-.499.469l-.702-.044a.426.426 0 0 1 0-.85l.702-.044a.47.47 0 0 1 .499.47M5 3.6a.426.426 0 0 1-.425-.4l-.044-.7a.47.47 0 1 1 .938 0l-.044.7c-.014.225-.2.4-.425.4M5 8a.47.47 0 0 1-.469-.499l.044-.702a.426.426 0 0 1 .85 0l.044.702A.47.47 0 0 1 5 8M3.6 5c0 .225-.175.411-.4.425l-.701.044a.47.47 0 1 1 0-.938l.702.044c.224.014.399.2.399.425M5.99 4.01a.426.426 0 0 1-.018-.583l.465-.527a.47.47 0 1 1 .663.663l-.527.465a.426.426 0 0 1-.583-.018M7.121 7.121a.47.47 0 0 1-.684-.021l-.465-.527a.426.426 0 0 1 .6-.601l.528.465a.47.47 0 0 1 .021.684M2.879 7.121a.47.47 0 0 1 .02-.684l.528-.465a.426.426 0 0 1 .601.6l-.465.528a.47.47 0 0 1-.684.021"/></svg>