<svg xmlns="http://www.w3.org/2000/svg" width="24" height="24" fill="currentColor" viewBox="0 0 10 10"><path d="M2.879 7.121a.47.47 0 0 1 .021-.684l.527-.465a.426.426 0 0 1 .601.6l-.465.528a.47.47 0 0 1-.684.021M5.99 5.99a.426.426 0 0 1 .583-.018l.527.465a.47.47 0 1 1-.663.663l-.465-.527a.426.426 0 0 1 .018-.583M2.879 2.879a.47.47 0 0 1 .684.021l.465.527a.426.426 0 0 1-.6.601L2.9 3.563a.47.47 0 0 1-.021-.684M5.99 4.01a.426.426 0 0 1-.018-.583l.465-.527a.47.47 0 1 1 .663.663l-.527.465a.426.426 0 0 1-.583-.018M5 6.4c.225 0 .411.175.425.4l.044.701a.47.47 0 1 1-.938 0l.044-.702c.014-.224.2-.399.425-.399M2 5a.47.47 0 0 1 .5-.469l.701.044a.426.426 0 0 1 0 .85l-.702.044A.47.47 0 0 1 2 5M5 2a.47.47 0 0 1 .47.5l-.045.7a.426.426 0 0 1-.85 0l-.044-.7a.47.47 0 0 1 .47-.5"/></svg>