<svg xmlns="http://www.w3.org/2000/svg" width="24" height="24" fill="currentColor" viewBox="0 0 10 10"><path d="M5 2a.47.47 0 0 1 .469.499l-.044.702a.426.426 0 0 1-.85 0l-.044-.702A.47.47 0 0 1 5 2M3.6 5c0 .225-.175.41-.4.425l-.701.044a.47.47 0 1 1 0-.938l.702.044c.224.014.399.2.399.425M8 5a.47.47 0 0 1-.499.469l-.702-.044a.426.426 0 0 1 0-.85l.702-.044A.47.47 0 0 1 8 5M5 6.4c.225 0 .41.175.425.4l.044.701a.47.47 0 1 1-.938 0l.044-.702c.014-.224.2-.399.425-.399M4.01 4.01a.426.426 0 0 1-.583.018L2.9 3.563a.47.47 0 1 1 .663-.663l.465.527a.426.426 0 0 1-.018.583M7.121 2.879a.47.47 0 0 1-.021.684l-.528.465a.426.426 0 0 1-.6-.6l.465-.528a.47.47 0 0 1 .684-.021M7.121 7.121a.47.47 0 0 1-.684-.02l-.466-.528a.426.426 0 0 1 .601-.601l.528.465a.47.47 0 0 1 .021.684"/></svg>