<svg xmlns="http://www.w3.org/2000/svg" width="24" height="24" fill="currentColor" viewBox="0 0 10 10"><path d="M4.274 2.583c.313-.381.47-.571.673-.593a.5.5 0 0 1 .106 0c.203.022.36.212.673.593.127.154.19.231.275.278l.047.023c.09.037.19.038.39.041.492.008.739.011.882.157a.5.5 0 0 1 .066.083c.11.172.059.413-.043.895-.042.196-.063.294-.046.389l.011.051c.027.093.088.172.21.33.302.39.452.585.428.788a.5.5 0 0 1-.023.104c-.067.193-.287.303-.728.524-.179.09-.268.134-.332.206l-.033.04c-.056.08-.08.177-.127.371-.117.479-.175.718-.35.826a.5.5 0 0 1-.095.046c-.192.069-.416-.035-.863-.242-.182-.084-.272-.126-.369-.131h-.052c-.097.005-.187.047-.369.13-.447.208-.67.312-.863.243a.5.5 0 0 1-.096-.046c-.174-.108-.232-.347-.349-.826-.047-.194-.071-.292-.127-.37l-.033-.04c-.064-.073-.153-.118-.332-.207-.441-.22-.661-.331-.728-.524a.5.5 0 0 1-.023-.104c-.024-.203.126-.398.428-.788.122-.158.183-.237.21-.33l.011-.051c.017-.095-.004-.193-.046-.389-.102-.482-.153-.723-.043-.895a.5.5 0 0 1 .066-.083c.144-.146.39-.15.883-.157.2-.003.3-.004.389-.041l.047-.023c.085-.047.148-.124.275-.278"/></svg>