<svg xmlns="http://www.w3.org/2000/svg" width="24" height="24" fill="currentColor" viewBox="0 0 10 10"><path d="M4.167 2.634c.287-.46.43-.69.617-.761a.6.6 0 0 1 .432 0c.187.072.33.302.617.761.105.168.158.253.23.313a.6.6 0 0 0 .183.106c.089.032.188.036.386.043.542.018.813.028.968.154a.6.6 0 0 1 .216.373c.031.198-.096.437-.35.916-.094.175-.14.262-.157.355a.6.6 0 0 0 0 .212c.017.093.063.18.156.355.255.479.382.718.351.916a.6.6 0 0 1-.216.373c-.155.126-.426.136-.968.154-.198.007-.297.01-.386.043a.6.6 0 0 0-.183.106c-.072.06-.125.145-.23.313-.287.46-.43.69-.617.761a.6.6 0 0 1-.432 0c-.187-.072-.33-.302-.617-.761-.105-.168-.158-.253-.23-.313a.6.6 0 0 0-.183-.106c-.089-.032-.188-.036-.386-.043-.542-.018-.813-.028-.969-.154a.6.6 0 0 1-.215-.373c-.031-.198.096-.437.35-.916.094-.175.14-.262.157-.355a.6.6 0 0 0 0-.212c-.017-.093-.063-.18-.156-.355-.255-.479-.382-.718-.351-.916a.6.6 0 0 1 .215-.373c.156-.126.427-.136.969-.154.198-.007.297-.01.386-.043a.6.6 0 0 0 .183-.106c.072-.06.125-.145.23-.313"/></svg>