<svg xmlns="http://www.w3.org/2000/svg" width="24" height="24" fill="currentColor" viewBox="0 0 10 10"><path d="M1.766 2.718a.5.5 0 0 1 .615.348v.002l.002.004.003.01.008.032q.01.04.026.113c.02.098.048.24.074.42.019.127.028.19.047.235a.39.39 0 0 0 .249.23c.047.014.105.018.221.025l1.02.064c.051.003.077.005.101.01a.4.4 0 0 1 .241.146c.015.02.029.041.056.086a1 1 0 0 0 .076.117.4.4 0 0 0 .238.134 1 1 0 0 0 .14.006h3.026c.03 0 .098 0 .16.007a.6.6 0 0 1 .32.136l.015.016.053.055.04.056.022.03a.6.6 0 0 1 .074.231c.007.062.007.13.007.16V7a.5.5 0 1 1-1 0c0-.281 0-.422-.068-.523a.4.4 0 0 0-.11-.11C7.321 6.3 7.181 6.3 6.899 6.3H3.3c-.28 0-.42 0-.522.067a.4.4 0 0 0-.11.11C2.6 6.578 2.6 6.72 2.6 7a.5.5 0 0 1-1 0V5.2l-.01-.435a9 9 0 0 0-.085-.972 6 6 0 0 0-.064-.356l-.018-.084-.005-.017v-.003a.5.5 0 0 1 .348-.615"/></svg>