<svg xmlns="http://www.w3.org/2000/svg" width="24" height="24" fill="currentColor" viewBox="0 0 10 10"><path d="M7.2 7.78a.423.423 0 0 1-.841.045l-.026-.224a.34.34 0 0 0-.336-.301H4.002a.34.34 0 0 0-.336.3l-.024.225A.423.423 0 0 1 2.8 7.78V6.06c0-.338 0-.508.096-.62a.4.4 0 0 1 .044-.044c.112-.096.282-.096.62-.096h2.88c.339 0 .508 0 .62.096a.4.4 0 0 1 .045.044c.095.112.095.282.095.62zM3.9 6.3c0 .193.156.35.35.35h1.5a.35.35 0 1 0 0-.7h-1.5a.35.35 0 0 0-.35.35m3.482-4.5c.341 0 .618.277.618.618v.07A.53.53 0 0 1 7.6 3a.53.53 0 0 0-.4.512v.227c0 .339 0 .508-.095.62a.4.4 0 0 1-.045.044c-.112.096-.281.096-.62.096H3.56c-.338 0-.508 0-.62-.096a.4.4 0 0 1-.044-.044c-.096-.112-.096-.281-.096-.62v-.227A.53.53 0 0 0 2.4 3a.53.53 0 0 1-.4-.513v-.069c0-.34.276-.618.617-.618zM4.249 3.15a.35.35 0 1 0 0 .7H5.75a.35.35 0 1 0 0-.7z"/></svg>