<svg xmlns="http://www.w3.org/2000/svg" width="24" height="24" fill="currentColor" viewBox="0 0 10 10"><path d="M5.982 2.131a.4.4 0 0 1 .635.489l-.303.394c-.193.25-.29.376-.252.48a.2.2 0 0 0 .02.04c.058.091.217.091.533.091h.446c.507 0 .761 0 .93.144q.035.03.066.066c.143.169.143.423.143.93v2.12c0 .508 0 .762-.143.93a1 1 0 0 1-.067.066c-.168.144-.422.144-.93.144H2.94c-.507 0-.76 0-.93-.144a1 1 0 0 1-.066-.066c-.143-.168-.144-.422-.144-.93v-2.12c0-.507 0-.761.144-.93a1 1 0 0 1 .067-.066c.168-.144.422-.144.93-.144h.535c.295 0 .442 0 .502-.087a.2.2 0 0 0 .02-.038c.04-.098-.042-.22-.206-.466l-.025-.037a.4.4 0 0 1 .666-.444l.274.412c.127.19.19.284.28.296l.038.001c.09-.005.16-.095.3-.276zM3.36 4.374c-.338 0-.508 0-.62.096a.4.4 0 0 0-.044.045c-.095.112-.095.281-.095.62v1.38c0 .338 0 .507.095.62a.4.4 0 0 0 .044.044c.112.096.282.096.62.096h2.08c.338 0 .507 0 .62-.096a.4.4 0 0 0 .044-.045c.096-.112.096-.281.096-.619v-1.38c0-.338 0-.508-.096-.62a.4.4 0 0 0-.044-.045c-.113-.095-.282-.096-.62-.096zM7.2 6.076a.5.5 0 1 0 0 1 .5.5 0 0 0 0-1m0-1.5a.5.5 0 1 0 0 1 .5.5 0 0 0 0-1"/></svg>