<svg xmlns="http://www.w3.org/2000/svg" width="24" height="24" fill="currentColor" viewBox="0 0 10 10"><path d="M5 2a2.8 2.8 0 0 1 2.24 4.477c-.036.05-.002.123.06.123a.7.7 0 0 1 0 1.4H2.7a.7.7 0 0 1 0-1.4c.062 0 .096-.073.06-.123A2.8 2.8 0 0 1 5 2m.224.924a.4.4 0 0 0-.434 0c-.112.072-.194.294-.357.738a1 1 0 0 1-.076.174.4.4 0 0 1-.114.114 1 1 0 0 1-.174.075c-.444.164-.665.246-.738.358a.4.4 0 0 0 0 .433c.073.113.294.195.738.358.09.033.136.05.174.075a.4.4 0 0 1 .114.114 1 1 0 0 1 .076.174c.163.444.245.666.357.738a.4.4 0 0 0 .434 0c.112-.072.194-.294.357-.738a1 1 0 0 1 .075-.174.4.4 0 0 1 .115-.114 1 1 0 0 1 .173-.075c.444-.163.666-.245.739-.358a.4.4 0 0 0 0-.433c-.073-.112-.295-.194-.739-.358a1 1 0 0 1-.173-.075.4.4 0 0 1-.115-.114 1 1 0 0 1-.075-.174c-.163-.444-.245-.666-.357-.738"/></svg>