<svg xmlns="http://www.w3.org/2000/svg" width="24" height="24" fill="currentColor" viewBox="0 0 10 10"><path d="M5.39 1.8c.76 0 1.142 0 1.394.216q.054.045.1.1c.216.252.216.633.216 1.394v2.98c0 .761 0 1.142-.215 1.395a1 1 0 0 1-.1.1C6.531 8.2 6.15 8.2 5.39 8.2h-.78c-.76 0-1.142 0-1.394-.216a1 1 0 0 1-.1-.1C2.9 7.633 2.9 7.252 2.9 6.49V3.51c0-.761 0-1.142.215-1.395a1 1 0 0 1 .1-.1C3.469 1.8 3.85 1.8 4.61 1.8zM4.2 5.45a.45.45 0 0 0-.45.45v.3a.45.45 0 0 0 .9 0v-.3a.45.45 0 0 0-.45-.45m.26-2.85c-.338 0-.508 0-.62.096a.4.4 0 0 0-.044.044c-.096.112-.096.282-.096.62v.58c0 .338 0 .507.096.62a.4.4 0 0 0 .044.044c.112.096.282.096.62.096h1.08c.338 0 .508 0 .62-.096a.4.4 0 0 0 .044-.044c.096-.113.096-.282.096-.62v-.58c0-.338 0-.508-.096-.62a.4.4 0 0 0-.044-.044C6.048 2.6 5.878 2.6 5.54 2.6z"/></svg>