<svg xmlns="http://www.w3.org/2000/svg" width="24" height="24" fill="currentColor" viewBox="0 0 10 10"><path d="M6.117 4.2c.604 0 .907 0 1.083.179a1 1 0 0 1 .066.082c.143.207.086.503-.03 1.096l-.137.706c-.136.695-.203 1.043-.436 1.263a1 1 0 0 1-.106.088c-.26.186-.615.186-1.323.186h-.468c-.707 0-1.062 0-1.323-.186a1 1 0 0 1-.106-.088c-.233-.22-.3-.568-.436-1.263l-.137-.706c-.116-.593-.173-.889-.03-1.096a1 1 0 0 1 .067-.082c.176-.179.478-.179 1.082-.179zM8 3a.45.45 0 0 1-.45.45h-5.1a.45.45 0 0 1 0-.9h5.1A.45.45 0 0 1 8 3"/></svg>