<svg xmlns="http://www.w3.org/2000/svg" width="24" height="24" fill="currentColor" viewBox="0 0 10 10"><path d="M7.3 6.6c0 .845 0 1.269-.24 1.55q-.05.06-.11.11c-.281.24-.704.24-1.55.24h-.8c-.846 0-1.269 0-1.55-.24a1 1 0 0 1-.11-.11c-.24-.281-.24-.705-.24-1.55v-.15a.45.45 0 1 1 .9 0v.35a.4.4 0 0 0 .8 0c0-.28 0-.42.055-.528a.5.5 0 0 1 .218-.217C4.78 6 4.92 6 5.2 6h1.5c.092 0 .138 0 .177.006a.5.5 0 0 1 .416.416c.006.039.006.085.006.178M5.4 1.5c.846 0 1.269 0 1.55.24q.06.05.11.11c.24.281.24.705.24 1.55v.85c0 .422 0 .634-.12.774a1 1 0 0 1-.055.055c-.14.12-.352.12-.775.12H5.2c-.28 0-.42 0-.526-.054a.5.5 0 0 1-.22-.22C4.4 4.82 4.4 4.68 4.4 4.4a.4.4 0 0 0-.8 0v.35a.45.45 0 1 1-.9 0V3.4c0-.845 0-1.269.24-1.55q.05-.06.11-.11c.281-.24.704-.24 1.55-.24z"/></svg>