<svg xmlns="http://www.w3.org/2000/svg" width="24" height="24" fill="currentColor" viewBox="0 0 10 10"><path d="M5 1.694a2.3 2.3 0 0 1 2.3 2.3v2.485c0 .257.16.487.4.577s.4.32.4.577v.024a.65.65 0 0 1-.65.65h-4.9a.65.65 0 0 1-.65-.65v-.024c0-.257.16-.487.4-.577s.4-.32.4-.577V3.994a2.3 2.3 0 0 1 2.3-2.3m0 1.013a.5.5 0 0 0-.5.5c0 .093 0 .14-.01.178a.3.3 0 0 1-.212.212c-.038.01-.085.01-.178.01a.5.5 0 0 0 0 1c.093 0 .14 0 .178.01a.3.3 0 0 1 .212.212c.01.038.01.085.01.178v1a.5.5 0 0 0 1 0v-1c0-.093 0-.14.01-.177a.3.3 0 0 1 .213-.213c.038-.01.084-.01.176-.01a.5.5 0 0 0 0-1c-.092 0-.138 0-.176-.01a.3.3 0 0 1-.213-.213c-.01-.038-.01-.084-.01-.177a.5.5 0 0 0-.5-.5"/></svg>