<svg xmlns="http://www.w3.org/2000/svg" width="24" height="24" fill="currentColor" viewBox="0 0 10 10"><path d="M4.746 2.125a1 1 0 0 1 .508 0c.233.06.437.243.845.608a.06.06 0 0 0 .101-.045V2.6a.5.5 0 0 1 1 0v.779c0 .158 0 .237.028.308l.014.031c.034.069.093.121.211.227l.37.331A.596.596 0 0 1 7.5 5.311a.36.36 0 0 0-.313.354L7.18 7.127c-.001.21-.002.315-.029.401a.6.6 0 0 1-.397.395c-.086.027-.191.027-.402.027-.14 0-.21 0-.268-.018a.4.4 0 0 1-.266-.264C5.8 7.61 5.8 7.539 5.8 7.398V6.65a.8.8 0 1 0-1.6 0v.74c0 .149 0 .223-.02.283a.4.4 0 0 1-.256.257c-.06.02-.136.02-.284.02-.223 0-.335 0-.425-.03a.6.6 0 0 1-.386-.384c-.03-.09-.03-.203-.03-.426V5.69a.36.36 0 0 0-.31-.36.604.604 0 0 1-.32-1.047L3.9 2.733c.408-.365.612-.547.845-.608"/></svg>