<svg xmlns="http://www.w3.org/2000/svg" width="24" height="24" fill="currentColor" viewBox="0 0 10 10"><path d="M5.9 1.2a.5.5 0 0 1 .5.5c0 .097.066.2.163.2h.467c.381 0 .663.354.577.725a.74.74 0 0 1-.354.477c-.114.064-.191.197-.153.322.13.425.214.913.24 1.395.027.48-.003.97-.11 1.396-.05.2-.12.396-.218.574-.052.096-.003.213.06.303l.02.035c.042.084.032.154.012.294l-.023.16a.7.7 0 0 0-.013.176.3.3 0 0 0 .02.07.6.6 0 0 0 .1.145c.232.292.35.437.336.56a.3.3 0 0 1-.087.18c-.088.088-.274.088-.647.088H3.31c-.373 0-.56 0-.648-.088a.3.3 0 0 1-.086-.18c-.013-.123.103-.269.336-.56.056-.07.084-.105.1-.144a.3.3 0 0 0 .02-.07c.006-.043-.001-.088-.014-.177l-.022-.16c-.02-.14-.03-.21.012-.294l.02-.035c.068-.098.125-.224.07-.33a2.5 2.5 0 0 1-.204-.547 4.8 4.8 0 0 1-.11-1.396c.026-.482.11-.97.24-1.395.04-.13-.038-.267-.153-.34a.74.74 0 0 1-.328-.459.592.592 0 0 1 .577-.725h.316c.098 0 .164-.103.164-.2a.5.5 0 0 1 .5-.5zm-1.578 2c-.135 0-.202 0-.273.021a.56.56 0 0 0-.27.2c-.04.061-.056.11-.086.208a5.3 5.3 0 0 0-.21 1.228c-.023.432.005.848.09 1.187.087.348.222.567.367.672.04.03.087.05.136.043.266-.035.588-.06.974-.06.393 0 .72.026.99.063a.2.2 0 0 0 .144-.046c.146-.105.28-.324.368-.672.085-.34.113-.755.09-1.187a5.3 5.3 0 0 0-.21-1.228.7.7 0 0 0-.087-.208.56.56 0 0 0-.27-.2c-.07-.021-.138-.021-.272-.021zm.735.851c.142.014.223.137.383.38.176.267.357.58.424.831.08.3.042.598-.127.809-.056.068-.158.039-.194-.042-.162-.362-.244-.543-.47-.57a.5.5 0 0 0-.092 0c-.226.027-.307.208-.468.57-.037.08-.14.11-.195.041-.17-.21-.207-.509-.127-.808.068-.25.248-.564.424-.83.16-.244.241-.367.383-.38a.3.3 0 0 1 .06 0"/></svg>