<svg xmlns="http://www.w3.org/2000/svg" width="24" height="24" fill="currentColor" viewBox="0 0 10 10"><path d="M5 1.1c.422 0 .666.162.808.361.09.127.135.19.173.212l.017.01c.04.017.093.017.2.017h.32c.293 0 .56.172.681.439a.46.46 0 0 1-.051.473c-.164.218-.246.327-.256.359l-.004.014c-.008.032-.004.072.003.152l.358 3.932a.35.35 0 0 1-.137.308l-.075.058-.006.006-.025.027a.7.7 0 0 0-.09.113.3.3 0 0 0-.018.252.7.7 0 0 0 .074.125l.061.093c.223.334.335.5.293.637a.3.3 0 0 1-.054.102c-.09.11-.292.11-.693.11H3.42c-.401 0-.602 0-.692-.11a.3.3 0 0 1-.054-.102c-.042-.136.07-.303.292-.637l.061-.093a.7.7 0 0 0 .075-.125.3.3 0 0 0-.018-.252.7.7 0 0 0-.112-.137l-.005-.005-.08-.062a.35.35 0 0 1-.136-.308l.357-3.933c.008-.08.011-.12.003-.152-.002-.01 0-.004-.004-.014-.01-.032-.092-.14-.255-.358A.46.46 0 0 1 2.8 2.14a.75.75 0 0 1 .682-.439h.32c.107 0 .161 0 .2-.018l.018-.009c.037-.021.082-.085.172-.212.142-.2.386-.361.808-.361m-.546 5.125c-.145.24-.217.36-.176.455a.2.2 0 0 0 .021.036c.06.084.2.084.48.084h.44c.28 0 .42 0 .48-.084a.2.2 0 0 0 .021-.036c.041-.095-.031-.215-.175-.455l-.22-.367c-.137-.229-.206-.343-.305-.353a.2.2 0 0 0-.041 0c-.1.01-.169.124-.306.353zm1.012-1.689c-.054.09-.081.135-.084.185v.021c.003.05.03.095.084.185l.188.313c.317.53.476.795.612.77a.2.2 0 0 0 .051-.017c.125-.06.097-.368.041-.982l-.05-.544c-.04-.45-.06-.676-.18-.719a.2.2 0 0 0-.049-.011c-.126-.013-.242.181-.475.569zm-1.825.471c-.056.615-.084.923.041.983a.2.2 0 0 0 .051.017c.136.025.295-.24.613-.77l.185-.31c.054-.09.081-.135.084-.185v-.021c-.003-.05-.03-.095-.084-.185l-.136-.228c-.233-.388-.35-.581-.475-.569a.2.2 0 0 0-.049.011c-.12.044-.14.269-.18.72zm1.032-1.401c.137.228.205.343.305.353a.2.2 0 0 0 .04 0c.1-.01.169-.125.306-.353l.139-.23c.144-.24.217-.361.176-.456a.2.2 0 0 0-.021-.036c-.06-.084-.2-.084-.481-.084H4.86c-.28 0-.42 0-.48.084a.2.2 0 0 0-.02.036c-.042.095.03.215.175.455z"/></svg>