<svg xmlns="http://www.w3.org/2000/svg" width="24" height="24" fill="currentColor" viewBox="0 0 10 10"><path d="M5 1.612c1.215 0 2.2 1.12 2.2 2.5 0 1.033-.552 1.917-1.338 2.298A.44.44 0 0 0 5.6 6.8c0 .214.174.389.388.389H6a.6.6 0 0 1 0 1.2H4a.6.6 0 0 1 0-1.2h.01a.39.39 0 0 0 .39-.39.44.44 0 0 0-.263-.388C3.35 6.03 2.8 5.145 2.8 4.112c0-1.38.985-2.5 2.2-2.5m1.083 2.092a.4.4 0 0 0-.565 0l-1.301 1.3a.4.4 0 0 0 .566.566l1.3-1.3a.4.4 0 0 0 0-.566m-.8-1.2a.4.4 0 0 0-.566 0l-.6.6a.4.4 0 0 0 .566.566l.6-.6a.4.4 0 0 0 0-.566"/></svg>