<svg xmlns="http://www.w3.org/2000/svg" width="24" height="24" fill="currentColor" viewBox="0 0 10 10"><path d="M4.038 5.1c.047 0 .123.028.275.082a2.05 2.05 0 0 0 1.372 0c.152-.054.229-.081.276-.083h.02c.047.002.123.03.274.085a1.9 1.9 0 0 0 .732.113c.262-.013.393-.019.481.052l.036.033c.076.085.077.172.079.346V6l-.003.886c-.002.436-.004.655-.113.81a.6.6 0 0 1-.146.145c-.155.108-.373.109-.81.109h-.078c-.217 0-.326 0-.41-.041a.4.4 0 0 1-.182-.182c-.04-.084-.04-.193-.04-.41V6.85a.8.8 0 0 0-1.601 0v.467c0 .217 0 .326-.041.41a.4.4 0 0 1-.182.182c-.083.04-.192.04-.41.04H3.48c-.45 0-.675.001-.833-.114a.6.6 0 0 1-.133-.132C2.4 7.545 2.4 7.319 2.4 6.87v-.86q0-.173.002-.31c.003-.162.005-.243.083-.327l.035-.032c.09-.07.215-.062.464-.046q.057.004.116.004.336-.002.644-.115c.15-.055.225-.083.272-.085zM6.61 2c.327 0 .49 0 .662.087.02.01.053.03.072.042.162.105.224.215.35.435.16.276.306.617.306.936l-.006.102c-.062.504-.576.898-1.094.898-.27 0-.538-.107-.742-.28-.101-.087-.152-.13-.185-.132h-.015c-.033.003-.084.048-.187.139-.191.17-.457.273-.77.273-.314 0-.58-.104-.773-.273-.103-.091-.154-.136-.187-.139h-.015c-.033.002-.084.045-.185.132-.204.173-.471.28-.74.28-.519 0-1.032-.394-1.095-.898L2 3.5l.006-.12c.03-.284.16-.575.298-.816.127-.22.19-.33.352-.435l.072-.042C2.9 2 3.063 2 3.39 2z"/></svg>