<svg xmlns="http://www.w3.org/2000/svg" width="24" height="24" fill="currentColor" viewBox="0 0 10 10"><path d="M4.5 1.5a.6.6 0 0 1 .6.6c0 .093 0 .14.01.178a.3.3 0 0 0 .212.212c.038.01.085.01.178.01h.677c.337 0 .507 0 .66.058l.066.028c.148.07.266.191.501.434l.326.336c.344.355.516.532.533.748a1 1 0 0 1 0 .092c-.017.216-.19.393-.533.747l-.326.337c-.235.243-.353.364-.5.434l-.067.028c-.153.058-.323.058-.66.058H5.86c-.338 0-.508 0-.62.096a.4.4 0 0 0-.044.044c-.096.113-.096.281-.096.62V7.9a.6.6 0 0 1-1.2 0V6.467c0-.25 0-.374-.053-.467a.4.4 0 0 0-.147-.146C3.607 5.8 3.483 5.8 3.233 5.8c-.498 0-.748 0-.933-.108a.8.8 0 0 1-.293-.293c-.107-.185-.108-.434-.108-.932V4.02c0-.677.001-1.015.193-1.24a1 1 0 0 1 .089-.089c.224-.19.563-.191 1.239-.191h.08c.093 0 .14 0 .178-.01a.3.3 0 0 0 .212-.212c.01-.038.01-.085.01-.178a.6.6 0 0 1 .6-.6m-1 2.95a.35.35 0 1 0 0 .7h1.4a.35.35 0 0 0 0-.7zm0-1.3a.35.35 0 1 0 0 .7h2.4a.35.35 0 0 0 0-.7z"/></svg>