<svg xmlns="http://www.w3.org/2000/svg" width="24" height="24" fill="currentColor" viewBox="0 0 10 10"><path d="m4.088 6.575-.285.052a.49.49 0 0 0 .088.973h2.218a.49.49 0 0 0 .088-.973l-.285-.052c-.157-.029-.236-.043-.293-.086a.3.3 0 0 1-.087-.104C5.5 6.321 5.5 6.241 5.5 6.081v-.522c0-.45 0-.676.117-.834a.6.6 0 0 1 .111-.116c.155-.122.38-.13.83-.144l1.303-.044A.66.66 0 0 0 7.84 3.1H2.161a.66.66 0 0 0-.022 1.321l1.302.044c.45.015.676.022.83.144a.6.6 0 0 1 .112.116c.117.158.117.384.117.834v.522c0 .16 0 .24-.032.304a.3.3 0 0 1-.087.104c-.057.043-.136.057-.293.086"/></svg>