<svg xmlns="http://www.w3.org/2000/svg" width="24" height="24" fill="currentColor" viewBox="0 0 10 10"><path d="M5 1.5a2.6 2.6 0 0 1 2.043 4.203c-.214.272-.32.407-.336.514l-.004.046c-.003.107.061.226.19.463l.442.815a.582.582 0 0 1-1.006.585l-.564-.902a.903.903 0 0 0-1.53 0l-.564.902a.582.582 0 0 1-1.005-.585l.44-.816c.129-.237.193-.355.19-.462l-.004-.046c-.015-.106-.122-.242-.336-.513A2.6 2.6 0 0 1 5 1.5m0 .9a1.7 1.7 0 0 0-1.7 1.7l.008.174c.082.8.718 1.437 1.518 1.518L5 5.801c.88 0 1.604-.67 1.691-1.527l.009-.173a1.7 1.7 0 0 0-1.526-1.692zm0 .8A.9.9 0 1 1 4.999 5a.9.9 0 0 1 0-1.8"/></svg>