<svg xmlns="http://www.w3.org/2000/svg" width="24" height="24" fill="currentColor" viewBox="0 0 10 10"><path d="M5.067 1.807c.327.037.6.595 1.145 1.71.433.887.943 1.813 1.46 2.488.208.272.313.407.343.528l.011.054c.019.123-.019.264-.093.546l-.01.036c-.101.386-.152.58-.289.7a1 1 0 0 1-.062.048c-.152.102-.351.102-.75.102H6.6c-.256 0-.384 0-.483-.064l-.041-.03c-.09-.076-.128-.199-.203-.444l-.148-.484c-.28-.915-.42-1.373-.676-1.406a.4.4 0 0 0-.101 0c-.256.033-.396.49-.676 1.406l-.147.483c-.075.246-.112.368-.203.444l-.04.03c-.1.065-.228.065-.484.065h-.22c-.4 0-.6 0-.75-.102a1 1 0 0 1-.063-.048c-.137-.12-.189-.314-.29-.7l-.009-.036c-.074-.282-.112-.423-.093-.546l.011-.054c.03-.12.135-.256.343-.528.517-.675 1.026-1.6 1.46-2.488.545-1.116.818-1.673 1.145-1.71a.6.6 0 0 1 .134 0"/></svg>