<svg xmlns="http://www.w3.org/2000/svg" width="24" height="24" fill="currentColor" viewBox="0 0 10 10"><path d="M5.048 1.584c.225.018.407.206.771.583l1.495 1.547c.048.05.072.074.086.093a.4.4 0 0 1-.207.626 1 1 0 0 1-.124.024.4.4 0 0 0-.368.371l-.001.065v.87c0 .095 0 .142.01.186a.4.4 0 0 0 .093.18c.03.033.07.06.147.115.077.054.116.081.146.114a.4.4 0 0 1 .094.18c.01.044.01.091.01.185v.936c0 .338 0 .507-.096.62a.4.4 0 0 1-.045.044c-.112.096-.281.096-.619.096-.32 0-.479 0-.588-.086a.4.4 0 0 1-.066-.066c-.086-.11-.086-.27-.086-.588v-.76a.7.7 0 0 0-1.4 0v.76c0 .319 0 .479-.086.588a.4.4 0 0 1-.067.066c-.109.086-.268.086-.588.086-.338 0-.507 0-.619-.096a.4.4 0 0 1-.045-.045C2.8 8.166 2.8 7.997 2.8 7.66v-.936c0-.094 0-.141.01-.185a.4.4 0 0 1 .093-.18c.03-.033.07-.06.147-.114a1 1 0 0 0 .146-.115.4.4 0 0 0 .094-.18c.01-.044.01-.091.01-.185v-.87l-.001-.066a.4.4 0 0 0-.304-.36l-.065-.011a1 1 0 0 1-.124-.024.4.4 0 0 1-.207-.626c.014-.019.038-.044.086-.093L4.18 2.167c.364-.376.546-.565.772-.583a1 1 0 0 1 .096 0"/></svg>