<svg xmlns="http://www.w3.org/2000/svg" width="24" height="24" fill="currentColor" viewBox="0 0 10 10"><path d="M2.75 1.8c.046 0 .07 0 .089.002a.4.4 0 0 1 .36.358l.001.09c0 .046 0 .07.002.089a.4.4 0 0 0 .359.36l.09.001h.25c.046 0 .069 0 .088-.002a.4.4 0 0 0 .359-.36c.002-.019.002-.042.002-.088s0-.07.002-.09a.4.4 0 0 1 .359-.358c.02-.002.043-.002.089-.002h.4c.046 0 .07 0 .09.002a.4.4 0 0 1 .358.358c.002.02.002.044.002.09s0 .07.002.089a.4.4 0 0 0 .359.36L6.1 2.7h.25c.046 0 .07 0 .09-.002a.4.4 0 0 0 .358-.36c.002-.019.002-.042.002-.088s0-.07.002-.09a.4.4 0 0 1 .36-.358L7.25 1.8h.075c.169 0 .253 0 .319.018a.5.5 0 0 1 .363.43c.007.067-.007.15-.034.316l-.11.662a.9.9 0 0 1-.374.591.903.903 0 0 0-.257 1.204l.36.598a.8.8 0 0 1 .096.195c.012.048.012.097.012.197v.954c0 .55 0 .824-.156 1.007a1 1 0 0 1-.072.072c-.183.156-.457.156-1.007.156-.248 0-.372 0-.464-.053A.4.4 0 0 1 5.853 8C5.8 7.907 5.8 7.783 5.8 7.535V6.7a.8.8 0 1 0-1.6 0v.835c0 .248 0 .372-.053.464A.4.4 0 0 1 4 8.147c-.092.053-.216.053-.464.053-.55 0-.825 0-1.008-.156a1 1 0 0 1-.071-.072C2.3 7.789 2.3 7.515 2.3 6.965V6.01c0-.099 0-.148.012-.196l.005-.02a1 1 0 0 1 .091-.175l.359-.598a.903.903 0 0 0-.256-1.204.9.9 0 0 1-.373-.591l-.11-.662c-.028-.166-.042-.25-.035-.317a.5.5 0 0 1 .363-.429c.066-.018.15-.018.319-.018z"/></svg>