<svg xmlns="http://www.w3.org/2000/svg" width="24" height="24" fill="currentColor" viewBox="0 0 10 10"><path d="M2.75 1.8c.046 0 .07 0 .089.002a.4.4 0 0 1 .36.358l.001.09c0 .046 0 .07.002.089a.4.4 0 0 0 .359.36l.088.001h.25c.047 0 .07 0 .09-.002a.4.4 0 0 0 .359-.36c.002-.019.002-.042.002-.088s0-.07.002-.09a.4.4 0 0 1 .359-.358L4.8 1.8h.4c.046 0 .07 0 .09.002a.4.4 0 0 1 .358.358l.001.09c0 .046 0 .07.002.089.02.19.17.34.36.36L6.1 2.7h.25c.046 0 .07 0 .09-.002a.4.4 0 0 0 .358-.36c.002-.019.002-.042.002-.088s0-.07.002-.09a.4.4 0 0 1 .358-.358c.02-.002.044-.002.09-.002h.068c.163 0 .245 0 .308.016a.5.5 0 0 1 .37.447c.005.065-.01.145-.04.304l-.063.337c-.02.104-.029.156-.043.204a1 1 0 0 1-.292.461c-.038.034-.081.065-.166.127-.141.103-.212.154-.268.21a1 1 0 0 0-.287.791c.007.08.028.164.07.333l.41 1.635c.166.666.25 1 .097 1.236a1 1 0 0 1-.073.094c-.193.205-.536.205-1.223.205a.32.32 0 0 1-.318-.318V6.7a.8.8 0 1 0-1.6 0v1.182a.32.32 0 0 1-.318.318c-.687 0-1.031 0-1.224-.205a1 1 0 0 1-.072-.094c-.152-.236-.069-.57.098-1.236l.408-1.635c.042-.169.063-.253.07-.333a1 1 0 0 0-.287-.79c-.056-.057-.127-.108-.268-.21a2 2 0 0 1-.165-.128 1 1 0 0 1-.292-.46 2 2 0 0 1-.043-.205l-.063-.337c-.03-.16-.045-.24-.04-.304a.5.5 0 0 1 .37-.447c.062-.016.144-.016.307-.016z"/></svg>