<svg xmlns="http://www.w3.org/2000/svg" width="24" height="24" fill="currentColor" viewBox="0 0 10 10"><path d="M2.75 1.8c.046 0 .07 0 .089.002a.4.4 0 0 1 .36.358l.001.09c0 .046 0 .07.002.089a.4.4 0 0 0 .359.36l.09.001h.25c.046 0 .069 0 .088-.002a.4.4 0 0 0 .359-.36c.002-.019.002-.042.002-.088s0-.07.002-.09a.4.4 0 0 1 .359-.358c.02-.002.043-.002.089-.002h.4c.046 0 .07 0 .09.002a.4.4 0 0 1 .358.358c.002.02.002.044.002.09s0 .07.002.089a.4.4 0 0 0 .359.36L6.1 2.7h.25c.046 0 .07 0 .09-.002a.4.4 0 0 0 .358-.36c.002-.019.002-.042.002-.088s0-.07.002-.09a.4.4 0 0 1 .36-.358c.019-.002.042-.002.088-.002h.128c.207 0 .31 0 .393.03a.5.5 0 0 1 .3.299c.03.083.029.187.029.393v.707c0 .293-.151.566-.4.721a.85.85 0 0 0-.4.722v2.293c0 .55 0 .824-.155 1.007a1 1 0 0 1-.073.072c-.182.156-.457.156-1.007.156a.266.266 0 0 1-.265-.265V6.7a.8.8 0 1 0-1.6 0v1.235a.266.266 0 0 1-.265.265c-.55 0-.825 0-1.007-.156a1 1 0 0 1-.073-.072C2.7 7.789 2.7 7.514 2.7 6.965V4.672a.85.85 0 0 0-.4-.722.85.85 0 0 1-.4-.721v-.707c0-.206 0-.31.03-.393a.5.5 0 0 1 .299-.299c.082-.03.186-.03.393-.03z"/></svg>