<svg xmlns="http://www.w3.org/2000/svg" width="24" height="24" fill="currentColor" viewBox="0 0 10 10"><path d="M5.05 4.364c.193.022.355.17.678.463l1.217 1.104a.354.354 0 0 1-.194.614.354.354 0 0 0-.31.35l-.006.831a.493.493 0 0 1-.985-.003v-.406a.467.467 0 0 0-.934 0v.4a.5.5 0 0 1-1 0v-.805a.36.36 0 0 0-.308-.356.359.359 0 0 1-.192-.62l1.222-1.109c.324-.294.485-.441.678-.463a.6.6 0 0 1 .135 0M1.49 2.5c.145 0 .267.103.295.24l.012.121a.3.3 0 0 0 .294.24h.143a.3.3 0 0 0 .294-.24l.012-.12a.3.3 0 0 1 .295-.241h.24c.145 0 .266.103.294.24l.012.121c.028.136.15.24.295.24h.143a.3.3 0 0 0 .294-.24l.012-.12a.3.3 0 0 1 .294-.241h.074c.257 0 .467.21.467.468v.492q0 .03-.004.062c-.01.079-.083.126-.161.137a1.3 1.3 0 0 0-.566.24c-.131.092-.274.217-.412.336l-1.243 1.08c-.4.348-.45.876-.242 1.279.074.141.11.212.11.285l-.001.031a.2.2 0 0 1-.041.124.3.3 0 0 1-.092.092 1 1 0 0 1-.076.04c-.196.08-.296.012-.494-.121a.5.5 0 0 1-.115-.105c-.156-.182-.156-.457-.156-1.007V4.408a.56.56 0 0 0-.258-.474.57.57 0 0 1-.259-.474v-.492c0-.258.209-.468.467-.468zm5.964-.828c.233.02.419.22.789.623l.719.781a.305.305 0 0 1-.172.506.306.306 0 0 0-.252.3v.777c0 .118 0 .179.016.234l.01.025c.02.054.055.103.126.197l.03.04a.9.9 0 0 1 .127.197l.008.025a.9.9 0 0 1 .017.233v.69c0 .337 0 .507-.096.619a.4.4 0 0 1-.045.045c-.112.095-.282.095-.619.095a.24.24 0 0 1-.241-.24v-.835a.47.47 0 0 0-.132-.325l-.318-.327c-.004-.005.002.003-.001-.002-.003-.003.128.15.075.089a1 1 0 0 0-.107-.108l-.922-.8c-.09-.08-.137-.12-.163-.172l-.01-.023C6.27 4.26 6.27 4.2 6.27 4.08v-.198a.305.305 0 0 0-.252-.3.305.305 0 0 1-.172-.506l.72-.781c.37-.402.555-.604.788-.623a1 1 0 0 1 .1 0"/></svg>