<svg xmlns="http://www.w3.org/2000/svg" width="24" height="24" fill="currentColor" viewBox="0 0 10 10"><path d="M5.101 3.064c.193.022.355.169.678.463L6.996 4.63a.355.355 0 0 1-.195.614.354.354 0 0 0-.31.35l-.005 1.13a.494.494 0 0 1-.985-.001v-.707a.467.467 0 0 0-.934 0v.7a.5.5 0 0 1-1 0v-.294l-.001-.007V5.6a.36.36 0 0 0-.308-.344.358.358 0 0 1-.191-.62l1.222-1.11c.323-.293.485-.44.677-.462a.6.6 0 0 1 .135 0m-2-.3.023.003c.214.036.32.054.384.209a.4.4 0 0 1 .018.065c.027.165-.1.276-.356.499l-.546.475c-.46.4-.457 1.038-.131 1.45.055.07.074.162.074.251v.7a.5.5 0 0 1-1 0V5.311a.36.36 0 0 0-.31-.355.359.359 0 0 1-.19-.62l1.22-1.11c.324-.294.487-.44.68-.462a.6.6 0 0 1 .133 0m4 0c.193.022.355.168.678.462L8.996 4.33a.355.355 0 0 1-.195.615.354.354 0 0 0-.31.35l-.005 1.13a.494.494 0 0 1-.985-.002v-.707c0-.097.018-.198.077-.275a1.04 1.04 0 0 0-.14-1.43l-.542-.47c-.256-.223-.384-.334-.357-.499a.4.4 0 0 1 .018-.065c.063-.155.17-.173.385-.21l.024-.003a.6.6 0 0 1 .135 0"/></svg>