<svg xmlns="http://www.w3.org/2000/svg" width="24" height="24" fill="currentColor" viewBox="0 0 10 10"><path d="M4.6 7.601c0 .185 0 .278-.025.353a.5.5 0 0 1-.321.322c-.076.024-.168.024-.354.024-.846 0-1.269 0-1.55-.24a1 1 0 0 1-.11-.11C2 7.67 2 7.246 2 6.4V3.6c0-.846 0-1.27.24-1.55a1 1 0 0 1 .11-.11c.281-.24.704-.24 1.55-.24.186 0 .278 0 .354.024a.5.5 0 0 1 .321.322c.025.075.025.167.025.353zM6.1 1.7c.846 0 1.269 0 1.55.24a1 1 0 0 1 .11.11C8 2.33 8 2.754 8 3.6v2.8c0 .846 0 1.27-.24 1.55q-.05.06-.11.11c-.281.24-.704.24-1.55.24-.186 0-.278 0-.354-.024a.5.5 0 0 1-.321-.322C5.4 7.88 5.4 7.786 5.4 7.601V2.399c0-.186 0-.278.025-.353a.5.5 0 0 1 .321-.322c.076-.024.168-.024.354-.024m-3 4a.4.4 0 1 0 .8 0V5a.4.4 0 1 0-.8 0zm3.4-1.1a.4.4 0 0 0-.4.4v.7a.4.4 0 1 0 .8 0V5a.4.4 0 0 0-.4-.4"/></svg>