<svg xmlns="http://www.w3.org/2000/svg" width="24" height="24" fill="currentColor" viewBox="0 0 10 10"><path d="M2.557 5.729c1.122-.631 2.08-.204 2.695.032.332.128.56.205.78.217.185.01.396-.027.672-.216a.7.7 0 0 1 .793 1.154c-.525.36-1.04.487-1.541.46-.469-.026-.89-.187-1.207-.308-.687-.264-1.028-.387-1.506-.119a.7.7 0 0 1-.686-1.22m1.548-3.096c.469.047.882.236 1.177.365.33.146.542.233.754.254.173.018.384-.007.683-.201a.701.701 0 0 1 .761 1.176c-.55.356-1.077.469-1.585.418-.469-.048-.882-.236-1.177-.366-.33-.145-.542-.231-.754-.252-.173-.018-.385.006-.684.2a.7.7 0 1 1-.76-1.176c.55-.356 1.077-.47 1.585-.418"/></svg>