<svg xmlns="http://www.w3.org/2000/svg" width="24" height="24" fill="currentColor" viewBox="0 0 10 10"><path d="M5.224 7.886c-.498.148-.927.133-1.24.07a2.2 2.2 0 0 1-.494-.16l-.037-.02-.015-.008-.004-.002-.003-.001-.001-.001-.002-.001a.65.65 0 0 1 .644-1.13l-.004-.002-.003-.002.021.009c.029.011.08.03.15.043.136.027.35.04.624-.043l.019-.006c.312-.086.572-.313.76-.67.084-.163-.09-.32-.267-.271a2.3 2.3 0 0 1-.888.076 1.81 1.81 0 0 1-1.433-1.04 1.93 1.93 0 0 1 .02-1.682c.289-.563.855-.951 1.621-1.032.806-.085 1.454.24 1.883.777.407.511.596 1.185.625 1.834.03.653-.1 1.35-.41 1.94-.313.597-.828 1.119-1.566 1.322m-.317-3.287c.7 0 1-.304 1-.7s-.4-.7-1-.7-.9.3-.9.7.2.7.9.7"/></svg>