<svg xmlns="http://www.w3.org/2000/svg" width="24" height="24" fill="currentColor" viewBox="0 0 10 10"><path d="M4.884 2.113a2.6 2.6 0 0 1 1.24-.07 2.2 2.2 0 0 1 .494.16l.037.02.014.007.005.003.002.001.002.001h.002v.001a.65.65 0 0 1-.644 1.13l.004.002.003.002-.022-.009a1 1 0 0 0-.148-.043 1.3 1.3 0 0 0-.625.043l-.02.006c-.311.086-.571.313-.759.67-.085.163.09.32.266.271a2.3 2.3 0 0 1 .889-.076 1.81 1.81 0 0 1 1.433 1.04c.24.514.255 1.144-.02 1.682-.289.563-.856.951-1.621 1.032-.806.084-1.454-.24-1.883-.777-.407-.511-.597-1.185-.626-1.834-.029-.653.101-1.35.411-1.941.312-.596.827-1.118 1.565-1.321M5.2 5.4c-.7 0-.9.304-.9.7s.3.7.9.7.9-.3.9-.7-.2-.7-.9-.7"/></svg>