<svg xmlns="http://www.w3.org/2000/svg" width="24" height="24" fill="currentColor" viewBox="0 0 10 10"><path d="M3.616 2c.386 0 .687.332.65.716L4.093 4.47a.522.522 0 1 0 1.042.052v-.528a.65.65 0 0 1 1.3 0v.639c0 .233.177.428.409.452l.036.003a.608.608 0 0 1 0 1.21l-.036.004a.455.455 0 0 0-.409.452v.59a.65.65 0 0 1-1.3 0v-.4c0-.187 0-.28-.03-.354a.4.4 0 0 0-.216-.216c-.074-.03-.168-.03-.355-.03-.813 0-1.22 0-1.49-.21a1 1 0 0 1-.243-.272c-.177-.293-.13-.697-.037-1.504l.205-1.78A.65.65 0 0 1 3.616 2"/></svg>