<svg xmlns="http://www.w3.org/2000/svg" width="24" height="24" fill="currentColor" viewBox="0 0 10 10"><path d="M6.15 2a.65.65 0 0 1 0 1.3h-1.4a.45.45 0 0 0-.45.45c0 .262.221.465.482.47.29.005.605.036.903.115.326.087.683.246.963.54.293.308.452.716.452 1.197 0 .534-.184.983-.52 1.314-.32.317-.731.48-1.119.555-.757.147-1.628 0-2.202-.287a.65.65 0 0 1 .582-1.163c.326.163.906.265 1.373.175.225-.044.37-.122.452-.204.068-.067.134-.174.134-.39 0-.177-.05-.254-.095-.301-.058-.061-.167-.129-.355-.179-.388-.103-.893-.079-1.253-.034C3.547 5.628 3 5.211 3 4.601V3.9c0-.846 0-1.27.24-1.55a1 1 0 0 1 .11-.11C3.632 2 4.055 2 4.9 2z"/></svg>