<svg xmlns="http://www.w3.org/2000/svg" width="24" height="24" fill="currentColor" viewBox="0 0 10 10"><path d="M7.269 4.121a.35.35 0 0 1-.556-.428h.001V3.69l.023-.026.047-.049c.038-.036.092-.081.162-.126.144-.09.353-.177.63-.191.278-.014.58.059.816.234.247.185.414.481.38.852q-.016.165-.066.297c-.07.188-.105.283-.104.32v.018c.005.037.05.127.141.305q.06.116.094.264a.91.91 0 0 1-.283.89c-.216.197-.51.302-.788.316a1.45 1.45 0 0 1-.911-.266l-.017-.013-.009-.008-.052-.05a.35.35 0 0 1 .002-.443.35.35 0 0 1 .493-.046l.017.011a.754.754 0 0 0 .438.115.6.6 0 0 0 .352-.133.22.22 0 0 0 .073-.226c-.035-.16-.132-.232-.261-.277a1 1 0 0 0-.199-.044L7.65 5.41l-.042-.006c-.01-.001-.038-.003-.066-.01a.356.356 0 0 1-.273-.327.35.35 0 0 1 .256-.359c.027-.008.054-.011.064-.013l.083-.014a1 1 0 0 0 .185-.053c.109-.047.2-.121.217-.309a.23.23 0 0 0-.1-.224.58.58 0 0 0-.36-.098.6.6 0 0 0-.29.084.3.3 0 0 0-.054.042q-.005.005-.006.007v-.003l.005-.004M5.053 3.25c.4 0 .678.2.843.445.153.23.21.5.21.697 0 .523-.374.946-.673 1.24-.064.062-.096.093-.109.114a.198.198 0 0 0 .122.299 1 1 0 0 0 .15.006h.26a.35.35 0 0 1 0 .7H4.548c-.03 0-.115.002-.195-.019a.46.46 0 0 1-.322-.284.46.46 0 0 1-.02-.3c.024-.087.077-.158.086-.17.103-.153.256-.302.397-.433.154-.142.301-.27.449-.413.306-.3.462-.538.462-.74a.6.6 0 0 0-.091-.308.28.28 0 0 0-.261-.135.37.37 0 0 0-.29.127.5.5 0 0 0-.081.126l-.002.001a.35.35 0 0 1-.66-.23V3.97l.002-.001v-.004l.004-.009.011-.027q.014-.034.04-.082c.033-.065.086-.151.163-.238.16-.178.425-.36.813-.36m-2.733.003.016.003.054.012.006.002c.013.004.026.01.051.02l.043.019a.46.46 0 0 1 .22.352c.01.077.01.174.01.254v1.842a.3.3 0 0 0 .286.282h.04a.35.35 0 0 1 .01.7l-.68.01h-.76a.35.35 0 0 1 0-.7c.096 0 .145 0 .184-.01a.3.3 0 0 0 .209-.21c.01-.04.01-.088.01-.183V4.61a.131.131 0 0 0-.223-.092.35.35 0 0 1-.492-.498l.497-.49c.057-.056.125-.125.186-.172a.48.48 0 0 1 .333-.106"/></svg>