<svg xmlns="http://www.w3.org/2000/svg" width="24" height="24" fill="currentColor" viewBox="0 0 10 10"><path d="M5.052 1.987c.513-.009 1.039.126 1.454.436.431.321.717.815.728 1.426.005.306-.064.576-.19.805-.083.152-.125.228-.126.276v.02c.003.047.047.122.135.272.137.234.214.512.22.828a1.78 1.78 0 0 1-.678 1.45c-.405.325-.926.477-1.44.486a3 3 0 0 1-1.22-.238 2.7 2.7 0 0 1-.479-.268l-.01-.009-.006-.003-.002-.001v-.001h-.001a.65.65 0 0 1 .8-1.024V6.44l.034.021a1.666 1.666 0 0 0 .863.224c.285-.005.51-.09.648-.2a.48.48 0 0 0 .191-.413c-.003-.154-.047-.21-.075-.237a.6.6 0 0 0-.26-.128 2 2 0 0 0-.411-.055l-.176-.006c-.02 0-.066-.001-.112-.007-.018-.003-.08-.01-.153-.037a.653.653 0 0 1 .106-1.26c.045-.009.09-.014.111-.016l.177-.018a2 2 0 0 0 .419-.084.7.7 0 0 0 .274-.15c.03-.03.063-.079.061-.203a.48.48 0 0 0-.204-.407c-.142-.105-.37-.182-.656-.177a1.312 1.312 0 0 0-.795.302q-.027.023-.035.032V3.62a.65.65 0 1 1-.945-.894l.016-.016a2 2 0 0 1 .127-.117 2.6 2.6 0 0 1 1.61-.607m-.82 4.45.005.004z"/></svg>