<svg xmlns="http://www.w3.org/2000/svg" width="24" height="24" fill="currentColor" viewBox="0 0 10 10"><path d="M6.032 5.428c.347 0 .521 0 .64.132a1 1 0 0 1 .044.06c.093.15.053.287-.027.559-.216.73-.77 1.249-1.662 1.249-.893 0-1.447-.518-1.662-1.25-.08-.271-.121-.407-.029-.559a1 1 0 0 1 .045-.06c.12-.131.293-.131.64-.131zm-2.72-2.609c.197-.175.53-.383.812-.122.433.4-.102 1.7-.985 1.7s-1.427-1.3-.978-1.7c.293-.26.621-.055.814.12.085.078.127.117.161.12h.015c.034-.003.076-.041.162-.118m3.722 0c.196-.176.527-.385.811-.124.435.4-.093 1.7-.976 1.7-.882 0-1.435-1.3-.987-1.7.291-.26.62-.054.814.121.085.078.128.116.162.119h.014c.035-.003.077-.04.162-.117"/></svg>