<svg xmlns="http://www.w3.org/2000/svg" width="24" height="24" fill="currentColor" viewBox="0 0 10 10"><path d="M2.694 5.286c.2.021.312.21.535.588.115.195.215.385.261.526.147.45-.102 1.1-.837 1.1s-.984-.65-.837-1.1c.046-.14.145-.331.26-.526.223-.378.335-.567.535-.588a.4.4 0 0 1 .083 0m3.06.565a3.7 3.7 0 0 1 1.848.633.5.5 0 0 1-.555.831 2.7 2.7 0 0 0-1.352-.466 2.3 2.3 0 0 0-.521.029l-.02.004a.5.5 0 0 1-.262-.965l.132.482-.13-.482h.001l.002-.001.006-.001.018-.005.052-.012q.066-.014.178-.029c.148-.019.356-.033.604-.018M3.225 2.5c.5 0 .8.4.8 1s-.3 1-.8 1-.8-.4-.8-1 .3-1 .8-1m4.2 0c.5 0 .8.4.8 1s-.3 1-.8 1-.8-.4-.8-1 .3-1 .8-1"/></svg>