<svg xmlns="http://www.w3.org/2000/svg" width="24" height="24" fill="currentColor" viewBox="0 0 10 10"><path d="M5 5.7a2.95 2.95 0 0 1 1.906.7l.03.03.014.014h.002v.002h.001l.064.079a.5.5 0 0 1-.692.692l-.077-.062-.002-.001v-.001l-.007-.006-.057-.047a1.949 1.949 0 0 0-2.42.047l-.01.006a.5.5 0 1 1-.706-.707h.001v-.001l.002-.001.014-.014.031-.03a2.827 2.827 0 0 1 .491-.34c.33-.179.812-.36 1.414-.36M3.752 7.154H3.75l.001-.001zM2.102 3.267a.55.55 0 0 1 .73-.266l1.178.55a.55.55 0 1 1-.465.996L2.367 4a.55.55 0 0 1-.265-.732m5.143-.266A.55.55 0 0 1 7.71 4l-1.177.548a.55.55 0 1 1-.465-.996z"/></svg>