<svg xmlns="http://www.w3.org/2000/svg" width="24" height="24" fill="currentColor" viewBox="0 0 10 10"><path d="M3.046 5.697a.5.5 0 0 1 .707 0l.008.007q.016.015.056.046a1.95 1.95 0 0 0 2.42-.047l.01-.006.077-.065a.5.5 0 0 1 .63.772l-.017.016-.032.029a2.802 2.802 0 0 1-.491.34 2.95 2.95 0 0 1-3.32-.34q-.02-.018-.031-.029l-.017-.016a.5.5 0 0 1 0-.707M3.1 2.85c.39 0 .691.155.885.297a1.7 1.7 0 0 1 .307.293l.007.009.002.003.002.002-.404.296.405-.295a.5.5 0 0 1-.74.666l-.066-.074v.001l-.016-.017a1 1 0 0 0-.087-.077.5.5 0 0 0-.295-.104.5.5 0 0 0-.295.104 1 1 0 0 0-.088.077l-.017.017a.5.5 0 0 1-.804-.593l.001-.001.001-.002.003-.003.007-.01.019-.023q.023-.03.062-.072a1.7 1.7 0 0 1 .225-.197c.194-.142.495-.297.886-.297m3.8 0c.39 0 .691.155.885.297a1.7 1.7 0 0 1 .307.293l.007.009.002.003.002.002-.404.296.405-.295a.5.5 0 0 1-.74.666l-.066-.074v.001l-.016-.017a1 1 0 0 0-.088-.077.5.5 0 0 0-.295-.104.5.5 0 0 0-.295.104 1 1 0 0 0-.087.077l-.017.017a.5.5 0 0 1-.804-.593l.001-.001.001-.002.003-.003.007-.01.019-.023q.023-.03.062-.072c.052-.055.127-.126.225-.197.193-.142.495-.297.885-.297"/></svg>