<svg xmlns="http://www.w3.org/2000/svg" width="24" height="24" fill="currentColor" viewBox="0 0 10 10"><path d="M3.668 2.701a.5.5 0 0 1 .063.998c-.094.006-.141.009-.175.02a.28.28 0 0 0-.206.222c-.007.035-.006.088-.004.195.009.432-.044.814-.087 1.163-.061.504-.103.958.03 1.508a.4.4 0 0 1-.778.187c-.168-.698-.11-1.272-.046-1.792.044-.36.087-.689.08-1.041 0-.08-.001-.12-.016-.164a.32.32 0 0 0-.213-.196c-.045-.011-.091-.008-.185-.002A.5.5 0 0 1 2.07 2.8zm4.263.1a.5.5 0 0 1-.063.998.31.31 0 0 0-.321.321c.01.438-.045.825-.088 1.179-.061.504-.103.958.03 1.508a.4.4 0 0 1-.778.187c-.167-.698-.109-1.272-.046-1.792.044-.357.087-.683.082-1.033-.003-.172-.004-.257-.06-.334a.3.3 0 0 0-.057-.06c-.073-.058-.17-.064-.361-.076a.5.5 0 0 1 .062-.998zM4.999 4.4c.5 0 .8.5.8 1s-.3 1-.8 1-.8-.5-.8-1 .3-1 .8-1"/></svg>