<svg xmlns="http://www.w3.org/2000/svg" width="24" height="24" fill="currentColor" viewBox="0 0 10 10"><path d="M5.557 5.987a.93.93 0 0 1 .74-.083c.27.082.529.28.798.577a.4.4 0 1 1-.591.538c-.23-.253-.372-.33-.44-.35-.04-.013-.066-.011-.12.019a1 1 0 0 0-.13.089c-.046.035-.12.095-.185.142-.139.1-.35.23-.63.23-.278 0-.489-.13-.627-.23-.065-.047-.14-.107-.186-.142a1 1 0 0 0-.129-.09c-.055-.03-.08-.031-.122-.019-.068.021-.21.098-.44.35a.4.4 0 0 1-.591-.537c.27-.297.529-.495.798-.577a.93.93 0 0 1 .741.083c.09.05.169.108.232.156.071.055.112.09.166.128.098.07.138.079.159.079s.06-.008.159-.08c.054-.038.095-.072.167-.127.063-.048.142-.107.231-.156M2.047 3.06a.4.4 0 0 1 .542-.164l1.334.71a.5.5 0 0 1 0 .884l-1.334.711a.4.4 0 0 1-.377-.706l.21-.112c.26-.139.39-.208.402-.313a.2.2 0 0 0 0-.043c-.012-.105-.142-.175-.402-.314l-.21-.112a.4.4 0 0 1-.164-.541m5.365-.164a.4.4 0 0 1 .377.705l-.21.112c-.26.139-.39.209-.402.314a.2.2 0 0 0 0 .043c.011.105.141.174.402.313l.21.112a.4.4 0 0 1-.377.706l-1.334-.711a.5.5 0 0 1 0-.883z"/></svg>