<svg xmlns="http://www.w3.org/2000/svg" width="24" height="24" fill="currentColor" viewBox="0 0 10 10"><path d="M6.04 5.6c.347 0 .52 0 .64.132a1 1 0 0 1 .044.06c.092.152.052.288-.03.558C6.476 7.081 5.91 7.6 5 7.6c-.91 0-1.476-.519-1.695-1.25-.081-.27-.122-.406-.03-.558a1 1 0 0 1 .046-.06c.119-.132.292-.132.64-.132zM2.046 2.611a.4.4 0 0 1 .541-.164l1.334.71a.5.5 0 0 1 0 .884l-1.334.712a.4.4 0 0 1-.377-.707l.21-.112c.26-.139.39-.208.402-.313a.2.2 0 0 0 0-.043c-.011-.105-.141-.175-.402-.314l-.21-.112a.4.4 0 0 1-.164-.541m5.364-.164a.4.4 0 0 1 .377.705l-.21.112c-.26.14-.39.209-.402.314a.2.2 0 0 0 0 .043c.012.105.142.174.402.313l.21.112a.4.4 0 0 1-.377.707L6.077 4.04a.5.5 0 0 1 0-.883z"/></svg>