<svg xmlns="http://www.w3.org/2000/svg" width="24" height="24" fill="currentColor" viewBox="0 0 10 10"><path d="M5.273 1.532c.443-.188.982-.158 1.585.007a.6.6 0 0 1-.316 1.157c-.496-.135-.72-.093-.802-.059-.045.02-.095.052-.137.203-.048.173-.06.416-.047.73a1 1 0 0 0 .009.11.3.3 0 0 0 .241.232 1 1 0 0 0 .115.005h.38a.6.6 0 0 1 0 1.2h-.215c-.135 0-.203 0-.256.02a.3.3 0 0 0-.173.18c-.02.053-.017.122-.013.262.013.428.008.928-.08 1.387-.084.448-.269.964-.701 1.301-.462.36-1.06.409-1.721.229a.6.6 0 1 1 .316-1.158c.438.12.604.032.667-.017.093-.072.197-.24.261-.58.062-.327.07-.72.058-1.126-.006-.197-.01-.296-.06-.369a.3.3 0 0 0-.083-.08c-.075-.05-.175-.05-.377-.05H3.7a.6.6 0 1 1 0-1.2h.372c.163 0 .29-.136.284-.3-.013-.331-.011-.733.09-1.098.108-.385.346-.783.826-.986"/></svg>