<svg xmlns="http://www.w3.org/2000/svg" width="24" height="24" fill="currentColor" viewBox="0 0 10 10"><path d="M6.393 3.06c.68-.135 1.253.07 1.64.495.362.4.517.943.517 1.444 0 .508-.165 1.052-.53 1.448-.385.42-.957.63-1.63.492l-.032-.008a2.34 2.34 0 0 1-1.084-.652.36.36 0 0 0-.51.003c-.29.302-.66.557-1.157.657-.68.136-1.253-.07-1.64-.494-.362-.4-.517-.944-.517-1.446 0-.501.155-1.045.518-1.444.386-.425.96-.63 1.64-.494.49.098.856.34 1.144.63a.36.36 0 0 0 .508 0 2.16 2.16 0 0 1 1.133-.63m-3 1.079c-.32-.064-.497.03-.61.155-.138.15-.233.407-.233.705s.095.555.232.705c.114.125.29.22.61.157.36-.073.595-.312.865-.717a.29.29 0 0 0-.002-.32c-.265-.384-.5-.613-.862-.685m3.825.155c-.114-.125-.291-.219-.61-.155-.35.07-.582.296-.842.68a.285.285 0 0 0 .001.32c.257.376.496.62.855.723.295.057.47-.031.589-.16.141-.153.24-.411.24-.703 0-.298-.096-.554-.233-.705"/></svg>