<svg xmlns="http://www.w3.org/2000/svg" width="24" height="24" fill="currentColor" viewBox="0 0 10 10"><path d="M7.805 1.724a.5.5 0 0 1 .384.594l-.377 1.755a1.4 1.4 0 0 0-.037.212.5.5 0 0 0 .41.507c.045.008.101.008.215.008a.5.5 0 0 1 0 1h-.19c-.347 0-.521 0-.65.091a1 1 0 0 0-.053.043c-.116.107-.153.277-.226.617l-.276 1.29a.532.532 0 0 1-.088.219.508.508 0 0 1-.895-.112c-.014-.036-.025-.077-.026-.081l-.439-1.639a1 1 0 0 0-.03-.106.5.5 0 0 0-.417-.32C5.084 5.8 5.056 5.8 5 5.8c-.058 0-.086 0-.111.003a.5.5 0 0 0-.417.32 1 1 0 0 0-.03.106l-.439 1.638a.533.533 0 0 1-.099.214.508.508 0 0 1-.91-.24l-.276-1.29c-.073-.34-.11-.51-.225-.617a1 1 0 0 0-.053-.043c-.13-.09-.303-.09-.651-.09H1.7a.5.5 0 0 1 0-1l.042-.001a.5.5 0 0 0 .474-.588l-.008-.04-.397-1.854a.501.501 0 0 1 .978-.21l.532 2.48a.268.268 0 0 0 .521.013l.656-2.448s.012-.043.026-.081a.509.509 0 0 1 .41-.325l.036-.003a.4.4 0 0 1 .132.012l.083.02a.51.51 0 0 1 .29.296c.016.038.026.08.026.08l.656 2.449a.269.269 0 0 0 .522-.013l.532-2.48a.5.5 0 0 1 .594-.384"/></svg>