<svg xmlns="http://www.w3.org/2000/svg" width="24" height="24" fill="currentColor" viewBox="0 0 10 10"><path d="M5.1 2c1.131 0 2.05.919 2.05 2.05a2.04 2.04 0 0 1-.62 1.466l-.096.095c-.15.159-.163.315-.041.497l.046.064.585.792a.65.65 0 0 1-1.046.771L4.896 6.269l-.007-.01a.4.4 0 0 0-.313-.158h-.012l-.021.001a.4.4 0 0 0-.39.39v.86a.651.651 0 0 1-1.301 0V5.348l-.001-.042V3.9c0-.846 0-1.27.24-1.55q.05-.06.11-.11C3.48 2 3.904 2 4.75 2zm-.25 1.3c-.33 0-.494 0-.604.091a.4.4 0 0 0-.056.056c-.09.11-.09.275-.09.603 0 .329 0 .493.09.604a.4.4 0 0 0 .056.055c.11.091.275.091.604.091h.3a.75.75 0 0 0 0-1.5z"/></svg>