<svg xmlns="http://www.w3.org/2000/svg" width="24" height="24" fill="currentColor" viewBox="0 0 10 10"><path d="M3.52 2.608c.64-.64 1.844-.81 3.01-.327a.65.65 0 0 1-.499 1.202c-.834-.347-1.429-.118-1.59.043a.5.5 0 0 0-.135.334.28.28 0 0 0 .136.251c.18.12.404.176.775.255.328.07.804.165 1.225.446 1.004.67.978 2.241-.139 2.88l-.001-.001c-.518.305-1.152.354-1.695.28-.552-.073-1.125-.286-1.54-.627a.65.65 0 0 1 .827-1.004c.185.153.513.294.886.344.376.05.686-.006.866-.114l.006-.003.006-.004c.283-.162.257-.54.062-.67-.18-.12-.404-.176-.775-.255-.329-.07-.805-.165-1.225-.445a1.58 1.58 0 0 1-.714-1.333c0-.468.193-.93.515-1.252"/></svg>