<svg xmlns="http://www.w3.org/2000/svg" width="24" height="24" fill="currentColor" viewBox="0 0 10 10"><path d="M5.31 2C6.3 2 7.1 2.801 7.1 3.79c0 .203-.047.405-.139.588l-.1.201c-.04.078-.06.117-.07.155a.4.4 0 0 0 .04.303c.02.035.049.067.106.133l.12.139c.22.252.343.576.343.91A1.78 1.78 0 0 1 5.62 8H4.7c-.846 0-1.269 0-1.55-.24a1 1 0 0 1-.11-.11c-.24-.281-.24-.704-.24-1.55V3.9c0-.846 0-1.269.24-1.55q.05-.06.11-.11C3.432 2 3.855 2 4.7 2zm-.66 3.5c-.281 0-.422 0-.518.076a.4.4 0 0 0-.055.056C4 5.728 4 5.869 4 6.15s0 .422.077.518q.024.031.055.056c.096.076.237.076.518.076h.9a.65.65 0 0 0 0-1.3zm-.017-2.3c-.265 0-.398 0-.491.069a.4.4 0 0 0-.073.073C4 3.434 4 3.568 4 3.833v.033c0 .266 0 .399.069.491a.4.4 0 0 0 .073.075c.093.068.226.068.491.068h.617a.65.65 0 0 0 0-1.3z"/></svg>