<svg xmlns="http://www.w3.org/2000/svg" width="24" height="24" fill="currentColor" viewBox="0 0 10 10"><path d="M6.7 2a.7.7 0 0 1 .7.7v4.6a.7.7 0 0 1-1.4 0v-.65c0-.422 0-.634-.12-.774a1 1 0 0 0-.055-.056c-.14-.12-.352-.12-.775-.12h-.1c-.422 0-.634 0-.774.12a1 1 0 0 0-.056.056c-.12.14-.12.352-.12.775v.65a.7.7 0 0 1-1.4 0V2.7a.7.7 0 0 1 1.4 0v.65c0 .422 0 .634.12.774q.026.03.056.056c.14.12.352.12.774.12h.1c.423 0 .635 0 .775-.12a1 1 0 0 0 .056-.056C6 3.985 6 3.773 6 3.35V2.7A.7.7 0 0 1 6.7 2"/></svg>