<svg xmlns="http://www.w3.org/2000/svg" width="24" height="24" fill="currentColor" viewBox="0 0 10 10"><path d="M5.5 2c.513 0 .954.128 1.26.25a3.5 3.5 0 0 1 .477.235l.032.02q.007.005.012.008l.004.003h.002v.002l.11.09a.7.7 0 0 1-.884 1.076l-.005-.003-.05-.029A2.024 2.024 0 0 0 5.5 3.4a1.6 1.6 0 0 0 0 3.2c.286 0 .547-.072.74-.15a2 2 0 0 0 .22-.101l.05-.03.007-.005a.7.7 0 0 1 .772 1.168v.001h-.001l-.002.001-.004.003-.012.008a2 2 0 0 1-.14.082 4 4 0 0 1-.37.173c-.305.122-.746.25-1.26.25a3 3 0 0 1 0-6"/></svg>