<svg xmlns="http://www.w3.org/2000/svg" width="24" height="24" fill="currentColor" viewBox="0 0 10 10"><path d="M2.924 2a.9.9 0 0 1 .74.396l.006.01.46.69c.371.556.557.834.816.86a.6.6 0 0 0 .107 0c.26-.026.446-.304.817-.86l.459-.69.006-.01A.9.9 0 0 1 7.075 2h.034a.9.9 0 0 1 .89.89v4.5a.65.65 0 0 1-.61.609H7.21a.65.65 0 0 1-.609-.61V5.798c0-.421-.002-.632-.064-.722a.35.35 0 0 0-.402-.13c-.104.035-.228.206-.475.546-.194.266-.29.4-.404.459a.55.55 0 0 1-.513 0c-.113-.06-.21-.193-.404-.459-.247-.34-.371-.511-.475-.547a.35.35 0 0 0-.402.13c-.062.091-.062.302-.062.723V7.3l-.001.09a.65.65 0 0 1-.61.609H2.61a.65.65 0 0 1-.61-.61C1.998 7.37 2 7.346 2 7.3V2.89A.9.9 0 0 1 2.89 2z"/></svg>