<svg xmlns="http://www.w3.org/2000/svg" width="24" height="24" fill="currentColor" viewBox="0 0 10 10"><path d="M5.383 2a4.1 4.1 0 0 1 1.234.181 3 3 0 0 1 .448.183l.032.018.012.006.005.003h.001v.001h.001l.001.001.106.08a.65.65 0 0 1-.771 1.037l.002.001v.001l-.036-.017a2 2 0 0 0-.193-.075 2.8 2.8 0 0 0-.842-.119c-.93 0-1.682.754-1.682 1.683v.106c0 .882.733 1.61 1.63 1.61.357 0 .674-.176.868-.444.19-.263-.075-.555-.4-.555a.65.65 0 0 1 0-1.3h.655c.688 0 1.246.558 1.246 1.246C7.7 6.954 6.623 8 5.33 8 3.731 8 2.4 6.705 2.4 5.09v-.106A2.984 2.984 0 0 1 5.383 2"/></svg>