<svg xmlns="http://www.w3.org/2000/svg" width="24" height="24" fill="currentColor" viewBox="0 0 10 10"><path d="M5 2.667a.8.8 0 0 1 .8.8v.063c0 .208 0 .312.053.37a.2.2 0 0 0 .085.054c.075.024.17-.02.358-.107a.8.8 0 0 1 .677 1.45l-.186.086c-.168.078-.252.117-.282.19l-.009.03c-.018.076.029.157.121.318l.123.212a.8.8 0 0 1-1.385.8l-.027-.047c-.14-.241-.21-.362-.313-.372h-.037c-.103.01-.173.131-.312.373l-.026.046a.8.8 0 0 1-1.385-.8l.123-.215c.093-.16.139-.24.12-.318l-.008-.028c-.03-.074-.114-.113-.282-.19l-.18-.085a.8.8 0 0 1 .675-1.45c.19.088.284.132.36.108a.2.2 0 0 0 .084-.054c.053-.058.053-.162.053-.371v-.062a.8.8 0 0 1 .8-.8"/></svg>