<svg xmlns="http://www.w3.org/2000/svg" width="24" height="24" fill="currentColor" viewBox="0 0 10 10"><path d="M3.02 3.02a.7.7 0 0 1 .99 0l.315.314c.302.303.453.454.64.467a1 1 0 0 0 .07 0c.187-.013.338-.164.64-.467l.315-.314a.7.7 0 0 1 .99.99l-.315.315c-.302.302-.453.453-.466.64a1 1 0 0 0 0 .07c.013.187.164.338.466.64l.315.315a.7.7 0 0 1-.99.99l-.315-.314c-.302-.303-.453-.454-.64-.467a1 1 0 0 0-.07 0c-.187.013-.338.164-.64.467l-.315.314a.7.7 0 0 1-.99-.99l.314-.315c.303-.302.454-.453.467-.64a1 1 0 0 0 0-.07c-.013-.187-.164-.338-.467-.64L3.02 4.01a.7.7 0 0 1 0-.99"/></svg>