<svg xmlns="http://www.w3.org/2000/svg" width="24" height="24" fill="currentColor" viewBox="0 0 10 10"><path d="M6.8 1.701a.5.5 0 0 1 .5.5v.849c0 .187 0 .28.04.35a.3.3 0 0 0 .11.11c.07.04.163.04.35.04a.45.45 0 0 1 0 .9c-.187 0-.28 0-.35.04a.3.3 0 0 0-.11.11c-.04.07-.04.163-.04.35v.1c0 .187 0 .28.04.35a.3.3 0 0 0 .11.11c.07.04.163.04.35.04a.45.45 0 0 1 0 .9c-.187 0-.28 0-.35.04a.3.3 0 0 0-.11.11c-.04.07-.04.163-.04.35v.616c0 .05 0 .132-.007.2a.7.7 0 0 1-.048.183.534.534 0 0 1-.798.228.6.6 0 0 1-.136-.13c-.043-.054-.085-.125-.112-.167l-.72-1.16c-.077-.125-.116-.187-.175-.224l-.027-.015c-.062-.03-.136-.03-.282-.03h-.726c-.253 0-.38 0-.464.071l-.034.033c-.072.085-.072.212-.072.465V7.8a.5.5 0 0 1-1 0v-.85c0-.186 0-.279-.04-.348a.3.3 0 0 0-.11-.11c-.07-.04-.163-.04-.349-.04a.45.45 0 0 1 0-.901c.186 0 .28 0 .349-.04a.3.3 0 0 0 .11-.11c.04-.07.04-.163.04-.35v-.1c0-.187 0-.28-.04-.349a.3.3 0 0 0-.11-.11c-.07-.04-.163-.04-.349-.04a.45.45 0 0 1 0-.901c.186 0 .28 0 .349-.04a.3.3 0 0 0 .11-.11c.04-.07.04-.163.04-.35v-.615c0-.05 0-.133.007-.201a.6.6 0 0 1 .047-.183.54.54 0 0 1 .278-.28l.068-.023a1 1 0 0 1 .07-.015l.12-.004a.54.54 0 0 1 .399.225c.042.054.086.125.112.167l.72 1.16c.078.124.116.186.176.223q.012.008.026.015c.063.03.136.03.283.03h.725c.254 0 .38 0 .465-.071l.033-.033c.072-.084.072-.211.072-.465V2.2a.5.5 0 0 1 .5-.5M3.7 5.174c0 .07 0 .106.005.135a.3.3 0 0 0 .235.235c.03.006.065.006.136.006.118 0 .178 0 .217-.011a.3.3 0 0 0 .208-.374c-.012-.039-.043-.089-.106-.19l-.256-.412a.238.238 0 0 0-.44.125zm2.159.263a.238.238 0 0 0 .441-.126v-.484c0-.071 0-.107-.006-.136a.3.3 0 0 0-.234-.235c-.03-.006-.065-.006-.137-.006-.119 0-.178 0-.218.011a.3.3 0 0 0-.207.373c.011.04.043.09.105.192z"/></svg>