<svg xmlns="http://www.w3.org/2000/svg" width="24" height="24" fill="currentColor" viewBox="0 0 10 10"><path d="M5.875 2.188a.6.6 0 1 1 1.039.601.164.164 0 0 0 .141.246H7.1a.7.7 0 0 1 0 1.4h-.82c-.14 0-.21 0-.271.029a.3.3 0 0 0-.046.026c-.054.038-.09.099-.16.22-.19.33-.285.496-.238.627a.3.3 0 0 0 .053.091c.09.107.28.107.662.107h.82a.7.7 0 0 1 0 1.4H4.848c-.152 0-.228 0-.292.033l-.027.016c-.06.04-.099.105-.175.236l-.34.591a.6.6 0 1 1-1.04-.6l.043-.073a.135.135 0 0 0-.117-.203.7.7 0 0 1 0-1.4h.724c.14 0 .211 0 .271-.028a.3.3 0 0 0 .046-.026c.054-.038.09-.1.16-.22.19-.331.286-.497.238-.628a.3.3 0 0 0-.052-.09c-.09-.108-.281-.108-.663-.108H2.9a.7.7 0 0 1 0-1.4h2.156c.152 0 .228 0 .292-.033l.027-.015c.06-.04.099-.105.175-.237z"/></svg>