<svg xmlns="http://www.w3.org/2000/svg" width="24" height="24" fill="currentColor" viewBox="0 0 10 10"><path d="M5.819 2.362a.6.6 0 0 1 1.039.6l-2.7 4.677a.6.6 0 0 1-1.04-.6zm1.44 2.94a.86.86 0 0 1 .57.366c.144.202.221.46.221.727s-.077.526-.221.728a.84.84 0 0 1-.68.372.84.84 0 0 1-.678-.372 1.26 1.26 0 0 1-.221-.728c0-.267.077-.525.221-.727s.378-.373.679-.373zm-4.3-2.899c.249.036.444.19.57.365.144.202.221.461.221.728s-.077.526-.221.727a.84.84 0 0 1-.679.373.84.84 0 0 1-.679-.373 1.26 1.26 0 0 1-.221-.727c0-.267.077-.526.221-.728a.84.84 0 0 1 .68-.373z"/></svg>