<svg xmlns="http://www.w3.org/2000/svg" width="24" height="24" fill="currentColor" viewBox="0 0 10 10"><path d="M5 1.25a.45.45 0 0 1 .45.45v.2c0 .068 0 .102.008.13a.2.2 0 0 0 .11.126c.025.011.063.017.137.028.375.055.764.168 1.034.36a.5.5 0 0 1-.58.814c-.08-.057-.286-.139-.6-.185-.057-.008-.109.04-.109.099v1.103c0 .136 0 .204.034.255l.016.02c.04.046.108.064.245.1.25.066.502.148.723.26.428.214.818.579.878 1.193a1.36 1.36 0 0 1-.621 1.311c-.27.18-.596.285-.927.342-.164.029-.246.043-.291.09l-.018.02c-.039.054-.039.13-.039.284v.05a.45.45 0 0 1-.9 0v-.07c0-.152 0-.229-.04-.282l-.018-.021c-.046-.047-.125-.06-.283-.084a5 5 0 0 1-.226-.042c-.423-.089-.848-.235-1.134-.45a.5.5 0 0 1 .6-.8c.113.085.37.194.74.272.116.024.175.037.228.018a.2.2 0 0 0 .103-.084c.03-.048.03-.113.03-.243v-.713c0-.135 0-.202-.033-.252L4.5 5.528c-.04-.046-.107-.064-.242-.102a3.5 3.5 0 0 1-.63-.233c-.428-.215-.818-.58-.878-1.194-.054-.553.15-.999.509-1.307.335-.289.775-.436 1.19-.503.057-.01.1-.055.1-.113V1.7A.45.45 0 0 1 5 1.25m.45 5.22c0 .192 0 .288.066.347l.03.023c.075.046.157.022.32-.025a1.1 1.1 0 0 0 .303-.133c.14-.093.2-.197.182-.383-.016-.16-.095-.277-.332-.396l-.103-.047c-.184-.077-.276-.116-.36-.071l-.032.021c-.074.06-.074.17-.074.391zm-.9-2.823c0-.208 0-.312-.077-.372l-.034-.021c-.087-.044-.166-.006-.326.07a1 1 0 0 0-.2.126c-.118.101-.188.231-.167.452.016.16.095.278.332.397.18.09.27.136.359.093l.035-.021c.078-.06.078-.174.078-.4z"/></svg>