<svg xmlns="http://www.w3.org/2000/svg" width="24" height="24" fill="currentColor" viewBox="0 0 10 10"><path d="M7.9 4a.5.5 0 1 1 0 1h-.45c-.423 0-.634 0-.775.12a1 1 0 0 0-.055.055c-.12.14-.12.352-.12.775v.6a.45.45 0 1 0 .9 0V6.5a.5.5 0 0 1 1 0v.502c0 .083 0 .18-.006.262a.8.8 0 0 1-.1.333.8.8 0 0 1-.298.298.8.8 0 0 1-.333.098c-.082.008-.177.007-.26.007h-.905c-.083 0-.18 0-.262-.007a.8.8 0 0 1-.333-.098.8.8 0 0 1-.298-.298.8.8 0 0 1-.098-.333c-.008-.083-.007-.179-.007-.262V5.487A.5.5 0 0 0 5.013 5h-.07a.48.48 0 0 0-.484.43l-.007.063c-.048.407-.14.797-.32 1.148-.345.672-.961 1.12-1.918 1.345a.5.5 0 0 1-.229-.972c.743-.175 1.077-.477 1.257-.83q.05-.096.087-.203c.125-.354.188-.53.074-.73a1 1 0 0 0-.055-.077C3.198 5 2.963 5 2.492 5H2.1a.5.5 0 0 1 0-1zm-.7-2a.5.5 0 0 1 0 1H2.8a.5.5 0 0 1 0-1z"/></svg>