<svg xmlns="http://www.w3.org/2000/svg" width="24" height="24" fill="currentColor" viewBox="0 0 10 10"><path d="M5.106 2c.27 0 .405 0 .506.068l.042.034c.092.082.124.212.19.473.008.033.012.05.018.065.033.09.106.159.2.185.014.004.032.007.067.013.357.063.557.113.701.24a.8.8 0 0 1 .149.175c.121.194.12.45.12.963v2.263c0 .677 0 1.015-.19 1.24a1 1 0 0 1-.09.089C6.595 7.999 6.257 8 5.58 8H4.42c-.677 0-1.015 0-1.24-.192a1 1 0 0 1-.088-.09C2.9 7.495 2.9 7.157 2.9 6.48V4.216c0-.512 0-.769.121-.963a.8.8 0 0 1 .149-.175c.144-.127.344-.177.701-.24.035-.006.053-.009.068-.013a.3.3 0 0 0 .2-.185l.017-.065c.066-.26.098-.392.19-.473l.042-.034C4.489 2 4.624 2 4.894 2zM4.3 4.75a.55.55 0 0 0 0 1.1h1.4a.55.55 0 0 0 0-1.1z"/></svg>