<svg xmlns="http://www.w3.org/2000/svg" width="24" height="24" fill="currentColor" viewBox="0 0 10 10"><path d="M7.1 1.8a1 1 0 0 1 .704 1.71c-.17.167-.254.251-.277.298l-.009.02c-.019.049-.021.12-.026.261-.014.445-.064.717-.237.916a1 1 0 0 1-.1.1c-.282.244-.71.245-1.565.245a.19.19 0 0 0-.19.19v.374c0 .135 0 .202.018.252l.011.026c.023.048.107.131.275.298a1 1 0 1 1-1.408 0c.168-.167.252-.25.275-.298l.01-.026c.019-.05.019-.117.019-.252V5.54a.19.19 0 0 0-.19-.19c-.856 0-1.283 0-1.565-.244a1 1 0 0 1-.101-.1c-.173-.2-.223-.472-.237-.916-.005-.141-.007-.212-.026-.26l-.01-.02c-.022-.047-.106-.131-.276-.3a1 1 0 1 1 1.412-.003c-.176.176-.264.264-.287.322l-.009.025c-.018.06-.01.119.004.237a.5.5 0 0 0 .108.288 1 1 0 0 0 .05.05c.14.122.354.122.782.122h1.49c.428 0 .642 0 .783-.122a1 1 0 0 0 .05-.05.5.5 0 0 0 .107-.289c.014-.118.02-.177.003-.236l-.009-.025c-.023-.057-.11-.146-.287-.322A1 1 0 0 1 7.1 1.8"/></svg>