<svg xmlns="http://www.w3.org/2000/svg" width="24" height="24" fill="currentColor" viewBox="0 0 10 10"><path d="M2.756 4.29a.426.426 0 0 1 .386-.756l.53.27c.233.12.35.18.439.136a.2.2 0 0 0 .035-.021c.078-.06.078-.191.078-.453v-.64c0-.136 0-.282.015-.4a.64.64 0 0 1 .253-.456.6.6 0 0 1 .118-.066l.08-.027a.67.67 0 0 1 .442.05c.108.049.232.126.348.198l1.412.869c.111.068.232.14.322.214.08.065.199.181.24.361l.008.05.004.03v.036l-.002.098a.64.64 0 0 1-.272.43c-.092.07-.216.138-.33.202l-.335.187c-.257.143-.386.215-.396.32a.2.2 0 0 0 .001.044c.013.104.145.172.407.306l.31.158c.114.058.239.121.333.186a.64.64 0 0 1 .285.416q.01.065.008.13a.64.64 0 0 1-.228.451c-.084.077-.2.155-.304.228l-1.426.987c-.118.082-.244.17-.353.225-.107.055-.31.139-.537.05a.6.6 0 0 1-.122-.064c-.203-.137-.25-.351-.266-.47-.016-.121-.015-.274-.015-.419v-.616c0-.272 0-.408-.08-.468a.2.2 0 0 0-.037-.02c-.092-.043-.21.024-.448.156l-.503.281a.425.425 0 0 1-.414-.742l.742-.414c.257-.144.386-.216.395-.321a.2.2 0 0 0 0-.043c-.014-.105-.145-.172-.408-.306zM5.9 6.529c.22-.152.33-.228.333-.328a.2.2 0 0 0-.003-.041c-.017-.099-.136-.16-.373-.282l-.23-.117c-.234-.12-.351-.18-.44-.137a.2.2 0 0 0-.035.021c-.079.06-.079.191-.079.454v.277c0 .3 0 .45.089.51a.2.2 0 0 0 .038.02c.1.039.223-.047.47-.217zM5.843 4.01c.238-.133.357-.199.37-.3a.2.2 0 0 0 0-.04c-.008-.102-.124-.173-.356-.315l-.204-.126c-.241-.149-.362-.223-.457-.182a.2.2 0 0 0-.037.02c-.085.06-.085.202-.085.486v.239c0 .272 0 .408.081.468a.2.2 0 0 0 .036.02c.092.042.211-.024.448-.156z"/></svg>