<svg xmlns="http://www.w3.org/2000/svg" width="24" height="24" fill="currentColor" viewBox="0 0 10 10"><path d="M8 6.725c0 .279 0 .418-.027.533a1 1 0 0 1-.74.74c-.115.027-.254.027-.533.027H3.3c-.279 0-.418 0-.533-.027a1 1 0 0 1-.74-.74C2 7.143 2 7.004 2 6.725v-1.68c0-.254 0-.38.072-.465l.033-.033c.084-.072.211-.072.465-.072h4.86c.254 0 .38 0 .465.072q.018.015.033.033C8 4.664 8 4.791 8 5.045zm-4.7-.3a.5.5 0 1 0 0 1 .5.5 0 0 0 0-1m1.7 0a.5.5 0 0 0 0 1h1.7a.5.5 0 0 0 0-1zm-1.7-1.5a.5.5 0 1 0 0 1 .5.5 0 0 0 0-1m1.7 0a.5.5 0 1 0 0 1 .5.5 0 0 0 0-1m1.7 0a.5.5 0 1 0 0 1 .5.5 0 0 0 0-1m-.2-2.95a.5.5 0 0 1 .5.5v.1c0 .138.112.25.25.25a.75.75 0 0 1 .75.75.1.1 0 0 1-.1.1H2.1a.1.1 0 0 1-.1-.1.75.75 0 0 1 .75-.75.25.25 0 0 0 .25-.25v-.1a.5.5 0 0 1 1 0v.067c0 .156.127.283.283.283h1.434A.283.283 0 0 0 6 2.54v-.066a.5.5 0 0 1 .5-.5"/></svg>