<svg xmlns="http://www.w3.org/2000/svg" width="24" height="24" fill="currentColor" viewBox="0 0 10 10"><path d="M6.86 4.7c.506 0 .76 0 .929.144q.036.03.067.066C8 5.078 8 5.333 8 5.84v.05c0 .762 0 1.143-.216 1.395a1 1 0 0 1-.1.1c-.252.215-.633.216-1.394.216H3.71c-.762 0-1.142 0-1.395-.216a1 1 0 0 1-.1-.1C2 7.033 2 6.652 2 5.891V5.84c0-.507 0-.762.143-.93a1 1 0 0 1 .067-.066c.168-.144.422-.144.93-.144zM2.493 2.4c.38 0 .618.412.429.742l-.417.722A.271.271 0 0 1 2 3.73v-.834c0-.273.221-.494.494-.495m1.873 0c.278 0 .451.301.312.542l-.505.877a.362.362 0 0 1-.626-.361l.505-.877a.36.36 0 0 1 .314-.18m1.66 0c.303 0 .493.329.34.591l-.468.812a.394.394 0 1 1-.681-.394l.468-.811c.07-.122.2-.198.341-.198m1.667 0c.169 0 .306.137.306.306v.78a.515.515 0 1 1-.96-.258l.39-.674a.3.3 0 0 1 .264-.154"/></svg>