<svg xmlns="http://www.w3.org/2000/svg" width="24" height="24" fill="currentColor" viewBox="0 0 10 10"><path d="M6.1 2.507A1.5 1.5 0 0 1 7.512 4.51c-.037.1-.001.216.085.28A1.5 1.5 0 0 1 6.7 7.493H3.3a1.5 1.5 0 0 1-.81-2.762.24.24 0 0 0 .11-.204v-.02a1.5 1.5 0 0 1 2.066-1.389c.098.04.214.012.282-.07.275-.33.688-.541 1.152-.541M4.959 3.738c-.194.016-.349.183-.657.517l-.341.369c-.22.239-.332.36-.366.453a.5.5 0 0 0 .326.65c.19.043.286.065.328.112.006.007.01.01.015.018.036.052.036.125.036.27V6.2c0 .28 0 .422.067.523q.045.065.11.11c.101.067.242.067.523.067.28 0 .422 0 .522-.067a.4.4 0 0 0 .11-.11c.068-.101.068-.242.068-.523v-.071c0-.146 0-.219.036-.27l.016-.02c.042-.046.138-.068.328-.111a.5.5 0 0 0 .325-.65c-.034-.094-.145-.214-.366-.453l-.342-.37c-.308-.333-.462-.5-.656-.516a1 1 0 0 0-.082 0"/></svg>