<svg xmlns="http://www.w3.org/2000/svg" width="24" height="24" fill="currentColor" viewBox="0 0 10 10"><path d="M6.65 2a1 1 0 1 1-.37 1.929c-.131-.053-.197-.08-.239-.08-.008 0-.011 0-.019.002-.04.005-.085.03-.173.083l-.526.308-.468.259c-.377.208-.565.312-.582.467a.3.3 0 0 0 0 .064c.017.155.205.26.582.467l.489.27.505.296c.088.052.132.078.173.083l.018.001c.042.002.108-.025.24-.078A1 1 0 1 1 5.65 7a.21.21 0 0 0-.097-.18L4.05 5.934c-.088-.052-.133-.078-.174-.083l-.018-.001c-.041-.002-.108.025-.24.078a1 1 0 1 1 0-1.858c.132.052.199.079.24.077h.018a.5.5 0 0 0 .174-.084l1.504-.884A.2.2 0 0 0 5.65 3a1 1 0 0 1 1-1"/></svg>