<svg xmlns="http://www.w3.org/2000/svg" width="24" height="24" fill="currentColor" viewBox="0 0 10 10"><path d="M5.882 7.625a.6.6 0 0 0 .272-.101c.228-.154.266-.566.272-1.344a.51.51 0 0 1 .51-.508c.64 0 .96 0 1.124-.192a.6.6 0 0 0 .06-.087c.126-.22.015-.522-.203-1.123l-.326-.897c-.166-.457-.25-.686-.426-.827a1 1 0 0 0-.08-.056c-.192-.118-.436-.118-.923-.118h-.814c-.677 0-1.015 0-1.24.192a1 1 0 0 0-.088.089c-.192.224-.192.563-.192 1.24v1.213c0 .266 0 .399.041.522l.02.054c.05.12.137.22.312.421l.262.302c.728.84 1.091 1.26 1.419 1.22M3.027 2.973a.6.6 0 1 0-1.2 0v2.1a.6.6 0 0 0 1.2 0z"/></svg>