<svg xmlns="http://www.w3.org/2000/svg" width="24" height="24" fill="currentColor" viewBox="0 0 10 10"><path d="M5.3 1.948c.349 0 .524 0 .685.056q.034.013.07.028c.155.068.283.188.54.426l.35.326c.282.263.423.395.505.563l.032.075c.067.174.068.367.068.753v2.357c0 .678 0 1.017-.192 1.241a1 1 0 0 1-.089.088c-.225.192-.564.192-1.241.19l-2.06-.001c-.676-.001-1.014-.002-1.238-.194a1 1 0 0 1-.089-.087c-.191-.225-.191-.564-.191-1.24V3.468c0-.677 0-1.015.192-1.24a1 1 0 0 1 .089-.088c.224-.192.563-.192 1.24-.192zM3.75 6.4a.401.401 0 0 0 0 .801h1.5a.4.4 0 0 0 0-.8zM3.75 5a.4.4 0 0 0 0 .8h2a.4.4 0 0 0 0-.8zm1.658-2.432a.4.4 0 0 0-.21.086c-.148.12-.148.428-.148 1.043 0 .283 0 .425.069.527a.4.4 0 0 0 .107.107c.102.069.244.07.527.07.615 0 .922-.001 1.042-.15a.4.4 0 0 0 .087-.208c.02-.19-.197-.408-.632-.843-.434-.435-.652-.652-.842-.632"/></svg>