<svg xmlns="http://www.w3.org/2000/svg" width="24" height="24" fill="currentColor" viewBox="0 0 10 10"><path d="M5 2a3 3 0 1 1 0 6 3 3 0 0 1 0-6M3.37 3.694l-.05.022c-.113.057-.179.179-.31.423l-.075.138c-.15.28-.225.42-.2.557a.4.4 0 0 0 .015.058c.045.132.18.217.446.387l.195.123c.144.092.217.139.27.204l.02.03c.048.069.07.152.116.318l.086.317c.054.197.08.296.146.368l.03.03c.074.064.174.089.373.139l.907.226c.212.053.318.08.418.054l.042-.014c.096-.037.166-.12.306-.288l.155-.184c.352-.42.528-.63.48-.828a.4.4 0 0 0-.03-.078c-.088-.183-.357-.232-.897-.33l-.387-.071c-.24-.044-.36-.065-.445-.14l-.035-.036c-.074-.085-.093-.206-.133-.446l-.034-.2c-.036-.217-.054-.326-.119-.408l-.03-.033c-.073-.073-.18-.103-.392-.164l-.35-.1c-.266-.076-.4-.115-.519-.074m1.85-.901a.4.4 0 0 0-.364.13q-.004.006-.015.018l-.03.037a.4.4 0 0 0 .124.588l.042.022.454.227c.08.04.12.06.154.087l.015.013c.032.03.058.066.11.139l.377.529a1 1 0 0 0 .058.075.4.4 0 0 0 .152.105 1 1 0 0 0 .09.026c.135.035.202.052.259.05A.4.4 0 0 0 7 4.6c.023-.052.031-.12.049-.258l.014-.114c.013-.1.02-.151.014-.2a.4.4 0 0 0-.038-.13c-.021-.044-.054-.083-.12-.16l-.446-.531a.8.8 0 0 0-.175-.178l-.024-.014c-.054-.03-.116-.041-.24-.065l-.79-.152z"/></svg>