<svg xmlns="http://www.w3.org/2000/svg" width="24" height="24" fill="currentColor" viewBox="0 0 10 10"><path d="M5.427 2.649c.26.01.57.256 1.192.748l.519.41c.655.519.983.778 1.014 1.12a1 1 0 0 1 0 .145c-.03.342-.36.601-1.014 1.12l-.519.41c-.621.492-.932.737-1.192.748a.8.8 0 0 1-.68-.328c-.099-.137-.134-.353-.146-.705a.125.125 0 0 0-.2-.097l-.457.338c-.708.526-1.062.788-1.358.767a.8.8 0 0 1-.547-.275c-.195-.225-.194-.667-.194-1.549V4.498c0-.882 0-1.324.194-1.55a.8.8 0 0 1 .547-.274c.296-.021.65.241 1.358.767l.456.338c.082.06.197.004.2-.098.013-.351.048-.567.148-.704a.8.8 0 0 1 .679-.328"/></svg>