<svg xmlns="http://www.w3.org/2000/svg" width="24" height="24" fill="currentColor" viewBox="0 0 10 10"><path d="M6.29 2.4c.761 0 1.142 0 1.395.216q.053.046.1.1C8 2.967 8 3.348 8 4.11v1.78c0 .761 0 1.142-.216 1.395a1 1 0 0 1-.1.1c-.252.215-.633.215-1.394.215H3.71c-.761 0-1.142 0-1.395-.216a1 1 0 0 1-.1-.1C1.999 7.033 2 6.652 2 5.89V4.11c0-.761 0-1.142.215-1.395a1 1 0 0 1 .1-.1C2.568 2.4 2.95 2.4 3.71 2.4zM2.95 6.05c-.14 0-.21 0-.266.023a.3.3 0 0 0-.162.163c-.023.055-.023.124-.023.264s0 .21.023.264a.3.3 0 0 0 .162.163c.055.023.125.023.265.023s.21 0 .265-.023a.3.3 0 0 0 .163-.163c.022-.055.022-.124.022-.264s0-.21-.022-.264a.3.3 0 0 0-.163-.163c-.055-.023-.125-.023-.265-.023m4.1 0c-.14 0-.21 0-.265.023a.3.3 0 0 0-.163.163C6.6 6.29 6.6 6.36 6.6 6.5s0 .21.022.264a.3.3 0 0 0 .163.163c.055.023.125.023.264.023.14 0 .21 0 .265-.023a.3.3 0 0 0 .162-.163C7.5 6.71 7.5 6.64 7.5 6.5s0-.21-.023-.264a.3.3 0 0 0-.162-.163c-.055-.023-.125-.023-.265-.023M4.47 5.3c-.254 0-.381 0-.465.072l-.034.033c-.072.085-.072.212-.072.465v.46c0 .254 0 .38.072.465l.034.033c.084.072.21.072.464.072h1.06c.254 0 .381 0 .465-.072l.034-.033c.072-.084.072-.211.072-.465v-.46c0-.253 0-.38-.072-.465l-.034-.033C5.91 5.3 5.784 5.3 5.53 5.3zm-1.52-.75c-.14 0-.21 0-.266.023a.3.3 0 0 0-.162.163c-.023.055-.023.124-.023.264s0 .21.023.264a.3.3 0 0 0 .162.163c.055.023.125.023.265.023s.21 0 .265-.023a.3.3 0 0 0 .163-.163c.022-.055.022-.124.022-.264s0-.21-.022-.264a.3.3 0 0 0-.163-.163c-.055-.023-.125-.023-.265-.023m4.1 0c-.14 0-.21 0-.265.023a.3.3 0 0 0-.163.163C6.6 4.79 6.6 4.86 6.6 5s0 .21.022.264a.3.3 0 0 0 .163.163c.055.023.125.023.264.023.14 0 .21 0 .265-.023a.3.3 0 0 0 .162-.163C7.5 5.21 7.5 5.14 7.5 5s0-.21-.023-.264a.3.3 0 0 0-.162-.163c-.055-.023-.125-.023-.265-.023M4.47 3.1c-.254 0-.381 0-.465.072l-.034.033c-.072.084-.072.211-.072.465v.46c0 .253 0 .38.072.465l.034.033c.084.072.21.072.464.072h1.06c.254 0 .381 0 .465-.072l.034-.033c.072-.085.072-.212.072-.465v-.46c0-.254 0-.38-.072-.465l-.034-.033C5.91 3.1 5.784 3.1 5.53 3.1zm-1.52-.05c-.14 0-.21 0-.266.023a.3.3 0 0 0-.162.163c-.023.055-.023.124-.023.264s0 .21.023.264a.3.3 0 0 0 .162.163c.055.023.125.023.265.023s.21 0 .265-.023a.3.3 0 0 0 .163-.163c.022-.055.022-.124.022-.264s0-.21-.022-.264a.3.3 0 0 0-.163-.163c-.055-.023-.125-.023-.265-.023m4.1 0c-.14 0-.21 0-.265.023a.3.3 0 0 0-.163.163C6.6 3.29 6.6 3.36 6.6 3.5s0 .21.022.264a.3.3 0 0 0 .163.163c.055.023.125.023.264.023.14 0 .21 0 .265-.023a.3.3 0 0 0 .162-.163C7.5 3.71 7.5 3.64 7.5 3.5s0-.21-.023-.264a.3.3 0 0 0-.162-.163c-.055-.023-.125-.023-.265-.023"/></svg>