<svg xmlns="http://www.w3.org/2000/svg" width="24" height="24" fill="currentColor" viewBox="0 0 10 10"><path d="M5.645 1.55c.238 0 .358 0 .448.05a.4.4 0 0 1 .158.158c.05.09.049.21.049.448v1.089c0 .148.104.276.25.306a.31.31 0 0 1 .25.304V6.65a1.8 1.8 0 0 1-3.6 0V3.905a.31.31 0 0 1 .25-.304.31.31 0 0 0 .25-.306V2.206c0-.239 0-.358.049-.448a.4.4 0 0 1 .158-.158c.09-.05.21-.05.448-.05zM5 4.35a.5.5 0 0 0-.5.5v1.6a.5.5 0 0 0 1 0v-1.6a.5.5 0 0 0-.5-.5M4.4 2.1a.4.4 0 1 0 .001.801.4.4 0 0 0 0-.801m1.2 0a.4.4 0 1 0 .001.8.4.4 0 0 0 0-.8"/></svg>