<svg xmlns="http://www.w3.org/2000/svg" width="24" height="24" fill="currentColor" viewBox="0 0 10 10"><path d="M8 6c0 .75 0 1.125-.19 1.388a1 1 0 0 1-.222.22C7.325 7.8 6.95 7.8 6.2 7.8H3.8c-.75 0-1.125 0-1.388-.192a1 1 0 0 1-.22-.22C2 7.125 2 6.75 2 6v-.18c0-.3 0-.45.076-.556a.4.4 0 0 1 .089-.088C2.27 5.1 2.42 5.1 2.72 5.1h4.56c.3 0 .45 0 .555.076a.4.4 0 0 1 .089.088C8 5.37 8 5.52 8 5.82zM3.767 2.2a1 1 0 0 1 .727.319l.006.005.006.007a1 1 0 0 0 .727.319H6.2c.75 0 1.125 0 1.388.191a1 1 0 0 1 .22.22 1 1 0 0 1 .068.114c.098.204.147.306.086.466a.5.5 0 0 1-.085.135c-.118.124-.286.124-.622.124H2.37A.37.37 0 0 1 2 3.73c0-.494 0-.741.086-.934a1 1 0 0 1 .51-.51c.193-.086.44-.086.934-.086z"/></svg>