<svg xmlns="http://www.w3.org/2000/svg" width="24" height="24" fill="currentColor" viewBox="0 0 10 10"><path d="M4.95 1.65a2.7 2.7 0 0 1 2.494 1.667c.07.168.12.499.154.83.02.184.164.327.327.416.163.09.294.232.36.417.087.25.165.56.165.87 0 .308-.078.577-.165.782a.64.64 0 0 1-.301.32.68.68 0 0 0-.333.34 1.2 1.2 0 0 1-.346.5c-.211.18-.472.278-.754.333-.215.043-.46.063-.735.07a.6.6 0 0 0-.25.077.7.7 0 0 1-.316.078.7.7 0 0 1 0-1.4c.17 0 .326.062.446.164.112.094.243.178.389.166q.166-.012.292-.037c.195-.039.291-.09.343-.135.08-.07.025-.19-.06-.253a1 1 0 0 1-.41-.806v-.6c0-.263.102-.503.269-.682.096-.103.168-.234.158-.374-.022-.29-.057-.597-.106-.715a1.756 1.756 0 0 0-3.243 0c-.049.118-.084.425-.106.715-.01.14.062.27.158.374.167.179.27.419.27.683v.6a1 1 0 0 1-1 1h-.12c-.359 0-.695-.192-.814-.531a2.7 2.7 0 0 1-.166-.87c0-.307.077-.577.164-.782a.63.63 0 0 1 .263-.298c.159-.095.304-.236.323-.42.034-.331.086-.664.155-.832A2.7 2.7 0 0 1 4.95 1.65"/></svg>