<svg xmlns="http://www.w3.org/2000/svg" width="24" height="24" fill="currentColor" viewBox="0 0 10 10"><path d="M7.6 5.616a.6.6 0 0 1 .6.6v.01c0 .93 0 1.395-.264 1.704a1 1 0 0 1-.122.122c-.309.263-.774.263-1.704.263H3.89c-.93 0-1.395 0-1.704-.263a1 1 0 0 1-.122-.122C1.8 7.62 1.8 7.156 1.8 6.226v-.01a.6.6 0 0 1 1.2 0v.045c0 .38 0 .57.107.697a1 1 0 0 0 .05.05c.126.109.317.108.697.108h2.29c.38 0 .571 0 .697-.107a1 1 0 0 0 .051-.051C7 6.832 7 6.641 7 6.261v-.045l.011-.12a.6.6 0 0 1 .59-.48M5.197 1.685a.6.6 0 0 1 .6.6v.06c0 .317 0 .476.083.584a.4.4 0 0 0 .04.043c.097.095.277.115.636.156.189.021.315.062.398.14a.6.6 0 0 1 .187.41c.01.239-.231.518-.715 1.076l-.567.655c-.378.437-.568.656-.81.677a1 1 0 0 1-.103 0c-.243-.021-.432-.24-.81-.677l-.567-.655c-.484-.558-.726-.837-.716-1.075a.6.6 0 0 1 .188-.411c.083-.078.209-.118.397-.14.36-.04.54-.061.637-.156a.4.4 0 0 0 .039-.043c.083-.108.083-.267.083-.584v-.06a.6.6 0 0 1 .6-.6z"/></svg>