<svg xmlns="http://www.w3.org/2000/svg" width="24" height="24" fill="currentColor" viewBox="0 0 10 10"><path d="M5 1.8a3.2 3.2 0 1 1 0 6.4 3.2 3.2 0 0 1 0-6.4m-.02 3.55c-.274 0-.41 0-.499.087a.3.3 0 0 0-.033.04c-.072.102-.05.228-.006.482a8.5 8.5 0 0 0 .321 1.262c.035.103.128.18.237.18.04 0 .059 0 .088-.006a.33.33 0 0 0 .21-.162c.013-.026.02-.05.033-.1a10 10 0 0 0 .245-1.18c.036-.254.054-.381-.017-.48a.3.3 0 0 0-.034-.039c-.087-.084-.222-.084-.493-.084zm-1.804 0c-.183 0-.275 0-.354.058a.34.34 0 0 0-.113.168c-.025.095.006.172.068.324.208.512.587.935 1.066 1.2.068.037.14-.026.12-.101A9 9 0 0 1 3.71 5.81c-.025-.18-.037-.272-.077-.33a.3.3 0 0 0-.113-.099c-.063-.031-.157-.031-.344-.031m3.651 0c-.185 0-.278 0-.342.031a.3.3 0 0 0-.116.104c-.04.06-.05.15-.07.328-.05.429-.13.836-.208 1.171-.016.069.052.124.112.089.459-.267.82-.68 1.021-1.176.06-.15.09-.225.068-.319a.34.34 0 0 0-.117-.172c-.078-.056-.168-.056-.348-.056M3.963 3c.021-.075-.052-.14-.12-.102-.48.265-.859.689-1.066 1.2-.062.154-.093.23-.068.325a.34.34 0 0 0 .113.168c.079.058.179.058.378.058.171 0 .257 0 .32-.031a.3.3 0 0 0 .113-.099c.04-.058.052-.15.077-.33.06-.437.157-.85.253-1.189M5 2.6a.25.25 0 0 0-.237.178q-.06.182-.126.413a9 9 0 0 0-.195.85c-.044.254-.066.38.006.482l.033.04c.088.087.225.087.499.087h.052c.27 0 .406 0 .493-.084a.3.3 0 0 0 .034-.04c.071-.098.053-.225.016-.479a10 10 0 0 0-.244-1.181c-.013-.048-.02-.072-.032-.099a.33.33 0 0 0-.21-.162C5.058 2.6 5.038 2.6 5 2.6m1.09.417c.08.335.16.742.209 1.17.02.179.03.268.07.328q.044.068.116.104c.064.031.149.031.319.031.195 0 .293 0 .371-.056a.34.34 0 0 0 .117-.172c.023-.094-.007-.17-.068-.319-.2-.496-.561-.91-1.019-1.176-.061-.036-.13.02-.114.09"/></svg>