<svg xmlns="http://www.w3.org/2000/svg" width="24" height="24" fill="currentColor" viewBox="0 0 10 10"><path d="M7.16 3.2c.508 0 .762 0 .93.144a1 1 0 0 1 .066.066c.144.168.144.423.144.93v1.32c0 .508 0 .762-.144.93a1 1 0 0 1-.066.066c-.168.144-.422.144-.93.144H2.84c-.508 0-.762 0-.93-.144a1 1 0 0 1-.066-.066C1.7 6.422 1.7 6.168 1.7 5.66V4.34c0-.507 0-.762.144-.93a1 1 0 0 1 .066-.066c.168-.144.422-.144.93-.144zM2.7 5.1a.5.5 0 1 0 0 1 .5.5 0 0 0 0-1m1.4 0a.5.5 0 0 0 0 1h1.8a.5.5 0 0 0 0-1zm3.2 0a.5.5 0 1 0 0 1 .5.5 0 0 0 0-1M2.7 3.7a.5.5 0 1 0 0 1 .5.5 0 0 0 0-1m1.5 0a.5.5 0 1 0 0 1 .5.5 0 0 0 0-1m1.6 0a.5.5 0 1 0 0 1 .5.5 0 0 0 0-1m1.5 0a.5.5 0 1 0 0 1 .5.5 0 0 0 0-1"/></svg>