<svg xmlns="http://www.w3.org/2000/svg" width="24" height="24" fill="currentColor" viewBox="0 0 10 10"><path d="M4.25 2.727c.195.028.426.257.888.714.174.173.261.26.34.244l.03-.01c.074-.032.098-.166.146-.433a.5.5 0 0 1 .055-.163.6.6 0 0 1 .673-.271c.16.043.354.246.742.65l.74.768c.34.353.51.529.526.744a1 1 0 0 1 0 .092c-.017.214-.187.39-.527.744l-.739.768c-.388.404-.582.606-.742.65a.6.6 0 0 1-.673-.272.5.5 0 0 1-.06-.193c-.04-.27-.06-.404-.134-.437a.1.1 0 0 0-.032-.01c-.079-.018-.168.07-.345.247-.462.457-.693.686-.889.714a.6.6 0 0 1-.57-.237c-.116-.159-.116-.484-.116-1.135V4.1c0-.65 0-.976.117-1.135a.6.6 0 0 1 .57-.237m-2.042.06a.6.6 0 0 1 .6.6v3.2a.6.6 0 0 1-1.2 0v-3.2a.6.6 0 0 1 .6-.6"/></svg>