<svg xmlns="http://www.w3.org/2000/svg" width="24" height="24" fill="currentColor" viewBox="0 0 10 10"><path d="M5 2.18a3.2 3.2 0 0 1 2.166 5.556c-.15.138-.382.1-.501-.065-.12-.164-.08-.393.064-.535a2.464 2.464 0 1 0-3.457 0c.144.142.183.37.064.535-.12.165-.352.203-.501.065A3.199 3.199 0 0 1 5 2.18m0 1.416a1.8 1.8 0 0 1 1.32 3.023c-.132.142-.354.105-.468-.052s-.073-.374.04-.531a1.099 1.099 0 1 0-1.784 0c.113.157.154.375.04.532s-.337.193-.468.05a1.8 1.8 0 0 1-.392-1.779A1.8 1.8 0 0 1 5 3.596m0 1.3a.5.5 0 1 1 0 1 .5.5 0 0 1 0-1"/></svg>