<svg xmlns="http://www.w3.org/2000/svg" width="24" height="24" fill="currentColor" viewBox="0 0 10 10"><path d="M5.482 2.148c.492 0 .739 0 .949.103q.045.023.089.05c.197.125.326.335.583.754l.267.436c.132.215.197.322.234.441q.008.026.015.053c.03.12.03.247.03.499l.001 1.848c0 .678 0 1.016-.192 1.24a1 1 0 0 1-.089.09c-.225.191-.564.19-1.241.19l-2.26-.002c-.676 0-1.014-.002-1.238-.193a1 1 0 0 1-.089-.09c-.191-.224-.191-.562-.191-1.237V3.667c0-.676 0-1.014.192-1.239a1 1 0 0 1 .089-.089c.224-.191.563-.191 1.24-.191zm.718.851a.4.4 0 0 0-.4.4v.8a.4.4 0 0 0 .8 0v-.8c0-.22-.179-.4-.4-.4m-2.8-.3c-.221 0-.401.18-.401.401v.8a.401.401 0 0 0 .8 0v-.8a.4.4 0 0 0-.4-.4m1.4 0a.4.4 0 0 0-.4.401v.8a.4.4 0 0 0 .8 0v-.8a.4.4 0 0 0-.4-.4"/></svg>