<svg xmlns="http://www.w3.org/2000/svg" width="24" height="24" fill="currentColor" viewBox="0 0 10 10"><path d="M4.035 1.844a3.3 3.3 0 0 1 4.26 3.012q.005.023.006.044-.001.024-.003.05l.002.079a.4.4 0 0 1-.01.087c-.024.256-.09.555-.242.82A1.27 1.27 0 0 1 6.9 6.6c-.5 0-.85-.233-1.069-.541a.115.115 0 0 0-.163-.023A1.4 1.4 0 1 1 5.4 3.681c.058.028.131 0 .169-.054a.398.398 0 0 1 .727.227L6.3 4.898V4.9c0 .21.044.458.147.639.09.158.218.261.452.262a.48.48 0 0 0 .454-.262 1.35 1.35 0 0 0 .146-.626A2.502 2.502 0 1 0 5.799 7.37c.209-.07.45.001.553.196.102.195.028.44-.178.518a3.302 3.302 0 0 1-3.882-4.97 3.3 3.3 0 0 1 1.743-1.27m.761 2.468a.63.63 0 1 0 .001 1.261.63.63 0 0 0-.001-1.26"/></svg>