<svg xmlns="http://www.w3.org/2000/svg" width="24" height="24" fill="currentColor" viewBox="0 0 10 10"><path d="M7.2 4.825a.45.45 0 0 1 .45.45c0 .168-.056.375-.143.57-.092.208-.235.44-.441.66a2.5 2.5 0 0 1-1.051.664c-.245.081-.368.122-.43.176a.35.35 0 0 0-.102.143c-.032.075-.032.18-.032.387a.45.45 0 0 1-.9 0c0-.208 0-.312-.033-.387a.35.35 0 0 0-.103-.143c-.061-.054-.184-.095-.429-.176a2.5 2.5 0 0 1-1.05-.664 2.4 2.4 0 0 1-.442-.66 1.5 1.5 0 0 1-.144-.57.45.45 0 0 1 .896-.061l.017.115v.005c.003.011-.001-.004 0 .002q.014.053.053.143a1.5 1.5 0 0 0 .275.41c.254.27.686.537 1.41.537s1.155-.267 1.409-.536c.13-.14.22-.287.274-.41q.036-.085.05-.136l-.001.004v-.005l.023-.138a.45.45 0 0 1 .444-.38M5 1.675a1.2 1.2 0 0 1 1.2 1.2v1.4a1.2 1.2 0 0 1-2.4 0v-1.4a1.2 1.2 0 0 1 1.2-1.2"/></svg>