<svg xmlns="http://www.w3.org/2000/svg" width="24" height="24" fill="currentColor" viewBox="0 0 10 10"><path d="M5.8 2.05a.45.45 0 0 1 .45.45c0 .099 0 .148.015.185a.2.2 0 0 0 .042.063c.028.029.085.053.199.101q.16.067.303.186.083.072.155.155.119.143.187.304c.048.114.072.17.1.199.022.02.037.03.064.042.037.015.086.015.185.015a.45.45 0 0 1 0 .9h-.001a.2.2 0 0 0-.2.201v.299c0 .11.09.2.2.2H7.5a.45.45 0 1 1 0 .9c-.1 0-.15 0-.187.016a.2.2 0 0 0-.061.04c-.03.029-.054.086-.102.2a1.2 1.2 0 0 1-.186.303 1.4 1.4 0 0 1-.155.155q-.142.119-.302.186c-.115.048-.172.073-.2.102a.2.2 0 0 0-.041.061c-.016.038-.016.087-.016.187a.45.45 0 0 1-.9 0v-.002a.2.2 0 0 0-.201-.199H4.85a.2.2 0 0 0-.2.199V7.5a.45.45 0 0 1-.901 0c0-.1 0-.15-.016-.187a.2.2 0 0 0-.04-.062c-.029-.028-.086-.053-.2-.101a1.2 1.2 0 0 1-.304-.186 1.4 1.4 0 0 1-.155-.155 1.2 1.2 0 0 1-.185-.302c-.048-.115-.072-.172-.101-.2a.2.2 0 0 0-.062-.041C2.649 6.25 2.6 6.25 2.5 6.25a.45.45 0 0 1 0-.9.2.2 0 0 0 .2-.2v-.298a.2.2 0 0 0-.2-.202.45.45 0 0 1 0-.9c.099 0 .148 0 .185-.015a.2.2 0 0 0 .063-.042c.029-.028.053-.085.1-.199q.067-.162.187-.304a1.4 1.4 0 0 1 .155-.155q.143-.119.304-.186c.114-.048.17-.072.199-.1a.2.2 0 0 0 .042-.064c.015-.037.015-.086.015-.185a.45.45 0 0 1 .9 0c0 .111.091.2.202.2h.296a.2.2 0 0 0 .202-.2.45.45 0 0 1 .45-.45M5 3.5c-.433 0-.722 0-.938.026-.208.026-.296.07-.352.118a1 1 0 0 0-.066.066c-.048.056-.092.144-.118.352C3.5 4.278 3.5 4.567 3.5 5s0 .722.026.938c.026.207.07.295.118.351q.03.036.066.066c.056.048.144.092.352.118.216.026.505.027.938.027s.722-.001.938-.027c.208-.026.295-.07.351-.118a1 1 0 0 0 .066-.066c.048-.056.092-.143.118-.35.026-.217.027-.506.027-.939s-.001-.722-.027-.938c-.026-.208-.07-.296-.118-.352a1 1 0 0 0-.066-.066c-.056-.048-.144-.092-.35-.118C5.721 3.5 5.432 3.5 5 3.5m.04.7c.338 0 .508 0 .62.096q.024.02.044.044c.096.112.096.282.096.62v.08c0 .338 0 .508-.096.62a.4.4 0 0 1-.044.044c-.112.096-.282.096-.62.096h-.08c-.338 0-.508 0-.62-.096a.4.4 0 0 1-.044-.044C4.2 5.548 4.2 5.378 4.2 5.04v-.08c0-.338 0-.508.096-.62a.4.4 0 0 1 .044-.044c.112-.096.282-.096.62-.096z"/></svg>