<svg xmlns="http://www.w3.org/2000/svg" width="24" height="24" fill="currentColor" viewBox="0 0 10 10"><path d="M6.06 1.8c.507 0 .76 0 .93.144q.035.03.067.066c.143.169.143.423.143.93v4.12c0 .507 0 .761-.143.93a1 1 0 0 1-.068.066c-.168.144-.422.144-.93.144H3.94c-.507 0-.76 0-.93-.144a1 1 0 0 1-.067-.066C2.8 7.82 2.8 7.567 2.8 7.06V2.94c0-.507 0-.761.143-.93a1 1 0 0 1 .068-.066c.168-.144.422-.144.93-.144zm-1.7.75c-.338 0-.508 0-.62.096a.4.4 0 0 0-.044.044c-.096.112-.096.282-.096.62v2.68c0 .338 0 .508.096.62a.4.4 0 0 0 .044.044c.112.096.282.096.62.096h1.28c.338 0 .508 0 .62-.096a.4.4 0 0 0 .044-.044c.096-.112.096-.282.096-.62V3.31c0-.338 0-.508-.096-.62a.4.4 0 0 0-.044-.044c-.112-.096-.282-.097-.62-.097z"/></svg>