<svg xmlns="http://www.w3.org/2000/svg" width="24" height="24" fill="currentColor" viewBox="0 0 10 10"><path d="M5.48 2c.677 0 1.015 0 1.24.191a1 1 0 0 1 .089.09C7 2.504 7 2.842 7 3.52v2.96c0 .677 0 1.015-.191 1.24a1 1 0 0 1-.09.089C6.496 8 6.158 8 5.48 8h-.96c-.677 0-1.015 0-1.24-.191a1 1 0 0 1-.089-.09C3 7.496 3 7.158 3 6.48V3.52c0-.677 0-1.015.191-1.24a1 1 0 0 1 .09-.089C3.504 2 3.842 2 4.52 2zM5 6.1a.6.6 0 1 0 .001 1.2A.6.6 0 0 0 5 6.1M3.7 4.95c0 .304.246.55.55.55h1.5a.55.55 0 0 0 0-1.1h-1.5a.55.55 0 0 0-.55.55m0-1.7c0 .304.246.55.55.55h1.5a.55.55 0 1 0 0-1.1h-1.5a.55.55 0 0 0-.55.55"/></svg>