<svg xmlns="http://www.w3.org/2000/svg" width="24" height="24" fill="currentColor" viewBox="0 0 10 10"><path d="m7.072 2.075.122.031c.136.044.31.13.45.306.227.284.412.771.23 1.454-.168.636-.646 1.412-1.62 2.387-.976.975-1.752 1.453-2.388 1.622-.682.18-1.17-.004-1.453-.23a.97.97 0 0 1-.338-.573l-.02-.155a1.15 1.15 0 0 1 .3-.846l.111-.108.552-.46c.01-.008.047-.04.085-.067a1 1 0 0 1 .163-.09l.08-.029.086-.02a1 1 0 0 1 .176-.011l.087.009.083.017c.077.02.135.05.173.07.04.022.08.048.092.055l.132.084c.216.138.324.206.447.203l.053-.006c.121-.02.208-.103.383-.27a11 11 0 0 0 .39-.39c.167-.174.25-.261.27-.383l.005-.052c.004-.123-.065-.231-.201-.447l-.085-.133c-.007-.011-.033-.052-.055-.092a.8.8 0 0 1-.087-.256l-.008-.088a.8.8 0 0 1 .03-.262l.028-.079a1 1 0 0 1 .091-.163c.027-.038.059-.075.067-.085l.46-.552a1.15 1.15 0 0 1 .954-.412z"/></svg>