<svg xmlns="http://www.w3.org/2000/svg" width="24" height="24" fill="currentColor" viewBox="0 0 10 10"><path d="M3.275 2.6a.6.6 0 0 0-.6.6v3.6a.6.6 0 0 0 1.2 0v-.205c0-.537 0-.806.078-.866a.2.2 0 0 1 .074-.036c.095-.024.315.15.755.499l.518.41c.622.492.933.739 1.193.75a.8.8 0 0 0 .679-.33c.153-.21.153-.607.153-1.4V4.378c0-.792 0-1.188-.153-1.399a.8.8 0 0 0-.679-.33c-.26.011-.571.258-1.193.75l-.518.41c-.44.348-.66.523-.756.499a.2.2 0 0 1-.073-.036c-.078-.06-.078-.329-.078-.866V3.2a.6.6 0 0 0-.6-.6"/></svg>