<svg xmlns="http://www.w3.org/2000/svg" width="24" height="24" fill="currentColor" viewBox="0 0 10 10"><path d="M2.35 6.1a.45.45 0 0 1 .45.45c0 .233 0 .35.047.438a.4.4 0 0 0 .165.165c.088.047.205.047.438.047a.45.45 0 0 1 0 .9h-.46c-.46 0-.69 0-.85-.12a.6.6 0 0 1-.12-.12c-.12-.16-.12-.39-.12-.85v-.46a.45.45 0 0 1 .45-.45m5.3 0a.45.45 0 0 1 .45.45v.46c0 .46 0 .69-.12.85a.6.6 0 0 1-.12.12c-.16.12-.39.12-.85.12h-.46a.45.45 0 0 1 0-.9c.234 0 .35 0 .439-.047a.4.4 0 0 0 .164-.165C7.2 6.9 7.2 6.783 7.2 6.55a.45.45 0 0 1 .45-.45m.05-1.45a.35.35 0 0 1 0 .7H2.3a.35.35 0 1 1 0-.7zM3.45 1.9a.45.45 0 0 1 0 .9c-.233 0-.35 0-.438.047a.4.4 0 0 0-.165.165C2.8 3.1 2.8 3.217 2.8 3.45a.45.45 0 0 1-.9 0v-.46c0-.46 0-.69.12-.85a.6.6 0 0 1 .12-.12c.16-.12.39-.12.85-.12zm3.56 0c.46 0 .69 0 .85.12a.6.6 0 0 1 .12.12c.12.16.12.39.12.85v.46a.45.45 0 1 1-.9 0c0-.233 0-.35-.047-.438a.4.4 0 0 0-.164-.165C6.9 2.8 6.784 2.8 6.55 2.8a.45.45 0 0 1 0-.9z"/></svg>