<svg xmlns="http://www.w3.org/2000/svg" width="24" height="24" fill="currentColor" viewBox="0 0 10 10"><path d="M5.215 2.875c.299-.117.67.141 1.41.656l.55.383c.576.401.865.602.892.878a.6.6 0 0 1 0 .115c-.027.277-.316.477-.893.878l-.55.383c-.74.515-1.11.773-1.409.656a.498.498 0 0 1-.309-.358c-.078-.276-.117-.414-.185-.473L4.69 5.97c-.075-.05-.184-.05-.4-.049H4c-.333.002-.65.16-.846.424l-.194.261q-.04.054-.07.109a9 9 0 0 1-.178.311c-.121.16-.27.168-.4.02a1.847 1.847 0 0 1-.003-2.245l.131-.178a2.12 2.12 0 0 1 1.686-.847h.17c.215-.002.322-.003.396-.052l.031-.024c.068-.058.107-.195.185-.469a.5.5 0 0 1 .307-.356"/></svg>