<svg xmlns="http://www.w3.org/2000/svg" width="24" height="24" fill="currentColor" viewBox="0 0 10 10"><path d="M3.7 2a.5.5 0 0 1 0 1c-.093 0-.14 0-.178.005a.6.6 0 0 0-.517.517C3 3.56 3 3.607 3 3.7v2.16c0 .508 0 .761.144.93a1 1 0 0 0 .066.066C3.38 7 3.632 7 4.14 7H6.3c.093 0 .14 0 .178-.005a.6.6 0 0 0 .517-.517C7 6.44 7 6.393 7 6.3a.5.5 0 0 1 1 0v.56c0 .508 0 .761-.144.93a1 1 0 0 1-.066.066C7.62 8 7.368 8 6.86 8H3.14c-.508 0-.761 0-.93-.144a1 1 0 0 1-.066-.066C2 7.62 2 7.368 2 6.86V3.14c0-.508 0-.761.144-.93a1 1 0 0 1 .066-.066C2.38 2 2.632 2 3.14 2zM8 4.3a.5.5 0 1 1-1 0 .246.246 0 0 0-.42-.174L4.855 5.854a.5.5 0 1 1-.708-.708L5.874 3.42A.246.246 0 0 0 5.7 3a.5.5 0 1 1 0-1h1.16c.508 0 .761 0 .93.144a1 1 0 0 1 .066.066C8 2.38 8 2.632 8 3.14z"/></svg>