<svg xmlns="http://www.w3.org/2000/svg" width="24" height="24" fill="currentColor" viewBox="0 0 10 10"><path d="M4.996 2.144c.262 0 .486.152.594.373.031.062.083.114.149.136 1.22.415.649 1.93 1.61 2.888a.8.8 0 0 1 .188.242c.128.296.036.54-.198.734-.104.085-.129.243-.034.338l.232.232a.45.45 0 0 1-.635.637l-.682-.681a.2.2 0 0 0-.177-.057l-.022.004c-.094.014-.165.091-.189.183a.899.899 0 0 1-1.74 0 .24.24 0 0 0-.19-.184C2.878 6.83 2.109 6.43 2.39 5.783a.8.8 0 0 1 .187-.242c.4-.399.535-.893.644-1.365a.2.2 0 0 0-.054-.186l-.685-.686a.45.45 0 0 1 .637-.636l.278.278c.09.09.24.072.33-.017.116-.116.265-.21.46-.276a.26.26 0 0 0 .147-.136.66.66 0 0 1 .596-.373z"/></svg>