<svg xmlns="http://www.w3.org/2000/svg" width="24" height="24" fill="currentColor" viewBox="0 0 10 10"><path d="M7.06 2.5c.508 0 .762 0 .93.144q.036.03.067.066c.143.168.143.422.143.93v2.72c0 .507 0 .76-.143.93a1 1 0 0 1-.067.065c-.168.144-.422.145-.93.145H2.94c-.507 0-.76 0-.93-.145a1 1 0 0 1-.066-.066c-.143-.168-.144-.422-.144-.93V3.64c0-.507 0-.76.144-.929a1 1 0 0 1 .067-.066c.168-.144.422-.144.93-.144zm-3.7.749c-.338 0-.508 0-.62.096a.4.4 0 0 0-.044.045c-.096.112-.095.28-.095.619v1.98c0 .339 0 .508.095.62a.4.4 0 0 0 .044.044c.112.096.282.096.62.096h3.28c.338 0 .508 0 .62-.096a.4.4 0 0 0 .045-.044c.096-.112.095-.281.095-.62V4.01c0-.338 0-.507-.095-.62a.4.4 0 0 0-.045-.044c-.112-.096-.282-.096-.62-.096z"/></svg>