<svg xmlns="http://www.w3.org/2000/svg" width="24" height="24" fill="currentColor" viewBox="0 0 10 10"><path d="M7.35 7.053a.65.65 0 0 1 0 1.3h-4.7a.65.65 0 0 1 0-1.3zM5.05 1.65c.242.02.432.238.81.675l.567.656c.483.558.725.837.716 1.075a.6.6 0 0 1-.189.41c-.082.078-.208.12-.397.14-.36.041-.54.061-.637.156a.4.4 0 0 0-.039.043c-.083.108-.083.267-.083.584v.061a.6.6 0 0 1-.6.6h-.4a.6.6 0 0 1-.6-.6v-.06c0-.318 0-.477-.083-.585a.4.4 0 0 0-.039-.043c-.098-.095-.277-.115-.636-.156-.19-.02-.316-.062-.398-.14a.6.6 0 0 1-.187-.41c-.01-.238.231-.517.714-1.075l.568-.656c.378-.436.568-.655.81-.675a1 1 0 0 1 .103 0"/></svg>