<svg xmlns="http://www.w3.org/2000/svg" width="24" height="24" fill="currentColor" viewBox="0 0 10 10"><path d="M5 1.337a1 1 0 0 1 1 1v.118c0 .15 0 .226.027.285q.005.013.013.025c.031.056.107.111.257.22a2.196 2.196 0 0 1 0 3.553c-.15.11-.226.164-.257.22l-.013.025C6 6.843 6 6.918 6 7.07v.594a1 1 0 0 1-2 0v-.594c0-.151 0-.227-.026-.286l-.013-.025c-.032-.056-.107-.11-.257-.22a2.194 2.194 0 0 1 0-3.552c.15-.11.225-.165.257-.22l.013-.026C4 2.68 4 2.606 4 2.455v-.118a1 1 0 0 1 1-1m0 2.174c-.221 0-.4.18-.4.4v.841c0 .231.132.441.34.541l.72.346a.4.4 0 0 0 .346-.722l-.283-.135c-.148-.071-.223-.107-.267-.17l-.019-.029c-.038-.067-.037-.15-.037-.315v-.356c0-.221-.18-.4-.4-.4"/></svg>