<svg xmlns="http://www.w3.org/2000/svg" width="24" height="24" fill="currentColor" viewBox="0 0 10 10"><path d="M5 2.1a2.4 2.4 0 0 1 1.8 3.986c-.153.173-.229.26-.253.312a.34.34 0 0 0-.005.327c.023.053.078.12.189.252.188.226.282.339.304.43a.4.4 0 0 1-.212.451c-.084.042-.23.042-.524.042H3.7c-.294 0-.441 0-.525-.042a.4.4 0 0 1-.211-.45c.021-.092.115-.205.304-.43.11-.134.165-.2.188-.253a.34.34 0 0 0-.004-.327c-.025-.053-.101-.139-.254-.312A2.4 2.4 0 0 1 5 2.1m0 1.248A1.153 1.153 0 1 0 6.152 4.5c0-.093-.104-.142-.195-.12a.7.7 0 0 1-.838-.84c.022-.09-.027-.192-.119-.192"/></svg>