<svg xmlns="http://www.w3.org/2000/svg" width="24" height="24" fill="currentColor" viewBox="0 0 10 10"><path d="M5 6.35a.7.7 0 1 1 0 1.4.7.7 0 0 1 0-1.4m0-2a2.43 2.43 0 0 1 1.769.762l.008.01.004.004.001.002.002.002a.5.5 0 0 1-.696.71l-.07-.069v.002l-.05-.05A1.431 1.431 0 0 0 5 5.35a1.43 1.43 0 0 0-1.012.418l-.003.004a.5.5 0 0 1-.768-.641l.313.26-.313-.261.002-.003.004-.004.009-.01a1 1 0 0 1 .122-.124A2.432 2.432 0 0 1 5 4.35m0-2.1c.971 0 1.74.344 2.26.68a4.3 4.3 0 0 1 .759.627l.045.05.013.014.004.006h.002v.002h.001l.057.085a.5.5 0 0 1-.825.556l-.003-.003-.025-.027a3.355 3.355 0 0 0-.573-.47A3.14 3.14 0 0 0 5 3.25a3.14 3.14 0 0 0-1.716.52 3.3 3.3 0 0 0-.573.47l-.024.027-.004.003a.5.5 0 0 1-.767-.64v-.001h.001l.002-.002.004-.006.014-.015q.015-.019.044-.05.057-.06.16-.159a4.3 4.3 0 0 1 .6-.466A4.14 4.14 0 0 1 5 2.25"/></svg>