<svg xmlns="http://www.w3.org/2000/svg" width="24" height="24" fill="currentColor" viewBox="2.08 2.07 5.87 5.87"><path d="M7.5 2.575a.45.45 0 0 1 0 .9h-.23c-.254 0-.38 0-.465.072l-.033.034c-.072.084-.072.21-.072.465v.78a.6.6 0 0 1-1.199 0v-.85c0-.187 0-.281-.04-.35a.3.3 0 0 0-.11-.11c-.07-.04-.163-.04-.35-.04-.188 0-.282 0-.351.04a.3.3 0 0 0-.11.11c-.04.069-.04.163-.04.35v2.85a.6.6 0 0 1-1.2 0v-2.78c0-.254 0-.381-.071-.465l-.033-.034c-.085-.071-.211-.071-.465-.071H2.5a.451.451 0 0 1 0-.9z"/></svg>