<svg xmlns="http://www.w3.org/2000/svg" width="24" height="24" fill="currentColor" viewBox="2.06 2.05 5.90 5.90"><path d="M6.975 2.05a.45.45 0 0 0-.45.45v.23c0 .254 0 .38-.072.465l-.034.033c-.084.072-.21.072-.465.072h-2.78a.6.6 0 0 0 0 1.199h2.85c.187 0 .281 0 .35.04a.3.3 0 0 1 .11.11c.04.07.04.163.04.35 0 .188 0 .282-.04.351a.3.3 0 0 1-.11.11c-.069.04-.163.04-.35.04h-.85a.6.6 0 0 0 0 1.2h.78c.254 0 .381 0 .465.071l.034.033c.071.085.071.211.071.465V7.5a.45.45 0 0 0 .9 0v-5a.45.45 0 0 0-.45-.45"/></svg>