<svg xmlns="http://www.w3.org/2000/svg" width="24" height="24" fill="currentColor" viewBox="2.05 2.05 5.90 5.90"><path d="M3.9 2.5a.6.6 0 0 1 .6.6v.95c0 .187 0 .28.04.35a.3.3 0 0 0 .11.11c.07.04.163.04.35.04h.05c.14 0 .21 0 .266-.023a.3.3 0 0 0 .162-.162c.023-.055.023-.125.023-.265a.6.6 0 0 1 1.2 0c0 .14 0 .21.022.265a.3.3 0 0 0 .162.162c.055.023.125.023.265.023h.35a.45.45 0 0 1 0 .9h-.35c-.14 0-.21 0-.264.023a.3.3 0 0 0-.163.163c-.023.055-.023.124-.023.263a.6.6 0 1 1-1.199 0c0-.139 0-.208-.023-.263a.3.3 0 0 0-.163-.163c-.055-.023-.124-.023-.263-.023H5c-.187 0-.28 0-.35.04a.3.3 0 0 0-.11.11c-.04.07-.04.163-.04.35v.95a.6.6 0 1 1-1.2 0v-.88c0-.254 0-.38-.071-.465l-.033-.033c-.085-.072-.211-.072-.465-.072H2.5a.45.45 0 0 1 0-.9h.23c.255 0 .381 0 .466-.072l.033-.033c.072-.085.072-.211.072-.465V3.1a.6.6 0 0 1 .6-.6"/></svg>