<svg xmlns="http://www.w3.org/2000/svg" width="24" height="24" fill="currentColor" viewBox="1.94 1.90 6.20 6.20"><path d="M5.626 1.9C6.66 1.9 7.5 2.74 7.5 3.774c0 .215-.05.426-.146.618l-.093.187c-.04.078-.06.117-.07.155a.4.4 0 0 0 .04.303c.02.035.048.067.106.133l.105.122.022.024a1.4 1.4 0 0 1 .336.894v.135A1.8 1.8 0 0 1 6.045 8.1H2.9a.6.6 0 1 1 0-1.2.4.4 0 0 0 .4-.399V3.499a.4.4 0 0 0-.4-.4.6.6 0 1 1 0-1.199zm-.56 3.5c-.297 0-.445 0-.544.083a.4.4 0 0 0-.038.04c-.084.098-.084.246-.084.542v.07c0 .296 0 .445.084.543a.4.4 0 0 0 .038.038c.099.084.247.084.543.084H5.9a.7.7 0 0 0 0-1.4zm-.033-2.3c-.265 0-.398 0-.491.068a.4.4 0 0 0-.073.074c-.069.093-.069.226-.069.491v.133c0 .266 0 .399.069.491a.4.4 0 0 0 .073.075c.093.068.226.068.491.068H5.6a.7.7 0 0 0 0-1.4z"/></svg>