<svg xmlns="http://www.w3.org/2000/svg" width="24" height="24" fill="currentColor" viewBox="1.39 1.34 7.28 7.28"><path d="M6.987 3.67a1 1 0 0 1 0 1.415L4.512 7.56a1 1 0 0 1-1.414 0L1.684 6.146a1 1 0 0 1 0-1.414l.901-.902c.154-.153.23-.23.245-.326l.004-.042c.001-.098-.061-.186-.186-.364l-.241-.342a.5.5 0 0 1 .817-.575l.028.04c.17.241.256.362.378.384a.3.3 0 0 0 .052.004c.124 0 .229-.105.439-.314l.038-.038a1 1 0 0 1 1.414 0zm-2.469-.359c-.108.108-.162.162-.184.226a.3.3 0 0 0-.013.15c.011.067.055.13.143.254l.104.149a.5.5 0 0 1-.818.575c-.033-.047-.05-.07-.066-.087a.3.3 0 0 0-.393-.035c-.019.014-.04.035-.08.076l-.095.094c-.237.237-.355.356-.369.456a.3.3 0 0 0 .116.278c.08.062.248.062.583.062h1.467c.11 0 .165 0 .215-.018l.022-.01a.6.6 0 0 0 .166-.139l.56-.561c.18-.18.27-.27.279-.38v-.047c-.009-.11-.099-.2-.278-.38l-.664-.663c-.126-.126-.19-.19-.263-.21a.3.3 0 0 0-.168-.001c-.074.022-.137.085-.264.211m3.623 2.41.002.002.001.002.002.004.011.016q.014.02.034.055c.029.047.07.112.113.19.085.153.195.371.271.6.068.205.148.528.047.833a.8.8 0 0 1-.351.44 1.05 1.05 0 0 1-.546.135c-.183 0-.374-.034-.543-.136a.8.8 0 0 1-.353-.44c-.102-.304-.02-.627.048-.832a3.7 3.7 0 0 1 .272-.6 5 5 0 0 1 .145-.245l.01-.016.003-.004v-.001l.002-.003.026-.039c.126-.187.188-.281.266-.317a.3.3 0 0 1 .25 0c.077.036.14.13.265.318z"/></svg>