<svg xmlns="http://www.w3.org/2000/svg" width="24" height="24" fill="currentColor" viewBox="1.25 1.17 7.50 7.50"><path d="M8.25 4.302a.5.5 0 0 1 .5.5v2.3a.501.501 0 0 1-.85.356c-.12-.12-.181-.18-.21-.186-.006-.002-.005-.002-.012-.002-.028-.003-.083.023-.193.075a1.5 1.5 0 1 1-.055-2.74c.124.052.186.078.214.075l.012-.002c.027-.007.096-.08.233-.223a.5.5 0 0 1 .36-.153M3.153 2.234c.495.067.752 1.067 1.264 3.068l.443 1.727a.455.455 0 1 1-.885.212l-.134-.601c-.008-.039-.046-.06-.086-.06H2.75c-.176 0-.265-.001-.33.045l-.027.022c-.058.054-.075.14-.11.313l-.047.237a.498.498 0 1 1-.97-.221l.428-1.674c.512-2 .77-3.001 1.264-3.068a.8.8 0 0 1 .196 0m3.695 3.094a.66.66 0 1 0 0 1.32.66.66 0 0 0 0-1.32M3.01 4.066c-.155.037-.23.413-.38 1.164-.046.229-.069.343-.02.426a.3.3 0 0 0 .047.057c.071.065.189.065.423.065.238 0 .357 0 .43-.066a.3.3 0 0 0 .045-.058c.05-.084.024-.201-.028-.434-.166-.747-.249-1.121-.404-1.155a.25.25 0 0 0-.113 0"/></svg>