<svg xmlns="http://www.w3.org/2000/svg" width="24" height="24" fill="currentColor" viewBox="1.90 1.90 6.20 6.20"><path d="M6.2 1.9c.846 0 1.269 0 1.549.24q.06.051.111.111c.24.28.24.703.24 1.549v2.4c0 .846 0 1.269-.24 1.549q-.051.06-.111.111c-.28.24-.703.24-1.549.24H3.8c-.846 0-1.269 0-1.549-.24a1 1 0 0 1-.111-.111c-.24-.28-.24-.703-.24-1.549V3.8c0-.846 0-1.269.24-1.549q.051-.06.111-.111c.28-.24.703-.24 1.549-.24zM2.7 6.35c0 .423 0 .634.12.775a1 1 0 0 0 .055.055c.14.12.352.12.775.12h2.7c.423 0 .634 0 .775-.12a1 1 0 0 0 .055-.055c.12-.14.12-.352.12-.775v-2.7c0-.423 0-.634-.12-.775a1 1 0 0 0-.055-.055c-.14-.12-.352-.12-.775-.12h-2.7c-.423 0-.634 0-.775.12a1 1 0 0 0-.055.055c-.12.14-.12.352-.12.775zm3.8-.8c0 .423 0 .634-.12.775a1 1 0 0 1-.055.055c-.14.12-.352.12-.775.12h-1.1c-.423 0-.634 0-.775-.12a1 1 0 0 1-.055-.055c-.12-.14-.12-.352-.12-.775v-1.1c0-.423 0-.634.12-.775a1 1 0 0 1 .055-.055c.14-.12.352-.12.775-.12h1.1c.423 0 .634 0 .775.12a1 1 0 0 1 .055.055c.12.14.12.352.12.775z"/></svg>