<svg xmlns="http://www.w3.org/2000/svg" width="24" height="24" fill="currentColor" viewBox="1.57 1.60 6.85 6.85"><path d="M3.65 4.55c-.677 0-1.015 0-1.24.19a1 1 0 0 0-.089.09c-.191.224-.191.563-.191 1.239v.86c0 .677 0 1.015.191 1.24a1 1 0 0 0 .09.088c.224.192.562.192 1.239.192h.26c.676 0 1.015 0 1.24-.192a1 1 0 0 0 .088-.088c.191-.225.192-.564.192-1.24v-.96l-.002-.239c-.005-.457-.033-.717-.19-.9a1 1 0 0 0-.088-.09c-.225-.19-.564-.19-1.24-.19zm.268 2.2a.35.35 0 0 1 0 .7h-.75a.35.35 0 1 1 0-.7zm.65-4.664c0-.24-.224-.446-.434-.328a1 1 0 0 0-.116.081q-.06.051-.11.112c-.24.28-.24.703-.24 1.549v.007c0 .134.108.243.241.243.32 0 .625-.001.874.029.233.028.488.09.722.254l.099.076.087.08q.04.042.079.087c.22.26.298.555.33.82.03.25.029.553.029.873v.224c0 .222.18.402.401.397.488-.011.778-.056.988-.235q.06-.052.11-.111c.239-.28.24-.703.24-1.547V3.5c0-.846 0-1.269-.24-1.55a1 1 0 0 0-.111-.11 1 1 0 0 0-.117-.082c-.21-.118-.433.087-.433.328V2.5a.4.4 0 0 1-.4.4h-1.6a.4.4 0 0 1-.4-.4zm-.15 3.365a.35.35 0 0 1 0 .699h-1.25a.35.35 0 1 1 0-.7zM5.514 1.6a.35.35 0 0 0 .003.7h.5a.35.35 0 0 0 .003-.7h-.506"/></svg>