<svg xmlns="http://www.w3.org/2000/svg" width="24" height="24" fill="currentColor" viewBox="1.70 1.70 6.60 6.60"><path d="M7.612 3.865c.241.1.32.45.477 1.151l.071.317c.14.62.21.93.056 1.12a.5.5 0 0 1-.072.07c-.188.154-.498.084-1.118-.055l-.317-.071c-.701-.158-1.052-.236-1.151-.477a.5.5 0 0 1-.03-.103.43.43 0 0 1 .072-.298c.147-.25.22-.374.197-.488l-.014-.047c-.042-.108-.122-.148-.281-.227a1.83 1.83 0 0 0-1.592-.02 1.83 1.83 0 0 0-1 1.24c-.073.316-.302.608-.625.638s-.616-.209-.583-.532a3 3 0 0 1 4.662-2.182c.201.136.302.204.378.21l.034.002c.076-.001.2-.072.446-.213a.42.42 0 0 1 .288-.065q.053.01.102.03"/></svg>