<svg xmlns="http://www.w3.org/2000/svg" width="24" height="24" fill="currentColor" viewBox="1.77 1.80 6.43 6.43"><path d="M4.797 8.22c.628.058 1.253-.084 1.671-.377.446-.313.678-.835.71-1.321a1.8 1.8 0 0 0-.053-.572c-.072-.266-.108-.398-.073-.454l.017-.022c.044-.048.158-.048.385-.048H7.8a.401.401 0 0 0 0-.8H5.982l-.096-.005a5 5 0 0 1-.465-.05 1.4 1.4 0 0 1-.22-.058c-.423-.17-.739-.31-.908-.445-.234-.188-.292-.644-.022-.982.203-.254.967-.566 1.772.171a.5.5 0 0 0 .675-.737C5.524 1.427 4.087 1.716 3.49 2.46a1.84 1.84 0 0 0-.327 1.634c.08.268.12.401.085.458l-.017.023c-.044.05-.16.05-.39.05H2.2a.4.4 0 0 0 0 .8h1.852l.022.001c.114.005.268.014.43.03.163.014.328.035.466.062q.067.014.119.03c.38.153.7.284.913.426.108.072.196.234.179.48s-.135.462-.288.57c-.183.127-.558.24-1.005.199a1.88 1.88 0 0 1-1.237-.612.501.501 0 0 0-.743.671 2.88 2.88 0 0 0 1.888.937"/></svg>