<svg xmlns="http://www.w3.org/2000/svg" width="24" height="24" fill="currentColor" viewBox="1.90 1.90 6.20 6.20"><path d="M6.66 1.9c.507 0 .762 0 .93.145q.036.03.066.066c.144.168.144.422.144.93v.409a.45.45 0 0 1-.9 0c0-.235 0-.352-.062-.433a.3.3 0 0 0-.056-.055C6.702 2.9 6.584 2.9 6.35 2.9h-.28c-.254 0-.38 0-.465.072l-.033.033c-.072.084-.072.211-.072.465v3.16c0 .255 0 .381.072.466q.015.018.033.033c.084.072.211.072.465.072h.08a.45.45 0 0 1 0 .9h-2.3a.45.45 0 0 1 0-.9h.08c.254 0 .38 0 .465-.072l.033-.033c.072-.085.072-.211.072-.465V3.47c0-.254 0-.38-.072-.465l-.033-.033C4.31 2.9 4.184 2.9 3.93 2.9h-.28c-.234 0-.351 0-.432.062a.3.3 0 0 0-.056.055c-.061.081-.061.198-.061.433a.45.45 0 0 1-.9 0v-.41c0-.507 0-.76.143-.93a1 1 0 0 1 .066-.065c.168-.144.423-.145.93-.145z"/></svg>