<svg xmlns="http://www.w3.org/2000/svg" width="24" height="24" fill="currentColor" viewBox="1.86 1.86 6.28 6.28"><path d="M5.03 1.86c.143.014.245.171.449.486l.505.78a.3.3 0 0 1-.015.348l-.506.65a.3.3 0 0 0-.063.185v1.497a.3.3 0 0 0 .06.18l.485.647a.3.3 0 0 1 .06.164l.054 1.029a.3.3 0 0 1-.512.227l-.335-.335a.3.3 0 0 0-.424 0l-.335.335a.3.3 0 0 1-.512-.228l.054-1.028a.3.3 0 0 1 .06-.164l.485-.647a.3.3 0 0 0 .06-.18V4.31a.3.3 0 0 0-.063-.184l-.506-.65a.3.3 0 0 1-.015-.348l.506-.781c.203-.314.304-.472.448-.487a.3.3 0 0 1 .06 0"/></svg>