<svg xmlns="http://www.w3.org/2000/svg" width="24" height="24" fill="currentColor" viewBox="1.39 1.20 7.21 7.21"><path d="M4.65 2.345c0-.886.96-1.438 1.725-.992a.35.35 0 0 1-.353.604.45.45 0 0 0-.673.388c0 .171.139.31.31.31h.13c.044 0 .066 0 .083.002a.4.4 0 0 1 .365.42c-.001.018-.004.04-.01.082l-.02.136c-.016.11-.024.164-.02.207.007.1.031.16.097.234.029.033.087.076.203.162A2.5 2.5 0 0 1 7.5 5.905a2.5 2.5 0 1 1-3.99-2.007c.117-.086.175-.13.204-.162a.35.35 0 0 0 .097-.234 1 1 0 0 0-.02-.207l-.02-.136-.01-.082a.4.4 0 0 1 .364-.42c.018-.002.04-.002.083-.002h.13a.31.31 0 0 0 .311-.31"/></svg>