<svg xmlns="http://www.w3.org/2000/svg" width="24" height="24" fill="currentColor" viewBox="1.70 1.70 6.60 6.60"><path d="M2.5 6.3c.6 0 .8 0 .8.55s-.2.55-.8.55-.8 0-.8-.55.2-.55.8-.55m2.5 0c.6 0 .8 0 .8.55s-.2.55-.8.55-.8 0-.8-.55.2-.55.8-.55m2.5 0c.6 0 .8 0 .8.55s-.2.55-.8.55-.8 0-.8-.55.2-.55.8-.55m-5-3.7c.654 0 .793 1.406.8 2v.14c0 .338-.001.507-.097.619a.4.4 0 0 1-.044.045c-.112.096-.282.096-.62.096H2.46c-.338 0-.508 0-.62-.096a.4.4 0 0 1-.044-.045c-.096-.112-.096-.281-.096-.62V4.6c.007-.594.146-2 .8-2m2.5 0c.654 0 .793 1.406.8 2v.14c0 .338 0 .507-.096.619a.4.4 0 0 1-.045.045c-.112.095-.281.096-.619.096h-.08c-.338 0-.508 0-.62-.096a.4.4 0 0 1-.044-.045c-.096-.112-.096-.281-.096-.62V4.6c.007-.594.146-2 .8-2m2.5 0c.654 0 .793 1.406.8 2v.14c0 .338 0 .507-.096.619a.4.4 0 0 1-.045.045c-.112.095-.281.096-.619.096h-.08c-.338 0-.508 0-.62-.096a.4.4 0 0 1-.044-.045c-.096-.112-.096-.281-.096-.62V4.6c.007-.594.146-2 .8-2"/></svg>