<svg xmlns="http://www.w3.org/2000/svg" width="24" height="24" fill="currentColor" viewBox="1.11 1.10 7.78 7.78"><path d="M6 1.6c1.993 0 2.755 3.17 2.88 4.984.013.174.019.262-.014.345a.4.4 0 0 1-.125.168c-.07.056-.162.077-.345.12-.279.064-.419.096-.523.063a.4.4 0 0 1-.204-.15c-.064-.089-.077-.242-.102-.546a8 8 0 0 0-.411-2.006c-.1-.284-.15-.427-.276-.422a.2.2 0 0 0-.046.009c-.12.04-.115.199-.108.516l.073 3.12c0 .279-.049.459-.657.542-.314.043-.472.065-.602-.03a.4.4 0 0 1-.051-.045c-.112-.115-.113-.287-.115-.632-.012-1.985.158-3.207.347-3.949.13-.511.196-.767.19-.822-.018-.153-.047-.19-.19-.245C5.667 2.6 5.444 2.6 5 2.6c-.446 0-.67 0-.721.02-.144.055-.171.092-.19.245-.006.055.059.31.189.822.19.742.36 1.964.348 3.949-.002.345-.003.517-.116.632a.4.4 0 0 1-.051.045c-.13.095-.287.073-.601.03-.609-.083-.658-.263-.658-.542l.074-3.117c.008-.319.01-.479-.108-.518a.2.2 0 0 0-.047-.01c-.126-.004-.176.14-.276.425a8 8 0 0 0-.41 2.003c-.025.304-.038.457-.101.547a.4.4 0 0 1-.204.149c-.105.033-.246 0-.525-.063-.183-.043-.276-.064-.346-.119a.4.4 0 0 1-.124-.166c-.033-.082-.029-.17-.02-.347C1.226 4.569 1.982 1.6 4 1.6z"/></svg>