<svg xmlns="http://www.w3.org/2000/svg" width="24" height="24" fill="currentColor" viewBox="1.22 1.24 7.56 7.56"><path d="M6.368 1.245c.094 0 .142 0 .187.015.064.02.127.07.162.127.025.04.036.082.057.167.07.28.167.733.226 1.292.024.237-.012.446-.081.626-.241.626-.362.94-.354 1.031.002.025 0 .014.005.039.017.09.138.254.38.58.455.616.95 1.545.95 2.678 0 .154-.118.336-.383.503-.227.144-.34.215-.507.174a1 1 0 0 1-.068-.024c-.156-.07-.212-.232-.324-.553-.291-.836-.465-1.252-.617-1.243a.3.3 0 0 0-.072.016c-.14.053-.132.486-.062 1.333.027.338.041.507-.052.63a.4.4 0 0 1-.044.048c-.112.105-.27.108-.587.114a10 10 0 0 1-.37 0c-.315-.006-.473-.009-.586-.114a.4.4 0 0 1-.044-.049c-.093-.122-.08-.291-.051-.63.07-.846.078-1.28-.063-1.332A.3.3 0 0 0 4 6.657c-.153-.01-.327.407-.619 1.243-.112.321-.168.482-.324.553a1 1 0 0 1-.068.024c-.166.041-.28-.03-.507-.174-.264-.167-.382-.35-.382-.503 0-.939.585-1.98 1.069-2.682.197-.285.295-.428.31-.52.003-.024.002-.014.003-.04.004-.092-.123-.393-.379-.994A1.45 1.45 0 0 1 3 2.846a10 10 0 0 1 .205-1.294.5.5 0 0 1 .054-.164.32.32 0 0 1 .162-.127.6.6 0 0 1 .185-.016c.148 0 .222 0 .268.016a.25.25 0 0 1 .16.128c.026.041.049.14.095.336.078.334.291.72.859.72s.781-.388.86-.722c.044-.195.067-.292.092-.333a.25.25 0 0 1 .163-.13c.046-.014.119-.015.265-.015"/></svg>