<svg xmlns="http://www.w3.org/2000/svg" width="24" height="24" fill="currentColor" viewBox="1.11 1.11 7.79 7.79"><path d="M6.4 1.8c2.081 0 2.432 3.973 2.49 5.558.008.222.011.333-.037.426a.4.4 0 0 1-.159.165c-.091.051-.208.05-.44.05-.237 0-.356 0-.444-.046a.4.4 0 0 1-.158-.15c-.05-.087-.055-.211-.065-.46-.049-1.175-.223-2.025-.396-2.597-.076-.252-.114-.379-.24-.38a.2.2 0 0 0-.047.007c-.12.034-.124.174-.131.453L6.7 7.6c0 .4 0 .6-1.7.6S3.3 8 3.3 7.6l-.073-2.772c-.007-.281-.011-.421-.132-.455a.2.2 0 0 0-.047-.007c-.125.001-.163.128-.24.382-.172.572-.346 1.421-.395 2.595-.01.249-.015.373-.065.46a.4.4 0 0 1-.158.15c-.088.046-.207.047-.445.047-.232 0-.348 0-.44-.051a.4.4 0 0 1-.159-.165c-.048-.093-.044-.204-.036-.426.058-1.585.409-5.557 2.49-5.558.4 0 .5.9 1.4.9s1-.9 1.4-.9"/></svg>