<svg xmlns="http://www.w3.org/2000/svg" width="24" height="24" fill="currentColor" viewBox="1.28 1.20 7.45 7.45"><path d="M5.039 1.204c.12.016.204.16.3.44.062.18.093.271.136.325l.02.024c.048.05.158.108.379.222q.075.04.148.085c.209.134.314.2.38.216l.031.005c.068.01.162-.007.35-.044.29-.056.46-.055.533.041q.023.03.038.067c.046.111-.037.257-.23.48-.126.144-.188.217-.213.281-.005.013-.007.016-.011.03-.02.066-.014.19-.002.437a2 2 0 0 1 0 .172c-.012.248-.018.372.002.439l.01.028c.026.064.088.137.214.281.193.223.276.37.23.482a.3.3 0 0 1-.038.066c-.08.103-.268.097-.6.027a1.2 1.2 0 0 0-.246-.039.3.3 0 0 0-.129.026 2 2 0 0 0-.258.165c-.172.119-.26.178-.295.223a.3.3 0 0 0-.072.138 1 1 0 0 0-.016.277V7.95a.7.7 0 1 1-1.4 0V6.098c0-.147 0-.221-.016-.277a.3.3 0 0 0-.073-.138c-.036-.045-.122-.104-.293-.222-.144-.1-.216-.15-.261-.166a.3.3 0 0 0-.128-.026 1.2 1.2 0 0 0-.247.04c-.33.07-.518.076-.597-.027a.3.3 0 0 1-.039-.067c-.046-.112.036-.258.23-.48.125-.145.188-.218.213-.282l.01-.029c.02-.066.015-.19.003-.438a2 2 0 0 1 0-.172c.012-.247.017-.371-.003-.437l-.01-.03c-.025-.064-.088-.137-.213-.28-.194-.224-.276-.37-.23-.481a.3.3 0 0 1 .038-.068c.074-.095.242-.097.53-.04.188.036.282.053.35.043l.03-.006c.067-.015.172-.082.382-.216q.072-.045.149-.084c.22-.114.33-.171.377-.222l.021-.023c.043-.054.074-.145.137-.327.096-.279.181-.424.301-.44a.3.3 0 0 1 .078 0M4.999 3.3a.7.7 0 1 0 0 1.4.7.7 0 0 0 0-1.4"/></svg>