<svg xmlns="http://www.w3.org/2000/svg" width="24" height="24" fill="currentColor" viewBox="1.38 1.30 7.23 7.23"><path d="M5 3.6c.343 0 .514 0 .641.086a.5.5 0 0 1 .095.083c.101.114.124.285.169.625l.322 2.449c.034.259.05.388.016.509l-.018.051c-.046.117-.138.21-.322.395l-.366.365c-.239.24-.358.359-.505.37a.4.4 0 0 1-.063 0c-.147-.011-.267-.13-.506-.37l-.366-.365c-.185-.185-.277-.278-.322-.395l-.018-.051c-.035-.121-.017-.25.017-.51l.322-2.448c.045-.34.067-.51.168-.625a.5.5 0 0 1 .095-.083C4.486 3.6 4.657 3.6 5 3.6m.45-2.3c.375 0 .563 0 .672.088a.4.4 0 0 1 .139.217c.033.137-.046.307-.205.647-.118.252-.176.378-.282.454l-.048.03c-.114.064-.253.064-.531.064h-.39c-.278 0-.417 0-.531-.064l-.048-.03c-.106-.076-.165-.202-.282-.454-.159-.34-.238-.51-.205-.647a.4.4 0 0 1 .139-.217c.11-.088.297-.088.673-.088z"/></svg>