<svg xmlns="http://www.w3.org/2000/svg" width="24" height="24" fill="currentColor" viewBox="1.33 1.30 7.34 7.34"><path d="M6.237 2.8c.476 0 .714 0 .878.132a1 1 0 0 1 .067.06c.143.155.159.393.192.868l.262 3.733c.028.404.043.606-.06.751a1 1 0 0 1-.051.063c-.125.127-.327.148-.729.193-.4.044-.6.067-.748-.028a1 1 0 0 1-.064-.05c-.131-.117-.164-.318-.228-.719-.272-1.691-.408-2.537-.7-2.578a.4.4 0 0 0-.113 0c-.291.042-.427.887-.699 2.578-.064.401-.097.602-.228.72a1 1 0 0 1-.065.049c-.149.095-.349.072-.748.028-.402-.045-.603-.067-.727-.193a1 1 0 0 1-.052-.063c-.103-.145-.089-.347-.06-.75l.261-3.734c.033-.475.05-.713.193-.867a1 1 0 0 1 .066-.061c.164-.132.403-.132.879-.132zM7 1.3a.401.401 0 0 1 0 .8H3a.4.4 0 0 1 0-.8z"/></svg>