<svg xmlns="http://www.w3.org/2000/svg" width="24" height="24" fill="currentColor" viewBox="1.25 1.25 7.50 7.50"><path d="M6.5 1.8c.696 0 1.471.84 1.947 1.457.203.262.304.394.302.567a1 1 0 0 1-.007.075c-.027.17-.159.292-.421.533l-.1.09c-.227.209-.34.312-.468.304A.3.3 0 0 1 7.7 4.82c-.123-.03-.2-.164-.356-.43a1 1 0 0 0-.061-.099.17.17 0 0 0-.295.076 1 1 0 0 0-.006.116L6.9 7.6c0 .4 0 .6-1.9.6S3.1 8 3.1 7.6l-.082-3.118c-.002-.067-.003-.1-.006-.116a.17.17 0 0 0-.295-.075c-.01.011-.027.04-.06.098-.156.266-.233.4-.357.43a.3.3 0 0 1-.054.007c-.127.008-.24-.095-.467-.303l-.1-.091c-.262-.241-.394-.362-.422-.533a1 1 0 0 1-.006-.075c-.002-.173.099-.305.301-.567C2.028 2.64 2.805 1.8 3.5 1.8c.4 0 .5.9 1.5.9s1.1-.9 1.5-.9"/></svg>