<svg xmlns="http://www.w3.org/2000/svg" width="24" height="24" fill="currentColor" viewBox="1.12 1.21 7.63 7.63"><path d="M2.9 4.2c.9-.2.7-1.5 1.5-.9.175.132.384.276.617.426q.026.015.031.02a.393.393 0 0 1 .138.5l-.013.026-.03.059a.35.35 0 1 0 .626.313l.037-.074a.34.34 0 0 1 .467-.143.324.324 0 0 1 .154.435.314.314 0 0 0 .14.422L6.6 5.3a.35.35 0 0 0 .47-.156l.017-.033a.405.405 0 0 1 .467-.204q.226.059.446.093c1.3.2.8 1.9-.7 1.9h-4.49c-.77 0-1.155 0-1.412-.232a1 1 0 0 1-.1-.106c-.216-.27-.194-.638-.15-1.371.037-.601.085-1.025.118-1.263.014-.107.022-.16.07-.224l.022-.026a.27.27 0 0 1 .147-.085c.506-.15.593.785 1.395.607"/></svg>