<svg xmlns="http://www.w3.org/2000/svg" width="24" height="24" fill="currentColor" viewBox="1.29 1.29 7.42 7.42"><path d="M3.945 1.631a1.5 1.5 0 0 1 1.89-.004l1.41 1.14a1.3 1.3 0 0 1-.01 2.03l-.144.114a1.3 1.3 0 0 1-1.62-.006l-.33-.265a.5.5 0 1 1 .627-.78l.33.265a.3.3 0 0 0 .374.002l.143-.114a.3.3 0 0 0 .002-.47l-1.41-1.138a.5.5 0 0 0-.63 0l-1.12.914a.5.5 0 0 0 0 .775L5.203 5.52a.5.5 0 0 1 .181.322l.26 2.003a.764.764 0 1 1-1.513 0l.088-.676c.064-.485.096-.728.02-.949a1 1 0 0 0-.037-.094c-.097-.212-.287-.367-.667-.676l-.712-.58a1.5 1.5 0 0 1 0-2.325z"/></svg>