<svg xmlns="http://www.w3.org/2000/svg" width="24" height="24" fill="currentColor" viewBox="1.31 1.32 7.37 7.37"><path d="M4.87 1.34a.45.45 0 0 1 .259 0c.17.051.294.263.54.686.07.121.105.182.155.227a.5.5 0 0 0 .085.062 1 1 0 0 0 .265.078c.478.104.717.155.818.3.05.073.078.16.08.248.004.177-.16.36-.485.725-.093.104-.14.156-.17.217a.5.5 0 0 0-.031.1c-.014.066-.006.137.008.276.05.487.074.73-.034.871a.45.45 0 0 1-.21.153c-.088.03-.192.017-.335-.03-.126-.043-.19-.064-.23-.04l-.015.012c-.034.032-.03.095-.024.22l.141 2.506a.69.69 0 1 1-1.376 0l.14-2.505c.007-.125.01-.188-.024-.22l-.016-.012c-.04-.024-.102-.003-.228.039-.143.047-.247.06-.334.03a.45.45 0 0 1-.21-.153c-.108-.14-.083-.384-.034-.87a1 1 0 0 0 .008-.277.5.5 0 0 0-.032-.1c-.028-.061-.076-.113-.169-.217-.326-.365-.488-.548-.484-.725a.45.45 0 0 1 .08-.247c.101-.146.34-.197.818-.3a1 1 0 0 0 .265-.079.5.5 0 0 0 .084-.062 1 1 0 0 0 .156-.227c.246-.423.37-.635.539-.686"/></svg>