<svg xmlns="http://www.w3.org/2000/svg" width="24" height="24" fill="currentColor" viewBox="1.20 1.15 7.14 7.14"><path d="M5.438 2.75c-.154 0-.23 0-.266-.009-.124-.03-.171-.074-.212-.195a2 2 0 0 1-.036-.311c-.042-.496-.11-1.085.416-1.085.499 0 .54.598.56 1.096.007.154.01.23.002.27a.27.27 0 0 1-.215.224c-.038.01-.108.01-.249.01m-1.228.285c-.196.113-.294.17-.37.172a.29.29 0 0 1-.237-.106c-.049-.057-.073-.17-.123-.394-.123-.565-.21-1.162.276-1.223.515-.063.629.458.72.887.042.193.063.29.057.339a.24.24 0 0 1-.072.162c-.033.038-.106.08-.251.163m2.552-.076c-.212-.074-.319-.11-.364-.151a.24.24 0 0 1-.085-.131c-.018-.058-.008-.181.013-.429.026-.301.1-.58.544-.524.268.034.423.359.478.808.023.183.034.275-.01.358a.33.33 0 0 1-.184.148c-.091.026-.191-.009-.392-.079M3.023 3.996c-.212.24-.319.36-.473.343a.4.4 0 0 1-.063-.014c-.147-.05-.185-.178-.26-.433-.14-.469-.045-.86.254-.96.294-.098.474.093.614.315.116.185.174.277.172.366l-.003.04c-.013.087-.089.173-.24.343m3.664 1.268c-.066.079-.099.118-.17.147l-.032.01c-.073.02-.144.004-.285-.03a5 5 0 0 0-.268-.056c-.174-.031-.26-.047-.317-.09l-.024-.02c-.052-.048-.083-.13-.143-.293-.102-.275-.189-.417-.31-.433a.3.3 0 0 0-.076 0c-.117.015-.201.148-.298.403-.064.169-.096.253-.15.301l-.024.02c-.058.043-.15.057-.332.086a4 4 0 0 0-.435.093c-.092.024-.138.037-.18.036a.3.3 0 0 1-.08-.011.6.6 0 0 1-.143-.077c-.135-.084-.202-.126-.24-.208a.33.33 0 0 1-.024-.166c.013-.09.075-.16.2-.3l.56-.632a1 1 0 0 1 .068-.07 1 1 0 0 1 .075-.047l.703-.403a.6.6 0 0 1 .142-.067c.034-.008.07-.008.141-.008h.897a1 1 0 0 1 .1.005c.023.004.044.012.087.027l.671.233c.216.075.324.113.38.206l.02.041c.042.101.01.2-.054.4-.113.352-.267.671-.46.903m.203 2.095c.81 1.24-4.59 1.24-3.65 0 .28-.369.442-.678.532-.93.055-.152.082-.229.12-.272a.3.3 0 0 1 .054-.048c.048-.033.096-.044.191-.065.169-.038.253-.058.334-.03a.3.3 0 0 1 .091.05c.067.054.097.141.157.315.117.334.209.505.343.522a.3.3 0 0 0 .076 0c.13-.016.22-.177.331-.488.063-.177.095-.265.16-.318a.3.3 0 0 1 .097-.052c.08-.026.164-.006.333.034.1.024.15.036.196.068q.031.022.056.05c.037.044.061.113.11.251.088.249.233.552.469.913"/></svg>