<svg xmlns="http://www.w3.org/2000/svg" width="24" height="24" fill="currentColor" viewBox="2.36 1.73 6.24 6.24"><path d="M6.842 5.39C7.654 5.414 8.6 5.7 8.6 6.9a.9.9 0 0 1-.9.9H4.718c-1.038 0-1.558 0-1.873-.288a.923.923 0 0 1-.298-.572c-.043-.269-.064-.403.02-.507a.3.3 0 0 1 .038-.04c.102-.086.269-.065.603-.02.353.046.781.077 1.291.077.986 0 1.622-.332 2.013-.692.134-.124.235-.25.312-.36a.02.02 0 0 1 .018-.008M4 3.95c.447 0 .908.112 1.265.232a.11.11 0 0 1 .074.113 2 2 0 0 0-.006.142c0 .198 0 .296.23.575.024.028.081.087.108.111.115.101.147.295.012.367-.274.146-.655.26-1.184.26-.873 0-1.47-.097-1.84-.19a.11.11 0 0 1-.079-.114l.003-.048c.034-.437.042-.777.037-1.048a.17.17 0 0 1 .116-.168c.357-.12.818-.233 1.264-.233M4 1.9c1.7 0 1.7.55 1.6 1.1-.032.176-.048.265-.1.325a.3.3 0 0 1-.144.095c-.076.023-.18-.001-.39-.05-.296-.07-.629-.12-.966-.12-.334 0-.664.05-.96.118-.214.05-.321.075-.395.054a.3.3 0 0 1-.154-.103c-.048-.06-.062-.147-.091-.32C2.3 2.4 2.3 1.9 4 1.9"/></svg>