<svg xmlns="http://www.w3.org/2000/svg" width="24" height="24" fill="currentColor" viewBox="1.65 1.61 6.70 6.70"><path d="M2.5 7.58c.044-.31.067-.464.19-.563a.4.4 0 0 1 .054-.037c.138-.077.346-.026.761.075.422.103.918.17 1.495.17a6.3 6.3 0 0 0 1.494-.17c.415-.1.623-.15.76-.074q.03.015.055.037c.123.098.146.253.191.562a.36.36 0 0 1-.01.192.3.3 0 0 1-.032.059c-.087.131-.274.175-.646.264A7.8 7.8 0 0 1 5 8.301c-.73 0-1.339-.092-1.812-.206-.372-.088-.558-.133-.646-.264a.3.3 0 0 1-.032-.059.36.36 0 0 1-.01-.192M7.035 3.9a.37.37 0 0 1 .443.144q.072.11.144.208c.126.17.19.256.199.335l.002.035c0 .08-.054.171-.159.354a5 5 0 0 0-.364.775c-.07.2-.106.3-.159.359l-.024.025c-.058.054-.128.08-.267.132-.452.17-1.06.308-1.85.308-.792 0-1.4-.137-1.854-.308-.138-.052-.208-.078-.266-.132l-.024-.025c-.054-.06-.089-.16-.159-.358a5 5 0 0 0-.364-.776c-.105-.183-.158-.274-.158-.354q0-.018.002-.035c.01-.08.073-.165.198-.335q.073-.098.144-.206a.37.37 0 0 1 .445-.146c.612.25 1.415.525 2.035.525S6.424 4.15 7.036 3.9M6.81 1.612c.124.022.249.147.499.397l.074.074c.11.11.164.164.19.207a.35.35 0 0 1 .022.365c-.02.046-.066.104-.157.22l-.13.164a.3.3 0 0 1-.1.077l-.065.031q-.165.076-.353.153c-.613.25-1.31.475-1.79.475S3.824 3.55 3.21 3.3a11 11 0 0 1-.354-.153l-.066-.03a.3.3 0 0 1-.099-.078l-.13-.164a1.3 1.3 0 0 1-.157-.22.35.35 0 0 1 .022-.364c.026-.044.08-.098.19-.208l.075-.074c.25-.25.375-.375.499-.397a.3.3 0 0 1 .054-.006c.125-.005.317.117.7.36.282.18.644.335 1.056.335s.775-.154 1.057-.334c.382-.244.574-.366.7-.36a.3.3 0 0 1 .053.005"/></svg>