<svg xmlns="http://www.w3.org/2000/svg" width="24" height="24" fill="currentColor" viewBox="1.20 1.31 7.60 7.60"><path d="M6.652 6.358c.151-.044.282.088.202.224-.218.37-.73.918-1.854.918s-1.637-.547-1.855-.918c-.08-.136.05-.268.202-.224.41.118 1.103.292 1.653.292s1.243-.174 1.652-.292m-.716-2.649a.2.2 0 0 0 .077-.121c.176-.703 1.075-1.202 2.207-.58.793.434.545.612.3.798-.091.068-.087.195-.011.279.415.461.42 1.01-.186.904-.41-.073-.717-.115-.983-.145-.12-.013-.221.085-.24.204a.9.9 0 0 1-.277.53.2.2 0 0 1-.05.034C6.612 5.679 5.805 6 5 6c-.807 0-1.614-.321-1.772-.388a.2.2 0 0 1-.051-.033.9.9 0 0 1-.279-.53c-.019-.12-.12-.217-.24-.204-.265.03-.572.072-.98.144-.606.106-.601-.443-.187-.904.076-.084.08-.21-.01-.279-.246-.186-.494-.364.299-.799 1.133-.621 2.032-.122 2.207.583a.2.2 0 0 0 .077.121c.222.157.528.29.936.29s.715-.134.936-.292"/></svg>