<svg xmlns="http://www.w3.org/2000/svg" width="24" height="24" fill="currentColor" viewBox="1.25 1.35 7.54 7.54"><path d="M6.652 6.358c.152-.044.282.088.203.224-.218.37-.73.918-1.855.918s-1.637-.547-1.854-.918c-.08-.136.05-.268.202-.224.409.118 1.102.292 1.652.292s1.243-.174 1.652-.292m-.94-2.517c.084-.04.116-.138.102-.229-.082-.517.282-1.046 1.649-.805 1.665.294 1.712 2.677.45 2.453a5 5 0 0 1-.57-.137c-.124-.04-.257.04-.308.158a.9.9 0 0 1-.212.298.2.2 0 0 1-.051.033C6.612 5.679 5.806 6 5 6c-.805 0-1.611-.32-1.771-.388a.2.2 0 0 1-.052-.033.9.9 0 0 1-.21-.291c-.051-.116-.18-.192-.302-.155a5 5 0 0 1-.534.127C.868 5.484.915 3.1 2.58 2.807c1.38-.244 1.738.298 1.646.82-.017.095.017.197.105.236.184.081.405.137.668.137.286 0 .521-.066.713-.16"/></svg>