<svg xmlns="http://www.w3.org/2000/svg" width="24" height="24" fill="currentColor" viewBox="1.80 1.85 6.41 6.41"><path d="M1.932 6.684c.068-.043.292 0 .737.084.09.017.187.023.26.028s.169.012.26.008l.037-.002c.507-.038.761-.057.823-.007.012.01.014.011.024.023.052.06.046.236.033.586l-.005.196c0 .8-2.3.8-2.3 0l.017-.355c.017-.322.026-.483.084-.538.013-.012.015-.014.03-.023m5.41.084c.446-.085.67-.127.738-.084a.2.2 0 0 1 .03.023c.057.055.067.216.083.538l.018.355c0 .8-2.3.8-2.3 0 0-.006-.001-.076-.006-.196-.012-.35-.019-.526.033-.586a.1.1 0 0 1 .025-.023c.062-.05.317-.03.823.007l.036.002c.092.004.188-.003.261-.008s.17-.011.26-.028M2.185 4.062c.126-.116.336-.102.753-.073l.374.027c.417.029.627.044.736.176a.4.4 0 0 1 .04.06c.083.15.021.35-.104.749l-.163.521a2 2 0 0 1-.058.17.7.7 0 0 1-.606.413c-.04.002-.087-.001-.178-.007a2 2 0 0 1-.18-.018.7.7 0 0 1-.541-.493 2 2 0 0 1-.034-.176l-.09-.539c-.067-.413-.102-.62.002-.757a.4.4 0 0 1 .049-.053m4.891-.073c.417-.029.626-.043.753.073a.4.4 0 0 1 .049.053c.104.137.07.345 0 .757l-.088.54c-.015.09-.023.135-.034.175a.7.7 0 0 1-.542.493c-.04.008-.087.011-.179.018-.09.006-.138.01-.179.007a.7.7 0 0 1-.605-.413 2 2 0 0 1-.059-.17l-.163-.521c-.125-.4-.187-.599-.103-.75a.4.4 0 0 1 .04-.059c.11-.132.32-.147.736-.176zM3.91 1.9c.34 0 .51 0 .599.088a.3.3 0 0 1 .033.041c.07.103.038.282-.028.638q-.037.198-.07.412c-.022.147-.032.222-.052.256-.037.062-.063.081-.134.095-.039.007-.135-.013-.324-.051-.173-.035-.385-.048-.574-.062l-.375-.026c-.188-.013-.4-.029-.576-.019-.12.008-.18.011-.204.007-.1-.017-.145-.062-.163-.16a1 1 0 0 1 .003-.159l.009-.16c.02-.402.031-.604.15-.736a1 1 0 0 1 .056-.051c.138-.112.34-.113.742-.113zm3.1 0c.402 0 .604 0 .742.113q.03.023.056.051c.119.132.129.334.15.736l.009.16c.005.09.007.135.003.158-.018.1-.064.144-.163.161-.024.004-.085 0-.204-.007-.177-.01-.388.006-.577.019l-.375.026c-.188.014-.4.027-.573.062-.189.038-.285.058-.324.05-.07-.013-.097-.032-.134-.094-.02-.034-.03-.109-.053-.256q-.032-.214-.069-.412c-.066-.356-.1-.535-.028-.638a.3.3 0 0 1 .033-.04c.088-.089.26-.089.599-.089z"/></svg>