<svg xmlns="http://www.w3.org/2000/svg" width="24" height="24" fill="currentColor" viewBox="1.28 1.27 7.41 7.41"><path d="M6.985 1.782c0-.166.179-.262.31-.16.693.535 2.205 1.963.873 3.406-.104.113-.156.17-.177.221l-.008.024c-.016.053-.01.123 0 .263q.014.187.016.343a.4.4 0 0 0 .068.222l.266.398a.38.38 0 0 1 .065.222c-.024.669-.272 1.275-1.42 1.577-.289.075-.433.113-.548.031a.3.3 0 0 1-.043-.038c-.097-.103-.077-.264-.037-.586l.115-.918a.7.7 0 0 1 .038-.188.3.3 0 0 1 .083-.107c.035-.03.08-.048.172-.084.086-.035.128-.052.163-.079a.3.3 0 0 0 .081-.1c.02-.038.028-.084.045-.175l.006-.033c.063-.347.094-.52.006-.628a.3.3 0 0 0-.041-.041c-.108-.088-.282-.057-.628.006l-.355.064c-.19.034-.284.051-.349.112l-.026.028c-.056.069-.067.164-.09.356l-.124 1.084a.45.45 0 0 1-.892 0l-.126-1.085c-.022-.191-.033-.287-.09-.355l-.025-.028c-.065-.06-.16-.078-.35-.112l-.353-.064c-.346-.063-.52-.094-.628-.006a.3.3 0 0 0-.04.04c-.09.108-.058.282.005.629l.006.033c.017.091.025.136.045.175a.3.3 0 0 0 .081.1c.034.027.077.044.163.079.09.036.136.054.172.083a.3.3 0 0 1 .083.108c.02.042.025.09.037.188l.115.918c.04.322.06.483-.036.586a.3.3 0 0 1-.044.038c-.115.082-.26.044-.548-.032-1.147-.3-1.394-.907-1.418-1.576a.38.38 0 0 1 .064-.222l.266-.398A.4.4 0 0 0 2 5.879q.002-.15.014-.329c.01-.141.015-.212-.001-.265l-.009-.023c-.02-.052-.073-.108-.178-.22-1.352-1.448.168-2.883.863-3.42.131-.102.31-.006.31.16 0 .207-.067.409-.143.602l-.036.101c-.063.197-.094.295.025.423a.4.4 0 0 0 .053.046c.145.098.304.018.622-.142.387-.195.872-.313 1.479-.313.597 0 1.076.114 1.46.304.32.158.48.237.625.138a.4.4 0 0 0 .053-.046c.118-.13.085-.229.02-.426l-.031-.085c-.076-.193-.142-.395-.142-.602"/></svg>