<svg xmlns="http://www.w3.org/2000/svg" width="24" height="24" fill="currentColor" viewBox="1.12 1.10 7.75 7.75"><path d="M2.012 5.293c.714.073 1.07.11 1.17.301a.4.4 0 0 1 .033.081c.055.208-.176.47-.639.99l-.206.232c-.114.128-.172.193-.245.227a.4.4 0 0 1-.091.03c-.08.017-.164 0-.332-.034-.248-.05-.372-.074-.455-.15a.4.4 0 0 1-.08-.104c-.054-.1-.047-.226-.033-.479l.02-.372c.02-.358.03-.537.136-.644a.4.4 0 0 1 .053-.046c.123-.087.305-.069.669-.032m6.854 1.094c.014.253.021.38-.032.479a.4.4 0 0 1-.08.103c-.083.077-.208.102-.456.151-.169.034-.253.051-.332.035a.4.4 0 0 1-.091-.03c-.074-.035-.131-.1-.245-.228l-.205-.232c-.463-.52-.694-.78-.639-.989a.4.4 0 0 1 .031-.082c.1-.19.458-.228 1.172-.3.363-.038.544-.056.667.03q.03.022.054.047c.105.107.115.286.135.643zM5 2.8c1 0 1.2.4 1.2.8 0 .28-.097 1.34-.156 1.953-.019.196-.028.295-.057.39q-.014.046-.032.09c-.038.092-.094.176-.204.341-.3.45-.45.675-.655.715a.5.5 0 0 1-.192 0c-.204-.04-.354-.265-.654-.715-.11-.165-.167-.249-.204-.34a1 1 0 0 1-.033-.091c-.028-.095-.037-.194-.056-.39C3.898 4.94 3.8 3.88 3.8 3.6c0-.4.2-.8 1.199-.8m-3.574.247c.1-.057.267-.019.6.056q.326.074.793.143a.7.7 0 0 1 .172.037.18.18 0 0 1 .098.113c.01.032.01.09.01.204 0 .127.017.375.04.665.015.2.023.3-.032.363l-.025.025c-.066.052-.163.04-.358.017a15 15 0 0 1-.793-.114c-.3-.052-.45-.079-.562-.194a.5.5 0 0 1-.066-.084c-.086-.137-.075-.3-.053-.625.021-.32.032-.48.115-.56a.3.3 0 0 1 .06-.046m6.547.056c.333-.075.5-.113.601-.056a.3.3 0 0 1 .06.046c.084.08.095.24.116.56.021.325.033.488-.053.625a.5.5 0 0 1-.066.084c-.113.115-.263.142-.563.194q-.33.059-.795.115c-.194.023-.292.034-.357-.018l-.026-.025c-.055-.063-.047-.163-.03-.363.022-.29.04-.538.04-.665 0-.115-.001-.173.01-.205a.18.18 0 0 1 .098-.111.6.6 0 0 1 .172-.038q.466-.068.793-.143"/></svg>