<svg xmlns="http://www.w3.org/2000/svg" width="24" height="24" fill="currentColor" viewBox="1.55 1.54 6.86 6.86"><path d="M2.718 6.886c.62.18 1.457.364 2.283.364.82 0 1.65-.158 2.268-.31.064-.017.095-.025.122-.026a.3.3 0 0 1 .271.136c.015.023.026.049.047.1.11.263.152.429.098.568a1 1 0 0 1-.038.078c-.107.18-.328.233-.768.341A8.6 8.6 0 0 1 5 8.4a8.6 8.6 0 0 1-2.001-.263c-.44-.108-.662-.162-.769-.34a1 1 0 0 1-.038-.079c-.059-.154-.002-.34.135-.655l.014-.03a.3.3 0 0 1 .335-.159zm4.564-2.913a.33.33 0 0 1 .354.1c.16.173.239.26.26.414l.005.067a.4.4 0 0 1-.09.29c-.185.27-.448.577-.511.956a.7.7 0 0 0-.006.16c.01.134-.062.268-.193.3-.338.084-.736.167-1.152.222-.253.033-.38.05-.478-.022a.3.3 0 0 1-.038-.034c-.084-.087-.084-.221-.084-.49v-.625c0-.051 0-.076.004-.1a.3.3 0 0 1 .033-.096c.012-.022.029-.043.062-.085l.375-.478c.073-.092.11-.139.145-.164l.019-.012c.037-.023.09-.036.198-.064a13 13 0 0 0 1.097-.339m-4.438.062c.303.099.641.2.977.283a.8.8 0 0 1 .19.059l.026.016a1 1 0 0 1 .14.16l.374.477c.034.042.05.063.062.085q.025.045.033.095a1 1 0 0 1 .004.1v.618c0 .272 0 .407-.086.495a.3.3 0 0 1-.04.033c-.099.072-.225.052-.478.013a9 9 0 0 1-1.133-.256c-.134-.038-.205-.177-.205-.316a1 1 0 0 0-.008-.098c-.07-.414-.378-.572-.562-.874a.42.42 0 0 1-.08-.286l.004-.063c.022-.145.135-.272.36-.528a.23.23 0 0 1 .247-.072zm3.848-2.488c.1.01.23.078.49.216l.139.074c.28.15.42.225.46.334.006.018.01.03.013.048.02.115-.078.27-.273.581q-.061.097-.11.197c-.095.196-.142.294-.181.33l-.018.017c-.041.034-.106.056-.236.1a14 14 0 0 1-.848.262c-.154.042-.23.062-.309.041l-.033-.01c-.075-.03-.126-.096-.229-.227l-.109-.14c-.195-.247-.292-.371-.42-.383a.3.3 0 0 0-.055 0c-.128.012-.227.136-.422.384l-.112.143c-.102.13-.153.194-.227.224l-.033.011c-.077.021-.154.002-.307-.038a14 14 0 0 1-.841-.247c-.123-.04-.184-.06-.224-.09a.2.2 0 0 1-.042-.04c-.034-.037-.074-.134-.154-.327a2 2 0 0 0-.082-.167c-.204-.358-.306-.539-.283-.649a.3.3 0 0 1 .013-.046c.04-.105.186-.183.477-.338l.081-.044c.259-.138.389-.206.49-.216l.044-.002c.102 0 .329.095.783.286C4.36 1.926 4.65 2 5 2s.638-.074.865-.17c.454-.19.682-.286.783-.285.023 0 .022 0 .044.002"/></svg>