<svg xmlns="http://www.w3.org/2000/svg" width="24" height="24" fill="currentColor" viewBox="1.72 1.72 6.55 6.55"><path d="M5 2.1c2.304 0 3.041 1.843 3.008 2.876l-.035 1.112c0 .004 0-.004 0 0l.011-.865c-.002.15.031.462.215 1.077.166.553.087 1.043-.522 1.37-.33.179-.495.267-.682.172a.5.5 0 0 1-.071-.047c-.163-.133-.144-.36-.106-.813l.058-.693c.049-.581.073-.872-.049-1.002a.3.3 0 0 0-.055-.05c-.104-.074-.306-.06-.66.006-.218.04-.328.061-.41.132l-.033.033c-.073.08-.097.192-.145.417l-.04.184a.495.495 0 0 1-.967 0l-.04-.184c-.048-.224-.072-.336-.145-.416l-.034-.033c-.082-.07-.19-.091-.41-.132-.354-.066-.557-.082-.66-.006a.4.4 0 0 0-.056.05c-.121.13-.098.42-.05 1.001l.058.693c.038.453.057.68-.105.813a.5.5 0 0 1-.072.047c-.187.095-.352.006-.682-.172-.608-.328-.687-.818-.521-1.37.18-.602.216-.914.216-1.067v.648-.001l-.024-.914C1.964 3.932 2.704 2.1 5 2.1"/></svg>