<svg xmlns="http://www.w3.org/2000/svg" width="24" height="24" fill="currentColor" viewBox="1.75 1.73 6.49 6.49"><path d="M5 2.1c2.4 0 3.1 2 3 3-.07.709.11 1.518.22 1.93.048.176.037.367-.108.478a1.4 1.4 0 0 1-.192.121c-.337.181-.506.272-.688.185a.4.4 0 0 1-.071-.043c-.161-.122-.157-.366-.15-.854.01-.69-.066-1.4-.411-1.505-.7-.211-.9.4-1.6.4s-.9-.6-1.6-.4c-.347.1-.424.811-.413 1.505.008.488.012.731-.149.854a.5.5 0 0 1-.071.043c-.183.086-.351-.004-.688-.186a1.4 1.4 0 0 1-.19-.12c-.146-.111-.157-.302-.11-.479.112-.411.292-1.22.221-1.929-.1-1 .6-3 3-3"/></svg>