<svg xmlns="http://www.w3.org/2000/svg" width="24" height="24" fill="currentColor" viewBox="1.08 0.74 7.84 7.84"><path d="M1.398 5.16c.154-.101.348-.078.736-.03.207.025.444.046.695.059.143.007.215.01.27.03.074.026.13.068.18.13.036.045.06.107.11.23.077.194.116.291.115.351-.002.098-.018.137-.087.206-.043.043-.172.096-.43.202a3 3 0 0 0-.551.311c-.695.491-1.042.737-1.195.673a.3.3 0 0 1-.058-.032c-.136-.097-.114-.455-.07-1.171q.009-.17.03-.337c.04-.3.058-.45.194-.574a1 1 0 0 1 .061-.048m6.465-.03c.388-.048.582-.071.736.03.02.013.044.032.061.048.136.123.155.274.193.574q.022.166.032.337c.043.716.065 1.074-.07 1.17a.3.3 0 0 1-.06.033c-.152.064-.5-.182-1.194-.673a3 3 0 0 0-.551-.31c-.258-.107-.387-.16-.43-.203-.069-.069-.085-.108-.087-.206 0-.06.038-.157.115-.35.05-.124.074-.186.11-.232a.4.4 0 0 1 .18-.129c.055-.02.127-.023.27-.03.25-.013.488-.034.695-.06m-2.82-3.147c.208.018.368.21.686.593l.076.09c.32.385.481.578.535.81q.012.05.018.102c.03.236-.055.472-.223.943l-.24.674c-.352.984-.529 1.477-.834 1.515a.5.5 0 0 1-.123 0c-.305-.038-.481-.53-.833-1.515l-.24-.674c-.17-.471-.253-.707-.223-.943q.006-.053.017-.103c.054-.231.215-.424.535-.808l.075-.091c.32-.383.48-.575.687-.593a1 1 0 0 1 .088 0m.075 1.082a.3.3 0 0 0-.236 0c-.082.035-.148.133-.279.33-.073.11-.11.165-.131.226a.5.5 0 0 0-.028.175c.002.064.02.128.057.256l.007.027c.162.568.244.852.38.907a.3.3 0 0 0 .223 0c.137-.055.218-.339.38-.907l.008-.027c.036-.127.055-.192.057-.256a.5.5 0 0 0-.028-.175c-.02-.06-.058-.116-.132-.227-.13-.196-.196-.294-.278-.329m-3.692-.317c.1-.057.267-.02.6.055q.3.068.72.133a1 1 0 0 1 .136.025c.092.035.131.091.13.19 0 .021-.012.07-.034.167a1.69 1.69 0 0 0 .024.82c.033.128-.067.255-.198.24q-.516-.058-.872-.122c-.3-.052-.45-.079-.563-.194a.5.5 0 0 1-.066-.084c-.086-.137-.075-.3-.053-.625.021-.32.032-.48.115-.56a.3.3 0 0 1 .06-.045m6.548.055c.333-.074.5-.112.6-.055.024.013.041.027.06.046.084.08.095.24.116.56.022.324.033.487-.053.624a.5.5 0 0 1-.066.084c-.113.116-.263.142-.563.194q-.357.064-.873.122c-.131.015-.23-.112-.197-.24a1.7 1.7 0 0 0 .024-.82C7 3.22 6.99 3.172 6.988 3.15c-.001-.099.037-.155.13-.19.02-.008.058-.013.134-.025q.42-.064.722-.133"/></svg>