<svg xmlns="http://www.w3.org/2000/svg" width="24" height="24" fill="currentColor" viewBox="0 0 10 10"><path d="M7.455 7.746c.238-.021.477.168.41.397a.4.4 0 0 1-.12.196c-.123.119-.282.134-.599.166A22 22 0 0 1 5 8.6c-.963 0-1.67-.047-2.146-.095-.316-.032-.475-.047-.6-.166a.412.412 0 0 1-.12-.196c-.066-.229.173-.418.41-.397l.026.002c.583.051 1.418.102 2.43.102a28 28 0 0 0 2.455-.104M6.85 1.691c.212.012.319.018.366.033q.319.1.276.432c-.007.05-.055.171-.15.414-.221.56-.348 1.304.139 1.9.272.332.41.498.439.578.007.02.005.017.01.036.023.082.015.218-.003.49-.015.24-.027.548-.027.926v.139a.397.397 0 0 1-.355.396l-.175.016c-.567.05-1.382.099-2.37.099a28 28 0 0 1-2.545-.115.397.397 0 0 1-.355-.396v-.193q-.002-.51-.023-.84c-.017-.276-.024-.414-.002-.494.005-.02.003-.015.01-.035.028-.078.173-.26.461-.625.462-.584.322-1.326.094-1.885-.097-.238-.145-.357-.152-.407q-.045-.333.274-.436c.048-.015.154-.02.365-.033.167-.01.25-.016.305-.009.237.03.373.13.472.347.023.05.05.156.103.369.134.53.411 1.147.98 1.147.57 0 .848-.616.981-1.146.054-.214.08-.321.104-.371a.53.53 0 0 1 .472-.346c.054-.007.138-.001.306.009M3.5 6c0 .192.156.349.35.349h2.3a.35.35 0 0 0 0-.7h-2.3A.35.35 0 0 0 3.5 6m.55-1.651a.35.35 0 0 0 0 .7h1.9a.35.35 0 0 0 0-.7z"/></svg>