<svg xmlns="http://www.w3.org/2000/svg" width="24" height="24" fill="currentColor" viewBox="0 0 10 10"><path d="M7.45 6.6a.35.35 0 1 1 0 .7h-4.9a.35.35 0 1 1 0-.7zM6.01 3.587c.107.19.16.285.241.326a.3.3 0 0 0 .164.031c.09-.008.175-.076.346-.213.354-.283.53-.424.674-.409.088.01.17.052.228.12.094.108.079.335.049.786l-.018.253c-.042.636-.063.953-.254 1.16a1 1 0 0 1-.087.082c-.22.177-.538.177-1.175.177H3.822c-.637 0-.955 0-1.175-.177a1 1 0 0 1-.087-.082c-.191-.207-.212-.524-.254-1.16l-.018-.253c-.03-.451-.045-.678.049-.787a.35.35 0 0 1 .228-.119c.143-.015.32.126.674.41.17.136.256.204.346.212a.3.3 0 0 0 .164-.031c.08-.041.134-.136.241-.326l.348-.616c.277-.49.415-.734.62-.756a.4.4 0 0 1 .084 0c.205.022.343.266.62.756z"/></svg>