<svg xmlns="http://www.w3.org/2000/svg" width="24" height="24" fill="currentColor" viewBox="0 0 10 10"><path d="M4.298 1.544a1.302 1.302 0 0 1 1.72 1.809 1.3 1.3 0 0 1-.478.474.15.15 0 0 0-.079.13v.004c0 .077.062.139.139.139.22 0 .4.18.4.4 0 .246-.123.579.011.784.31.472.584 1.003.625 1.45.1 1.1-.614 1.9-1.575 1.901-.96 0-1.725-.8-1.625-1.9.039-.427.288-.928.579-1.382.138-.216-.015-.596-.016-.853 0-.22.18-.4.4-.4a.26.26 0 0 0 .262-.26v-.105l.001-.027.005-.058a.4.4 0 0 1 .01-.067l.013-.053c.044-.18.238-.279.408-.351a.52.52 0 1 0-.672-.706c-.08.166-.19.354-.371.39l-.054.01c-.211.041-.422-.1-.4-.313a1.3 1.3 0 0 1 .697-1.016M5.343 5.72a.365.365 0 0 0-.613.001l-.052.08c-.274.431-.425.787-.445 1.006-.06.656.362 1.028.828 1.028.433 0 .84-.338.778-1.028-.02-.22-.17-.576-.444-1.007z"/></svg>