<svg xmlns="http://www.w3.org/2000/svg" width="24" height="24" fill="currentColor" viewBox="0 0 10 10"><path d="M1.5 4.1c.095.948.46.727.497 3.091v.02a.397.397 0 0 0 .395.389h.027a.4.4 0 0 0 .394-.38v-.013l.01-.257c.025-.733.037-1.1.156-1.2a.33.33 0 0 1 .251-.082c.155.011.395.318.874.932.428.547.9 1 1.296 1h2.54c.316 0 .474 0 .594-.163a1 1 0 0 0 .042-.071c.084-.184.027-.286-.086-.488-.3-.537-.857-1.003-1.25-1.286-.133-.097-.2-.146-.277-.155l-.033-.002c-.077-.002-.22.075-.509.228C5.107 6.359 3.217 2.4 2.4 2.4c-.5 0-1 .7-.9 1.7"/></svg>