<svg xmlns="http://www.w3.org/2000/svg" width="24" height="24" fill="currentColor" viewBox="0 0 10 10"><path d="M2.809 2.268a.234.234 0 0 1 .265.276c-.395 2.043.257 2.883.833 3.227.344.205.516.307.57.496.007.022.015.06.017.082.023.196-.02.254-.104.368-.297.4-.848.748-1.558.623C1.688 7.138.63 4.02 2.706 2.314a.2.2 0 0 1 .103-.046m4.477 0a.2.2 0 0 1 .102.046c2.077 1.705 1.019 4.825-.126 5.026a1.57 1.57 0 0 1-1.557-.623c-.084-.114-.127-.172-.104-.368a1 1 0 0 1 .016-.082c.055-.19.227-.291.57-.496.577-.344 1.229-1.184.834-3.227a.233.233 0 0 1 .265-.276"/></svg>