<svg xmlns="http://www.w3.org/2000/svg" width="24" height="24" fill="currentColor" viewBox="0 0 10 10"><path d="M6.237 5.807a.6.6 0 0 0 .093.428l.348.522c.079.118.114.26.098.4l-.105.937a.3.3 0 0 1-.516.172l-.937-.995a.3.3 0 0 0-.436 0l-.937.995a.3.3 0 0 1-.516-.172l-.105-.937a.6.6 0 0 1 .097-.4l.348-.522a.6.6 0 0 0 .094-.428l-.168-1.06c-.046-.288-.07-.433.002-.533a.3.3 0 0 1 .034-.04c.087-.086.234-.086.527-.086h1.684c.293 0 .44 0 .527.087a.3.3 0 0 1 .034.039c.071.1.048.245.002.534zM5 1.64c.77 0 1.398.532 1.571 1.228.046.184.069.276-.001.385a.4.4 0 0 1-.034.042c-.089.095-.208.095-.448.095H3.911c-.24 0-.36 0-.448-.095l-.034-.042c-.07-.11-.047-.201-.001-.385A1.62 1.62 0 0 1 5 1.64"/></svg>