<svg xmlns="http://www.w3.org/2000/svg" width="24" height="24" fill="currentColor" viewBox="0 0 10 10"><path d="M5 4.6c.43 0 .565.772.911 1.277q.047.07.1.132.042.048.089.09C6.6 6.553 5.552 8 5 8c-.535 0-1.535-1.358-1.143-1.855L3.9 6.1q.109-.101.195-.232l.008-.013C4.438 5.351 4.576 4.6 5 4.6M2.066 1.902a.4.4 0 0 1 .433.366l.001.005.003.028q.004.038.013.11c.013.097.035.237.068.405.067.34.182.787.37 1.229.134.319.3.619.503.874a.6.6 0 0 1 .104.153.2.2 0 0 1 .007.081.4.4 0 0 1-.06.14.9.9 0 0 1-.145.214 1 1 0 0 1-.15.125.18.18 0 0 1-.196-.013.6.6 0 0 1-.097-.099 4.5 4.5 0 0 1-.703-1.163A7 7 0 0 1 1.8 2.973a8 8 0 0 1-.093-.586l-.004-.036v-.016a.4.4 0 0 1 .363-.433m5.869 0a.4.4 0 0 1 .363.352v.096l-.004.037a7.44 7.44 0 0 1-.092.586 7.2 7.2 0 0 1-.418 1.384 4.5 4.5 0 0 1-.706 1.164c-.047.056-.072.084-.096.1a.18.18 0 0 1-.195.01 1 1 0 0 1-.15-.124.9.9 0 0 1-.146-.213.4.4 0 0 1-.06-.14.2.2 0 0 1 .007-.082.6.6 0 0 1 .103-.151c.204-.256.371-.557.507-.876.187-.442.302-.89.369-1.229a7 7 0 0 0 .082-.515l.002-.028v-.007l.016-.08a.4.4 0 0 1 .418-.284"/></svg>