<svg xmlns="http://www.w3.org/2000/svg" width="24" height="24" fill="currentColor" viewBox="0 0 10 10"><path d="M7.975 2.9c.262 0 .476.213.476.475 0 .787-.64 1.425-1.426 1.425H5.758a.273.273 0 0 0-.272.257.68.68 0 0 1-.68.643c-.248 0-.373 0-.47.06a.4.4 0 0 0-.062.048c-.083.077-.116.197-.181.437l-.147.538c-.072.263-.107.394-.184.49a.6.6 0 0 1-.233.178c-.114.049-.25.05-.522.05-.437 0-.656 0-.804-.095a.6.6 0 0 1-.249-.32c-.053-.167.002-.38.112-.803l.273-1.055.008-.032a.4.4 0 0 0-.33-.483l-.043-.009a.6.6 0 0 1-.46-.634l.004-.044.026-.226c.031-.265.047-.398.098-.503a.7.7 0 0 1 .403-.36c.11-.037.244-.037.511-.037z"/></svg>