<svg xmlns="http://www.w3.org/2000/svg" width="24" height="24" fill="currentColor" viewBox="0 0 10 10"><path d="M3.303 3.801c.097.02.152.137.262.37l.03.064c.034.069.051.103.056.131a.2.2 0 0 1-.008.101.7.7 0 0 1-.081.129A1.9 1.9 0 0 0 3.2 5.699c0 .98.821 1.8 1.8 1.8s1.8-.82 1.8-1.8c0-.402-.138-.786-.362-1.103-.048-.067-.072-.1-.081-.128a.2.2 0 0 1-.008-.1.6.6 0 0 1 .056-.133l.032-.065c.108-.232.163-.348.26-.369l.041-.004c.1 0 .166.087.297.26.354.468.565 1.046.565 1.642A2.62 2.62 0 0 1 5 8.3a2.62 2.62 0 0 1-2.6-2.6c0-.596.21-1.175.564-1.642.132-.174.198-.262.298-.262q.02 0 .04.005M5 1.701c.452 0 1 .846 1 1.199 0 .352-.5 1.7-1 1.7S4 3.252 4 2.9c0-.353.548-1.2 1-1.2"/></svg>