<svg xmlns="http://www.w3.org/2000/svg" width="24" height="24" fill="currentColor" viewBox="0 0 10 10"><path d="M6.56 3.6c.425 0 .638 0 .794.112a1 1 0 0 1 .064.052c.14.132.18.341.261.758l.394 2.014c.1.516.15.774.035.97a1 1 0 0 1-.056.08c-.145.174-.405.214-.925.294l-.562.086c-.315.049-.473.073-.607.03a.6.6 0 0 1-.268-.173c-.093-.106-.135-.26-.218-.569-.144-.536-.217-.805-.333-.866a.3.3 0 0 0-.279 0c-.116.061-.189.33-.333.866-.083.309-.124.463-.217.569a.6.6 0 0 1-.268.174c-.134.042-.292.018-.608-.03l-.561-.087c-.52-.08-.78-.12-.926-.294a1 1 0 0 1-.056-.08c-.115-.196-.064-.454.036-.97l.393-2.014c.081-.417.122-.626.262-.758a1 1 0 0 1 .063-.052c.157-.112.37-.112.794-.112zm.54-1.5a.4.4 0 0 1 0 .8H2.9a.4.4 0 0 1 0-.8z"/></svg>