<svg xmlns="http://www.w3.org/2000/svg" width="24" height="24" fill="currentColor" viewBox="0 0 10 10"><path d="M5.86 3.6c.454 0 .68 0 .824.086a1 1 0 0 1 .06.04c.13.103.244.398.47.987C7.63 5.789 8.5 6.518 8.5 6.899c0 .284-.162.63-.85.878-.25.09-.376.136-.515.082a1 1 0 0 1-.058-.027c-.129-.075-.178-.22-.277-.51L6.759 7.2C6.314 5.897 6.09 5.246 5.9 5.258a.3.3 0 0 0-.07.014c-.18.067-.118.753.006 2.124.022.247.033.37-.014.47a.4.4 0 0 1-.153.17c-.093.057-.213.06-.451.063H4.78c-.238-.004-.357-.006-.45-.062a.4.4 0 0 1-.154-.173c-.046-.098-.035-.221-.013-.468.124-1.371.185-2.057.006-2.124a.3.3 0 0 0-.07-.014c-.191-.012-.414.639-.859 1.942l-.04.121c-.1.29-.15.436-.278.511a1 1 0 0 1-.058.027c-.139.054-.264.009-.515-.082-.688-.247-.85-.594-.85-.878 0-.38.87-1.11 1.285-2.186.227-.59.34-.884.472-.986a1 1 0 0 1 .06-.041c.142-.086.37-.086.823-.086zm.64-1.5a.4.4 0 0 1 0 .8H3.6a.401.401 0 0 1 0-.8z"/></svg>