<svg xmlns="http://www.w3.org/2000/svg" width="24" height="24" fill="currentColor" viewBox="0 0 10 10"><path d="M7.433 6.75c.104-.009.156-.013.202.006a.22.22 0 0 1 .122.175c.002.05-.014.085-.048.156-.286.61-.992.813-2.709.813s-2.423-.203-2.71-.812c-.034-.072-.05-.108-.048-.158a.22.22 0 0 1 .121-.174c.046-.02.099-.015.204-.006.585.051 1.42.102 2.433.102S6.848 6.8 7.433 6.75M2.22 2.05c.2-.121.369-.03.379.204v.3a.95.95 0 0 0 .434.799c.02.012.03.018.048.026a.22.22 0 0 0 .146 0c.019-.007.034-.017.064-.036a.6.6 0 0 1 .17-.092c.1-.018.201.045.229.143.01.038.003.105-.013.238a4 4 0 0 0-.027.469c0 .344 0 .65.01.902a3.3 3.3 0 0 0 .12.821c.03.145-.048.242-.195.243l-.072-.004a25 25 0 0 1-1.081-.078c-.147-.014-.22-.022-.27-.07l-.02-.021C2.1 5.839 2.1 5.765 2.1 5.617V5.6c0-.005 0-.157.04-.387.02-.126.031-.19.018-.234l-.007-.02c-.018-.042-.07-.089-.176-.182a1.696 1.696 0 0 1 .186-2.689zm5.18.204c.01-.234.179-.325.38-.204l.058.04a1.696 1.696 0 0 1 .186 2.688c-.106.093-.158.14-.176.183l-.007.019c-.013.045-.002.108.019.234.039.23.04.382.04.387v.017c0 .148 0 .222-.042.276l-.02.022c-.05.047-.123.055-.27.07l-.2.018a24 24 0 0 1-.88.06l-.072.003c-.147-.001-.225-.098-.194-.243l.027-.101a3.3 3.3 0 0 0 .092-.72c.01-.253.01-.558.01-.902q0-.232-.028-.469c-.015-.132-.023-.198-.013-.236a.203.203 0 0 1 .229-.144c.039.007.082.035.17.091.03.02.044.029.063.036a.22.22 0 0 0 .146 0 .95.95 0 0 0 .482-.824zM5 2.8c.35 0 .547.46.59 1.043l.01.257v.48q-.003.206-.01.374c-.026.717-.136.946-.59.946-.6 0-.6-.4-.6-1.8 0-.7.2-1.3.6-1.3"/></svg>