<svg xmlns="http://www.w3.org/2000/svg" width="24" height="24" fill="currentColor" viewBox="0 0 10 10"><path d="M5 6.45c.688 0 1.263.184 1.668.368.057.026.085.04.116.065.02.017.046.047.06.069.022.034.032.064.05.123.058.183.096.38.096.585-.001.859-3.847.859-3.849 0 0-.19.032-.373.082-.544.02-.071.031-.107.06-.148l.014-.018a.4.4 0 0 1 .127-.096l.083-.048c.317-.175.81-.357 1.494-.357m.34-4.8c.88 0 .33 1.862.77 1.753S6 2.215 6.87 2.324c.76.096.62 2.458-.162 3.42-.07.084-.104.127-.137.15a.27.27 0 0 1-.174.057c-.04 0-.096-.015-.207-.044A4.6 4.6 0 0 0 5 5.75c-.42 0-.786.059-1.098.146-.138.04-.207.059-.253.058a.2.2 0 0 1-.072-.011c-.044-.013-.104-.051-.224-.129-1.257-.811-1.467-2.082-.872-2.28.66-.22.744.91 1.08.69.335-.22-.693-2.13.196-2.24.89-.11.58 1.53 1.034 1.42.453-.11-.33-1.754.55-1.754"/></svg>