<svg xmlns="http://www.w3.org/2000/svg" width="24" height="24" fill="currentColor" viewBox="0 0 10 10"><path d="M7.29 6.855c.282.343.423.515.378.746a1 1 0 0 1-.029.093c-.089.218-.274.276-.643.391a6.4 6.4 0 0 1-1.918.282 6.4 6.4 0 0 1-2-.308c-.342-.113-.514-.17-.604-.371a1 1 0 0 1-.029-.088c-.051-.216.066-.387.3-.729a.25.25 0 0 1 .288-.096c.554.181 1.255.35 1.967.35.72 0 1.43-.172 1.987-.357a.28.28 0 0 1 .304.087M2.164 4.227c.002-.025-.003.037.006.003.04-.164.292-.326.458-.296.035.006.06.015.112.034l.1.037a13 13 0 0 0 1.156.364c.315.08.472.12.554.211l.032.042c.07.101.07.249.07.543v.467c0 .367 0 .551-.125.67a.4.4 0 0 1-.056.044c-.144.094-.307.056-.634-.02a7 7 0 0 1-.79-.232.7.7 0 0 1-.143-.06.4.4 0 0 1-.124-.121 1 1 0 0 1-.07-.156L2.28 4.661c-.079-.201-.118-.302-.12-.394 0-.016.002-.024.003-.04m5.063-.266c.076-.029.115-.044.16-.05.157-.023.392.127.439.28.013.042.012.031.013.036v.04c0 .092-.04.193-.119.394l-.43 1.1c-.031.078-.047.117-.069.15a.4.4 0 0 1-.128.125c-.035.021-.07.033-.138.058a7 7 0 0 1-.79.232c-.328.076-.491.114-.634.02a.4.4 0 0 1-.057-.044C5.35 6.183 5.35 6 5.35 5.632v-.468c0-.295 0-.442.068-.544l.033-.041c.08-.092.237-.133.552-.215a12 12 0 0 0 1.224-.403M3.398 1.525c.094.006.265.107.607.308.243.143.575.267.995.267s.751-.124.995-.267c.342-.201.514-.301.607-.308h.041c.094.003.212.065.447.192l.138.075c.237.127.356.191.412.285.023.038.036.07.047.113.025.107-.006.208-.068.41-.095.307-.142.462-.184.518a.3.3 0 0 1-.055.059c-.053.046-.132.077-.289.139l-.206.079c-.671.251-1.419.48-1.885.48-.225-.001-.533-.055-.884-.146a12 12 0 0 1-1.177-.38c-.168-.062-.252-.094-.307-.141a.3.3 0 0 1-.054-.057c-.045-.058-.096-.223-.198-.555-.062-.2-.093-.3-.066-.408a.4.4 0 0 1 .044-.109c.057-.095.176-.16.416-.288l.137-.074c.235-.127.352-.19.446-.192.02-.001.022-.002.041 0"/></svg>