<svg xmlns="http://www.w3.org/2000/svg" width="24" height="24" fill="currentColor" viewBox="0 0 10 10"><path d="M5 3.2c.57 0 .855 0 1.055.132a.8.8 0 0 1 .27.297c.111.212.082.496.025 1.063l-.098.993c-.024.235-.036.353-.074.463q-.012.038-.029.075c-.046.106-.118.201-.26.39-.373.498-.56.748-.808.781a.6.6 0 0 1-.162 0c-.249-.034-.435-.283-.809-.78-.142-.19-.213-.285-.26-.391q-.015-.038-.028-.075c-.038-.11-.05-.227-.073-.463l-.1-.993c-.057-.567-.085-.85.027-1.063a.8.8 0 0 1 .268-.297C4.144 3.2 4.43 3.2 5 3.2m1.356 1.493-.045.465zM1.324 3.441c.1-.057.264-.022.589.05q.279.062.66.123c.136.022.205.033.245.064.026.02.04.035.056.064.023.044.024.124.023.281 0 .212.025.467.051.738.008.086.012.13.003.165a.2.2 0 0 1-.147.143c-.034.009-.077.003-.162-.007a15 15 0 0 1-.793-.11c-.31-.052-.466-.08-.58-.196a.5.5 0 0 1-.063-.08c-.088-.138-.077-.306-.055-.64.021-.314.031-.471.115-.552a.3.3 0 0 1 .058-.043m6.765.05c.324-.072.487-.108.588-.05q.031.018.057.043c.084.08.094.238.115.552.023.334.034.502-.053.64a.5.5 0 0 1-.065.08c-.114.117-.269.144-.579.196q-.332.056-.795.11c-.084.01-.127.015-.16.007a.2.2 0 0 1-.147-.145.5.5 0 0 1 .003-.163c.027-.271.052-.526.051-.738 0-.157 0-.237.023-.28a.2.2 0 0 1 .055-.066c.04-.03.11-.041.246-.063q.381-.061.66-.124m-1.705.297.002.013q-.007-.03-.015-.059.007.022.013.046"/></svg>