<svg xmlns="http://www.w3.org/2000/svg" width="24" height="24" fill="currentColor" viewBox="0 0 10 10"><path d="M5.438 3.15c-.154 0-.231 0-.266-.008-.125-.03-.172-.074-.213-.196-.012-.034-.02-.126-.035-.31-.043-.497-.11-1.086.416-1.086.499 0 .539.599.56 1.097.007.153.01.23.001.269a.27.27 0 0 1-.215.224c-.038.01-.108.01-.248.01m-1.228.286c-.196.112-.294.169-.369.171a.29.29 0 0 1-.238-.106c-.049-.057-.073-.169-.122-.393-.124-.566-.21-1.163.275-1.223.515-.064.629.457.72.886.042.193.063.29.057.34a.24.24 0 0 1-.072.162c-.033.037-.106.08-.251.163m2.557-.075c-.217-.075-.325-.113-.37-.155a.24.24 0 0 1-.083-.127c-.02-.058-.009-.184.013-.435.025-.3.102-.576.543-.52.279.035.436.366.485.817.02.182.03.273-.017.357a.33.33 0 0 1-.178.141c-.092.027-.192-.008-.393-.078M3.024 4.397c-.213.24-.32.36-.474.343a.4.4 0 0 1-.063-.014c-.147-.05-.185-.177-.26-.432-.14-.47-.045-.861.254-.961.294-.098.474.092.614.314.116.185.174.278.172.367l-.003.039c-.013.088-.089.173-.24.344m.438 1.383c-.175-.106-.262-.158-.297-.264a.3.3 0 0 1-.015-.098c.002-.111.079-.198.232-.371l.534-.603a1 1 0 0 1 .068-.07 1 1 0 0 1 .075-.047l.703-.402a.6.6 0 0 1 .142-.067c.035-.008.07-.008.142-.008h.896a1 1 0 0 1 .1.005c.023.004.045.011.087.026l.627.218c.224.078.336.117.392.216q.011.021.02.044c.04.106 0 .206-.077.405-.119.305-.273.577-.462.771-.067.07-.101.105-.126.122a.26.26 0 0 1-.174.053c-.03 0-.076-.01-.169-.03a6 6 0 0 0-.236-.047c-.107-.018-.16-.028-.195-.044l-.015-.007c-.034-.018-.09-.07-.204-.174-.131-.12-.285-.208-.41-.208-.118 0-.262.078-.388.187a1.5 1.5 0 0 1-.211.17l-.016.007c-.036.015-.09.023-.2.038-.3.042-.573.106-.814.18a.01.01 0 0 1-.009-.002m.279 2.48c-.733.164-.514-.797-.254-1.527.04-.115.061-.172.107-.22l.022-.019c.05-.043.107-.058.221-.088q.204-.056.438-.095a.6.6 0 0 1 .214-.017l.023.005c.052.014.128.069.281.178A.57.57 0 0 0 5.1 6.6c.085 0 .184-.041.28-.105.16-.107.239-.16.291-.172l.023-.005a.6.6 0 0 1 .216.024q.27.055.501.127c.113.034.169.052.218.095l.02.02c.045.048.064.105.101.219.248.75.385 1.606-.36 1.457C5.1 8 4.9 8 3.74 8.26"/></svg>