<svg xmlns="http://www.w3.org/2000/svg" width="24" height="24" fill="currentColor" viewBox="0 0 10 10"><path d="M6.655 6.137c.167-.06.318.091.21.234-.273.363-.827.828-1.865.828-1.037 0-1.59-.465-1.864-.828-.107-.143.043-.295.21-.234.389.142.993.313 1.654.313.662 0 1.266-.171 1.655-.313M5.814 3.4c.055-.372.323-.856 1.435-.393C8.914 3.7 9 4.7 7.73 5.1c-.205.065-.38.086-.528.076a.24.24 0 0 0-.176.058c-.515.449-1.22.565-2.025.565-.803 0-1.537-.094-2.032-.556a.24.24 0 0 0-.172-.065A1.6 1.6 0 0 1 2.3 5.1c-1.3-.4-1.185-1.4.48-2.094 1.122-.466 1.384.029 1.436.402.01.075.055.144.126.17a1.87 1.87 0 0 0 1.348-.01.21.21 0 0 0 .124-.169"/></svg>