<svg xmlns="http://www.w3.org/2000/svg" width="24" height="24" fill="currentColor" viewBox="0 0 10 10"><path d="M2.374 7.707c-.19-.315-.284-.473-.19-.627a.3.3 0 0 1 .045-.057c.128-.128.4-.043.947.127.198.062.408.1.624.1h.946c.062 0 .094 0 .115.002a.27.27 0 0 1 .218.15c.01.018.027.058.058.138.076.195.114.292.117.336q.02.24-.212.31C5 8.2 4.916 8.2 4.75 8.2h-.332c-1.035 0-1.553 0-1.867-.284a1 1 0 0 1-.177-.21M6.9 6.1c.6 0 1.7-1.5 1.4 1.2-.2.9-1 .9-1 .9h-.64c-.12 0-.18 0-.236-.024L6.4 8.165c-.053-.028-.089-.072-.16-.158a4 4 0 0 1-.14-.181 2.5 2.5 0 0 1-.312-.54c-.07-.18-.076-.305-.053-.386.03-.097.101-.217.216-.35.113-.132.252-.26.392-.373.034-.027.051-.041.072-.053a.3.3 0 0 1 .122-.038 1 1 0 0 1 .106.003q.134.01.257.01M2.792 4.55c.134 0 .202 0 .255.02a.3.3 0 0 1 .116.083c.038.043.063.114.112.257.107.305.256.59.425.59.176 0 .329-.307.436-.624.037-.11.055-.164.08-.199a.28.28 0 0 1 .161-.116c.042-.012.093-.012.195-.012.138 0 .207 0 .255.017.086.03.136.076.173.16.022.046.029.13.043.297q.015.173.06.335c.035.118.053.177.238.36.015.015.068.062.085.075.079.062.098.184.03.259a3 3 0 0 0-.146.18c-.121.164-.182.247-.238.278l-.025.013c-.058.026-.137.026-.295.026H3.8c-.432 0-.88-.24-1.248-.526l-.08-.064c-.09-.073-.134-.11-.163-.166l-.011-.026c-.024-.059-.02-.124-.015-.255q.01-.247.01-.45c0-.191 0-.287.035-.351a.3.3 0 0 1 .128-.128c.065-.034.155-.034.336-.034M4.2 1.8c.2-.9 1.2.05 1.1 1.1a7 7 0 0 1-.066.483c-.035.209-.053.313-.123.382l-.032.027c-.08.058-.188.058-.404.058h-.037c-.18 0-.269 0-.336-.037l-.028-.017c-.063-.044-.112-.14-.209-.335-.1-.2-.225-.36-.365-.361-.125 0-.25.168-.354.373-.093.187-.14.28-.203.323l-.028.018c-.067.036-.155.036-.332.036h-.131c-.226 0-.34 0-.421-.065l-.033-.03c-.071-.077-.079-.171-.094-.36L2.1 3.3c0-1.6 1.9-.6 2.1-1.5"/></svg>