<svg xmlns="http://www.w3.org/2000/svg" width="24" height="24" fill="currentColor" viewBox="0 0 10 10"><path d="M6.655 6.438c.168-.061.318.09.21.233-.273.363-.827.828-1.864.828s-1.591-.465-1.865-.828c-.107-.142.043-.294.21-.233.39.141.994.311 1.655.311.662 0 1.266-.17 1.654-.311M8.03 2.4c.235-.732 1 .3.5 1.5q-.065.155-.145.261a.25.25 0 0 0-.046.205c.232.92-.105 1.788-.608 1.034l-.082-.119c-.1-.137-.324-.072-.432.059l-.016.02c-.374.424-.878.617-1.463.693-.134.017-.266-.075-.316-.201-.118-.296-.178-.445-.257-.496a.3.3 0 0 0-.329 0c-.079.051-.138.2-.257.496-.05.127-.182.222-.319.206-.594-.07-1.11-.254-1.458-.698-.105-.134-.331-.203-.43-.065l-.071.105c-.503.754-.843-.114-.61-1.034a.25.25 0 0 0-.045-.205 1.2 1.2 0 0 1-.145-.261c-.5-1.2.266-2.232.5-1.5.07.219.277.425.53.608a.21.21 0 0 0 .208.017l.043-.019c1.18-.49 1.409.233 1.443.696a.2.2 0 0 0 .124.178 1.88 1.88 0 0 0 1.337-.013.2.2 0 0 0 .122-.174c.036-.465.27-1.175 1.442-.687l.043.019c.068.03.147.026.207-.017.254-.183.46-.39.53-.608"/></svg>