<svg xmlns="http://www.w3.org/2000/svg" width="24" height="24" fill="currentColor" viewBox="0 0 10 10"><path d="M2.5 7.58c.044-.31.067-.464.19-.563a.4.4 0 0 1 .054-.037c.138-.077.346-.026.761.075.422.103.918.17 1.495.17a6.3 6.3 0 0 0 1.494-.17c.415-.1.623-.15.76-.074q.03.015.055.037c.123.098.146.253.191.562a.36.36 0 0 1-.01.192.3.3 0 0 1-.032.059c-.087.131-.274.175-.646.264A7.8 7.8 0 0 1 5 8.301c-.73 0-1.339-.092-1.812-.206-.372-.088-.558-.133-.646-.264a.3.3 0 0 1-.032-.059.36.36 0 0 1-.01-.192m4.31-5.968c.124.022.249.147.499.397.16.16.24.239.27.313.035.086.04.129.024.22-.014.08-.098.21-.265.473A.76.76 0 0 0 7.2 3.4c0 .228.228.587.423.853.126.17.19.256.199.335l.002.035c0 .08-.054.171-.159.354a5 5 0 0 0-.364.775c-.07.2-.106.3-.159.359l-.024.025c-.058.054-.128.08-.267.132-.452.17-1.06.308-1.85.308-.792 0-1.4-.137-1.854-.308-.138-.052-.208-.078-.266-.132l-.024-.025c-.054-.06-.089-.16-.159-.358a5 5 0 0 0-.364-.776c-.105-.183-.158-.274-.158-.354q0-.018.002-.035c.01-.08.073-.165.198-.335.196-.266.424-.625.424-.853a.76.76 0 0 0-.138-.385c-.168-.262-.251-.394-.265-.473a.33.33 0 0 1 .024-.22c.03-.074.11-.154.27-.313.25-.25.375-.375.499-.397a.3.3 0 0 1 .054-.006c.125-.005.317.117.7.36.282.18.644.335 1.056.335s.775-.154 1.057-.334c.382-.244.574-.366.7-.36a.3.3 0 0 1 .053.005"/></svg>