<svg xmlns="http://www.w3.org/2000/svg" width="24" height="24" fill="currentColor" viewBox="0 0 10 10"><path d="M5 6.35c.493 0 .928.094 1.284.216.116.04.175.06.224.11l.02.023c.045.055.058.118.085.242.07.323.116.664.077.919-.1.66-3.249.66-3.35 0-.04-.261.025-.613.116-.943.028-.1.042-.15.08-.199l.018-.02c.042-.044.086-.063.174-.101.31-.134.73-.248 1.272-.248m.943-2.5a1 1 0 0 1 .1.004c.022.004.044.012.086.027l.671.232c.216.075.324.113.38.206l.021.042c.041.1.01.2-.055.4-.129.403-.312.763-.544.997a.31.31 0 0 1-.308.079A4.6 4.6 0 0 0 5 5.65c-.465 0-.863.072-1.194.175-.042.013-.063.02-.075.022a.26.26 0 0 1-.197-.024c-.011-.005-.03-.016-.066-.038-.182-.11-.273-.165-.307-.276a.3.3 0 0 1-.013-.083c0-.116.08-.206.24-.386l.528-.596a1 1 0 0 1 .068-.07 1 1 0 0 1 .075-.047l.704-.402a.6.6 0 0 1 .141-.068c.035-.008.07-.008.142-.008zM2.48 3.332c.294-.098.474.092.613.313.116.185.174.277.173.366l-.004.039c-.013.088-.089.174-.24.344-.214.24-.32.361-.475.344a.4.4 0 0 1-.063-.014c-.147-.05-.185-.178-.26-.434-.138-.468-.043-.859.256-.958m1.275-1.548c.53-.066.635.522.73.987.038.192.058.288.051.337a.24.24 0 0 1-.072.16c-.033.038-.104.079-.247.16-.199.115-.298.172-.373.174a.29.29 0 0 1-.238-.106c-.049-.058-.073-.172-.12-.4-.128-.603-.225-1.251.27-1.312m3.114.339c.267.033.422.358.477.806.023.184.034.276-.01.36a.33.33 0 0 1-.183.147c-.091.026-.192-.009-.393-.079-.212-.074-.319-.111-.364-.151a.24.24 0 0 1-.084-.131c-.019-.058-.009-.181.012-.428.026-.302.101-.58.545-.524M5.34 1.45c.51 0 .54.661.561 1.195.006.155.01.233 0 .271a.27.27 0 0 1-.214.224c-.039.01-.109.01-.25.01-.153 0-.23 0-.265-.009-.124-.03-.172-.075-.213-.196-.011-.035-.018-.127-.033-.312-.041-.532-.124-1.183.414-1.183"/></svg>