<svg xmlns="http://www.w3.org/2000/svg" width="24" height="24" fill="currentColor" viewBox="0 0 10 10"><path d="M1.853 6.66c.006-.13.2-.16.264-.047.096.172.345.548.832.582l.165-.002c.365-.036.607-.276.725-.417.093-.11.298-.05.292.095-.022.503-.031.828-.031.83 0 .799-2.3.799-2.3 0zm6.04-.047c.064-.113.258-.083.265.047l.053 1.04c0 .8-2.3.8-2.3 0 0 0-.01-.325-.031-.829-.006-.144.199-.205.292-.095.118.14.36.38.724.417l.166.002c.487-.034.736-.41.832-.582M3.2 3.603c.353.026 1.52 1.21 1.001 1.474-.52.265-.753 1.451-1.202 1.42-.45-.031-.467-1.335-.992-1.573-.525-.237.84-1.345 1.193-1.32m3.61 0c.353-.023 1.718 1.083 1.194 1.32-.525.238-.543 1.542-.992 1.574-.45.031-.683-1.155-1.202-1.42-.52-.264.648-1.448 1-1.473M3.91 1.8c.34 0 .51 0 .598.089a.3.3 0 0 1 .034.04c.071.102.038.281-.027.638q-.046.253-.084.535c-.01.071-.015.108-.02.124-.04.131-.167.182-.288.116a1 1 0 0 1-.113-.085 2.3 2.3 0 0 0-.31-.208 1.1 1.1 0 0 0-.452-.143 1.1 1.1 0 0 0-.485.09c-.117.046-.234.11-.34.174a2 2 0 0 1-.105.062c-.135.061-.27-.018-.28-.167-.002-.012 0-.043.003-.105l.013-.258c.02-.403.03-.605.15-.737a1 1 0 0 1 .055-.053c.138-.112.34-.112.744-.112zm3.098 0c.403 0 .606 0 .744.112q.03.024.055.053c.119.132.13.334.15.737l.013.258c.003.061.005.093.004.105-.012.149-.146.228-.282.167a2 2 0 0 1-.105-.062 2.4 2.4 0 0 0-.339-.175 1.1 1.1 0 0 0-.485-.089c-.196.014-.36.093-.452.143a2.3 2.3 0 0 0-.31.208 2 2 0 0 1-.113.085c-.121.067-.248.015-.288-.116-.005-.016-.01-.053-.02-.124a13 13 0 0 0-.084-.535c-.065-.357-.098-.536-.027-.638a.3.3 0 0 1 .034-.04c.088-.088.258-.09.599-.09z"/></svg>