<svg xmlns="http://www.w3.org/2000/svg" width="24" height="24" fill="currentColor" viewBox="0 0 10 10"><path d="M1.853 6.59c.005-.095.125-.135.193-.069.2.198.521.445.933.474l.15.001c.347-.021.642-.192.84-.338.068-.05.168-.001.165.083-.023.51-.034.846-.034.859 0 .8-2.3.8-2.3 0zm6.112-.069c.067-.066.188-.026.193.069l.053 1.01c0 .8-2.3.8-2.3 0 0-.013-.01-.35-.034-.859-.004-.084.097-.133.165-.083.198.146.493.317.839.338h.151c.411-.03.733-.277.933-.475M3.27 3.913c.316.074.532.514.958.747.455.25-.553 1.682-1.202 1.637C2.38 6.25 1.595 4.693 2.08 4.51c.437-.165.717-.545 1.025-.6a.4.4 0 0 1 .103-.007zm3.597-.01.037.006c.31.055.589.435 1.027.6.484.185-.3 1.742-.949 1.788-.648.045-1.656-1.388-1.202-1.637.427-.233.643-.673.958-.747l.065-.01a.4.4 0 0 1 .064 0m.04.007h-.005zM3.908 1.9c.34 0 .51 0 .599.088a.3.3 0 0 1 .033.041c.071.103.038.282-.028.638-.055.295-.1.624-.142.968a.115.115 0 0 1-.195.068c-.126-.125-.444-.465-.92-.498-.472-.033-.836.254-.98.361a.16.16 0 0 1-.256-.14l.033-.626c.02-.402.031-.604.15-.736a1 1 0 0 1 .056-.051C2.397 1.9 2.599 1.9 3 1.9zm3.1 0c.404 0 .605 0 .743.113q.03.024.056.051c.119.132.129.334.15.736l.033.626a.16.16 0 0 1-.256.14c-.144-.107-.508-.394-.98-.36-.476.032-.795.371-.92.497a.115.115 0 0 1-.195-.068 15 15 0 0 0-.142-.968c-.066-.356-.1-.535-.028-.638a.3.3 0 0 1 .033-.04c.088-.09.259-.089.599-.089z"/></svg>