<svg xmlns="http://www.w3.org/2000/svg" width="24" height="24" fill="currentColor" viewBox="0 0 10 10"><path d="M5 4.1A1.101 1.101 0 1 1 3.92 5.416l-.016-.108v-.004.004A1.1 1.1 0 0 1 5 4.1m-3.675-.058c.1-.058.263-.023.588.049.25.055.565.113.938.165.233.032.35.048.4.106l.018.026c.04.066.013.204-.04.479q-.03.163-.03.333c0 .25 0 .374-.044.43a.2.2 0 0 1-.047.04c-.06.04-.161.028-.363.006q-.528-.06-.896-.123c-.31-.053-.466-.08-.58-.197a.5.5 0 0 1-.063-.08c-.088-.138-.077-.306-.055-.64.02-.313.031-.47.115-.551a.3.3 0 0 1 .059-.043m6.763.049c.325-.072.487-.107.588-.05.022.014.04.026.058.044.084.08.094.238.115.551.022.334.034.502-.054.64a.5.5 0 0 1-.064.08c-.114.117-.27.144-.58.197-.244.04-.546.083-.898.123-.201.022-.302.033-.362-.005a.2.2 0 0 1-.046-.041C6.8 5.574 6.8 5.45 6.8 5.2q0-.171-.031-.333c-.052-.275-.078-.413-.04-.479l.02-.026c.049-.058.166-.074.399-.106.374-.052.69-.11.94-.165"/></svg>