<svg xmlns="http://www.w3.org/2000/svg" width="24" height="24" fill="currentColor" viewBox="0 0 10 10"><path d="M4 6.55c.508 0 .95.092 1.263.185a1 1 0 0 1 .11.038c.077.04.124.097.15.18.008.027.012.072.022.162l.013.098c.067.428.101.642.051.732a.24.24 0 0 1-.078.091c-.081.064-.25.064-.585.064h-.228c-1.039 0-1.559 0-1.874-.288a1 1 0 0 1-.123-.133c-.108-.138-.165-.312-.188-.546l-.002-.027a.33.33 0 0 1 .16-.27l.03-.013c.337-.139.79-.273 1.278-.273m2.698-.715a.4.4 0 0 1 .171-.126.5.5 0 0 1 .2-.005C7.82 5.775 8.6 6.111 8.6 7.2a.9.9 0 0 1-.9.9h-.663c-.121 0-.181 0-.239-.025l-.024-.012c-.055-.03-.087-.072-.15-.155l-.047-.062c-.22-.308-.39-.692-.33-1.096a1.66 1.66 0 0 1 .451-.915M4 4.05c.447 0 .908.113 1.265.232a.11.11 0 0 1 .074.113 4 4 0 0 0-.002.336c.011.226.017.34.246.602.024.027.08.081.107.105.127.107.193.3.114.448l-.017.034a.28.28 0 0 1-.326.145A5.2 5.2 0 0 0 4 5.85 3.8 3.8 0 0 0 2.97 6c-.198.056-.404-.096-.388-.302.039-.526.045-.926.035-1.24a.18.18 0 0 1 .12-.176c.357-.119.817-.232 1.264-.232M4 1.8c1.7-.4 1.7.45 1.6 1l-.033.164c-.06.278-.09.417-.177.484l-.039.025c-.096.053-.246.023-.546-.037A4 4 0 0 0 4 3.35c-.337 0-.67.05-.967.12-.208.048-.311.073-.383.053a.3.3 0 0 1-.162-.107c-.045-.06-.06-.145-.088-.317-.1-.6-.1-.9 1.6-1.3"/></svg>