<svg xmlns="http://www.w3.org/2000/svg" width="24" height="24" fill="currentColor" viewBox="0 0 10 10"><path d="M3.248 6.864c.477-.1.716-.15.787-.1a.2.2 0 0 1 .027.023c.061.062.055.247.042.617Q4.1 7.497 4.1 7.5c0 .8-2.3.8-2.3 0l.012-.233c.014-.277.022-.416.084-.471l.029-.022c.071-.043.241-.002.579.08a1.7 1.7 0 0 0 .743.01m2.675-.135c.072-.047.327.011.837.128a1.7 1.7 0 0 0 .775-.003c.338-.082.508-.123.58-.08l.028.022c.061.055.07.194.085.47l.011.234c0 .8-2.4.8-2.4 0v-.1c-.004-.392-.006-.588.056-.648a.2.2 0 0 1 .028-.023M2.9 4.2a1 1 0 1 1 0 2 1 1 0 0 1 0-2m4.24 0a1 1 0 1 1 0 2 1 1 0 0 1 0-2M3.91 2c.34 0 .51 0 .599.089a.3.3 0 0 1 .033.04c.07.104.037.283-.03.638q-.041.214-.076.447c-.056.365-.085.548-.154.598a.2.2 0 0 1-.03.017c-.077.036-.301-.049-.75-.219a1.7 1.7 0 0 0-.815-.096c-.345.043-.519.064-.584.013l-.026-.023c-.055-.062-.048-.2-.033-.477l.008-.129c.022-.401.033-.602.152-.734a1 1 0 0 1 .055-.052C2.397 2.001 2.599 2 3 2zm3.13 0c.402 0 .604 0 .741.112q.03.025.055.052c.12.132.13.333.152.734l.008.13c.015.276.022.414-.033.476l-.026.023c-.065.051-.238.03-.583-.013a1.7 1.7 0 0 0-.784.084c-.484.172-.726.259-.802.222a.1.1 0 0 1-.03-.018c-.069-.05-.096-.244-.151-.632q-.03-.21-.065-.402c-.063-.358-.094-.538-.023-.64a.3.3 0 0 1 .033-.04C5.62 2 5.791 2 6.13 2z"/></svg>