<svg xmlns="http://www.w3.org/2000/svg" width="24" height="24" fill="currentColor" viewBox="0 0 10 10"><path d="M3.407 5.013a4.3 4.3 0 0 1 1.563-.294c.174.012.17.01.28.145.012.015.08.116.216.318q.027.038.059.073c.15.161.43.194.99.26.793.092 1.7.41 1.585 1.385l-.002.019a1 1 0 0 1-.984.88H4.102c-.764 0-1.147 0-1.405-.236a1 1 0 0 1-.1-.109c-.216-.276-.187-.636-.13-1.353a12 12 0 0 0 .026-.364.5.5 0 0 1 .088-.2c.01-.013.013-.015.016-.018.18-.184.455-.363.81-.506M3.9 2.5c1.7 0 1.6.75 1.6 1.1 0 .028 0 .042-.002.066a.41.41 0 0 1-.349.348 1 1 0 0 1-.13.003c-.697 0-1.341.132-1.874.346a3 3 0 0 1-.334.125c-.22.039-.378-.057-.448-.269-.013-.04-.022-.12-.04-.28A3 3 0 0 1 2.3 3.6c0-.4-.1-1.099 1.6-1.099"/></svg>