<svg xmlns="http://www.w3.org/2000/svg" width="24" height="24" fill="currentColor" viewBox="1.76 1.76 6.48 6.48"><path d="M4.42 5.047a1 1 0 0 1 1.162 0l1.1.785c.262.188.418.492.418.815v.02a1 1 0 0 1-1.231.972l-.637-.152a1 1 0 0 0-.463 0l-.638.152A1 1 0 0 1 2.9 6.666v-.02c0-.322.156-.626.419-.814zm-2.3-1.231c.35-.164.804.07 1.014.52s.097.948-.254 1.112c-.35.163-.804-.07-1.014-.52s-.097-.949.254-1.112m4.746.52c.21-.45.664-.683 1.014-.52s.464.662.254 1.112-.664.683-1.014.52-.464-.661-.254-1.112m-2.945-2c.386-.034.733.34.777.835.043.495-.234.924-.62.957-.384.034-.731-.34-.775-.835-.043-.495.233-.924.618-.958m2.158 0c.385.033.662.462.619.957s-.392.869-.777.835c-.384-.034-.66-.462-.618-.957.044-.495.39-.87.776-.836"/></svg>