<svg xmlns="http://www.w3.org/2000/svg" width="24" height="24" fill="currentColor" viewBox="1.65 1.66 6.72 6.72"><path d="M1.99 2.629c.683-.844 1.24-.49 1.618.041a.35.35 0 0 0 .4.127c.295-.105.625-.17.993-.17.371 0 .704.066 1.001.173a.35.35 0 0 0 .402-.126c.378-.532.937-.889 1.62-.045.543.672.369 1.117-.018 1.408a.376.376 0 0 0-.106.49S8.7 6.2 8.1 6.2s.1 1-.5 1c-.489 0-.679.515-1.734.706-.249.045-.465-.158-.465-.411 0-.2.145-.363.315-.47.176-.11.285-.27.285-.474 0-.414-.348-.85-1-.85s-1 .436-1 .85c0 .203.108.364.284.474.17.107.315.27.315.47 0 .253-.216.457-.464.412C3.08 7.716 2.889 7.2 2.4 7.2c-.6 0 .1-1-.5-1-.596 0 .191-1.652.2-1.672l.014-.027a.38.38 0 0 0-.116-.468c-.381-.291-.548-.735-.008-1.403m1.76 2.07c-.449 0-.45.202-.45.35 0 .15.1.45.45.45s.45-.3.45-.45c0-.148 0-.35-.45-.35m2.5 0c-.449 0-.45.202-.45.35 0 .15.1.45.45.45s.45-.3.45-.45c0-.148 0-.35-.45-.35"/></svg>