<svg xmlns="http://www.w3.org/2000/svg" width="24" height="24" fill="currentColor" viewBox="2.00 2.00 6.00 6.00"><path d="M5 1.999c.22 0 .4.18.4.4 0 .065 0 .098.007.122a.2.2 0 0 0 .033.07c.015.02.051.049.124.107A.9.9 0 0 1 5.9 3.4V5c0 .269-.118.51-.305.675-.104.091-.156.137-.173.171l-.007.016c-.015.036-.015.083-.015.179v.589c0 .249 0 .374.121.426a.2.2 0 0 0 .05.014c.13.019.187-.072.3-.255q.065-.108.129-.232c.312-.615.652-.748.905-.734.232.014.26.298.149.501-.14.255-.284.638-.254 1.117.016.27-.175.534-.446.534H3.662c-.275 0-.466-.275-.447-.549a1.93 1.93 0 0 0-.255-1.098c-.117-.204-.09-.495.145-.505.253-.01.587.127.895.734q.063.124.13.231c.112.183.168.275.299.256a.2.2 0 0 0 .05-.014c.12-.052.12-.177.12-.427v-.59c0-.095 0-.143-.014-.178l-.007-.016c-.017-.034-.07-.08-.173-.171a.9.9 0 0 1-.305-.674v-1.6c0-.283.13-.534.335-.7.074-.058.11-.088.126-.108a.2.2 0 0 0 .032-.068c.007-.025.007-.058.007-.124 0-.22.18-.4.4-.4"/></svg>