<svg xmlns="http://www.w3.org/2000/svg" width="24" height="24" fill="currentColor" viewBox="1.90 1.90 6.20 6.20"><path d="M4.996 1.9c.44 0 .791.364.776.803l-.058 1.679v.007a.4.4 0 0 0 .404.41h.007a.4.4 0 0 0 .396-.374v-.007l.053-.941v-.008A.5.5 0 0 1 7.07 3h.015a.5.5 0 0 1 .496.515v.007l-.042 1.18c-.017.49-.026.735-.17.897a1 1 0 0 1-.066.063c-.166.138-.412.138-.903.138-.281 0-.422 0-.523.067a.4.4 0 0 0-.11.11C5.7 6.078 5.7 6.22 5.7 6.5v.935c0 .296 0 .444-.084.543a.4.4 0 0 1-.038.039c-.099.083-.247.083-.543.083h-.07c-.296 0-.445 0-.543-.083a.4.4 0 0 1-.038-.04C4.3 7.88 4.3 7.732 4.3 7.436V7.41c0-.291 0-.437-.072-.54a.4.4 0 0 0-.098-.099C4.026 6.7 3.88 6.7 3.59 6.7c-.488 0-.731 0-.897-.136a1 1 0 0 1-.066-.063c-.143-.16-.154-.403-.176-.89l-.027-.58v-.014a.5.5 0 0 1 .493-.517h.025a.5.5 0 0 1 .493.456v.012l.036.454.001.016a.4.4 0 0 0 .391.362h.035a.4.4 0 0 0 .391-.42L4.22 2.695a.776.776 0 0 1 .776-.796"/></svg>