<svg xmlns="http://www.w3.org/2000/svg" width="24" height="24" fill="currentColor" viewBox="1.71 1.71 6.57 6.57"><path d="M6.758 2.43c.354-.274.53-.411.68-.364a.3.3 0 0 1 .06.026c.136.079.154.29.189.712.071.858.079 1.829-.082 2.645l-.019.103a.29.29 0 0 0 .27.328c.015.002.04.002.09.002a.35.35 0 0 1 0 .699h-.69a.094.094 0 0 0-.036.18l.475.191a.35.35 0 0 1-.26.65L7 7.427c-.148-.059-.221-.089-.29-.084l-.03.003c-.066.012-.145.067-.303.177A2.34 2.34 0 0 1 5 7.943a2.46 2.46 0 0 1-1.406-.42c-.155-.105-.233-.158-.3-.168l-.029-.003c-.066-.004-.139.025-.284.083l-.417.167a.35.35 0 1 1-.26-.65l.44-.177a.1.1 0 0 0 .049-.142.1.1 0 0 0-.087-.052h-.651a.35.35 0 1 1 0-.7c.132 0 .198 0 .246-.016a.29.29 0 0 0 .194-.218c.011-.05.003-.119-.013-.256a20 20 0 0 1-.12-2.517c.01-.401.014-.602.15-.688a.3.3 0 0 1 .058-.029c.15-.054.323.073.669.327q.275.202.527.376c.123.085.184.128.247.14l.028.004c.064.005.156-.026.34-.09a1.9 1.9 0 0 1 1.213-.009c.186.062.28.093.344.086l.028-.005c.063-.013.124-.057.246-.145q.261-.19.546-.41M4.903 6.518c-.056 0-.083 0-.104.002a.3.3 0 0 0-.254.348c.004.021.012.047.03.1a.448.448 0 0 0 .85 0c.018-.053.026-.079.03-.1A.3.3 0 0 0 5.2 6.52c-.021-.002-.048-.002-.104-.002zm.547-.815a.553.553 0 0 0 1.1 0c.016-.159.023-.238.001-.301a.3.3 0 0 0-.156-.173c-.06-.028-.14-.028-.3-.028h-.19c-.16 0-.24 0-.3.028a.3.3 0 0 0-.156.173c-.022.063-.015.142.001.301m-2.1 0a.552.552 0 0 0 1.1 0c.016-.16.024-.24.002-.303a.3.3 0 0 0-.156-.171c-.06-.029-.14-.029-.301-.029h-.19c-.16 0-.24 0-.3.028a.3.3 0 0 0-.157.173c-.022.063-.014.143.003.302"/></svg>