<svg xmlns="http://www.w3.org/2000/svg" width="24" height="24" fill="currentColor" viewBox="1.30 1.30 7.40 7.40"><path d="M5.001 4.308q.095 0 .186.012a1.5 1.5 0 0 1 1.314 1.488v.014c0 .079.037.153.1.199a1.199 1.199 0 0 1-.7 2.173H2.5a1.2 1.2 0 0 1-.56-2.262c.057-.03.1-.083.119-.145a1.5 1.5 0 0 1 1.743-1.049l.054.005a.2.2 0 0 0 .07-.014.2.2 0 0 0 .08-.045c.264-.235.613-.376.994-.376m1.6-2.5a1.5 1.5 0 0 1 1.5 1.5v.014c-.001.079.037.153.1.199A1.199 1.199 0 0 1 7.5 5.694h-.15a.16.16 0 0 1-.117-.05.2.2 0 0 1-.05-.105 2.2 2.2 0 0 0-3.275-1.64.75.75 0 0 1-.408.108c-.222 0-.393-.22-.234-.375q.121-.12.274-.2c.057-.03.1-.083.12-.145a1.5 1.5 0 0 1 1.742-1.049.24.24 0 0 0 .204-.054c.265-.235.614-.376.995-.376"/></svg>