<svg xmlns="http://www.w3.org/2000/svg" width="24" height="24" fill="currentColor" viewBox="2.12 2.12 5.75 5.75"><path d="M5.934 2.163a.7.7 0 0 1 .872.39c.13.335-.06.516.032.609.089.088.292-.053.6.047.342.112.52.519.4.858-.143.397-.496.577-.884.634a.304.304 0 0 0-.255.296c-.001.149.11.282.257.303.386.058.737.239.879.635a.7.7 0 0 1-.39.873c-.335.13-.517-.06-.609.032-.088.089.053.292-.048.6-.111.342-.518.52-.857.4-.405-.146-.585-.51-.638-.906a.3.3 0 0 0-.294-.254.3.3 0 0 0-.293.255c-.053.396-.232.759-.637.904a.7.7 0 0 1-.873-.39c-.13-.335.06-.516-.033-.608-.089-.089-.29.052-.6-.049-.341-.111-.519-.518-.398-.857.143-.396.493-.578.88-.635a.306.306 0 0 0 .256-.302.3.3 0 0 0-.255-.295c-.389-.056-.743-.236-.886-.634a.7.7 0 0 1 .391-.873c.335-.13.517.06.609-.032.088-.09-.053-.292.047-.6.111-.342.518-.52.857-.399.39.14.571.482.63.861a.31.31 0 0 0 .304.257.31.31 0 0 0 .303-.257c.06-.38.242-.723.633-.863m-.298 2.2a.9.9 0 1 0-1.273 1.273.9.9 0 0 0 1.273-1.272"/></svg>