<svg xmlns="http://www.w3.org/2000/svg" width="24" height="24" fill="currentColor" viewBox="1.72 1.72 6.55 6.55"><path d="M5.001 2.075c.795 0 1.338.316 1.527.446a.2.2 0 0 0 .162.029 1.162 1.162 0 0 1 1.472.98l.109.9a.856.856 0 0 1-.963.949c-.188-.025-.344.158-.312.345.038.219.06.495.006.738a2 2 0 0 1-.055.21l-.01.025c-.022.058-.063.134-.145.287-.19.353-.672.94-1.79.94-1.12 0-1.604-.587-1.793-.94a4 4 0 0 1-.14-.273l-.008-.022c-.019-.049-.035-.108-.066-.226-.075-.287-.066-.63-.043-.882.016-.166-.132-.31-.296-.276a.775.775 0 0 1-.927-.85l.11-.926a1.163 1.163 0 0 1 1.474-.98.2.2 0 0 0 .162-.028c.189-.13.731-.446 1.526-.446m-.372 4.25a.228.228 0 0 0-.213.307l.044.118a.577.577 0 0 0 1.081 0l.044-.118a.228.228 0 0 0-.213-.308zm-.407-1.9a.38.38 0 0 0-.374.316l-.068.403a.414.414 0 1 0 .82.068v-.408a.38.38 0 0 0-.378-.38m1.557 0c-.209 0-.378.17-.378.379v.408a.413.413 0 1 0 .82-.068l-.067-.403a.38.38 0 0 0-.375-.316"/></svg>