<svg xmlns="http://www.w3.org/2000/svg" width="24" height="24" fill="currentColor" viewBox="2.00 1.99 6.02 6.02"><path d="M4.15 6.874a.9.9 0 0 1 .138.201.4.4 0 0 1 .023.08c.01.06.002.122-.015.245l-.039.294a.36.36 0 0 1-.353.31c-.846 0-1.27 0-1.55-.24a1 1 0 0 1-.111-.11c-.133-.156-.192-.356-.218-.647-.02-.219-.03-.328.025-.432l.027-.043c.067-.097.18-.143.405-.235l.382-.157c.24-.098.36-.148.476-.125l.05.013c.113.037.194.138.356.34zm2.688.236c.226.268.34.402.27.614a.5.5 0 0 1-.038.082c-.115.19-.266.193-.57.196q-.18.003-.397.002h-.558c-.152 0-.228 0-.287-.019a.4.4 0 0 1-.273-.31c-.01-.062 0-.137.02-.288.007-.054.01-.08.017-.106a.4.4 0 0 1 .087-.162c.018-.02.039-.037.08-.073l.342-.295c.259-.223.388-.335.537-.335a.4.4 0 0 1 .063.005c.147.024.257.154.477.416zm.601-2.808c.257.068.385.102.465.194l.032.041c.067.101.067.234.067.499v1.068c0 .238 0 .357-.098.47a.44.44 0 0 1-.364.132c-.147-.023-.23-.122-.398-.32l-.522-.62c-.065-.076-.097-.115-.118-.159l-.01-.02a1 1 0 0 1-.042-.194l-.04-.262c-.077-.49-.115-.735.014-.876a.4.4 0 0 1 .059-.053c.154-.114.394-.05.873.078zm-1.727.897c.03.192.045.289.017.377l-.014.038c-.036.086-.11.15-.257.277l-.111.095c-.265.23-.398.344-.55.342a.4.4 0 0 1-.063-.006c-.15-.026-.259-.163-.477-.436l-.1-.124c-.121-.152-.182-.229-.202-.32l-.007-.04c-.011-.091.021-.183.086-.367l.15-.425c.062-.178.094-.266.157-.33l.033-.03c.07-.056.161-.079.344-.123.35-.085.524-.127.659-.054a.4.4 0 0 1 .062.042c.12.097.147.274.202.63zM3.229 3.705c.188.155.283.232.32.339q.008.022.013.047c.024.11-.017.225-.098.455l-.142.404a.9.9 0 0 1-.096.22.4.4 0 0 1-.07.075c-.046.037-.102.06-.216.107-.344.141-.516.212-.652.171a.4.4 0 0 1-.195-.13c-.09-.11-.09-.297-.09-.669v-.82c0-.362 0-.543.142-.663a.44.44 0 0 1 .186-.088c.182-.033.33.087.626.33zm2.874-1.701c.846 0 1.27 0 1.55.24a.853.853 0 0 1 .29.497c.086.39.129.584 0 .735a.5.5 0 0 1-.059.057c-.156.122-.384.06-.84-.06L6.36 3.29a.9.9 0 0 1-.222-.076.4.4 0 0 1-.1-.085c-.036-.044-.06-.098-.108-.208l-.171-.388a.377.377 0 0 1 .345-.53m-1.132.477c.139.316.208.475.17.612a.4.4 0 0 1-.066.133c-.086.115-.254.155-.59.237-.149.036-.224.054-.297.045a.4.4 0 0 1-.076-.018c-.07-.023-.13-.072-.248-.169l-.565-.463c-.243-.199-.364-.298-.311-.538a.5.5 0 0 1 .032-.092c.11-.22.24-.22.501-.223l.383-.001h.371c.218 0 .327 0 .416.048a.4.4 0 0 1 .054.036c.08.062.124.162.212.36z"/></svg>