<svg xmlns="http://www.w3.org/2000/svg" width="24" height="24" fill="currentColor" viewBox="1.84 1.78 6.34 6.34"><path d="M5 1.9c1.571 0 2.886 2.22 3.156 5.32.029.334.043.501-.053.625a.4.4 0 0 1-.045.049C7.943 8 7.768 8 7.418 8h-.473c-.385 0-.578 0-.668-.116a.3.3 0 0 1-.032-.05c-.065-.132.02-.306.187-.652l.077-.159c.085-.176.128-.264.116-.353l-.008-.038c-.023-.087-.096-.152-.242-.283l-1.07-.954c-.234-.208-.35-.312-.39-.451L4.9 4.883c-.022-.143.04-.287.164-.574l.314-.729a.2.2 0 0 0-.34-.206L4.006 4.648c-.225.277-.338.416-.347.577a1 1 0 0 0 .001.07c.013.16.129.296.36.568l.338.396c.155.181.232.272.236.377l-.003.045c-.012.105-.098.188-.268.355l-.728.711A.9.9 0 0 1 2.973 8c-.527 0-.791 0-.965-.165a1 1 0 0 1-.067-.076c-.143-.192-.114-.438-.056-.93C2.227 3.936 3.496 1.9 5 1.9"/></svg>