<svg xmlns="http://www.w3.org/2000/svg" width="24" height="24" fill="currentColor" viewBox="1.47 1.29 7.23 7.23"><path d="M4.51 2.167c.141-.07.334.038.72.254l.342.193c.228.128.342.192.383.285.006.016.01.026.014.042.026.098-.032.238-.148.517-.2.483-.296 1.02-.296 1.542 0 .64.144 1.303.448 1.859.038.069.057.103.066.148a.4.4 0 0 1-.028.199.2.2 0 0 1-.029.048l-.026.025c-.064.053-.148.078-.315.127l-.502.147c-.357.105-.535.157-.653.075a.3.3 0 0 1-.046-.038c-.1-.104-.075-.289-.027-.657a.24.24 0 0 0-.126-.234c-.7-.38-.786-.946-1.687-.6-.944.364-1.308-.011-1.053-.512.172-.339.258-.508.261-.573v-.028c-.003-.064-.089-.234-.261-.573-.255-.501.11-.876 1.053-.513.842.323.972-.148 1.556-.52.079-.051.119-.077.14-.097a.27.27 0 0 0 .09-.182c.004-.029.001-.066-.004-.139-.034-.44-.05-.661.073-.76a.3.3 0 0 1 .054-.035m2.103 1.265c.073-.127.11-.19.199-.23l.04-.014c.093-.026.166 0 .311.054C8.267 3.649 8.7 4.486 8.7 5c0 .515-.433 1.35-1.536 1.758-.145.054-.218.08-.312.054l-.04-.014c-.088-.04-.125-.103-.198-.229-.253-.435-.39-.988-.39-1.569 0-.58.137-1.133.389-1.568M7.4 4.6a.5.5 0 1 0 0 1 .5.5 0 0 0 0-1"/></svg>