<svg xmlns="http://www.w3.org/2000/svg" width="24" height="24" fill="currentColor" viewBox="1.99 1.97 6.03 6.03"><path d="M5.09 2.249c.187-.322.55-.345.873-.16.323.187.483.513.297.836-.031.054.029.157.09.157.373 0 .575.302.575.675 0 .372-.202.674-.574.675-.063 0-.122.103-.091.157.186.322.025.647-.297.834a.76.76 0 0 1-.497.11l-.024-.005a.1.1 0 0 0-.042.002V6.63c0 .249 0 .374.121.426a.2.2 0 0 0 .05.013c.13.02.187-.072.3-.255q.066-.106.129-.23c.312-.616.652-.749.905-.734.232.013.26.298.148.5-.14.255-.283.638-.254 1.117.016.27-.174.534-.445.534H3.662c-.275 0-.466-.275-.447-.549a1.93 1.93 0 0 0-.255-1.097c-.117-.205-.09-.496.145-.505.253-.01.587.127.895.733q.064.125.13.231c.112.183.169.274.299.255a.2.2 0 0 0 .05-.013c.12-.052.12-.177.12-.426V5.53a.1.1 0 0 0-.042-.003l-.024.004a.75.75 0 0 1-.496-.107c-.323-.186-.483-.512-.297-.835.03-.054-.029-.156-.09-.156-.373 0-.576-.304-.576-.676s.203-.676.575-.676c.062 0 .122-.101.091-.155-.186-.323-.025-.65.298-.836s.686-.163.872.16c.031.054.15.053.18-.001m.495 1.17a.676.676 0 1 0-1.17.677.676.676 0 0 0 1.17-.677"/></svg>