<svg xmlns="http://www.w3.org/2000/svg" width="24" height="24" fill="currentColor" viewBox="2.02 2.03 5.97 5.97"><path d="M6.316 2.174c.159-.264.564-.147.557.16L6.843 3.6A1.84 1.84 0 0 1 5.69 5.264c-.144.058-.216.087-.25.13l-.013.02c-.028.048-.028.113-.028.245v.97c0 .249 0 .374.121.426a.2.2 0 0 0 .05.014c.13.019.187-.073.3-.255A3 3 0 0 0 6 6.582c.312-.615.652-.748.905-.734.232.014.26.298.148.501-.14.255-.283.638-.254 1.116.016.27-.174.535-.445.535H3.662c-.275 0-.466-.275-.447-.55a1.93 1.93 0 0 0-.255-1.098c-.117-.205-.09-.494.145-.504.253-.01.587.127.895.734q.063.124.13.232c.112.182.168.274.299.255a.2.2 0 0 0 .05-.015c.12-.052.12-.176.12-.426V5.66c0-.132 0-.197-.027-.245l-.014-.02c-.033-.043-.105-.072-.25-.13A1.84 1.84 0 0 1 3.159 3.6l-.031-1.265c-.007-.308.4-.426.558-.161l.333.557a.3.3 0 0 0 .527-.02l.186-.374a.3.3 0 0 1 .537 0l.188.374a.3.3 0 0 0 .525.02z"/></svg>