<svg xmlns="http://www.w3.org/2000/svg" width="24" height="24" fill="currentColor" viewBox="1.10 1.10 7.81 7.81"><path d="M2.493 3.402c.096.008.17.1.318.282l.171.21a.2.2 0 0 1 .035.062c.035.088.026.192-.04.26l-.014.017a.91.91 0 0 0-.18.98.37.37 0 0 1-.042.372 1.2 1.2 0 0 0-.169.269l-.047.137a1 1 0 0 0 .225.907l.103.116c.051.065.04.042.057.123a4 4 0 0 1 .027.184c.03.187.044.282.03.342a.3.3 0 0 1-.18.213c-.057.024-.143.025-.313.025s-.257-.001-.314-.025a.3.3 0 0 1-.18-.213c-.014-.06 0-.155.03-.342l.01-.067c.019-.136.028-.205.004-.263a.24.24 0 0 0-.095-.11c-.055-.033-.127-.034-.272-.034h-.101c-.192 0-.288 0-.34-.028a.235.235 0 0 1-.113-.262c.015-.058.08-.13.21-.272l.248-.27a.176.176 0 0 0-.03-.263c-.004-.002.004.003-.024-.008l-.013-.005c-.028-.01-.036-.012-.052-.014l-.015-.002a.2.2 0 0 1-.062-.018l-.023-.008a.176.176 0 0 1-.033-.266l.4-.43c.092-.099.023-.26-.11-.26a.154.154 0 0 1-.118-.251l.654-.806c.148-.182.222-.274.318-.282zm5.055 0c.096.008.17.1.318.282l.654.806c.08.1.01.25-.118.25-.133 0-.202.162-.111.26l.4.43a.176.176 0 0 1-.032.266l-.023.009-.012.004c-.028.01-.036.011-.051.014l-.015.002a.2.2 0 0 0-.064.018c-.027.011-.02.006-.023.008a.176.176 0 0 0-.032.265l.247.27c.13.141.197.213.211.27a.236.236 0 0 1-.112.263c-.052.028-.149.028-.34.028h-.101c-.145 0-.217 0-.27.033a.24.24 0 0 0-.097.111c-.024.06-.014.127.005.263l.01.067c.03.187.044.282.03.342a.3.3 0 0 1-.181.213c-.057.024-.143.025-.314.025-.17 0-.256-.001-.312-.025a.3.3 0 0 1-.18-.213c-.015-.06 0-.155.028-.342l.01-.067.021-.142c.017-.082 0-.044.05-.112q.007-.01.107-.132a1 1 0 0 0 .224-.711l-.018-.116-.01-.052-.014-.045-.032-.09a1.2 1.2 0 0 0-.169-.269.37.37 0 0 1-.04-.37.91.91 0 0 0-.18-.982l-.046-.05a.17.17 0 0 1-.025-.185.2.2 0 0 1 .021-.035l.227-.28c.148-.181.221-.272.318-.281zm-2.534-1.3c.062.005.117.038.181.097s.137.148.233.265l.474.578.377.46a.2.2 0 0 1 .038.083.197.197 0 0 1-.191.24l-.016.002a.2.2 0 0 0-.063.017l-.025.009a.2.2 0 0 0-.093.184q0 .012.002.024l.006.022a.2.2 0 0 0 .044.076l.497.528.016.017.014.018.013.018.01.016.02.046c.005.012 0-.01.002 0a.3.3 0 0 1 .007.049.22.22 0 0 1-.187.233q-.016.004-.034.005l-.023.003c-.019.003-.028.004-.053.012l-.036.014a.23.23 0 0 0-.11.21l.001.026a.2.2 0 0 0 .056.111v.001l.322.347q.065.071.113.126l.08.089c.045.055.071.096.08.133a.3.3 0 0 1-.106.31c-.005.004-.007.006-.027.017l-.008.004a.3.3 0 0 1-.05.021l-.017.006a1 1 0 0 1-.09.01l-.29.005H6.05l-.221.005a.3.3 0 0 0-.132.037.3.3 0 0 0-.073.063.3.3 0 0 0-.052.081c-.031.076-.018.164.007.339l.013.085.04.281a.5.5 0 0 1-.002.16l-.033.09a.37.37 0 0 1-.18.172l-.022.012-.063.017a1 1 0 0 1-.172.012l-.173.002-.26-.004a.396.396 0 0 1-.35-.21.5.5 0 0 1-.031-.092.5.5 0 0 1-.003-.159l.01-.07a9 9 0 0 1 .043-.295c.026-.175.039-.264.007-.34l-.011-.02a.3.3 0 0 0-.114-.124.2.2 0 0 0-.058-.024c-.065-.018-.154-.018-.294-.018h-.132l-.29-.004a.4.4 0 0 1-.154-.033.3.3 0 0 1-.146-.336.4.4 0 0 1 .08-.133l.121-.135.073-.08.093-.1.102-.112h.001l.127-.135a.22.22 0 0 0-.005-.308.22.22 0 0 0-.16-.069.222.222 0 0 1-.177-.355q.007-.011.015-.02l.52-.555a.198.198 0 0 0-.144-.335.2.2 0 0 1-.15-.068.2.2 0 0 1-.046-.096.2.2 0 0 1 .042-.159l.85-1.036q.104-.127.179-.209a1 1 0 0 1 .093-.087.27.27 0 0 1 .143-.067.3.3 0 0 1 .053 0"/></svg>