<svg xmlns="http://www.w3.org/2000/svg" width="24" height="24" fill="currentColor" viewBox="1.00 1.02 7.97 7.97"><path d="M4.88 2.1a.9.9 0 0 1 .4.096.9.9 0 0 1 .303.252l.018.019.01.008.008.01a.3.3 0 0 0 .135.07l.036.009a.3.3 0 0 0 .077-.005.9.9 0 0 1 .279-.015c.34.037.624.269.752.587a1 1 0 0 1 .072.377q-.001.03-.004.058a1 1 0 0 1-.1.388.35.35 0 0 0 .051.378l.057.068a1 1 0 0 1 .201.603c0 .535-.411.968-.918.968a.9.9 0 0 1-.351-.074.3.3 0 0 0-.075-.02h-.069l-.019.004a.3.3 0 0 0-.054.017l-.012.005a.3.3 0 0 0-.062.04l-.006.005-.008.006q-.014.012-.025.026a.23.23 0 0 0-.067.166q.009.206.044.44l.014.082q.018.107.043.217l.012.062c.084.346.125.52.113.606-.025.165-.093.257-.238.322-.075.035-.215.035-.495.035-.209 0-.34-.001-.425-.015a.3.3 0 0 1-.07-.02c-.145-.065-.214-.157-.238-.322-.013-.086.03-.26.113-.606q.027-.114.047-.223l.01-.062.014-.1a4 4 0 0 0 .037-.384l.006-.116a.2.2 0 0 0-.015-.071q-.01-.014-.02-.026c-.008-.01-.013-.024-.023-.033a.19.19 0 0 0-.229-.017q-.014.01-.028.017a.862.862 0 0 1-.463.136c-.507 0-.918-.433-.918-.967 0-.16.037-.311.102-.444l.075-.127a.32.32 0 0 0 .026-.305 1 1 0 0 1-.047-.706.93.93 0 0 1 .875-.677q.01-.001.02-.004l.034-.006.023-.008.028-.014q.012-.007.023-.015l.017-.013c.006-.006-.01.009-.002 0l.04-.052.029-.059a1 1 0 0 1 .196-.294.9.9 0 0 1 .641-.277M1.96 3.675c.087-.144.254-.033.254.135q0 .143.024.278c.019.115.028.172.026.206v.015c-.005.034-.024.09-.063.2a1.8 1.8 0 0 0-.101.592c0 .554.25 1.044.638 1.355.133.107.2.16.226.201l.011.019c.023.043.036.114.061.256q.012.067.028.137c.06.266.091.4.082.466-.018.126-.068.197-.174.248-.055.025-.158.026-.361.026-.204 0-.307 0-.363-.026-.106-.051-.157-.122-.175-.248-.009-.066.022-.2.083-.466a3.4 3.4 0 0 0 .083-.682.14.14 0 0 0-.042-.1.13.13 0 0 0-.166-.012.62.62 0 0 1-.36.117c-.37 0-.671-.333-.672-.744a.8.8 0 0 1 .13-.439.26.26 0 0 0 .019-.235.8.8 0 0 1-.065-.318c0-.411.3-.745.671-.745a.16.16 0 0 0 .146-.109 1 1 0 0 1 .06-.127m5.71-.167c0-.06.058-.103.109-.071.13.082.232.21.29.365a.16.16 0 0 0 .146.109c.37 0 .67.334.67.745a.8.8 0 0 1-.064.318.26.26 0 0 0 .02.235c.08.123.128.275.128.439 0 .41-.301.744-.672.744a.62.62 0 0 1-.36-.117.13.13 0 0 0-.165.012.14.14 0 0 0-.043.1 3.4 3.4 0 0 0 .083.682c.06.266.092.4.083.466-.018.126-.069.197-.175.248-.056.025-.158.026-.361.026-.204 0-.307 0-.363-.026-.106-.05-.156-.122-.173-.248-.01-.066.02-.2.082-.466q.025-.116.042-.225c.022-.146.033-.22.056-.264l.011-.02c.027-.043.095-.098.232-.21.382-.31.63-.797.63-1.347 0-.263-.058-.511-.16-.733-.058-.13-.087-.194-.094-.233l-.002-.018c-.004-.04.007-.108.029-.246q.021-.13.021-.265"/></svg>