<svg xmlns="http://www.w3.org/2000/svg" width="24" height="24" fill="currentColor" viewBox="1.91 1.91 6.17 6.17"><path d="M6.639 1.97c.13-.093.312-.069.395.066a2.3 2.3 0 0 1 .29 1.67c-.05.256.01.538.168.745.236.31.521.81.465 1.37-.024.245-.262.381-.5.443C6.327 6.559 6.292 8.085 5 8.085S3.673 6.56 2.542 6.264c-.237-.062-.474-.198-.499-.442-.055-.56.23-1.061.466-1.37a.95.95 0 0 0 .168-.747 2.3 2.3 0 0 1 .29-1.669c.083-.135.265-.16.395-.067l.858.61c.074.053.11.08.149.088l.017.003c.04.006.091-.007.196-.034a1.63 1.63 0 0 1 .824.004c.106.028.159.042.198.036q.009 0 .018-.003c.039-.009.076-.035.15-.088zm-1.88 4.575c-.187 0-.304.201-.212.363l.124.216a.379.379 0 0 0 .658 0l.124-.216a.242.242 0 0 0-.21-.363zM3.3 4.785a.2.2 0 0 0-.19.26l.042.135a1 1 0 0 0 .955.705h.214a.2.2 0 0 0 .195-.242l-.015-.071a1 1 0 0 0-.977-.787zm3.175 0a1 1 0 0 0-.978.787l-.014.07a.2.2 0 0 0 .195.243h.214a1 1 0 0 0 .955-.705l.042-.136a.2.2 0 0 0-.19-.259z"/></svg>