<svg xmlns="http://www.w3.org/2000/svg" width="24" height="24" fill="currentColor" viewBox="1.60 1.60 6.80 6.80"><path d="M6 2.507a1.5 1.5 0 0 1 1.489 1.68c-.024.194-.036.291-.018.338l.01.02c.022.045.103.1.265.21A1.5 1.5 0 0 1 6.9 7.493H3.1a1.5 1.5 0 0 1-.565-2.888.11.11 0 0 0 .065-.098 1.5 1.5 0 0 1 1.85-1.458c.159.04.238.059.283.05l.019-.006c.043-.013.103-.07.222-.18.268-.252.63-.406 1.026-.406M4.355 4.123a.375.375 0 0 0-.48.224l-.262.719a.5.5 0 0 1-.08.166c-.026.026-.09.054-.216.112a.8.8 0 1 0 1.05.382c-.061-.126-.091-.19-.095-.225v-.016c0-.037.015-.08.046-.164l.262-.717a.375.375 0 0 0-.225-.481m2.132-.012a.375.375 0 0 0-.48.224l-.206.566a.5.5 0 0 1-.07.149c-.022.023-.08.056-.195.12a.7.7 0 1 0 1 .364c-.048-.124-.071-.186-.073-.218V5.3c.001-.032.015-.07.042-.145l.207-.564a.375.375 0 0 0-.225-.48"/></svg>