<svg xmlns="http://www.w3.org/2000/svg" width="24" height="24" fill="currentColor" viewBox="1.81 1.80 6.38 6.38"><path d="M5 1.8c2.4 0 3.3 1.8 2.9 2.8-.07.173-.277.316-.575.429-.124.047-.186.07-.227.119l-.017.021c-.036.053-.04.093-.048.173v.006a.6.6 0 0 0 .094.368l.015.026q.023.039.055.105a1.65 1.65 0 0 1-.071 1.54.376.376 0 0 1-.652-.373.9.9 0 0 0 .016-.9l-.002-.005-.008-.013-.008-.014a1.36 1.36 0 0 1-.187-.801q0-.014-.013-.014-.309.041-.64.063l-.075.005a.24.24 0 0 0-.176.131 1 1 0 0 0-.03.076c-.068.184-.11.293-.12.406a.6.6 0 0 0 .095.368l.015.025q.023.04.055.106a1.649 1.649 0 0 1-.071 1.54.375.375 0 0 1-.652-.373.9.9 0 0 0 .017-.9l-.003-.006-.008-.012-.008-.014a1.36 1.36 0 0 1-.186-.802c.02-.228.03-.344.007-.4a.2.2 0 0 0-.096-.115c-.052-.033-.144-.042-.327-.058a8 8 0 0 1-.366-.04c-.114-.012-.25.094-.272.208a.63.63 0 0 0 .096.34l.014.026q.024.04.055.106a1.65 1.65 0 0 1-.071 1.54.375.375 0 0 1-.652-.373.9.9 0 0 0 .017-.9l-.003-.006-.008-.012-.008-.014a1.36 1.36 0 0 1-.186-.802c.01-.115.016-.174.012-.2-.01-.082-.024-.105-.085-.158a1 1 0 0 0-.165-.095c-.175-.093-.297-.202-.347-.327-.4-1 .5-2.8 2.9-2.8m.9.75a.35.35 0 1 0 0 .7c.11 0 .308.073.489.228.183.156.26.318.26.422a.35.35 0 0 0 .7 0c0-.397-.25-.735-.505-.953-.257-.22-.61-.397-.944-.397"/></svg>