<svg xmlns="http://www.w3.org/2000/svg" width="24" height="24" fill="currentColor" viewBox="1.95 1.97 6.14 6.14"><path d="m6.332 4.042-.061-.003c-.204-.01-.306-.016-.384-.047a.5.5 0 0 1-.303-.37c-.016-.083-.001-.184.028-.385.086-.585.13-.878.082-.993a.45.45 0 0 0-.6-.238c-.114.05-.283.293-.622.777L3.19 4.614c-.194.277-.29.415-.302.532a.45.45 0 0 0 .208.426c.1.063.269.071.606.088.239.012.358.018.448.061a.5.5 0 0 1 .268.32c.026.096.01.217-.02.458-.11.847-.163 1.271-.067 1.412a.45.45 0 0 0 .495.18c.164-.047.39-.4.839-1.107l1.207-1.897c.186-.292.28-.439.283-.562a.45.45 0 0 0-.201-.39c-.103-.067-.276-.076-.622-.093"/></svg>