<svg xmlns="http://www.w3.org/2000/svg" width="24" height="24" fill="currentColor" viewBox="1.80 1.78 6.45 6.45"><path d="M7.79 2.103c.124.163-.104.54-.562 1.29l-.33.538a.18.18 0 0 0 .19.272c.667-.133 1-.2 1.114-.047q.022.03.036.065c.072.177-.158.427-.618.926L5.552 7.395l-.166.151a2.2 2.2 0 1 1-2.771-3.419l1.93-1.742c.33-.297.495-.446.649-.408q.031.007.061.02c.143.071.174.291.237.73a.283.283 0 0 0 .426.202l.526-.32c.75-.458 1.127-.686 1.29-.562q.031.024.056.056M4.987 4.849a1.4 1.4 0 1 0-1.98 1.981 1.4 1.4 0 0 0 1.98-1.98"/></svg>