<svg xmlns="http://www.w3.org/2000/svg" width="24" height="24" fill="currentColor" viewBox="1.70 1.72 6.61 6.61"><path d="M6.8 2.1a1.498 1.498 0 0 1 .297 2.968c-.136.027-.252.129-.27.267-.024.18.127.336.309.343q.228.007.478.06a.3.3 0 0 1-.128.586 2.2 2.2 0 0 0-.824-.017.06.06 0 0 0-.049.043.07.07 0 0 0 .04.083c.155.065.322.166.501.312a.3.3 0 1 1-.389.456c-.12-.097-.18-.146-.292-.142l-.047.005c-.11.02-.183.114-.331.3-.263.329-.618.577-1.095.577-.486 0-.858-.257-1.138-.596-.129-.157-.194-.235-.284-.26a.3.3 0 0 0-.105-.011c-.094.007-.146.05-.25.135a.3.3 0 1 1-.378-.465c.146-.12.286-.207.417-.27a.1.1 0 0 0 .05-.123.09.09 0 0 0-.072-.059 2.2 2.2 0 0 0-.723.032.3.3 0 1 1-.127-.586q.201-.043.387-.056c.18-.013.327-.165.31-.345-.013-.142-.127-.252-.266-.288a1.499 1.499 0 1 1 1.802-1.922c.052.16.21.272.377.272a.4.4 0 0 0 .377-.272A1.5 1.5 0 0 1 6.801 2.1M5 6.3c-.3 0-.6.1-.6.45s.3.55.6.55.6-.2.6-.55-.3-.45-.6-.45M4.11 5.1a.35.35 0 0 0-.345.309l-.023.205a.348.348 0 1 0 .691.076l.023-.204A.347.347 0 0 0 4.11 5.1m1.778 0c-.208 0-.37.18-.347.386l.023.204a.348.348 0 1 0 .692-.077l-.023-.204a.35.35 0 0 0-.345-.31"/></svg>