<svg xmlns="http://www.w3.org/2000/svg" width="24" height="24" fill="currentColor" viewBox="1.86 1.88 6.29 6.29"><path d="M6.546 1.9c.442 0 .775.403.69.837l-.38 1.959a.2.2 0 0 0 .032.153c.367.55.558 1.187.512 1.65-.1 1-.975 1.668-2.4 1.668S2.7 7.499 2.6 6.5c-.046-.464.145-1.1.51-1.65q.046-.071.033-.154l-.38-1.959a.704.704 0 1 1 1.39-.192l.079.94c.011.136.153.222.285.187a1.9 1.9 0 0 1 .966 0c.132.035.274-.05.285-.186l.078-.941a.704.704 0 0 1 .7-.645M5 6.6c-.2 0-.4.1-.4.3s.1.5.4.5.4-.3.4-.5-.2-.3-.4-.3M4 5.2c-.3 0-.4.3-.4.6s.1.6.4.6.4-.3.4-.6-.1-.6-.4-.6m2 0c-.3 0-.4.3-.4.6s.1.6.4.6.4-.3.4-.6-.1-.6-.4-.6"/></svg>