<svg xmlns="http://www.w3.org/2000/svg" width="24" height="24" fill="currentColor" viewBox="1.25 0.99 7.48 7.48"><path d="M7.2 3.215c.542.367.892.854 1.116 1.325a4.5 4.5 0 0 1 .415 1.695l.003.124v.053a.45.45 0 0 1-.9-.023v-.022q0-.03-.002-.09a4 4 0 0 0-.032-.334 3.6 3.6 0 0 0-.297-1.017 2.4 2.4 0 0 0-.807-.966c-.378-.256-.908-.443-1.662-.443s-1.291.187-1.678.445c-.39.26-.654.61-.836.972a3.65 3.65 0 0 0-.369 1.444v.02L2.15 6.4l-.008.09a.45.45 0 0 1-.891-.09v-.052l.007-.123a4.549 4.549 0 0 1 .456-1.693c.235-.47.596-.954 1.144-1.319.55-.367 1.264-.596 2.175-.596.912 0 1.623.229 2.167.598m-1.036 1.52c.291.2.474.463.587.711a2.3 2.3 0 0 1 .198.875q.001.041.001.066v.02l-.001.008v.004a.45.45 0 0 1-.899-.036v-.036a1.4 1.4 0 0 0-.118-.527.8.8 0 0 0-.278-.343c-.125-.086-.317-.16-.621-.16s-.503.075-.637.164a.9.9 0 0 0-.302.353 1.4 1.4 0 0 0-.143.532l-.001.032V6.4a.45.45 0 0 1-.9 0h.45-.45v-.032l.004-.066a2.3 2.3 0 0 1 .235-.87c.122-.245.313-.504.608-.7.297-.199.675-.315 1.136-.315.462 0 .837.116 1.13.318"/></svg>