<svg xmlns="http://www.w3.org/2000/svg" width="24" height="24" fill="currentColor" viewBox="1.65 1.66 6.69 6.69"><path d="M5.05 1.81c.27 0 .514.107.694.281.136.132.204.198.238.212l.015.006c.034.012.129.008.318.002h.035a1 1 0 0 1 1 1c0 .193 0 .29.02.33.018.039.027.05.061.076.036.026.102.04.235.066l.38.076c.143.029.214.043.26.103l.018.026c.035.066.022.125-.004.242-.125.554-.595.648-.956.632-.224-.01-.336-.015-.392.026l-.023.019c-.05.048-.062.142-.087.329l-.205 1.546a1.62 1.62 0 0 1-3.214 0l-.206-1.554c-.024-.186-.037-.28-.087-.328l-.023-.019c-.058-.04-.166-.034-.384-.02-.394.023-.931-.06-1.064-.646-.025-.11-.037-.166-.004-.23l.016-.027c.043-.059.11-.076.245-.11l.551-.14c.096-.023.144-.035.172-.054a.16.16 0 0 0 .08-.102c.01-.031.01-.102.01-.242a1 1 0 0 1 1.035-1c.19.007.284.01.319-.001l.015-.006c.033-.015.101-.08.237-.212a1 1 0 0 1 .695-.28m-.209 4.95a.246.246 0 0 0-.233.324l.008.023a.458.458 0 0 0 .869 0l.008-.024a.246.246 0 0 0-.234-.323zM4.245 5a.4.4 0 0 0-.4.4v.3a.4.4 0 1 0 .8 0v-.3a.4.4 0 0 0-.4-.4m1.5 0a.4.4 0 0 0-.4.4v.3a.4.4 0 1 0 .8 0v-.3a.4.4 0 0 0-.4-.4"/></svg>