<svg xmlns="http://www.w3.org/2000/svg" width="24" height="24" fill="currentColor" viewBox="1.84 1.75 6.32 6.32"><path d="M5.025 1.797c.117.007.22.082.425.232l.32.235a.8.8 0 0 0 .173.112l.021.007a.8.8 0 0 0 .206.027l.395.025c.254.017.38.026.475.095q.02.014.039.032c.084.081.114.205.175.451l.094.385c.025.101.037.152.062.197l.01.02c.027.044.066.08.141.152l.286.275c.184.175.275.263.303.377l.009.05c.013.116-.043.23-.155.458l-.176.355a.8.8 0 0 0-.083.213c-.008.05-.002.103.01.206l.043.394c.027.253.04.38-.011.485l-.026.043c-.064.097-.18.149-.413.25l-.363.161c-.095.042-.143.063-.184.095l-.017.014c-.039.034-.067.078-.125.164l-.22.33c-.142.211-.212.317-.32.364l-.047.017c-.112.033-.235-.002-.479-.073l-.38-.111a.8.8 0 0 0-.224-.045.8.8 0 0 0-.201.045l-.381.111c-.244.071-.366.106-.479.073l-.047-.017c-.108-.047-.178-.153-.319-.364l-.22-.33c-.058-.086-.087-.13-.126-.164L3.2 7.13c-.04-.032-.088-.053-.184-.095l-.363-.16c-.232-.102-.348-.154-.413-.251l-.025-.043c-.052-.105-.039-.232-.011-.485l.043-.394c.011-.103.017-.155.01-.206l-.004-.023a.8.8 0 0 0-.08-.19l-.175-.355c-.113-.228-.169-.342-.156-.458l.01-.05c.027-.114.119-.202.302-.377l.286-.275a.8.8 0 0 0 .14-.152l.011-.02c.025-.045.037-.096.062-.197l.095-.385c.06-.246.09-.37.175-.45l.039-.033c.094-.07.22-.078.474-.095l.396-.025a.8.8 0 0 0 .205-.027l.021-.007a.8.8 0 0 0 .174-.112l.32-.235c.204-.15.307-.225.424-.232zM5 3.4a1.6 1.6 0 1 0 0 3.2 1.6 1.6 0 0 0 0-3.2"/></svg>