<svg xmlns="http://www.w3.org/2000/svg" width="24" height="24" fill="currentColor" viewBox="1.60 1.60 6.80 6.80"><path d="M5 7c.263 0 .466.233.43.495l-.088.608a.346.346 0 0 1-.685 0l-.086-.608A.434.434 0 0 1 5 7m-2.072-.542a.438.438 0 1 1 .614.613l-.567.433a.343.343 0 0 1-.48-.48zm3.487-.044a.438.438 0 0 1 .657.044l.432.566a.343.343 0 0 1-.48.48l-.566-.433a.438.438 0 0 1-.043-.657M4.998 3.598a1.4 1.4 0 1 1 0 2.8 1.4 1.4 0 0 1 0-2.8m-2.494.973a.434.434 0 1 1 0 .858l-.607-.087a.346.346 0 0 1 0-.684zm4.99 0 .609.087a.346.346 0 0 1 0 .684l-.608.087a.434.434 0 1 1 0-.858m-4.97-2.046a.343.343 0 0 1 .451-.03l.567.433a.438.438 0 1 1-.614.614l-.432-.567a.34.34 0 0 1 .029-.45m4.5-.03a.344.344 0 0 1 .48.48l-.432.567a.438.438 0 1 1-.614-.614zM4.993 1.6c.176 0 .325.13.35.304l.085.597a.436.436 0 1 1-.864.006l.078-.6a.354.354 0 0 1 .35-.307"/></svg>