<svg xmlns="http://www.w3.org/2000/svg" width="24" height="24" fill="currentColor" viewBox="1.75 1.75 6.50 6.50"><path d="M3.3 1.75a.7.7 0 0 1 .7.7V5.2c0 .167 0 .25.022.314l.01.027c.027.062.12.165.308.372a1.4 1.4 0 1 1-2.079 0c.187-.207.28-.31.307-.372l.01-.027c.022-.063.022-.147.022-.313V2.45a.7.7 0 0 1 .7-.701m3.67.814 1 1.1a.5.5 0 0 1-.74.673.075.075 0 0 0-.13.05V6.1a.5.5 0 0 1-1 0V4.387c0-.068-.084-.1-.13-.05a.5.5 0 0 1-.74-.673l1-1.1c.068-.075.102-.112.136-.137a.4.4 0 0 1 .468 0c.034.025.068.062.136.137"/></svg>