<svg xmlns="http://www.w3.org/2000/svg" width="24" height="24" fill="currentColor" viewBox="1.70 1.70 6.60 6.60"><path d="M4.872 1.7c.356 0 .673.17.874.432a.27.27 0 0 0 .274.098q.123-.03.257-.03a1.1 1.1 0 0 1 .951 1.65.29.29 0 0 0 .05.35c.213.2.345.484.346.798A1.1 1.1 0 0 1 6.069 6a.27.27 0 0 0-.287.041l-.002.002a.21.21 0 0 0-.08.173c.016.269.058.574.15.9.152.55.228.824.16.961a.35.35 0 0 1-.09.12c-.115.103-.357.103-.843.103s-.73 0-.844-.103a.35.35 0 0 1-.09-.12c-.069-.137.007-.412.16-.96.087-.313.128-.605.145-.865a.22.22 0 0 0-.086-.18l-.003-.003a.28.28 0 0 0-.313-.021A1.1 1.1 0 0 1 2.61 4.432a.27.27 0 0 0 .026-.285 1.1 1.1 0 0 1 .978-1.604.26.26 0 0 0 .239-.16A1.1 1.1 0 0 1 4.872 1.7"/></svg>