<svg xmlns="http://www.w3.org/2000/svg" width="24" height="24" fill="currentColor" viewBox="1.60 1.70 6.80 6.80"><path d="M5.028 3.809c.122.007.232.073.452.205.23.137.345.206.47.212l.06-.001c.125-.01.237-.081.463-.224l.022-.014a.198.198 0 0 1 .294.122l.007.03c.208.964.628 2.12 1.474 3.114a.505.505 0 0 1-.375.847H2.073a.473.473 0 0 1-.473-.473c0-.143.067-.278.172-.375.89-.818 1.296-2.073 1.48-3.14a.17.17 0 0 1 .257-.114c.226.145.34.218.466.228h.054c.127-.004.243-.072.475-.208l.012-.007c.221-.13.332-.197.454-.203zm.559-1.71c.445 0 .667.001.803.107.021.017.035.03.054.05.105.11.135.312.173.692l.003.03a.2.2 0 0 1-.078.164l-.025.017c-.23.15-.345.225-.473.235h-.056a.5.5 0 0 1-.201-.056l-.294-.168c-.227-.137-.34-.205-.466-.212h-.055c-.125.008-.238.077-.464.216-.234.143-.35.215-.479.22h-.056c-.129-.009-.244-.083-.474-.23l-.037-.026a.2.2 0 0 1-.074-.149l.002-.045c.028-.371.054-.57.159-.683a1 1 0 0 1 .054-.052c.137-.11.358-.11.8-.11z"/></svg>