<svg xmlns="http://www.w3.org/2000/svg" width="24" height="24" fill="currentColor" viewBox="2.10 2.10 5.80 5.80"><path d="M5.083 2.108c.075.016.125.048.136.054q.047.03.071.05c.032.028.063.06.09.088q.085.09.196.227c.148.182.336.431.528.706.375.538.805 1.23.975 1.74.17.508.241 1.22-.04 1.832a1.74 1.74 0 0 1-.731.795c-.346.196-.781.3-1.308.3-.526 0-.96-.104-1.306-.3a1.74 1.74 0 0 1-.732-.795c-.282-.612-.21-1.324-.04-1.831.17-.511.6-1.203.976-1.74.192-.276.379-.525.526-.707q.11-.137.196-.227a1 1 0 0 1 .091-.087 1 1 0 0 1 .07-.05c.016-.01.1-.063.22-.063zM6.112 4.96a.4.4 0 0 0-.362.436c.048.528-.45 1.027-.98.979a.4.4 0 0 0-.072.797c1.026.093 1.942-.823 1.85-1.85a.4.4 0 0 0-.436-.362m-2.93.695-.001.045q.002-.045.008-.09zm.067-.381-.008.03z"/></svg>