<svg xmlns="http://www.w3.org/2000/svg" width="24" height="24" fill="currentColor" viewBox="2.30 2.00 6.00 6.00"><path d="M4.744 2c1.105 0 2 .448 2 1v.93c0 .246 0 .37.065.451l.03.033c.076.071.21.083.476.105 1.49.128-.57.892-.57 2.481 0 .552-.896 1-2 1h.005a.31.31 0 0 1-.291-.256l-.15-1.031c-.05-.336-.531-.345-.592-.01l-.074.407c-.057.312-.086.468-.235.531a.4.4 0 0 1-.063.02c-.16.028-.242-.059-.408-.233A.62.62 0 0 1 2.744 7V3c0-.552.896-1 2-1m0 .5c-.552 0-1 .224-1 .5s.448.5 1 .5c.553 0 1-.224 1-.5s-.447-.5-1-.5"/></svg>