<svg xmlns="http://www.w3.org/2000/svg" width="24" height="24" fill="currentColor" viewBox="1.10 1.10 7.80 7.80"><path d="M5 2.6c.214 0 .32 0 .398.054a.3.3 0 0 1 .057.052c.061.072.07.179.09.392l.13 1.42a.8.8 0 0 0 .037.231l.01.02c.023.044.082.098.2.206.236.219.578.637.578 1.225v1.37c0 .592 0 .888-.168 1.084a1 1 0 0 1-.077.078c-.197.168-.493.168-1.085.168h-.34c-.592 0-.889 0-1.085-.168a1 1 0 0 1-.077-.078C3.5 8.458 3.5 8.162 3.5 7.57V6.2c0-.589.343-1.007.58-1.225.116-.108.174-.162.198-.206l.01-.02c.02-.045.026-.107.037-.23l.13-1.421c.019-.213.029-.32.09-.392a.3.3 0 0 1 .057-.052C4.679 2.6 4.786 2.6 5 2.6m.1-1.5c.093 0 .14 0 .178.01a.3.3 0 0 1 .212.212c.01.038.01.085.01.178s0 .14-.01.178a.3.3 0 0 1-.212.212c-.039.01-.085.01-.179.01H4.9c-.093 0-.14 0-.178-.01a.3.3 0 0 1-.212-.212C4.5 1.64 4.5 1.593 4.5 1.5s0-.14.01-.178a.3.3 0 0 1 .212-.212c.038-.01.085-.01.178-.01z"/></svg>