<svg xmlns="http://www.w3.org/2000/svg" width="24" height="24" fill="currentColor" viewBox="1.55 1.80 6.91 6.91"><path d="M7.383 2.8c.468 0 .703 0 .873.15a1 1 0 0 1 .066.068c.144.174.138.382.126.8-.05 1.751-.861 2.41-1.36 2.65l-.148.071c-.196.1-.245.17-.27.39l-.007.08c-.028.31-.043.465-.138.565a.4.4 0 0 1-.044.04c-.109.086-.264.086-.575.086H4.094c-.312 0-.467 0-.576-.086a.4.4 0 0 1-.044-.04c-.095-.1-.11-.255-.137-.565l-.008-.081c-.025-.218-.074-.29-.27-.389l-.147-.071c-.5-.24-1.31-.899-1.36-2.65-.013-.418-.018-.626.125-.8a1 1 0 0 1 .067-.069c.17-.149.404-.15.873-.15z"/></svg>