<svg xmlns="http://www.w3.org/2000/svg" width="24" height="24" fill="currentColor" viewBox="2.03 1.98 6.09 6.09"><path d="m4.095 3.549-.027-.029a.414.414 0 0 1 .062-.587l.008-.006a.415.415 0 0 1 .498.03l.024.023.878.879a.35.35 0 0 0 .494-.495l-.251-.251c-.33-.33-.495-.495-.453-.705a.5.5 0 0 1 .026-.083c.086-.196.284-.23.68-.3 1.204-.21 2.085.364 2.085 1.233 0 1.414-3.393 4.808-4.808 4.808-.869 0-1.444-.88-1.234-2.084.07-.396.104-.594.3-.68a.5.5 0 0 1 .083-.027c.21-.042.375.123.705.453l.252.252a.35.35 0 1 0 .494-.494l-.878-.879-.023-.023a.415.415 0 0 1-.03-.499l.005-.007.023-.028a.414.414 0 0 1 .593-.007l.736.736a.35.35 0 0 0 .494-.495z"/></svg>