<svg xmlns="http://www.w3.org/2000/svg" width="24" height="24" fill="currentColor" viewBox="1.60 1.87 6.26 6.26"><path d="M6.492 2.8c.643 0 .965 0 1.166.187a1 1 0 0 1 .079.086c.167.217.139.537.08 1.178l-.091 1.007c-.073.804-.11 1.205-.33 1.485a1.2 1.2 0 0 1-.288.263c-.299.194-.703.194-1.51.194-.805 0-1.209 0-1.507-.194a1.2 1.2 0 0 1-.343-.342c-.153-.244-.23-.366-.282-.402l-.024-.014c-.056-.031-.158-.04-.36-.056a3 3 0 0 1-.184-.02c-.283-.043-.605-.14-.863-.358-.271-.23-.435-.569-.435-1.014 0-.444.164-.782.435-1.013.258-.219.58-.315.863-.358q.048-.008.097-.012c.075-.009.112-.013.13-.017.101-.025.071-.008.144-.082.013-.013.073-.09.192-.245q.035-.046.08-.086c.2-.186.522-.187 1.164-.187zM3.381 4.25a.16.16 0 0 0-.164-.148q-.108.004-.216.02c-.217.032-.395.098-.513.198-.103.088-.189.225-.189.48s.086.393.19.48c.117.1.295.167.512.2q.128.017.255.02a.217.217 0 0 0 .217-.242z"/></svg>