<svg xmlns="http://www.w3.org/2000/svg" width="24" height="24" fill="currentColor" viewBox="1.78 1.75 6.45 6.45"><path d="M6.008 1.762a.35.35 0 0 1 .185.675l-.537.147-.021.005a.4.4 0 0 0-.285.373v.051a.4.4 0 0 0 .387.387h1.156c.17 0 .307.137.307.307v.268a.63.63 0 0 1-.395.583.19.19 0 0 0-.117.154l-.276 2.474c-.05.455-.075.683-.217.83a1 1 0 0 1-.066.06c-.162.124-.391.124-.85.124h-.56c-.457 0-.687 0-.849-.125a1 1 0 0 1-.065-.058c-.142-.148-.167-.376-.218-.831l-.274-2.474a.19.19 0 0 0-.117-.154.63.63 0 0 1-.396-.583v-.268c0-.17.137-.306.307-.307h.824c.3 0 .45 0 .554-.076a.4.4 0 0 0 .09-.089c.076-.105.076-.255.076-.554V2.4a.35.35 0 0 1 .257-.337z"/></svg>