<svg xmlns="http://www.w3.org/2000/svg" width="24" height="24" fill="currentColor" viewBox="1.90 1.90 6.20 6.20"><path d="M6.165 1.9c.546 0 .819 0 .99.159a1 1 0 0 1 .068.072c.144.184.121.457.077 1l-.315 3.92c-.038.47-.058.705-.2.858a1 1 0 0 1-.066.06c-.164.13-.4.13-.87.13H4.151c-.472 0-.707 0-.871-.13a1 1 0 0 1-.066-.06c-.142-.153-.162-.387-.2-.857L2.7 3.132c-.044-.544-.067-.817.077-1.001a1 1 0 0 1 .067-.072c.172-.159.446-.159.992-.159zm-2.141.8c-.275 0-.413 0-.499.08a.3.3 0 0 0-.034.036c-.072.094-.06.231-.034.505l.103 1.144c.02.21.03.314.097.404l.031.038c.078.081.16.103.321.146.956.253 1.037-.575 2.012-.298.179.05.269.077.323.046l.022-.015c.048-.04.056-.123.071-.29l.107-1.175c.024-.274.037-.411-.035-.505a.3.3 0 0 0-.034-.036c-.086-.08-.224-.08-.499-.08z"/></svg>