<svg xmlns="http://www.w3.org/2000/svg" width="24" height="24" fill="currentColor" viewBox="1.70 1.70 6.60 6.60"><path d="M5 3.2c.186 0 .28 0 .35.04a.3.3 0 0 1 .11.11c.04.07.04.163.04.35v.573c0 .195 0 .292.048.367l.023.03c.058.068.152.096.338.15l.327.096c.433.128.65.192.77.355a1 1 0 0 1 .047.073c.095.178.059.402-.013.848l-.16.99c-.081.504-.122.757-.286.918a1 1 0 0 1-.075.063c-.185.137-.441.137-.952.137H4.432c-.51 0-.766 0-.951-.137a1 1 0 0 1-.075-.063c-.164-.161-.205-.414-.286-.918l-.16-.99c-.072-.446-.108-.67-.013-.848a1 1 0 0 1 .047-.073c.12-.163.337-.227.77-.355l.326-.095c.186-.055.28-.082.338-.15l.023-.031c.049-.075.049-.172.049-.366V3.7c0-.187 0-.28.04-.35a.3.3 0 0 1 .11-.11c.07-.04.163-.04.35-.04m.1-1.5c.093 0 .139 0 .177.01a.3.3 0 0 1 .212.213c.01.038.01.084.01.177s0 .14-.01.178a.3.3 0 0 1-.212.212c-.038.01-.084.01-.177.01h-.2c-.093 0-.14 0-.178-.01a.3.3 0 0 1-.212-.212C4.5 2.24 4.5 2.193 4.5 2.1s0-.14.01-.177a.3.3 0 0 1 .212-.212c.038-.01.085-.01.177-.01z"/></svg>