<svg xmlns="http://www.w3.org/2000/svg" width="24" height="24" fill="currentColor" viewBox="1.70 1.70 6.60 6.60"><path d="M5.2 3.2a.3.3 0 0 1 .3.3v.754c0 .143.1.267.236.313.418.142 1.239.536 1.164 1.433l-.095 1.085c-.047.545-.07.817-.237.994a1 1 0 0 1-.076.07c-.19.151-.465.151-1.012.151h-.96c-.548 0-.82 0-1.012-.15a1 1 0 0 1-.077-.07c-.166-.178-.19-.45-.237-.995L3.1 6c-.075-.898.746-1.292 1.164-1.433a.34.34 0 0 0 .236-.312V3.5a.3.3 0 0 1 .3-.3zm0-1.5a.3.3 0 0 1 .3.3v.2a.3.3 0 0 1-.3.3h-.4a.3.3 0 0 1-.3-.3V2a.3.3 0 0 1 .3-.3z"/></svg>