<svg xmlns="http://www.w3.org/2000/svg" width="24" height="24" fill="currentColor" viewBox="1.90 1.90 6.20 6.20"><path d="M5.832 1.9c.036-.001.068.012.095.03q.021.016.037.038.028.039.03.092.001.082-.013.194c-.014.11-.041.236-.093.362a1.1 1.1 0 0 1-.24.364c-.056.057-.046.16.023.2.466.28.7.85.629 1.42-.1.8.8.8.8 1.9S5.9 8.1 5 8.1s-2.1-.5-2.1-1.6.9-1.1.8-1.9c-.075-.6.188-1.199.702-1.461a.5.5 0 0 0 .148-.09l.008-.01a.4.4 0 0 0 .037-.128 1.4 1.4 0 0 1 .107-.342l.01-.017q.03-.06.067-.12l.034-.052.02-.025q.04-.053.089-.102c.294-.294.693-.348.91-.354M4.479 5.541a.4.4 0 0 0-.537.179c-.243.488-.067.994.238 1.299.304.304.811.481 1.3.237a.4.4 0 0 0-.359-.715c-.111.055-.255.032-.375-.088s-.143-.264-.088-.376a.4.4 0 0 0-.179-.536"/></svg>