<svg xmlns="http://www.w3.org/2000/svg" width="24" height="24" fill="currentColor" viewBox="2.03 2.00 6.00 6.00"><path d="M5 2c.622 0 1.185.44 1.6 1.08.075.115.004.265-.127.305-.222.067-.45.171-.673.328a.35.35 0 0 0 .4.573c.23-.16.466-.245.69-.282.089-.016.174.04.202.126C7.648 5.855 7.272 8 5 8 2.806 8 2.611 6.876 2.775 5.756c.022-.144.19-.211.325-.157a1.2 1.2 0 0 0 .643.072q.073-.012.117-.025.022-.005.037-.01l.012-.004.005-.001.002-.001h.001v-.001a.35.35 0 0 0-.233-.66h-.003q-.013.005-.044.01a.6.6 0 0 1-.168 0c-.107-.016-.264-.072-.415-.278a.18.18 0 0 1-.029-.148c.036-.166.064-.32.075-.453C3.2 2.9 3.6 2 5 2m1.424 4.031a.35.35 0 0 0-.494.045l-.007.008-.048.046c-.044.04-.11.091-.195.139a.93.93 0 0 1-.696.091.35.35 0 0 0-.17.679c.507.127.923-.001 1.206-.158a1.8 1.8 0 0 0 .435-.342l.009-.01.002-.002.001-.001v-.001h.001v-.002a.35.35 0 0 0-.044-.492"/></svg>