<svg xmlns="http://www.w3.org/2000/svg" width="24" height="24" fill="currentColor" viewBox="2.05 2.00 5.90 5.90"><path d="M7.006 4.8c.32 0 .48 0 .596.108a1 1 0 0 1 .045.05c.095.125.082.262.054.536-.115 1.153-.834 1.534-1.195 1.654a.34.34 0 0 0-.236.263c-.032.22-.047.33-.117.401l-.034.028c-.08.06-.191.06-.414.06h-1.41c-.223 0-.335 0-.415-.06l-.032-.028c-.07-.07-.087-.18-.118-.401a.34.34 0 0 0-.236-.263c-.36-.12-1.08-.5-1.196-1.654-.027-.274-.04-.411.055-.536a1 1 0 0 1 .045-.05c.115-.108.276-.108.596-.108zM5 2c.206 0 .391.09.519.232.084.094.127.143.152.151l.012.003c.026.006.087-.014.208-.052a.696.696 0 0 1 .887.499c.016.048.038.065.09.067H6.9a.7.7 0 0 1 .7.7.5.5 0 0 1-.5.5H2.9a.5.5 0 0 1-.5-.5.7.7 0 0 1 .7-.7h.03c.053-.002.075-.02.092-.07l.007-.025a.7.7 0 0 1 .88-.471c.12.039.182.058.208.052.006 0 .005 0 .011-.003.026-.009.068-.057.153-.15A.7.7 0 0 1 5 2"/></svg>