<svg xmlns="http://www.w3.org/2000/svg" width="24" height="24" fill="currentColor" viewBox="1.70 1.86 6.50 6.50"><path d="M3 1.9c.7 0 1.3 1.1 1.3 2 0 .456-.231.758-.46.945-.235.193-.353.29-.387.358l-.014.031c-.026.071-.02.173-.007.376l.13 2.091a.564.564 0 1 1-1.124 0l.13-2.09c.013-.204.02-.306-.007-.377l-.014-.03c-.034-.069-.152-.166-.388-.36A1.19 1.19 0 0 1 1.7 3.9c0-.9.6-2 1.3-2m4.8 0c.4 0 .5 1 .3 2.1-.082.448-.262.714-.448.871-.314.266-.471.399-.499.456-.007.015-.005.01-.01.026-.023.06-.016.158-.003.354l.122 1.895a.563.563 0 1 1-1.123 0l.122-1.895c.013-.201.02-.302-.006-.365-.006-.015-.004-.013-.012-.028-.031-.06-.19-.18-.506-.418-.203-.154-.394-.424-.437-.896-.1-1.1-.1-2.099.3-2.1s0 1.599.5 1.6c.5 0 .1-1.6.6-1.6s.1 1.6.6 1.6.1-1.599.5-1.6"/></svg>