<svg xmlns="http://www.w3.org/2000/svg" width="24" height="24" fill="currentColor" viewBox="2.04 1.94 5.91 5.91"><path d="M5.596 6.57c.546.4.818.6.782.787a.3.3 0 0 1-.023.072c-.081.171-.42.171-1.096.171h-.518c-.676 0-1.015 0-1.096-.171a.3.3 0 0 1-.023-.072c-.036-.186.237-.386.782-.786l.259-.19c.154-.113.23-.17.318-.175h.038c.088.006.164.062.318.175zM3.632 5.289c.314.188.47.282.49.423a.3.3 0 0 1 .004.059c-.008.142-.155.25-.45.466l-1.036.76c-.166.121-.249.182-.4.127a.4.4 0 0 1-.058-.03c-.135-.086-.137-.151-.14-.282-.007-.411.178-.948.46-1.52.11-.226.166-.339.275-.381a.3.3 0 0 1 .048-.014c.115-.024.227.044.453.18zm3.09-.213c.225-.135.337-.203.452-.18a.3.3 0 0 1 .048.015c.109.042.165.155.276.381.281.573.466 1.11.458 1.52-.002.131-.003.197-.139.283a.4.4 0 0 1-.058.03c-.151.054-.234-.006-.399-.128l-1.037-.76c-.295-.216-.442-.324-.45-.466a.3.3 0 0 1 .003-.059c.02-.14.177-.235.49-.423zM5.096 2.2c.463.045.733.438 1.273 1.222q.09.129.179.264c.14.211.211.317.195.43l-.01.047c-.034.11-.146.176-.368.31l-1.073.644c-.135.081-.202.122-.277.126h-.032c-.074-.004-.142-.045-.277-.126l-1.075-.644c-.222-.134-.333-.2-.367-.31l-.01-.047c-.017-.113.054-.219.195-.43q.09-.135.18-.264c.54-.784.81-1.177 1.273-1.222.059-.006.136-.006.194 0"/></svg>