<svg xmlns="http://www.w3.org/2000/svg" width="24" height="24" fill="currentColor" viewBox="0 0 10 10"><path d="M4.999 2.05a.45.45 0 0 1 .45.45v.23c0 .254 0 .38.072.465l.033.033c.085.072.211.072.465.072h.88a.6.6 0 1 1 0 1.199h-.95c-.187 0-.28 0-.35.04a.3.3 0 0 0-.11.11c-.04.07-.04.163-.04.35v.05c0 .14 0 .21.023.266a.3.3 0 0 0 .162.162c.055.023.125.023.265.023a.6.6 0 1 1 0 1.2c-.14 0-.21 0-.265.022a.3.3 0 0 0-.162.162c-.023.055-.023.125-.023.265V7.5a.45.45 0 0 1-.9 0v-.352c0-.139 0-.208-.023-.263a.3.3 0 0 0-.163-.163c-.055-.023-.124-.023-.263-.023a.6.6 0 0 1 0-1.199c.139 0 .208 0 .263-.023a.3.3 0 0 0 .163-.163c.023-.055.023-.124.023-.263V5c0-.188 0-.282-.04-.351a.3.3 0 0 0-.11-.11c-.07-.04-.163-.04-.35-.04h-.95a.6.6 0 0 1 0-1.2h.88c.254 0 .38 0 .465-.071l.033-.033c.072-.085.072-.211.072-.465V2.5a.45.45 0 0 1 .45-.45"/></svg>