<svg xmlns="http://www.w3.org/2000/svg" width="24" height="24" fill="currentColor" viewBox="0 0 10 10"><path d="M6.4 2.43c0-.284.242-.53.516-.457a.82.82 0 0 1 .444.278c.24.28.24.703.24 1.548v2.398c0 .847 0 1.271-.24 1.552q-.052.06-.111.11c-.281.24-.704.24-1.551.238h-1.4c-.845-.002-1.267-.003-1.548-.242a1 1 0 0 1-.11-.111c-.24-.28-.24-.703-.24-1.548V3.799c0-.845 0-1.268.24-1.548a.82.82 0 0 1 .444-.278c.274-.073.516.173.516.457V3a.5.5 0 0 0 .5.5h1.8a.5.5 0 0 0 .5-.5zM3.75 6.2a.4.4 0 0 0 0 .8h1.7a.4.4 0 0 0 0-.8zm0-1.6a.4.4 0 0 0 0 .801h2.5a.401.401 0 0 0 0-.8zM5.3 1.9a.5.5 0 1 1 0 1h-.6a.5.5 0 1 1 0-1z"/></svg>