<svg xmlns="http://www.w3.org/2000/svg" width="24" height="24" fill="currentColor" viewBox="0 0 10 10"><path d="M2.4 5.8a.5.5 0 0 1 .5.5v.04c0 .339 0 .508.096.62a.4.4 0 0 0 .044.044c.112.096.282.096.62.096h.04a.5.5 0 1 1 0 1h-.66c-.508 0-.762 0-.93-.143a1 1 0 0 1-.066-.067C1.9 7.722 1.9 7.468 1.9 6.96V6.3a.5.5 0 0 1 .5-.5m5.2 0a.5.5 0 0 1 .5.5v.66c0 .508 0 .762-.143.93a1 1 0 0 1-.067.067c-.168.143-.422.143-.93.143H6.3a.5.5 0 0 1 0-1h.04c.339 0 .508 0 .62-.096a.4.4 0 0 0 .044-.044c.096-.112.096-.281.096-.62V6.3a.5.5 0 0 1 .5-.5M3.7 1.9a.5.5 0 0 1 0 1h-.04c-.338 0-.508 0-.62.096a.4.4 0 0 0-.044.044c-.096.112-.096.282-.096.62v.04a.5.5 0 0 1-1 0v-.66c0-.508 0-.762.144-.93a1 1 0 0 1 .066-.066c.168-.144.422-.144.93-.144zm3.26 0c.508 0 .762 0 .93.144a1 1 0 0 1 .067.066c.143.168.143.422.143.93v.66a.5.5 0 0 1-1 0v-.04c0-.338 0-.508-.096-.62a.4.4 0 0 0-.044-.044C6.848 2.9 6.679 2.9 6.34 2.9H6.3a.5.5 0 0 1 0-1z"/></svg>