<svg xmlns="http://www.w3.org/2000/svg" width="24" height="24" fill="currentColor" viewBox="0 0 10 10"><path d="M7.536 2.445a.814.814 0 0 1 0 1.15l-.65.65a.267.267 0 0 0 0 .378.533.533 0 0 1 0 .754l-.012.011a.55.55 0 0 1-.778 0l-.035-.035a.3.3 0 0 0-.425 0L4.078 6.913l-.051.05a1.4 1.4 0 0 1-.43.28l-.819.364a.291.291 0 0 1-.384-.384l.364-.82.03-.066a1.4 1.4 0 0 1 .25-.363l.05-.052 1.558-1.557a.3.3 0 0 0 0-.425l-.034-.035a.55.55 0 0 1 0-.778l.024-.024a.515.515 0 0 1 .728 0c.1.1.264.1.365 0l.657-.657a.814.814 0 0 1 1.15 0"/></svg>