<svg xmlns="http://www.w3.org/2000/svg" width="24" height="24" fill="currentColor" viewBox="0 0 10 10"><path d="M4.1 6.2a.45.45 0 0 0 0 .9.45.45 0 0 1 0 .9H1.95a.45.45 0 0 1 0-.9h.01a.37.37 0 0 0 .337-.218L3.785 3.54c.492-1.105.738-1.657 1.135-1.703a.7.7 0 0 1 .161 0c.396.046.642.6 1.134 1.704l1.488 3.34c.06.133.19.22.336.22h.01a.45.45 0 0 1 0 .9h-.77L7.26 8H5.9a.45.45 0 0 1-.09-.89l.09-.01a.45.45 0 0 0 0-.9zm.864-2.781c-.177.021-.283.288-.494.822l-.13.33c-.132.332-.198.5-.131.623q.014.026.033.048c.09.108.27.108.627.108h.262c.358 0 .537 0 .627-.108a.3.3 0 0 0 .033-.048c.067-.123.002-.29-.13-.624l-.13-.329c-.212-.534-.318-.8-.495-.822a.3.3 0 0 0-.072 0"/></svg>