<svg xmlns="http://www.w3.org/2000/svg" width="24" height="24" fill="currentColor" viewBox="0 0 10 10"><path d="M6.4 2a.5.5 0 0 1 .5.5v.03c0 .254 0 .381.072.465l.034.034c.084.072.21.072.464.072h.03a.5.5 0 1 1 0 1h-.03c-.253 0-.38 0-.464.071l-.034.034c-.072.084-.072.21-.072.465v.658c0 .254 0 .381.072.465l.034.034c.084.071.21.071.464.071h.03a.5.5 0 0 1 0 1h-.03c-.253 0-.38 0-.464.072l-.034.034c-.072.084-.072.21-.072.464V7.5a.5.5 0 0 1-1 0v-.03c0-.254 0-.381-.071-.465l-.034-.034C5.711 6.9 5.585 6.9 5.33 6.9h-.66c-.254 0-.381 0-.465.072l-.034.034c-.071.084-.071.21-.071.464V7.5a.5.5 0 0 1-1 0v-.03c0-.254 0-.381-.072-.465l-.034-.034C2.91 6.9 2.784 6.9 2.53 6.9H2.5a.5.5 0 0 1 0-1h.03c.253 0 .38 0 .464-.071l.034-.034c.072-.084.072-.21.072-.465v-.658c0-.254 0-.381-.072-.465l-.034-.034c-.084-.071-.21-.071-.464-.071H2.5a.5.5 0 0 1 0-1h.03c.253 0 .38 0 .464-.072l.034-.034c.072-.084.072-.21.072-.464V2.5a.5.5 0 0 1 1 0v.03c0 .254 0 .381.071.465l.034.034c.084.072.21.072.465.072h.66c.254 0 .381 0 .465-.072l.034-.034c.071-.084.071-.21.071-.464V2.5a.5.5 0 0 1 .5-.5M4.1 5.33c0 .253 0 .38.071.464l.034.034c.084.071.21.071.465.071h.66c.254 0 .381 0 .465-.071l.034-.034c.071-.084.071-.21.071-.465v-.658c0-.254 0-.381-.071-.465l-.034-.034c-.084-.071-.21-.071-.465-.071h-.66c-.254 0-.381 0-.465.071l-.034.034c-.071.084-.071.21-.071.465z"/></svg>