<svg xmlns="http://www.w3.org/2000/svg" width="24" height="24" fill="currentColor" viewBox="0 0 10 10"><path d="M7.4 2.4a.5.5 0 0 1-.5.5h-.213c-.356 0-.534 0-.665.094a1 1 0 0 0-.052.045c-.117.11-.15.285-.217.634L5.25 6.31c-.066.345-.099.517-.016.637a.4.4 0 0 0 .04.048c.102.104.278.104.63.104H6.1a.5.5 0 0 1 0 1h-3a.5.5 0 0 1 0-1h.213c.356 0 .534 0 .665-.093a1 1 0 0 0 .052-.045c.117-.11.15-.285.217-.634L4.75 3.69c.066-.345.099-.517.016-.637a.4.4 0 0 0-.04-.048c-.102-.104-.278-.105-.63-.105H3.9a.5.5 0 0 1 0-1H6.9a.5.5 0 0 1 .5.5"/></svg>