<svg xmlns="http://www.w3.org/2000/svg" width="24" height="24" fill="currentColor" viewBox="0 0 10 10"><path d="M6.439 5.763c.094.151.32.188.405.031a.724.724 0 0 0 .058-.16c.058-.226-.01-.54-.144-1.167l-.013-.063-.016-.083a.28.28 0 0 1 .066-.223l.05-.052.89-.89a.7.7 0 0 0-.99-.991l-.89.89-.052.05a.28.28 0 0 1-.225.066l-.081-.016-.063-.012c-.627-.135-.94-.202-1.167-.144a.7.7 0 0 0-.159.057c-.158.084-.121.313.031.407.308.192.74.512 1.264 1.036s.844.955 1.036 1.264M2.9 6.666a.28.28 0 0 0 .262.072c.279-.067.432-.089.53-.01a.3.3 0 0 1 .045.045c.073.09.06.228.005.467-.012.051-.018.077-.02.1a.3.3 0 0 0 .057.2c.014.018.031.036.066.07.359.36.539.54.7.543.027.001.04 0 .067-.004.158-.023.352-.273.74-.77a4 4 0 0 1 .396-.436l.155-.149c.068-.064.067-.172.038-.261l-.001-.004-.001-.001-.002-.005-.026-.06a3 3 0 0 0-.152-.278c-.157-.253-.438-.636-.923-1.12-.484-.485-.868-.766-1.12-.923a2.6 2.6 0 0 0-.338-.178l-.005-.002h-.002V3.96L3.37 3.96l-.012-.004c-.083-.03-.183-.031-.244.032l-.155.164a4 4 0 0 1-.437.396c-.497.387-.746.582-.77.74a.3.3 0 0 0-.004.067.36.36 0 0 0 .072.187c.095.142.143.213.241.245l.043.01c.102.018.201-.036.4-.143.224-.12.362-.168.448-.13.069.03.124.085.154.154.047.108-.044.305-.246.651a.28.28 0 0 0 .042.337"/></svg>