<svg xmlns="http://www.w3.org/2000/svg" width="24" height="24" fill="currentColor" viewBox="0 0 10 10"><path d="M5 2.1c.22 0 .4.18.4.4v5a.4.4 0 0 1-.8 0v-5c0-.22.18-.4.4-.4M3.114 3c.268 0 .402 0 .5.062a.4.4 0 0 1 .124.126c.062.097.062.23.062.498v2.628c0 .268 0 .4-.062.498a.4.4 0 0 1-.125.126C3.516 7 3.382 7 3.114 7c-.668 0-1.002 0-1.246-.153a1 1 0 0 1-.314-.315C1.4 6.288 1.4 5.954 1.4 5.286v-.572c0-.668 0-1.002.154-1.246a1 1 0 0 1 .314-.315C2.112 3 2.446 3 3.114 3m3.772 0c.668 0 1.002 0 1.246.153a1 1 0 0 1 .314.315c.154.244.154.578.154 1.246v.572c0 .668 0 1.002-.154 1.246a1 1 0 0 1-.314.315C7.888 7 7.554 7 6.886 7c-.268 0-.402 0-.5-.062a.4.4 0 0 1-.124-.125C6.2 6.715 6.2 6.582 6.2 6.314V3.686c0-.268 0-.4.062-.498a.4.4 0 0 1 .125-.126C6.484 3 6.618 3 6.886 3"/></svg>