<svg xmlns="http://www.w3.org/2000/svg" width="24" height="24" fill="currentColor" viewBox="0 0 10 10"><path d="M2.72 3.865c-.24.1-.32.45-.477 1.151l-.07.317c-.14.62-.21.93-.056 1.12q.032.038.071.07c.188.154.499.084 1.119-.055l.317-.071c.7-.158 1.052-.236 1.15-.477a.5.5 0 0 0 .03-.103.43.43 0 0 0-.071-.298c-.147-.25-.22-.374-.197-.488l.014-.047c.042-.108.121-.148.28-.227a1.83 1.83 0 0 1 1.592-.02 1.83 1.83 0 0 1 1 1.24c.074.316.302.608.625.638s.616-.209.583-.532a3 3 0 0 0-4.662-2.182c-.2.136-.301.204-.378.21l-.033.002c-.077-.001-.2-.072-.446-.213a.42.42 0 0 0-.288-.065.5.5 0 0 0-.103.03"/></svg>