<svg xmlns="http://www.w3.org/2000/svg" width="24" height="24" fill="currentColor" viewBox="0 0 10 10"><path d="M6.8 2.3c.331 0 .6.269.6.6 0 .166.135.298.3.302.278.005.443.028.566.122a.6.6 0 0 1 .11.11c.124.162.124.397.124.866v1.68c0 .677 0 1.015-.191 1.24a1 1 0 0 1-.09.088c-.224.192-.562.192-1.239.192H3.02c-.677 0-1.015 0-1.24-.192a1 1 0 0 1-.089-.088C1.5 6.995 1.5 6.657 1.5 5.98V4.3c0-.47 0-.704.124-.866a.6.6 0 0 1 .11-.11c.123-.094.288-.117.566-.122a.304.304 0 0 0 .3-.302.601.601 0 0 1 1.2 0 .3.3 0 0 0 .3.3h1.8a.3.3 0 0 0 .3-.3.6.6 0 0 1 .6-.6m-.15 1.8a.4.4 0 0 0-.4.4v.05c0 .047 0 .07-.003.089a.3.3 0 0 1-.258.259c-.02.002-.043.002-.089.002a.4.4 0 1 0 0 .8c.046 0 .07 0 .089.003a.3.3 0 0 1 .258.258c.003.02.003.043.003.089v.05a.4.4 0 0 0 .8 0v-.05c0-.046 0-.07.003-.089a.3.3 0 0 1 .259-.258c.02-.003.042-.003.088-.003a.4.4 0 0 0 0-.8c-.046 0-.069 0-.088-.002a.3.3 0 0 1-.259-.259c-.002-.02-.002-.042-.002-.088V4.5c0-.22-.18-.4-.4-.4m-4.05.8a.401.401 0 0 0 0 .8h1a.4.4 0 0 0 0-.8z"/></svg>