<svg xmlns="http://www.w3.org/2000/svg" width="24" height="24" fill="currentColor" viewBox="0 0 10 10"><path d="m5.73 2.688.646.093c.022.003.062.008.1.017a.45.45 0 0 1 .173.083l.02.018a.4.4 0 0 1 .05.057l.036.046a1 1 0 0 1 .037.076c.013.036.023.077.029.098l.203.762.003.013.162.712a.18.18 0 0 0 .166.14 1.32 1.32 0 1 1-.96.283.28.28 0 0 0 .108-.28.25.25 0 0 0-.342-.176l-1.609.684c-.142.06-.213.09-.251.12-.104.077-.119.1-.15.225-.01.047-.01.184-.01.457a1.32 1.32 0 1 1-1.321-1.32c.113 0 .208-.107.176-.215l-.078-.26a.32.32 0 0 0-.303-.226H2.6a.4.4 0 0 1 0-.8h1.32a.4.4 0 0 1 0 .8.253.253 0 0 0-.242.326l.029.097a.33.33 0 0 0 .443.208l1.92-.817a.248.248 0 0 0-.062-.475l-.378-.053a.35.35 0 0 1 .1-.693"/></svg>