<svg xmlns="http://www.w3.org/2000/svg" width="24" height="24" fill="currentColor" viewBox="0 0 10 10"><path d="M5.29 2.7c.283 0 .424 0 .546.058l.052.027c.115.07.194.188.35.423l.856 1.283c.145.218.218.328.327.387l.049.022c.114.047.245.035.506.01l.29-.028c.34-.033.51-.05.646.106.015.017.038.05.049.07.099.18.04.302-.078.545C8.513 6.366 7.51 7.4 4.8 7.4H2.798c-.547 0-.82 0-1.037-.132a1 1 0 0 1-.091-.064c-.199-.158-.292-.415-.479-.93l-.02-.054c-.16-.438-.238-.656-.148-.817a.4.4 0 0 1 .044-.063c.12-.14.354-.14.819-.14a.42.42 0 0 0 .416-.346l.225-1.221c.078-.421.117-.633.257-.767a1 1 0 0 1 .065-.053c.157-.113.371-.113.8-.113zm-1.457.8c-.218 0-.327 0-.406.058l-.032.027c-.07.069-.089.177-.124.392l-.06.359c-.048.29-.073.436-.002.537q.016.021.034.04C3.331 5 3.48 5 3.773 5h1.762c.442 0 .663 0 .752-.13a.3.3 0 0 0 .03-.058c.06-.146-.062-.33-.307-.698l-.24-.36c-.079-.118-.118-.176-.176-.211l-.026-.014c-.06-.029-.132-.029-.273-.029z"/></svg>