<svg xmlns="http://www.w3.org/2000/svg" width="24" height="24" fill="currentColor" viewBox="0 0 10 10"><path d="M7.14 3.1c.664 0 .996 0 1.263.202.035.026.078.064.109.094.235.238.276.539.357 1.137.046.338.086.722.11 1.133.018.326.027.49-.069.61a.4.4 0 0 1-.045.047c-.114.103-.284.103-.625.103H7.98c-.074 0-.111 0-.135.014l-.011.007c-.022.018-.038.065-.071.157a.597.597 0 0 1-1.124 0c-.033-.092-.05-.139-.072-.157l-.01-.007c-.024-.014-.062-.014-.135-.014H3.679c-.074 0-.111 0-.135.014l-.01.007c-.023.018-.04.065-.072.157a.597.597 0 0 1-1.125 0c-.033-.092-.05-.139-.071-.157l-.011-.007c-.024-.014-.061-.014-.135-.014h-.17c-.422 0-.634-.001-.774-.12a1 1 0 0 1-.056-.055C1 6.111 1 5.899 1 5.477V4.05c0-.423 0-.634.12-.775a1 1 0 0 1 .055-.055c.14-.12.352-.12.774-.12zm-.27.6c-.253 0-.38 0-.465.071l-.033.034c-.072.084-.072.211-.072.465v.257c0 .17 0 .256.04.326l.018.029c.048.064.127.098.283.167l.204.09c.172.075.258.113.35.134l.04.01c.091.017.186.017.374.017h.17c.252 0 .379 0 .466-.085a.3.3 0 0 0 .034-.04c.071-.097.055-.213.023-.443a9 9 0 0 0-.05-.307c-.055-.315-.084-.473-.2-.585a1 1 0 0 0-.054-.045c-.131-.095-.301-.096-.64-.096zm-4.82 0c-.235 0-.352 0-.433.062a.3.3 0 0 0-.055.055c-.062.081-.062.2-.062.433v.1c0 .234 0 .351.062.432q.024.031.055.056c.081.062.199.061.433.061s.352 0 .432-.061a.3.3 0 0 0 .056-.056c.062-.08.062-.198.062-.432v-.1c0-.234 0-.352-.062-.433a.3.3 0 0 0-.056-.055c-.08-.062-.198-.063-.432-.063m1.6 0c-.235 0-.352 0-.433.062a.3.3 0 0 0-.055.055c-.062.081-.062.199-.062.433v.1c0 .234 0 .351.062.432q.024.031.055.056c.08.062.198.061.432.061.235 0 .352 0 .433-.061a.3.3 0 0 0 .056-.056c.062-.08.062-.198.062-.432v-.1c0-.234 0-.352-.062-.433a.3.3 0 0 0-.056-.055c-.08-.062-.199-.063-.433-.063m1.6 0c-.234 0-.352 0-.433.062a.3.3 0 0 0-.055.055c-.062.081-.062.199-.062.433v.1c0 .234 0 .351.062.432q.024.031.055.056c.081.062.199.061.433.061s.352 0 .433-.061a.3.3 0 0 0 .055-.056c.062-.08.062-.198.062-.432v-.1c0-.234 0-.352-.062-.433a.3.3 0 0 0-.055-.055c-.081-.062-.199-.063-.433-.063"/></svg>