<svg xmlns="http://www.w3.org/2000/svg" width="24" height="24" fill="currentColor" viewBox="0 0 10 10"><path d="M5.9 2.4a.3.3 0 0 1 0 .6h-.15a.35.35 0 0 0 0 .7h.18a1 1 0 0 1 .125.006.3.3 0 0 1 .194.13c.016.025.027.055.05.114a1 1 0 0 0 .052.113.3.3 0 0 0 .195.131c.028.006.06.006.124.006.12 0 .18 0 .23.01a.5.5 0 0 1 .39.389c.01.05.01.11.01.231v.12c0 .046 0 .07.003.09a.3.3 0 0 0 .257.258c.02.002.044.002.09.002h.05a.3.3 0 0 0 .294-.24l.012-.12A.3.3 0 0 1 8.3 4.7h.2c.4 0 .4.768.4 1.1 0 .331 0 1.1-.4 1.1h-.2a.3.3 0 0 1-.3-.3.3.3 0 0 0-.3-.3h-.05c-.046 0-.07 0-.09.003a.3.3 0 0 0-.257.258 1 1 0 0 0-.003.09c0 .232 0 .349-.038.44a.5.5 0 0 1-.271.271c-.092.038-.208.038-.441.038H4.7c-.231 0-.347 0-.456-.032l-.06-.02c-.107-.04-.2-.11-.384-.248-.185-.139-.277-.208-.383-.248l-.062-.021C3.247 6.8 3.131 6.8 2.9 6.8a.4.4 0 0 1-.4-.4v-.25a.35.35 0 1 0-.7 0v.1a.35.35 0 1 1-.7 0v-1.5a.35.35 0 1 1 .7 0v.1a.35.35 0 0 0 .7 0v-.22a.43.43 0 0 1 .43-.43c.064 0 .096 0 .124-.006a.3.3 0 0 0 .195-.13c.016-.025.027-.055.05-.114a1 1 0 0 1 .052-.113.3.3 0 0 1 .195-.131A1 1 0 0 1 3.67 3.7h.18a.35.35 0 0 0 0-.7H3.7a.3.3 0 0 1 0-.6z"/></svg>