<svg xmlns="http://www.w3.org/2000/svg" width="24" height="24" fill="currentColor" viewBox="0 0 10 10"><path d="M5.287 7.388c.372-.24.85-.244 1.227-.012l.025.016.226.143c.12.076.275.065.382-.028a1.02 1.02 0 0 1 1.31-.03l.061.05a.35.35 0 0 1-.437.547l-.062-.05a.32.32 0 0 0-.41.009c-.341.298-.838.336-1.22.093l-.226-.144q-.014-.01-.017-.01a.45.45 0 0 0-.48.004l-.017.012-.026.018c-.38.244-.867.244-1.246 0l-.026-.018-.017-.012a.45.45 0 0 0-.48-.005l-.017.011-.226.144a1.02 1.02 0 0 1-1.22-.093.32.32 0 0 0-.41-.009l-.062.05a.35.35 0 0 1-.437-.547l.062-.05a1.02 1.02 0 0 1 1.308.03.32.32 0 0 0 .383.028l.226-.143.026-.016a1.15 1.15 0 0 1 1.252.03q.015.01.017.01c.148.096.34.096.488 0l.018-.01zm-2.986-1.59q.119-.004.236.015c.145.025.28.085.444.156.113.048.141.06.166.066l.054.01a.26.26 0 0 1 .21.157q.05.13.12.25c.07.123-.01.299-.152.299-.105 0-.19 0-.277-.012a1 1 0 0 1-.137-.028c-.084-.023-.163-.058-.259-.099-.195-.083-.242-.1-.285-.108a.5.5 0 0 0-.093-.006c-.044.002-.092.014-.296.072l-.235.068a.35.35 0 0 1-.193-.674l.236-.068c.172-.049.314-.091.46-.097m5.4 0c.146.007.288.05.46.098l.235.068a.35.35 0 0 1-.192.674l-.235-.069c-.204-.058-.253-.07-.297-.071a.5.5 0 0 0-.093.006c-.043.007-.09.025-.285.108-.096.041-.174.076-.258.099a1 1 0 0 1-.139.028c-.085.012-.172.012-.276.012-.142 0-.223-.176-.152-.3q.07-.117.119-.248a.26.26 0 0 1 .21-.157l.055-.011c.026-.007.053-.018.165-.066.165-.071.3-.131.445-.156q.118-.02.237-.014M5 1.45a.35.35 0 0 1 .35.35c0 .163 0 .244.03.307a.3.3 0 0 0 .137.136c.063.031.144.031.307.031H6a.35.35 0 0 1 0 .7h-.388a.263.263 0 1 0 0 .526H6a.35.35 0 0 1 0 .7h-.377a.274.274 0 0 0-.273.274c0 .114.073.213.17.273A.998.998 0 0 1 5 6.6a1 1 0 0 1-.684-1.729c.187-.174.28-.262.304-.312l.01-.023c.02-.052.02-.124.02-.268V1.8A.35.35 0 0 1 5 1.45"/></svg>