<svg xmlns="http://www.w3.org/2000/svg" width="24" height="24" fill="currentColor" viewBox="0 0 10 10"><path d="M4.999 3.3c.134 0 .26.047.361.128.122.097.183.146.211.158l.013.004c.03.01.068.01.145.01H6.2a.4.4 0 0 1 0 .8c-.106 0-.158 0-.196.016a.2.2 0 0 0-.122.173c-.002.04.016.09.052.19l.001.005.05.142c.04.113.059.17.097.204l.018.014c.043.03.1.037.214.049l.293.032c.121.013.182.02.223.006l.018-.007c.04-.018.128-.118.305-.318a.6.6 0 0 1 1.047.398V6.4a.6.6 0 0 1-1.2 0 .13.13 0 0 0-.197-.11l-.294.181a.87.87 0 0 1-.453.13H3.918a.77.77 0 0 1-.403-.115l-.318-.196A.13.13 0 0 0 3 6.4a.6.6 0 0 1-1.2 0v-1a.6.6 0 0 1 1.025-.423c.165.165.247.248.285.264l.017.006c.04.011.095.005.206-.008l.324-.037c.115-.013.173-.02.214-.049l.018-.014c.038-.034.059-.092.1-.208l.067-.178c.027-.074.04-.11.043-.14a.2.2 0 0 0-.142-.204C3.93 4.4 3.89 4.4 3.811 4.4H3.8a.4.4 0 0 1 0-.8h.469c.077 0 .116 0 .145-.01l.013-.004c.028-.012.09-.06.21-.158.1-.08.227-.128.362-.128"/></svg>