<svg xmlns="http://www.w3.org/2000/svg" width="24" height="24" fill="currentColor" viewBox="0 0 10 10"><path d="M2.62 2.29a.35.35 0 1 1 .664.22c-.05.15-.075.225-.066.279a.22.22 0 0 0 .166.178c.053.013.13-.007.282-.046l.036-.009a.401.401 0 0 1 .2.775l-.361.092c-.171.044-.256.066-.302.121a.2.2 0 0 0-.048.104c-.011.07.028.15.107.307l.015.03c.04.079.059.118.087.145a.22.22 0 0 0 .131.06.5.5 0 0 0 .166-.031.4.4 0 1 1 .208.771l-.215.058c-.079.02-.118.031-.15.053a.2.2 0 0 0-.048.047.5.5 0 0 0-.06.147l-.06.184c-.022.071-.033.107-.035.132a.22.22 0 0 0 .227.237c.025 0 .061-.01.133-.03a.4.4 0 1 1 .208.772l-.258.07c-.052.013-.078.02-.096.028a.22.22 0 0 0-.096.31c.01.018.027.038.062.079a.35.35 0 0 1-.53.455l-.312-.363c-.08-.092-.119-.138-.172-.158L2.479 7.3c-.055-.014-.114.002-.23.034l-.193.052a.4.4 0 0 1-.21-.772l.381-.103c.079-.021.118-.032.15-.054a.2.2 0 0 0 .048-.046c.023-.031.036-.07.06-.147l.007-.023c.067-.211.1-.317.072-.39a.22.22 0 0 0-.116-.12c-.071-.032-.178-.003-.392.055a.4.4 0 0 1-.21-.771l.445-.12c.179-.049.268-.073.313-.134a.2.2 0 0 0 .04-.088c.015-.074-.026-.157-.109-.322-.057-.113-.085-.17-.132-.202a.2.2 0 0 0-.068-.031c-.055-.015-.117 0-.24.032l-.144.037a.4.4 0 0 1-.2-.775l.32-.082c.102-.026.153-.04.19-.072l.017-.015c.035-.035.052-.085.085-.185zm3.281-.19c.7-.3 2.7 1 2.7 2.9s-2 3.2-2.7 2.9-1-1.524-1-2.9.3-2.6 1-2.9"/></svg>