<svg xmlns="http://www.w3.org/2000/svg" width="24" height="24" fill="currentColor" viewBox="0 0 10 10"><path d="M5.083 1.805c.406.042.681.52 1.233 1.475l1.351 2.34c.552.955.827 1.433.662 1.806a1 1 0 0 1-.083.144c-.24.33-.792.33-1.895.33H3.649c-1.103 0-1.655 0-1.895-.33a1 1 0 0 1-.083-.144c-.165-.373.11-.85.661-1.806l1.352-2.34c.552-.955.827-1.433 1.232-1.475a1 1 0 0 1 .167 0m-.125 1.198c-.202.021-.34.26-.616.737L3.061 5.96l-.18.317c-.15.277-.213.447-.151.586l.019.033.011.019.028.038.015.016.007.007.04.032-.002-.001c.102.065.264.085.507.09l.364.003h2.563c.55 0 .827 0 .947-.165l.042-.072c.083-.186-.056-.425-.331-.902L5.659 3.74c-.276-.478-.414-.716-.617-.738a.4.4 0 0 0-.084 0m.762 2.443c.207.358.31.537.248.677a.3.3 0 0 1-.032.054c-.09.124-.296.124-.71.124h-.451c-.414 0-.62 0-.71-.124a.3.3 0 0 1-.032-.054c-.062-.14.041-.32.248-.677l.226-.392c.207-.358.31-.537.462-.553a.3.3 0 0 1 .063 0c.152.016.255.195.462.553z"/></svg>