<svg xmlns="http://www.w3.org/2000/svg" width="24" height="24" fill="currentColor" viewBox="0 0 10 10"><path d="M5 1.3a.5.5 0 0 1 .5.5c0 .13 0 .194.022.243a.2.2 0 0 0 .064.087c.04.035.111.056.253.099.434.13.825.36 1.146.663.115.107.172.161.226.178.033.01.059.014.093.011.057-.004.117-.038.237-.106a.5.5 0 0 1 .58.806l-.081.06c-.122.07-.183.105-.215.153a.2.2 0 0 0-.036.082c-.013.056.004.134.04.29q.071.308.072.638l-.004.148a3 3 0 0 1-.072.511c-.035.147-.052.22-.041.274a.2.2 0 0 0 .04.095c.032.045.09.078.204.144a.5.5 0 0 1-.5.866c-.116-.068-.175-.101-.23-.106a.2.2 0 0 0-.099.011c-.053.017-.109.07-.221.174-.322.3-.712.529-1.145.658-.136.04-.204.061-.243.094a.23.23 0 0 0-.07.094c-.02.047-.02.109-.02.233a.5.5 0 0 1-1 0c0-.125 0-.188-.02-.235a.23.23 0 0 0-.07-.093c-.039-.033-.107-.053-.245-.095a2.9 2.9 0 0 1-1.148-.66c-.099-.093-.148-.14-.193-.157a.23.23 0 0 0-.126-.014c-.048.007-.1.036-.202.096a.5.5 0 1 1-.502-.865c.101-.059.152-.088.181-.126a.23.23 0 0 0 .051-.12c.007-.048-.01-.112-.041-.242a3 3 0 0 1-.08-.537l-.004-.148q.002-.346.08-.669c.032-.134.049-.2.04-.25a.23.23 0 0 0-.048-.113c-.03-.04-.083-.07-.188-.13a.5.5 0 0 1 .5-.866c.103.059.154.089.202.095a.23.23 0 0 0 .126-.015c.046-.017.095-.064.193-.157A2.9 2.9 0 0 1 4.16 2.23c.142-.043.214-.064.254-.1a.2.2 0 0 0 .064-.085c.022-.05.022-.115.022-.245a.5.5 0 0 1 .5-.5M3.875 6.066c-.215.125-.322.188-.339.308a.3.3 0 0 0-.002.05c.008.121.095.182.27.303q.147.102.311.178c.193.09.29.135.398.08a.3.3 0 0 0 .042-.027c.095-.075.095-.2.095-.449v-.07c0-.346 0-.52-.103-.595a.3.3 0 0 0-.046-.026c-.117-.051-.267.036-.566.212zm1.474.444c0 .25 0 .374.095.449.012.009.03.02.043.027.108.054.204.01.397-.08q.15-.07.286-.16c.177-.12.266-.179.275-.3a.3.3 0 0 0-.001-.05c-.015-.12-.121-.184-.334-.313l-.039-.024c-.301-.183-.452-.274-.57-.223a.3.3 0 0 0-.046.026c-.106.074-.106.25-.106.603zm1.044-1.9c-.295.168-.442.252-.457.377a.3.3 0 0 0-.001.052c.011.126.156.214.447.39l.09.055c.213.13.32.194.433.152a.3.3 0 0 0 .045-.022c.103-.064.115-.17.139-.382a2 2 0 0 0 .005-.404c-.019-.213-.028-.319-.13-.385a.3.3 0 0 0-.043-.024c-.112-.045-.22.017-.438.14zm-2.88-.028c-.22-.12-.329-.18-.44-.133a.3.3 0 0 0-.044.023c-.1.069-.108.175-.123.388a2 2 0 0 0 .004.338c.02.212.03.318.133.384a.3.3 0 0 0 .044.023c.113.044.22-.019.437-.145l.045-.027c.302-.177.453-.265.465-.393a.3.3 0 0 0-.001-.053c-.015-.127-.169-.212-.475-.38zM4.65 3.496c0-.249 0-.373-.095-.448a.3.3 0 0 0-.042-.027c-.108-.055-.205-.01-.398.08a2 2 0 0 0-.353.208c-.172.126-.258.19-.262.31 0 .015 0 .036.003.05.02.12.13.18.348.3l.096.053c.295.162.443.243.558.19a.3.3 0 0 0 .044-.025c.101-.075.101-.244.101-.582zm.7.087c0 .342 0 .513.102.588q.021.015.045.026c.116.052.264-.032.562-.201l.077-.044c.217-.123.326-.185.344-.305a.3.3 0 0 0 .002-.05c-.006-.121-.093-.183-.267-.306a2 2 0 0 0-.331-.192c-.193-.09-.29-.134-.397-.08a.3.3 0 0 0-.043.027c-.095.075-.095.2-.095.449z"/></svg>