<svg xmlns="http://www.w3.org/2000/svg" width="24" height="24" fill="currentColor" viewBox="0 0 10 10"><path d="M4.08 1.9c.677 0 1.015 0 1.24.192a1 1 0 0 1 .089.089c.19.224.191.563.191 1.239v.579c0 .234 0 .351.048.44a.4.4 0 0 0 .163.163c.088.048.206.047.44.047a.7.7 0 0 1 .699.7v.682a.419.419 0 1 0 .83-.08L7.5 4.527a.9.9 0 0 0-.067-.247.4.4 0 0 0-.089-.11c-.047-.04-.108-.067-.228-.118l-.34-.146a.383.383 0 0 1-.14-.6l.02-.023a.35.35 0 0 0-.032-.488.35.35 0 0 1 .47-.52l.54.487c.186.167.312.39.36.634l.47 2.423a1.117 1.117 0 1 1-2.215.213v-.356a.325.325 0 0 0-.65 0v1.21c0 .13.08.246.2.295a.478.478 0 0 1-.177.92H2.077a.477.477 0 0 1-.177-.92c.12-.049.2-.165.2-.295V3.42c0-.676 0-1.015.191-1.24a1 1 0 0 1 .09-.088c.224-.192.562-.193 1.239-.193zm-.43.6c-.376 0-.564 0-.69.105a1 1 0 0 0-.054.056c-.106.126-.106.313-.106.689s0 .564.106.689a1 1 0 0 0 .054.056c.126.105.314.105.69.105h.4c.376 0 .564 0 .69-.105a1 1 0 0 0 .054-.056c.106-.125.106-.314.106-.69s0-.562-.106-.688a1 1 0 0 0-.054-.056C4.614 2.5 4.426 2.5 4.05 2.5z"/></svg>