<svg xmlns="http://www.w3.org/2000/svg" width="24" height="24" fill="currentColor" viewBox="0 0 10 10"><path d="M5.47 3.225c.88.11.44-.44 1.32-.22.88.219 1.43 1.1.66 1.1l-.047.001c-.211.004-.336.22-.262.417l.024.063c.043.115.162.18.285.18a1.21 1.21 0 1 1-1.013.547c.091-.138.136-.31.078-.464-.09-.244-.386-.344-.556-.147a1.9 1.9 0 0 0-.319.535c-.201.511-.302.766-.405.85a.4.4 0 0 1-.066.044c-.115.066-.303.066-.679.066h-.14c-.117 0-.176 0-.198.002-.209.018-.2.014-.337.173a13 13 0 0 0-.22.307 1.21 1.21 0 1 1-.985-1.913c.165 0 .33-.127.271-.28-.217-.558-.98-.037-1.261-.6-.33-.661-.227-.991.436-.661.664.33 1.04.55 1.764.55.725 0 .77-.66 1.65-.55"/></svg>