<svg xmlns="http://www.w3.org/2000/svg" width="24" height="24" fill="currentColor" viewBox="0 0 10 10"><path d="M2.596 2.596a3.4 3.4 0 1 1 4.808 4.808 3.4 3.4 0 0 1-4.808-4.808m.884.883a.55.55 0 0 0 0 .778l.205.205c.24.24.359.359.37.506a.4.4 0 0 1 0 .063c-.011.147-.13.266-.37.506l-.206.205a.55.55 0 0 0 .778.778l.206-.206c.239-.239.358-.359.506-.37a.4.4 0 0 1 .062 0c.147.011.267.131.506.37l.206.206a.55.55 0 1 0 .778-.778l-.206-.205c-.24-.24-.359-.36-.37-.506a.4.4 0 0 1 0-.063c.011-.147.13-.267.37-.506l.205-.205a.55.55 0 0 0-.778-.778l-.205.205c-.239.24-.359.36-.506.37a.4.4 0 0 1-.062 0c-.148-.01-.267-.13-.506-.37l-.205-.205a.55.55 0 0 0-.778 0"/></svg>