<svg xmlns="http://www.w3.org/2000/svg" width="24" height="24" fill="currentColor" viewBox="0 0 10 10"><path d="M5.85 1.9a1.85 1.85 0 0 1 0 3.7h-.384c-.296 0-.444 0-.542.084a.4.4 0 0 0-.04.04c-.083.097-.083.245-.083.542V6.5c0 .233 0 .35.054.436a.35.35 0 0 0 .11.11c.085.054.202.054.436.054a.5.5 0 1 1 0 1H3.2a.5.5 0 0 1 0-1c.233 0 .35 0 .435-.054a.35.35 0 0 0 .11-.11C3.8 6.85 3.8 6.734 3.8 6.5v-3c0-.233 0-.35-.054-.436a.35.35 0 0 0-.11-.11c-.085-.054-.202-.054-.437-.054a.5.5 0 0 1-.499-.5l.01-.101a.5.5 0 0 1 .49-.4zm-.385 1c-.296 0-.444 0-.542.084a.4.4 0 0 0-.04.04c-.083.097-.083.245-.083.541v.552c0 .123 0 .185.015.235a.35.35 0 0 0 .233.232c.05.016.111.016.234.016h.569a.85.85 0 1 0-.001-1.7z"/></svg>