<svg xmlns="http://www.w3.org/2000/svg" width="24" height="24" fill="currentColor" viewBox="0 0 10 10"><path d="M5 1.7c2.167 0 1.974 1.182 1.46 2.141-.282.527-.424.79-.373.902.008.02.013.027.025.044.072.1.37.11.968.129 1.088.034 2.208.458 1.125 2.334s-2.01 1.118-2.584.193c-.316-.507-.473-.761-.595-.774a.2.2 0 0 0-.051 0c-.122.013-.28.267-.595.774-.574.925-1.5 1.683-2.584-.193-1.083-1.876.037-2.3 1.125-2.334.597-.02.896-.029.968-.129a.2.2 0 0 0 .025-.044c.05-.112-.09-.375-.373-.902-.514-.96-.707-2.141 1.46-2.141"/></svg>