<svg xmlns="http://www.w3.org/2000/svg" width="24" height="24" fill="currentColor" viewBox="0 0 10 10"><path d="M2.9 3.7c.688-.3 1.68-.4 2.7-.2.579.114.952.484 1.166.784.153.215.23.323.283.365.038.03.049.037.092.06.061.03.151.046.33.08l.68.131c.493.094.85.524.85 1.025 0 .21-.17.38-.38.38h-.24c-.076 0-.114 0-.138.016l-.011.008c-.023.019-.037.064-.065.156a.698.698 0 0 1-1.334 0c-.027-.091-.042-.137-.064-.156l-.01-.008c-.026-.016-.064-.016-.14-.016H3.38c-.075 0-.113 0-.137.016l-.011.008c-.023.019-.037.064-.065.156a.698.698 0 0 1-1.336 0c-.027-.091-.04-.137-.062-.156l-.01-.007c-.025-.016-.063-.018-.14-.02-.185-.005-.297-.023-.378-.092a.4.4 0 0 1-.045-.044c-.096-.112-.096-.282-.096-.62V5.3c0-.144 0-.216.02-.277a.4.4 0 0 1 .204-.236c.057-.028.128-.037.27-.057a1 1 0 0 0 .121-.023.3.3 0 0 0 .114-.067c.019-.018.042-.05.088-.113.168-.227.51-.622.983-.828m.584.342q-.219.057-.384.157c-.154.095-.28.21-.38.322-.138.153-.208.23-.174.338.004.013.013.031.02.042.058.098.176.098.411.098h.544c.169 0 .253 0 .31-.048l.022-.022c.048-.056.048-.141.048-.31v-.227c0-.192 0-.289-.065-.348l-.029-.022c-.074-.047-.157-.024-.323.02m1.403-.082c-.166-.012-.25-.017-.31.03l-.025.023c-.052.057-.052.143-.052.316v.29c0 .17 0 .254.048.31l.023.022C4.627 5 4.71 5 4.88 5h1.001c.217 0 .326 0 .385-.09a.2.2 0 0 0 .02-.039c.039-.1-.016-.176-.125-.328-.173-.239-.45-.493-.862-.543a8 8 0 0 0-.413-.039"/></svg>