<svg xmlns="http://www.w3.org/2000/svg" width="24" height="24" fill="currentColor" viewBox="0 0 10 10"><path d="M4.98 2.8c1.464 0 2.07.44 2.2.89l.26.87a.8.8 0 0 0 .103.244c.04.056.076.084.149.142.184.146.367.296.367.624 0 .294-.15.731-.249.989a.5.5 0 0 0-.027.25.6.6 0 0 1-1.186.183.26.26 0 0 0-.258-.222H3.642a.25.25 0 0 0-.248.215.6.6 0 1 1-1.187-.169.3.3 0 0 0-.019-.15c-.09-.222-.288-.755-.288-1.096 0-.328.183-.478.368-.624.072-.058.109-.086.149-.142l.017-.026c.037-.058.053-.11.085-.217l.261-.871c.13-.45.736-.89 2.2-.89M3 5.288a.3.3 0 0 0-.349.296v.046a.5.5 0 0 0 .526.48h.436a.357.357 0 0 0 .059-.71zm4.071 0-.672.112a.357.357 0 0 0 .059.71h.483a.5.5 0 0 0 .48-.48v-.046a.3.3 0 0 0-.35-.296M4.98 3.46c-.987 0-1.52.11-1.64.65-.087.256-.13.385-.093.484a.3.3 0 0 0 .093.129c.082.067.217.067.488.067H6.17c.297 0 .446 0 .534-.088a.3.3 0 0 0 .034-.04c.071-.101.045-.248-.007-.54L6.73 4.11c-.12-.54-.763-.65-1.75-.65"/></svg>