<svg xmlns="http://www.w3.org/2000/svg" width="24" height="24" fill="currentColor" viewBox="0 0 10 10"><path d="M2.013 6.08a.35.35 0 0 1 .275.642l-.7.3a.35.35 0 0 1-.276-.643zm5.516.183a.35.35 0 0 1 .46-.184l.7.3a.35.35 0 0 1-.276.643l-.7-.3a.35.35 0 0 1-.184-.46M3.6 3.5C4 3.4 4.7 4.2 4.7 5S4 6.6 3.6 6.5 3 5.676 3 5s.2-1.4.6-1.5m2.802 0c.4.1.6.824.6 1.5s-.2 1.4-.6 1.5-1.1-.7-1.1-1.5.7-1.6 1.1-1.5M2.15 4.65a.35.35 0 1 1 0 .7H1.4a.35.35 0 0 1 0-.7zm6.452 0a.35.35 0 0 1 0 .7h-.75a.35.35 0 1 1 0-.7zM1.129 3.162a.35.35 0 0 1 .459-.183l.7.3a.35.35 0 0 1-.275.643l-.7-.3a.35.35 0 0 1-.184-.46m7.284-.183a.35.35 0 0 1 .275.642l-.7.3a.35.35 0 0 1-.275-.643z"/></svg>