<svg xmlns="http://www.w3.org/2000/svg" width="24" height="24" fill="currentColor" viewBox="0 0 10 10"><path d="M2.7 4.2c.688-.3 1.38-.3 2.2-.2.544.067 1.071.354 1.364.54.129.081.194.123.243.141l.023.007c.05.016.118.023.254.037.646.066 1.394.215 1.915.568.393.267.272.584.141.772a.33.33 0 0 1-.143.134c-.06.027-.111.028-.212.028h-.19c-.057 0-.087 0-.108.01l-.009.006c-.02.013-.038.044-.074.107a.697.697 0 0 1-1.207 0c-.036-.063-.054-.094-.074-.107l-.01-.005c-.022-.01-.051-.01-.109-.01H3.295c-.057 0-.087-.001-.108.01l-.009.005c-.02.013-.038.044-.074.107a.697.697 0 0 1-1.264-.112c-.018-.05-.026-.075-.038-.089l-.006-.006a.3.3 0 0 0-.071-.039l-.253-.112c-.13-.058-.196-.086-.244-.131a.4.4 0 0 1-.108-.165c-.02-.063-.021-.134-.021-.277 0-.18 0-.272.021-.334a.34.34 0 0 1 .108-.167c.048-.044.153-.09.361-.182.331-.146.695-.354 1.11-.535m2.1.262c-.52-.1-1.211-.099-1.6.101-.242.125-.363.187-.385.222a.143.143 0 0 0 .042.203c.034.023.162.032.419.05l2.018.145c.418.03.627.045.67-.054a.2.2 0 0 0 .01-.039c.014-.106-.17-.197-.535-.38-.235-.116-.468-.215-.639-.248"/></svg>