<svg xmlns="http://www.w3.org/2000/svg" width="24" height="24" fill="currentColor" viewBox="0 0 10 10"><path d="M7.435 2.705a.4.4 0 0 1 .46.33c.124.747.222 1.394.247 1.937.024.539-.02 1.028-.222 1.432-.212.424-.572.704-1.064.872C6.379 7.437 5.764 7.5 5 7.5s-1.379-.063-1.855-.224c-.493-.168-.853-.447-1.066-.872-.202-.404-.245-.894-.22-1.432.024-.543.122-1.19.247-1.938a.4.4 0 0 1 .789.131l-.03.18c-.037.228-.056.342 0 .436l.028.039c.07.084.178.103.395.141q.208.038.46.068a.7.7 0 0 0 .228.01l.022-.007c.05-.015.126-.072.276-.187a1.194 1.194 0 0 1 1.45 0c.15.114.226.172.276.187l.023.006a.7.7 0 0 0 .227-.009q.252-.03.461-.068c.217-.038.326-.057.396-.141l.027-.039c.056-.093.038-.208 0-.436l-.028-.18a.4.4 0 0 1 .329-.46M3.122 4.987c-.195 0-.293 0-.379.079l-.033.036c-.072.092-.064.191-.049.39a1.5 1.5 0 0 0 .134.554c.1.2.272.358.607.472q.26.088.65.134c.194.022.291.034.384-.03l.037-.03c.08-.077.09-.161.105-.33l.002-.024c.008-.098.012-.147-.014-.211l-.012-.028c-.032-.061-.11-.12-.267-.235a1.2 1.2 0 0 1-.338-.387c-.086-.157-.13-.237-.176-.274l-.021-.015a.5.5 0 0 0-.191-.061 2.3 2.3 0 0 0-.439-.04m3.755 0c-.141 0-.291.011-.44.04a.5.5 0 0 0-.189.062l-.021.015c-.047.037-.09.116-.176.273-.084.152-.2.284-.339.387-.156.115-.235.174-.267.235l-.012.028c-.026.064-.023.113-.015.21q0 .014.003.026c.016.168.024.252.104.329.01.009.027.023.038.03.092.064.19.053.383.03q.391-.045.652-.134c.335-.114.506-.272.606-.472.07-.139.115-.318.134-.555.016-.198.023-.297-.049-.39l-.033-.035c-.086-.08-.184-.08-.379-.08M5 4.199a.601.601 0 1 0 0 1.202A.601.601 0 0 0 5 4.2"/></svg>