<svg xmlns="http://www.w3.org/2000/svg" width="24" height="24" fill="currentColor" viewBox="0 0 10 10"><path d="M5.164 1.803A3.2 3.2 0 0 1 8.201 5l-.005.164A3.2 3.2 0 0 1 5 8.2l-.165-.005a3.2 3.2 0 0 1-3.031-3.031L1.8 5c0-1.767 1.433-3.2 3.2-3.2zM3.341 5.412c-.29-.098-.435-.147-.564-.035a.4.4 0 0 0-.047.05c-.1.139-.045.268.067.526.214.493.59.9 1.06 1.154.218.118.328.178.47.103a.4.4 0 0 0 .053-.036c.122-.103.11-.23.081-.482-.047-.423-.213-.868-.66-1.092a4 4 0 0 0-.46-.188m3.882-.035c-.13-.112-.275-.064-.565.035A4 4 0 0 0 6.2 5.6c-.448.224-.614.67-.662 1.093-.028.252-.042.378.08.481.013.011.04.029.054.036.142.075.252.016.47-.102.47-.254.845-.661 1.06-1.154.112-.259.168-.388.068-.527a.4.4 0 0 0-.047-.05M5 4.4A.6.6 0 1 0 5 5.6.6.6 0 0 0 5 4.4m0-1.8a2.4 2.4 0 0 0-1.78.792c-.25.278-.376.417-.3.594a.3.3 0 0 0 .038.065c.118.152.352.097.82-.012a5.3 5.3 0 0 1 1.227-.145c.43.001.84.058 1.22.147.464.107.697.16.814.008a.3.3 0 0 0 .038-.065c.076-.176-.048-.315-.297-.592A2.39 2.39 0 0 0 5 2.6"/></svg>