<svg xmlns="http://www.w3.org/2000/svg" width="24" height="24" fill="currentColor" viewBox="0 0 10 10"><path d="M5.164 1.804A3.2 3.2 0 0 1 8.2 5l-.005.164A3.2 3.2 0 0 1 5 8.2l-.165-.005a3.2 3.2 0 0 1-3.031-3.03L1.8 5c0-1.767 1.433-3.2 3.2-3.2zM3.173 5.112c-.227-.037-.34-.056-.447.041a.4.4 0 0 0-.04.044c-.086.117-.057.226.002.442a2.4 2.4 0 0 0 1.324 1.546c.208.094.312.14.441.073a.4.4 0 0 0 .05-.032c.114-.092.112-.212.108-.45q0-.078-.007-.156c-.007-.105-.011-.159-.038-.212l-.012-.022c-.031-.05-.108-.106-.26-.217a1.2 1.2 0 0 1-.419-.552c-.067-.179-.1-.269-.143-.313q-.009-.01-.02-.02c-.045-.04-.095-.057-.193-.089a2.4 2.4 0 0 0-.346-.083m4.1.041c-.107-.097-.22-.08-.447-.042-.112.02-.23.046-.346.084-.098.032-.148.049-.194.09l-.02.019c-.042.044-.075.134-.142.313a1.2 1.2 0 0 1-.419.552c-.152.11-.228.166-.26.217l-.012.023a.5.5 0 0 0-.038.211 3 3 0 0 0-.007.156c-.004.238-.006.358.107.45.013.01.037.025.05.033.13.067.234.02.442-.074a2.4 2.4 0 0 0 1.324-1.546c.059-.216.09-.325.003-.442a.4.4 0 0 0-.04-.044M5 4.6a.6.6 0 1 0 0 1.2.6.6 0 0 0 0-1.2m0-2c-.831 0-1.563.423-1.993 1.065-.108.16-.162.241-.134.366.003.014.01.039.016.052.05.118.144.154.332.225q.189.073.435.135c.129.033.193.049.254.038l.027-.004c.06-.016.148-.085.323-.222a1.196 1.196 0 0 1 1.48 0c.174.137.261.206.322.222l.027.004c.061.01.126-.005.254-.038a4 4 0 0 0 .435-.135c.188-.072.282-.107.332-.225l.016-.052c.028-.125-.026-.206-.134-.367A2.4 2.4 0 0 0 5 2.6"/></svg>