<svg xmlns="http://www.w3.org/2000/svg" width="24" height="24" fill="currentColor" viewBox="0 0 10 10"><path d="M5.654 2.7c.418 0 .627 0 .767.117a1 1 0 0 1 .061.061.5.5 0 0 1 .101.267c.017.13.025.195.042.217.01.014.013.015.027.024.024.014.092.014.228.014h.906c.333 0 .5 0 .708.15.021.015.067.052.086.07.186.178.21.304.258.555.062.328.119.78.145 1.39.015.33.022.496-.074.614a.4.4 0 0 1-.044.046c-.113.1-.285.101-.626.101-.043 0-.065 0-.08.005a.09.09 0 0 0-.052.04.4.4 0 0 0-.033.096.598.598 0 0 1-1.136.037c-.034-.092-.05-.139-.072-.156l-.01-.007c-.025-.015-.062-.015-.135-.015H4.579c-.073 0-.11 0-.135.015l-.01.007c-.022.017-.039.064-.072.156a.598.598 0 0 1-1.125 0c-.033-.092-.049-.138-.071-.156l-.01-.007c-.025-.015-.062-.015-.135-.015H2.98c-.074 0-.111 0-.135.015l-.011.007c-.022.017-.038.064-.071.156a.599.599 0 0 1-1.128-.008c-.03-.088-.047-.133-.066-.15l-.008-.007c-.021-.015-.06-.02-.138-.03a.44.44 0 0 1-.36-.238C1 5.957 1 5.805 1 5.501V3.644c0-.418 0-.628.117-.767a1 1 0 0 1 .06-.06c.14-.118.35-.118.767-.118zm1.859 1.2c-.199 0-.299 0-.371.045a.3.3 0 0 0-.096.096C7 4.114 7 4.214 7 4.413v.117c0 .254 0 .381.072.465q.015.018.034.033c.084.072.21.072.464.072h.33c.16 0 .24 0 .301-.029a.3.3 0 0 0 .154-.167c.024-.062.017-.142.003-.301-.019-.23-.028-.344-.074-.433a.5.5 0 0 0-.252-.231c-.092-.039-.207-.04-.436-.04z"/></svg>