<svg xmlns="http://www.w3.org/2000/svg" width="24" height="24" fill="currentColor" viewBox="0 0 10 10"><path d="M7.786 3.4c.333 0 .5 0 .708.15.021.015.067.052.086.07.186.178.21.304.258.555.062.328.119.78.145 1.39.015.33.022.496-.074.614a.4.4 0 0 1-.044.046c-.113.1-.285.101-.626.101-.043 0-.065 0-.08.005a.09.09 0 0 0-.052.04.4.4 0 0 0-.033.096.598.598 0 0 1-1.136.037c-.034-.092-.05-.139-.072-.156l-.01-.007c-.025-.015-.062-.015-.135-.015H4.579c-.073 0-.11 0-.135.015l-.01.007c-.022.017-.039.064-.072.156a.598.598 0 0 1-1.125 0c-.033-.092-.049-.138-.071-.156l-.01-.007c-.025-.015-.062-.015-.135-.015H2.98c-.074 0-.111 0-.135.015l-.011.007c-.022.017-.038.064-.071.156a.597.597 0 0 1-1.144-.062l-.013-.052a.09.09 0 0 0-.08-.063h-.04A.5.5 0 0 1 1 5.838v-.047a.3.3 0 0 1 .292-.292h4.447c.338 0 .508 0 .62-.096a.4.4 0 0 0 .044-.045c.096-.112.097-.28.097-.619v-.96c0-.169 0-.254.048-.31l.021-.022c.056-.048.142-.048.31-.048zm-.273.5c-.2 0-.3 0-.372.045a.3.3 0 0 0-.095.096C7 4.114 7 4.214 7 4.413v.117c0 .254 0 .381.072.465q.015.018.034.033c.084.072.21.072.464.072h.33c.16 0 .24 0 .301-.029a.3.3 0 0 0 .154-.167c.024-.062.017-.142.003-.301-.019-.23-.028-.344-.074-.433a.5.5 0 0 0-.252-.231c-.092-.039-.207-.04-.436-.04z"/></svg>