<svg xmlns="http://www.w3.org/2000/svg" width="24" height="24" fill="currentColor" viewBox="0 0 10 10"><path d="M5.954 1.8c.626 0 .94 0 1.16.177q.046.038.088.082a1 1 0 0 1 .064.084c.15.237.224.355.253.385l.014.013c.03.03.066.05.137.093l.11.066c.105.063.17.177.17.3v.744c0 .11-.052.214-.14.28-.129.097-.193.145-.233.21a.4.4 0 0 0-.036.076c-.026.071-.023.153-.017.316.03.88.025 1.694-.074 1.973l-.001.002v.8a.6.6 0 0 1-1.2 0 .2.2 0 0 0-.2-.201h-2a.2.2 0 0 0-.2.2.6.6 0 0 1-1.199 0v-.576c0-.061 0-.093-.002-.116v-.011c-.004-.024-.024-.12-.065-.31-.081-.378-.096-1.053-.083-1.772.004-.185.006-.278-.028-.358l-.017-.034c-.042-.075-.115-.13-.26-.24L2.19 3.98a.35.35 0 0 1-.14-.28V3c0-.123.065-.237.17-.3l.109-.065a1 1 0 0 0 .133-.09l.013-.013c.029-.03.106-.15.26-.39a.825.825 0 0 1 .15-.164c.22-.178.534-.178 1.16-.178zM3.492 6.138a.355.355 0 1 0-.192.655l.127.003a.319.319 0 0 0 .172-.59zm3.657.302a.355.355 0 0 0-.543-.3l-.107.066a.319.319 0 0 0 .164.588h.127a.355.355 0 0 0 .36-.354m-2.6-.74a.3.3 0 0 0 0 .6h1a.3.3 0 0 0 0-.6zm-.3-1.1a.3.3 0 0 0 0 .599h1.6a.3.3 0 0 0 0-.6zm-.33-2.1c-.3 0-.452 0-.559.082a.4.4 0 0 0-.043.038c-.094.096-.114.247-.151.546l-.01.079c-.047.375-.07.564.025.693a.4.4 0 0 0 .045.051c.116.11.306.11.684.11h2.278c.38 0 .569 0 .685-.11a.4.4 0 0 0 .045-.05c.095-.13.071-.318.024-.694l-.01-.08c-.037-.298-.056-.449-.15-.545a.4.4 0 0 0-.044-.038C6.631 2.5 6.48 2.5 6.178 2.5z"/></svg>