<svg xmlns="http://www.w3.org/2000/svg" width="24" height="24" fill="currentColor" viewBox="0 0 10 10"><path d="M5.35 5a.7.7 0 0 1 .7-.7h.28c.159 0 .238 0 .307-.038l.029-.019c.064-.046.134-.2.276-.51a.45.45 0 0 1 .545-.241c.094.03.211.138.447.352l.417.38c.377.345.565.517.582.735a1 1 0 0 1 0 .082c-.017.218-.205.39-.582.735l-.417.38c-.236.215-.353.323-.447.352a.45.45 0 0 1-.545-.24c-.142-.31-.213-.465-.277-.511l-.029-.018c-.068-.04-.147-.04-.305-.04H6.05a.7.7 0 0 1-.7-.7m-4.282-.041c.016-.218.204-.39.582-.735l.417-.38c.235-.214.352-.322.446-.352a.45.45 0 0 1 .546.241c.141.31.212.464.275.51.013.01.016.011.03.019.068.038.147.038.306.038h.28a.7.7 0 1 1 0 1.4h-.28c-.158 0-.237 0-.306.039l-.029.018c-.063.046-.134.2-.276.51a.45.45 0 0 1-.546.241c-.094-.03-.211-.137-.446-.352l-.417-.38c-.378-.345-.566-.517-.582-.735a1 1 0 0 1 0-.082"/></svg>