<svg xmlns="http://www.w3.org/2000/svg" width="24" height="24" fill="currentColor" viewBox="0 0 10 10"><path d="M4.364 1.559c.144-.026.284.07.391.168q.07.064.172.128a.14.14 0 0 0 .151 0q.102-.064.172-.128c.107-.098.246-.193.389-.167a3.5 3.5 0 0 1 1.35.56c.118.083.15.248.156.392q.004.095.031.21v.002a.14.14 0 0 0 .107.106q.117.027.211.03c.144.007.306.039.388.157.276.4.47.86.56 1.357.026.14-.067.278-.163.383a1 1 0 0 0-.126.17l-.001.002a.14.14 0 0 0 0 .151q.064.102.128.171c.096.105.187.241.161.381-.09.499-.287.96-.565 1.36-.08.116-.24.148-.382.155a1 1 0 0 0-.21.03v.001a.14.14 0 0 0-.107.107 1 1 0 0 0-.031.21c-.006.142-.038.302-.155.382-.4.279-.862.475-1.36.565-.14.026-.277-.065-.382-.161a1 1 0 0 0-.17-.127h-.001a.14.14 0 0 0-.151 0 1 1 0 0 0-.172.128c-.105.096-.241.187-.381.162a3.5 3.5 0 0 1-1.357-.56c-.119-.081-.15-.245-.156-.39a1 1 0 0 0-.03-.209v-.001a.14.14 0 0 0-.108-.106 1 1 0 0 0-.212-.031c-.144-.007-.309-.038-.39-.157a3.5 3.5 0 0 1-.562-1.35c-.026-.143.07-.282.168-.39q.064-.068.127-.17a.14.14 0 0 0 0-.151 1 1 0 0 0-.128-.173c-.098-.107-.194-.247-.168-.39a3.5 3.5 0 0 1 .556-1.346c.083-.12.251-.151.397-.158q.095-.005.21-.03l.002-.001a.14.14 0 0 0 .106-.107q.027-.118.032-.212c.006-.146.037-.313.157-.396a3.5 3.5 0 0 1 1.346-.557M3.47 5.437c-.322-.036-.483-.053-.586.067a.4.4 0 0 0-.037.054c-.075.14-.012.26.113.502.218.419.562.762.98.98.242.126.363.188.503.113a.4.4 0 0 0 .053-.037c.12-.103.103-.263.068-.585l-.081-.746a.3.3 0 0 0-.266-.265zm3.646.067c-.104-.12-.264-.103-.586-.067l-.746.083a.3.3 0 0 0-.265.265l-.082.746c-.035.322-.053.483.067.586a.4.4 0 0 0 .053.036c.14.075.26.013.502-.113.419-.218.763-.561.98-.98.126-.242.188-.363.114-.502a.4.4 0 0 0-.037-.054M4.442 2.848c-.14-.075-.26-.013-.502.113-.42.218-.763.562-.98.981-.126.242-.189.363-.114.502a.4.4 0 0 0 .037.054c.103.12.264.103.586.067l.747-.082a.3.3 0 0 0 .266-.265l.08-.748c.036-.322.054-.483-.067-.586a.4.4 0 0 0-.053-.036m1.616.113c-.242-.126-.362-.188-.502-.113a.4.4 0 0 0-.053.036c-.12.103-.102.264-.067.586l.082.748c.015.14.126.25.265.265l.746.082c.321.036.482.053.586-.067a.4.4 0 0 0 .037-.054c.074-.139.012-.26-.114-.502a2.3 2.3 0 0 0-.98-.981"/></svg>