<svg xmlns="http://www.w3.org/2000/svg" width="24" height="24" fill="currentColor" viewBox="0 0 10 10"><path d="M5.167 1.75c.102-.115.243-.227.394-.203a3.5 3.5 0 0 1 1.488.617c.124.09.145.268.135.421a1 1 0 0 0 .004.154.09.09 0 0 0 .079.08q.082.007.153.003c.154-.01.332.011.422.136.312.433.527.94.614 1.49.023.151-.087.29-.2.392q-.053.047-.107.11a.09.09 0 0 0 0 .113q.052.063.106.11c.114.1.223.24.199.39A3.5 3.5 0 0 1 7.83 7.06c-.089.122-.262.142-.412.132a1 1 0 0 0-.151.002.09.09 0 0 0-.08.08 1 1 0 0 0-.004.152c.01.15-.013.325-.135.413a3.5 3.5 0 0 1-1.498.62c-.149.023-.286-.085-.386-.197a1 1 0 0 0-.108-.105.09.09 0 0 0-.114 0 1 1 0 0 0-.108.105c-.1.112-.238.218-.386.195a3.5 3.5 0 0 1-1.5-.62c-.122-.089-.143-.263-.133-.413a1 1 0 0 0-.002-.15.09.09 0 0 0-.08-.08 1 1 0 0 0-.153-.003c-.15.01-.324-.013-.412-.134a3.5 3.5 0 0 1-.621-1.496c-.024-.15.084-.288.198-.389a1 1 0 0 0 .105-.109.09.09 0 0 0 0-.113 1 1 0 0 0-.106-.11c-.114-.1-.222-.239-.199-.388.087-.551.301-1.06.613-1.494.09-.124.269-.145.422-.136q.07.005.152-.003a.09.09 0 0 0 .08-.08q.008-.082.004-.153c-.01-.153.01-.331.135-.421a3.5 3.5 0 0 1 1.487-.617c.151-.024.293.088.395.203q.046.054.11.106c.033.028.08.028.114 0q.063-.052.11-.106M5 2.701a2.3 2.3 0 1 0 0 4.6 2.3 2.3 0 0 0 0-4.6m-.99 1.31a1.4 1.4 0 1 1 1.98 1.981 1.4 1.4 0 0 1-1.98-1.981M5 4.3a.7.7 0 1 0 0 1.4.7.7 0 0 0 0-1.4"/></svg>