<svg xmlns="http://www.w3.org/2000/svg" width="24" height="24" fill="currentColor" viewBox="0 0 10 10"><path d="M5.233 1.658c.092-.071.204-.132.32-.113a3.5 3.5 0 0 1 1.5.621c.094.069.13.19.145.306q.01.083.039.185a.16.16 0 0 0 .107.107q.102.03.183.038c.116.014.238.05.307.145.316.435.534.946.622 1.5.019.116-.042.228-.114.32a1 1 0 0 0-.102.158.16.16 0 0 0 0 .152q.051.092.102.158c.072.091.133.204.114.319a3.5 3.5 0 0 1-.623 1.5c-.068.094-.19.131-.305.146q-.082.01-.184.039a.16.16 0 0 0-.107.107q-.029.101-.04.184c-.014.115-.051.237-.145.305a3.5 3.5 0 0 1-1.5.622c-.115.018-.227-.042-.319-.113a1 1 0 0 0-.157-.103.16.16 0 0 0-.153 0 1 1 0 0 0-.157.103c-.092.071-.205.131-.32.113a3.5 3.5 0 0 1-1.5-.623c-.094-.068-.13-.19-.145-.305a1 1 0 0 0-.039-.183.16.16 0 0 0-.107-.107 1 1 0 0 0-.184-.04c-.115-.014-.237-.052-.305-.146a3.5 3.5 0 0 1-.622-1.5c-.018-.114.042-.227.113-.318q.051-.066.102-.158a.16.16 0 0 0 0-.152 1 1 0 0 0-.102-.158c-.071-.092-.131-.204-.113-.32a3.5 3.5 0 0 1 .622-1.5c.068-.094.19-.13.306-.144q.083-.01.183-.04a.16.16 0 0 0 .107-.106q.029-.102.04-.185c.013-.115.05-.237.144-.306a3.5 3.5 0 0 1 1.5-.621c.115-.019.228.042.32.114q.066.051.157.102a.16.16 0 0 0 .153 0q.092-.05.157-.103m-.232 1.043a2.3 2.3 0 1 0 0 4.6 2.3 2.3 0 0 0 0-4.6m-.99 1.31A1.4 1.4 0 1 1 5.99 5.992a1.4 1.4 0 0 1-1.98-1.981"/></svg>