<svg xmlns="http://www.w3.org/2000/svg" width="24" height="24" fill="currentColor" viewBox="0 0 10 10"><path d="M5.176 1.604A3.4 3.4 0 0 1 8.4 5l-.004.175a3.4 3.4 0 0 1-3.395 3.224l-.176-.004a3.4 3.4 0 0 1-3.22-3.22L1.6 5c0-1.878 1.523-3.4 3.4-3.4zm.161 5.424c-.002.29-.003.434.104.525a.3.3 0 0 0 .048.033c.122.068.239.024.472-.065.27-.103.518-.248.738-.427.195-.158.292-.237.294-.377a.3.3 0 0 0-.005-.058c-.025-.138-.151-.21-.403-.353l-.393-.223c-.355-.202-.533-.303-.671-.241a.3.3 0 0 0-.054.031c-.123.09-.124.293-.127.702zm-1.912-.711c-.252.145-.377.218-.401.356a.3.3 0 0 0-.005.058c.003.14.101.218.297.375.207.166.44.302.69.4.233.093.349.139.472.072a.3.3 0 0 0 .048-.033c.108-.089.109-.234.11-.523l.004-.415c.002-.417.004-.625-.12-.716a.3.3 0 0 0-.054-.031c-.14-.063-.32.041-.681.25zM3.06 4.315c-.252-.142-.379-.213-.51-.163a.3.3 0 0 0-.052.025c-.119.075-.136.198-.171.446a2.7 2.7 0 0 0 .005.792c.039.247.058.37.178.442.014.01.036.02.052.026.131.047.257-.025.507-.17l.357-.206c.363-.21.545-.314.56-.467a.3.3 0 0 0 0-.063c-.018-.153-.2-.256-.566-.46zm3.507.188c-.361.208-.541.313-.557.465a.3.3 0 0 0 0 .063c.017.153.198.256.56.461l.365.208c.252.143.378.214.509.166a.3.3 0 0 0 .052-.026c.12-.073.138-.196.175-.444a2.7 2.7 0 0 0-.002-.804c-.037-.247-.056-.37-.176-.444a.3.3 0 0 0-.053-.025c-.131-.048-.257.024-.508.17zm-1.918-1.53c0-.289 0-.434-.108-.523a.3.3 0 0 0-.048-.033c-.123-.068-.24-.022-.472.068-.269.105-.517.252-.736.433-.193.16-.29.24-.291.38 0 .016.002.04.005.057.026.138.153.208.405.35l.396.222c.357.2.535.3.674.238a.3.3 0 0 0 .054-.032c.122-.09.122-.294.121-.703zm.7.438c0 .413.001.62.125.71a.3.3 0 0 0 .054.03c.14.063.319-.04.677-.247l.375-.217c.251-.145.376-.218.4-.355a.3.3 0 0 0 .005-.058c-.002-.14-.1-.219-.295-.376a2.7 2.7 0 0 0-.714-.414c-.233-.09-.35-.135-.472-.067a.3.3 0 0 0-.048.032c-.107.09-.107.235-.107.525z"/></svg>