<svg xmlns="http://www.w3.org/2000/svg" width="24" height="24" fill="currentColor" viewBox="0 0 10 10"><path d="M6.7 7.66c0 .508 0 .762-.144.93a1 1 0 0 1-.066.066c-.168.144-.422.144-.93.144H4.44c-.508 0-.762 0-.93-.144a1 1 0 0 1-.066-.066C3.3 8.422 3.3 8.168 3.3 7.66V6.39c0-.508 0-.762.144-.93a1 1 0 0 1 .066-.067c.168-.144.422-.144.93-.144h1.12c.508 0 .762 0 .93.144a1 1 0 0 1 .066.067c.144.168.144.422.144.93zm-.084-3.886a.5.5 0 0 1-.415.776H3.799a.5.5 0 0 1-.415-.776l.377-.567c.157-.235.235-.352.351-.422l.052-.028c.122-.057.263-.057.546-.057h.58c.283 0 .424 0 .546.057l.052.028c.116.07.194.187.35.422zM5.9 1.6a.4.4 0 0 1-.4.4h-1a.4.4 0 1 1 0-.8h1a.4.4 0 0 1 .4.4"/></svg>