<svg xmlns="http://www.w3.org/2000/svg" width="24" height="24" fill="currentColor" viewBox="0 0 10 10"><path d="M2.3 5.4c0-1.127.575-2.068 1.908-1.677.25.073.388.33.38.59l-.001.042c-.005.189-.19.35-.337.232a.4.4 0 0 0-.5.624c.364.291.818.338 1.25.338s.887-.047 1.25-.338a.4.4 0 1 0-.506-.619c-.162.125-.362-.051-.356-.256a.67.67 0 0 1 .503-.64c1.262-.315 1.808.61 1.809 1.704 0 1.23-1.297 3.283-2.443 2.417a.44.44 0 0 0-.515 0C3.596 8.684 2.3 6.635 2.3 5.4m3.733-3.5a.156.156 0 0 1 .162.16c-.002.218-.05.624-.346.92-.295.295-.701.344-.92.346a.156.156 0 0 1-.16-.162c.005-.217.059-.617.353-.912.295-.294.694-.347.91-.352"/></svg>