<svg xmlns="http://www.w3.org/2000/svg" width="24" height="24" fill="currentColor" viewBox="0 0 10 10"><path d="M7.373 3.2c.559 0 .839 0 1.018.21.021.025.05.067.066.095.136.242.056.46-.104.895-.343.932-.952 1.389-1.4 1.608-.278.137-.417.206-.462.283l-.018.035c-.035.082-.013.206.032.453.038.208.057.312.016.389a.3.3 0 0 1-.065.078c-.069.054-.174.054-.386.054H3.93c-.212 0-.318 0-.386-.054a.3.3 0 0 1-.065-.077c-.041-.077-.022-.182.016-.39.045-.247.067-.37.032-.453l-.018-.035c-.045-.077-.185-.146-.463-.283-.447-.22-1.056-.676-1.399-1.608-.16-.435-.24-.653-.104-.895a1 1 0 0 1 .065-.094c.18-.211.46-.211 1.02-.211z"/></svg>