<svg xmlns="http://www.w3.org/2000/svg" width="24" height="24" fill="currentColor" viewBox="0 0 10 10"><path d="M3.5 4.9c.4-1.1 2.6-1.1 3 0S6 8.3 5 8.3c-.483 0-.94-.537-1.241-1.216-.08-.18-.12-.27-.077-.414l.024-.06c.066-.133.14-.164.289-.226q.105-.043.218-.076a2.8 2.8 0 0 1 .64-.107l.038-.001h.01l.08-.01A.4.4 0 0 0 4.9 5.4h-.027a2 2 0 0 0-.257.019 3.6 3.6 0 0 0-.63.123c-.277.081-.6-.094-.554-.38q.023-.139.067-.261M5 1.7c.185 0 .357.1.45.26l.098.173c.082.144.269.189.407.097l.11-.074a.4.4 0 0 1 .613.422l-.069.3c-.083.366-.124.549-.226.615a.3.3 0 0 1-.046.025c-.112.048-.324-.034-.747-.197A1.7 1.7 0 0 0 5 3.2c-.202 0-.405.05-.59.121-.424.163-.636.245-.748.197a.3.3 0 0 1-.045-.025c-.102-.066-.144-.249-.227-.615l-.068-.3a.4.4 0 0 1 .612-.422l.11.074a.287.287 0 0 0 .408-.097l.099-.173A.52.52 0 0 1 5 1.7"/></svg>