<svg xmlns="http://www.w3.org/2000/svg" width="24" height="24" fill="currentColor" viewBox="0 0 10 10"><path d="M6.046 3.918c.082-.002.167.045.335.139.169.093.254.14.295.21a.3.3 0 0 1 .041.157c-.001.082-.052.164-.152.329L4.303 8.45a.313.313 0 0 1-.547-.303L5.693 4.27c.086-.172.13-.259.199-.303q.071-.046.154-.048m-1.925-.75c.081-.013.171.022.351.09.18.07.27.105.321.17a.3.3 0 0 1 .063.148c.01.082-.028.17-.105.347L3.026 7.899a.313.313 0 0 1-.583-.223l1.378-4.11c.061-.182.092-.274.154-.328a.3.3 0 0 1 .146-.07m2.695-.899c.111-.024.228.04.462.17.233.129.35.194.388.301l.012.047c.02.112-.05.226-.188.454-.13.211-.194.317-.295.353l-.045.011c-.106.02-.214-.04-.43-.16s-.324-.18-.363-.28l-.014-.044c-.024-.105.031-.215.142-.436.12-.24.18-.36.285-.402zm-2.161-.84c.106-.04.231.008.48.103.25.096.374.144.427.245l.018.044c.036.108-.017.232-.124.477-.098.227-.147.34-.243.39l-.042.017c-.102.034-.217-.01-.448-.099-.23-.088-.346-.133-.4-.226l-.019-.041c-.038-.1.001-.218.08-.452.085-.254.128-.381.227-.438z"/></svg>