<svg xmlns="http://www.w3.org/2000/svg" width="24" height="24" fill="currentColor" viewBox="0 0 10 10"><path d="M6.197 2.1c.23 0 .424.171.453.4l.004.028a.425.425 0 0 0 .421.372h.118c.17 0 .307.137.307.307v.265c0 .259-.157.49-.397.586a.19.19 0 0 0-.117.152L6.63 6.909c-.059.446-.088.67-.23.812a1 1 0 0 1-.064.057c-.16.122-.386.122-.836.122h-1c-.45 0-.675 0-.836-.122a1 1 0 0 1-.065-.057c-.142-.143-.171-.366-.23-.812l-.354-2.7a.19.19 0 0 0-.118-.15.63.63 0 0 1-.397-.587v-.265c0-.17.137-.307.307-.307h.19c.23 0 .425-.172.453-.4a.456.456 0 0 1 .454-.4z"/></svg>