<svg xmlns="http://www.w3.org/2000/svg" width="24" height="24" fill="currentColor" viewBox="0 0 10 10"><path d="M4.947 4.514c.15-.144.434-.114.562.05l.034.04c.192.226.476.396.827.396.35 0 .635-.17.827-.396.085-.1.28-.055.267.076-.057.594-.245 1.224-.507 1.693-.696 1.24-2.66 2.195-3.819 1.384s-1.128-2.34.354-2.602c.731-.129 1.167-.367 1.455-.641m.858 1.753a.35.35 0 0 0-.493.004l-.004.003-.014.015-.067.059c-.059.05-.145.118-.249.186-.215.14-.477.262-.738.27a.35.35 0 0 0 .022.7c.446-.015.838-.212 1.1-.384.135-.088.245-.175.321-.24q.058-.05.09-.082l.035-.033v-.001h.001l.001-.001.045-.056a.35.35 0 0 0-.05-.44m.74-4.262c.268.023.343.205.35.448.005.17.008.255.035.3l.013.018c.032.042.122.08.303.156.521.22.706.759.437.984-.325.273-.281-.225-.58-.252s-.144.69-.759.637c-.615-.054-.365-.735-.636-.759-.272-.023-.342.472-.615.147-.226-.269.05-.77.606-.894.188-.042.283-.064.322-.099.008-.007.01-.008.017-.016.034-.04.051-.122.086-.285.05-.237.153-.408.42-.385"/></svg>