<svg xmlns="http://www.w3.org/2000/svg" width="24" height="24" fill="currentColor" viewBox="0 0 10 10"><path d="M7.644 1.467a.58.58 0 0 1 .251.286c.052.133.078.2.09.215l.007.006c.014.013.082.04.216.091a.58.58 0 0 1 .285.251c.199.332-.1.788-.487.843l-.236.017a1 1 0 0 0-.276.086c-.2.094-.301.142-.343.26a.3.3 0 0 0-.013.05c-.02.125.071.25.254.5.123.17.19.32.203.484a1 1 0 0 1 0 .158c-.03.367-.328.666-.926 1.264l-.707.707c-.598.598-.897.898-1.265.927a1 1 0 0 1-.158 0 .9.9 0 0 1-.468-.194c-.257-.184-.387-.276-.515-.25a.3.3 0 0 0-.052.016c-.121.05-.16.15-.237.353a1 1 0 0 0-.052.194l-.017.236c-.055.387-.511.685-.843.487a.57.57 0 0 1-.25-.286c-.052-.134-.078-.202-.09-.216l-.007-.006c-.015-.013-.082-.039-.215-.09a.58.58 0 0 1-.286-.251c-.212-.354.141-.848.565-.849a1 1 0 0 0 .351-.063c.202-.078.304-.116.353-.237a.3.3 0 0 0 .015-.053c.026-.128-.066-.257-.25-.515a.9.9 0 0 1-.193-.467 1 1 0 0 1 0-.158c.03-.367.33-.667.927-1.265l.707-.707c.598-.598.897-.897 1.265-.926q.079-.006.157 0c.164.013.315.08.484.204.25.182.375.274.5.253a.3.3 0 0 0 .05-.012c.119-.042.166-.143.26-.344a1 1 0 0 0 .098-.432c0-.424.495-.778.848-.567"/></svg>