<svg xmlns="http://www.w3.org/2000/svg" width="24" height="24" fill="currentColor" viewBox="0 0 10 10"><path d="M8.075 3.239c.531.531.797.797.818 1.178.003.048.002.115-.003.163-.041.38-.286.6-.774 1.042-.863.779-2.09 1.582-3.207 1.22-.246-.08-.369-.12-.45-.102-.014.003-.022.007-.035.011-.079.03-.135.1-.249.242-.25.314-.34.542-.3.814.07.494-.567.99-.99.707a.66.66 0 0 1-.272-.333 2 2 0 0 0-.105-.275c-.004-.005 0-.002-.006-.006a2 2 0 0 0-.275-.105.66.66 0 0 1-.332-.27c-.283-.425.212-1.062.707-.991.27.038.499-.051.812-.302.142-.113.213-.17.242-.248l.01-.036c.02-.081-.02-.204-.1-.45-.363-1.117.442-2.342 1.22-3.205.442-.49.662-.735 1.042-.775.047-.005.114-.006.162-.004.381.022.647.287 1.179.819z"/></svg>