<svg xmlns="http://www.w3.org/2000/svg" width="24" height="24" fill="currentColor" viewBox="0 0 10 10"><path d="M4.018 3.538c.1-.133.15-.2.225-.231l.033-.012c.078-.022.138-.007.258.024.332.086.637.265.883.508.078.077.118.116.14.18l.01.028c.016.066 0 .145-.03.303-.223 1.13.515 1.941.902 2.499.245.353.337.572.304.763a.2.2 0 0 1-.023.063.5.5 0 0 1-.063.085c-.032.03-.051.04-.09.06-.348.177-.762.28-1.25.28-3.799 0-4.3-3.2-2.5-3.7.59-.164.93-.488 1.201-.85m3.11.44c.247.015.51.094.755.269a.4.4 0 0 1 .146.15c.027.055.03.103.034.2.03.631-.06 1.283-.295 1.85-.062.148-.092.222-.135.264a.296.296 0 0 1-.373.04c-.05-.032-.116-.126-.246-.314-.488-.704-1.001-1.265-.757-2.103a.33.33 0 0 1 .072-.148c.036-.04.056-.051.096-.073.16-.085.409-.155.703-.136M4.12 5.71a.7.7 0 1 0-1.29.547.7.7 0 0 0 1.29-.547m2.198-3.822c.528 0 .962.357 1.267.9.026.047.039.07.045.085.087.205-.04.407-.262.417l-.194-.01a2.2 2.2 0 0 0-.666.06c-.235.06-.353.09-.417.079l-.028-.007c-.062-.017-.148-.089-.319-.232a3 3 0 0 0-.264-.196c-.371-.242-.557-.363-.562-.52 0-.02.002-.044.005-.064.03-.154.163-.214.43-.333.251-.112.563-.18.965-.18"/></svg>