<svg xmlns="http://www.w3.org/2000/svg" width="24" height="24" fill="currentColor" viewBox="0 0 10 10"><path d="M5.093 2.29c.442.041.758.465 1.391 1.312 1.303 1.743 2.008 3.105.678 3.688-.414.182-.62.272-.872.146a1 1 0 0 1-.1-.062c-.222-.172-.231-.458-.251-1.03l-.014-.41c-.011-.328-.017-.491-.112-.6a.4.4 0 0 0-.044-.042C5.658 5.2 5.494 5.2 5.166 5.2h-.332c-.328 0-.492 0-.602.092a.4.4 0 0 0-.044.043c-.096.108-.102.271-.114.599l-.014.41c-.02.572-.03.858-.252 1.03a1 1 0 0 1-.099.062c-.252.126-.458.036-.872-.146-1.33-.584-.623-1.945.679-3.688.633-.847.949-1.27 1.391-1.312.06-.006.126-.006.186 0"/></svg>