<svg xmlns="http://www.w3.org/2000/svg" width="24" height="24" fill="currentColor" viewBox="0 0 10 10"><path d="M6.3 3.668c1 0 1.3.832 1.3 1.432 0 2.4-2.1 3-2.6 3s-2.6-.6-2.6-3c0-.6.3-1.432 1.3-1.432.444 0 .75.139.953.292.323.312.41.618.398.868a1.15 1.15 0 0 1-.483.846.4.4 0 0 0 .465.652c.434-.31.784-.842.817-1.456a1.7 1.7 0 0 0-.097-.667c-.069-.198-.104-.297-.068-.371l.017-.03c.048-.067.122-.08.27-.106q.15-.027.328-.028M5.933 1.9a.156.156 0 0 1 .162.16c-.002.219-.05.624-.346.92-.296.295-.702.344-.92.346a.156.156 0 0 1-.16-.163c.005-.216.058-.615.352-.91.295-.294.695-.348.912-.353"/></svg>