<svg xmlns="http://www.w3.org/2000/svg" width="24" height="24" fill="currentColor" viewBox="0 0 10 10"><path d="M8.43 4.3c.215 0 .324 0 .411.146a.4.4 0 0 1 .028.061c.053.161.01.211-.077.31-.476.547-1.637.785-2.073.857a.215.215 0 0 0-.18.196c-.018.238-.027.356-.098.433l-.033.031c-.082.066-.201.066-.439.066H4.031c-.238 0-.357 0-.439-.066l-.033-.03c-.071-.078-.08-.197-.097-.434a.215.215 0 0 0-.18-.196c-.436-.072-1.598-.31-2.074-.857-.086-.1-.13-.149-.077-.31a.4.4 0 0 1 .028-.061c.088-.146.196-.146.412-.146z"/></svg>