<svg xmlns="http://www.w3.org/2000/svg" width="24" height="24" fill="currentColor" viewBox="0 0 10 10"><path d="M3.759 5.4c.187-.245.28-.368.353-.499a2 2 0 0 0 .24-.784c.013-.149.004-.302-.014-.61l-.01-.174a.09.09 0 0 0-.043-.072.6.6 0 0 1-.285-.51v-.13c0-.321.26-.582.582-.582h.825c.327 0 .593.266.593.593v.136c0 .199-.1.384-.264.494a.09.09 0 0 0-.04.067l-.012.16c-.024.304-.036.456-.025.603a2 2 0 0 0 .245.83c.071.13.164.25.349.492l.182.238c.674.883 1.012 1.324.925 1.692a.8.8 0 0 1-.16.324c-.24.293-.796.293-1.906.293h-.56c-1.135 0-1.703 0-1.943-.305a.8.8 0 0 1-.147-.297c-.096-.376.248-.827.938-1.728z"/></svg>