<svg xmlns="http://www.w3.org/2000/svg" width="24" height="24" fill="currentColor" viewBox="2.00 2.00 6.00 6.00"><path d="M2.5 2a.5.5 0 0 1 .5.5v3.36c0 .508 0 .761.144.93a1 1 0 0 0 .066.066C3.38 7 3.632 7 4.14 7H7.5a.5.5 0 0 1 0 1H2.7a.7.7 0 0 1-.7-.7V2.5a.5.5 0 0 1 .5-.5m5 0a.5.5 0 0 1 .5.5c0 .735-.228 1.254-.676 1.577-.394.285-.897.359-1.242.416-.405.068-.652.119-.82.24C5.147 4.816 5 4.985 5 5.5a.5.5 0 0 1-1 0c0-.735.228-1.254.676-1.577.394-.285.897-.359 1.242-.416.405-.068.652-.119.82-.24C6.853 3.184 7 3.015 7 2.5a.5.5 0 0 1 .5-.5"/></svg>