<svg xmlns="http://www.w3.org/2000/svg" width="24" height="24" fill="currentColor" viewBox="2.00 2.00 6.00 6.00"><path d="M2.5 2a.5.5 0 0 1 .5.5v3.36c0 .508 0 .761.144.93a1 1 0 0 0 .066.066C3.38 7 3.632 7 4.14 7H7.5a.5.5 0 0 1 0 1H2.7a.7.7 0 0 1-.7-.7V2.5a.5.5 0 0 1 .5-.5m5 0a.5.5 0 0 1 .5.5c0 .859-.21 1.533-.552 2.052-.34.517-.792.849-1.23 1.06a4 4 0 0 1-1.569.386Q4.577 6 4.534 6h-.05a.5.5 0 0 1 .033-1h.016l.075-.001a3.003 3.003 0 0 0 1.174-.287c.312-.15.61-.375.832-.711.22-.334.386-.81.386-1.501a.5.5 0 0 1 .5-.5"/></svg>