<svg xmlns="http://www.w3.org/2000/svg" width="24" height="24" fill="currentColor" viewBox="2.00 2.00 6.00 6.00"><path d="M2.5 2a.5.5 0 0 1 .5.5v3.36c0 .508 0 .761.144.93a1 1 0 0 0 .066.066C3.38 7 3.632 7 4.14 7H7.5a.5.5 0 0 1 0 1H2.7a.7.7 0 0 1-.7-.7V2.5a.5.5 0 0 1 .5-.5m5.014.001h.003l.1.013a.501.501 0 0 1-.033.98l-.1.006h-.017q-.025 0-.075.002a3.004 3.004 0 0 0-1.174.286c-.312.15-.61.375-.832.711C5.166 4.333 5 4.809 5 5.5a.5.5 0 0 1-1 0c0-.859.21-1.533.552-2.052.34-.516.792-.849 1.23-1.06a4 4 0 0 1 1.569-.385L7.466 2h.045z"/></svg>