<svg xmlns="http://www.w3.org/2000/svg" width="24" height="24" fill="currentColor" viewBox="2.02 2.02 5.96 5.96"><path d="M4.151 3.02c.26-.556.389-.834.563-.929a.6.6 0 0 1 .572 0c.174.095.304.373.563.928.128.274.192.411.279.53q.137.187.323.323c.119.087.256.151.53.279.555.26.833.389.928.563a.6.6 0 0 1 0 .572c-.095.174-.373.304-.928.563-.274.128-.411.192-.53.279a1.5 1.5 0 0 0-.323.323c-.087.119-.151.256-.279.53-.26.555-.389.833-.563.928a.6.6 0 0 1-.572 0c-.174-.095-.304-.373-.563-.928-.128-.274-.192-.411-.279-.53a1.5 1.5 0 0 0-.323-.323c-.119-.087-.256-.151-.53-.279-.555-.26-.833-.389-.928-.563a.6.6 0 0 1 0-.572c.095-.174.373-.304.928-.563.274-.128.411-.192.53-.279a1.5 1.5 0 0 0 .323-.323c.087-.119.151-.256.279-.53"/></svg>