<svg xmlns="http://www.w3.org/2000/svg" width="24" height="24" fill="currentColor" viewBox="2.00 2.37 6.00 6.00"><path d="M7.121 7.121a.47.47 0 0 1-.684-.021l-.465-.527a.426.426 0 0 1 .6-.601l.528.465a.47.47 0 0 1 .021.684M5.99 4.01a.426.426 0 0 1-.018-.583l.465-.527a.47.47 0 1 1 .663.663l-.527.465a.426.426 0 0 1-.583-.018M2.879 7.121a.47.47 0 0 1 .021-.684l.527-.465a.426.426 0 0 1 .601.6l-.465.528a.47.47 0 0 1-.684.021M4.01 4.01a.426.426 0 0 1-.583.018L2.9 3.563a.47.47 0 1 1 .663-.663l.465.527a.426.426 0 0 1-.018.583M6.4 5c0-.225.175-.411.4-.425L7.5 4.53a.47.47 0 1 1 0 .938l-.702-.044A.426.426 0 0 1 6.4 5M5 8a.47.47 0 0 1-.469-.5l.044-.701a.426.426 0 0 1 .85 0l.044.702A.47.47 0 0 1 5 8M2 5a.47.47 0 0 1 .5-.47l.7.045a.426.426 0 0 1 0 .85l-.7.044a.47.47 0 0 1-.5-.47"/></svg>