<svg xmlns="http://www.w3.org/2000/svg" width="24" height="24" fill="currentColor" viewBox="2.02 1.80 5.96 5.96"><path d="M4.088 2.384c.415-.311.623-.467.86-.482a1 1 0 0 1 .103 0c.238.015.446.17.861.482l.64.48.654.46c.424.299.637.448.725.67a1 1 0 0 1 .032.098c.058.23-.026.476-.193.967l-.26.757-.235.764c-.152.496-.229.744-.412.896a1 1 0 0 1-.084.06c-.201.128-.46.124-.98.116L5 7.64l-.8.012c-.518.008-.778.012-.98-.115a1 1 0 0 1-.083-.06c-.183-.153-.26-.401-.412-.897l-.236-.764-.258-.757c-.168-.49-.252-.736-.193-.967a1 1 0 0 1 .031-.098c.088-.222.3-.371.725-.67l.654-.46z"/></svg>