<svg xmlns="http://www.w3.org/2000/svg" width="24" height="24" fill="currentColor" viewBox="2.14 2.14 5.71 5.71"><path d="M3.914 2.908c.483-.493.724-.739 1.022-.763a1 1 0 0 1 .128 0c.298.024.54.27 1.022.763l.498.508.508.498c.493.483.739.724.763 1.022a1 1 0 0 1 0 .128c-.024.298-.27.54-.763 1.022l-.508.498-.498.508c-.483.493-.724.739-1.022.763a1 1 0 0 1-.128 0c-.298-.024-.54-.27-1.022-.763l-.498-.508-.508-.498c-.493-.483-.739-.724-.763-1.022a1 1 0 0 1 0-.128c.024-.298.27-.54.763-1.022l.508-.498z"/></svg>