<svg xmlns="http://www.w3.org/2000/svg" width="24" height="24" fill="currentColor" viewBox="2.01 1.79 5.99 5.99"><path d="M6.306 6.611c.139.218.208.327.18.45a.3.3 0 0 1-.016.05c-.049.115-.154.157-.364.24a3 3 0 0 1-2.201.003c-.21-.082-.316-.124-.366-.24a.3.3 0 0 1-.016-.05c-.028-.121.04-.23.179-.449l.112-.177c.121-.192.182-.288.258-.325l.034-.014c.08-.028.232.006.537.073a1.66 1.66 0 0 0 .72 0c.305-.07.457-.103.537-.076.015.005.02.007.034.014.076.037.137.133.26.324zM5 3.661a.9.9 0 1 1 0 1.8.9.9 0 0 1 0-1.8M3.986 2.587c.104.202.155.303.149.388l-.005.036c-.017.083-.123.197-.336.425a1.65 1.65 0 0 0-.365.622c-.095.297-.143.445-.208.5l-.029.023c-.07.046-.184.05-.41.058l-.21.008c-.258.009-.387.013-.478-.073a.3.3 0 0 1-.035-.04c-.075-.1-.058-.212-.023-.436A3 3 0 0 1 3.15 2.2c.178-.14.267-.21.391-.193a.3.3 0 0 1 .052.01c.12.038.179.153.297.383zm2.118-.19c.117-.23.176-.345.295-.383a.3.3 0 0 1 .052-.012c.124-.016.213.053.392.192a3 3 0 0 1 1.12 1.894c.035.223.053.335-.022.436a.3.3 0 0 1-.034.04c-.091.086-.22.082-.478.074l-.21-.007c-.226-.007-.34-.01-.41-.057l-.03-.022c-.065-.055-.113-.203-.21-.5a1.66 1.66 0 0 0-.366-.62c-.214-.228-.32-.341-.337-.425l-.006-.036c-.006-.084.045-.186.148-.388z"/></svg>