<svg xmlns="http://www.w3.org/2000/svg" width="24" height="24" fill="currentColor" viewBox="2.10 2.00 5.80 5.80"><path d="M3.4 5.2a1.3 1.3 0 1 1 0 2.6 1.3 1.3 0 0 1 0-2.6m3.55.1c.423 0 .634 0 .775.12q.03.024.055.055c.12.14.12.352.12.775v.5c0 .423 0 .635-.12.775a1 1 0 0 1-.055.056c-.14.12-.352.119-.775.119h-.5c-.422 0-.634 0-.774-.12a1 1 0 0 1-.056-.055c-.12-.14-.12-.352-.12-.775v-.5c0-.423 0-.635.12-.775a1 1 0 0 1 .056-.056c.14-.119.352-.119.774-.119zM5.147 2.002c.257.025.431.327.78.93l.078.136c.349.604.523.906.416 1.14a.5.5 0 0 1-.047.082c-.15.21-.499.21-1.196.21h-.156c-.697 0-1.046 0-1.196-.21a.5.5 0 0 1-.047-.081c-.107-.235.068-.537.416-1.141l.077-.136c.35-.604.524-.905.78-.93a.5.5 0 0 1 .095 0"/></svg>