<svg xmlns="http://www.w3.org/2000/svg" width="24" height="24" fill="currentColor" viewBox="2.12 1.93 5.76 5.76"><path d="M3.952 4.23c.384-1.258.576-1.887.917-1.963a.6.6 0 0 1 .262 0c.34.076.533.705.917 1.963.078.255.117.382.179.499q.026.048.054.095c.07.111.162.208.343.403.897.962 1.346 1.443 1.241 1.776a.6.6 0 0 1-.13.227c-.237.257-.878.109-2.16-.187-.259-.06-.388-.09-.52-.095a1 1 0 0 0-.11 0c-.132.005-.261.035-.52.095-1.282.296-1.923.444-2.16.187a.6.6 0 0 1-.13-.227c-.105-.333.344-.814 1.241-1.776.182-.195.272-.292.343-.403q.03-.047.055-.095c.06-.117.1-.244.178-.499"/></svg>