<svg xmlns="http://www.w3.org/2000/svg" width="24" height="24" fill="currentColor" viewBox="1.50 1.50 7.00 7.00"><path d="M5.123 1.506A1.2 1.2 0 0 1 6.2 2.7l-.007.122a1.2 1.2 0 0 1-.737.987.1.1 0 0 0-.057.091v.05c0 .187 0 .28.04.35a.3.3 0 0 0 .11.11c.07.04.163.04.35.04a.35.35 0 1 1 0 .7c-.187 0-.28 0-.35.04a.3.3 0 0 0-.11.11c-.04.069-.04.162-.04.35v1.41c0 .285 0 .428.102.517a.3.3 0 0 0 .045.034c.117.068.232.03.462-.044.311-.102.498-.253.62-.418q.103-.138.168-.313c.066-.17-.096-.343-.21-.485a.4.4 0 0 1 .063-.563l.5-.4c.151-.121.227-.182.283-.198a.3.3 0 0 1 .37.195c.019.057.011.153-.004.346-.049.636-.125 1.352-.528 1.895-.43.58-1.155.874-2.27.874-1.116 0-1.841-.295-2.272-.874-.403-.543-.478-1.26-.527-1.895-.015-.192-.023-.288-.005-.344a.3.3 0 0 1 .371-.196c.056.016.132.076.282.197l.5.4a.4.4 0 0 1 .063.563c-.115.142-.276.316-.21.486q.066.174.169.312c.122.165.308.316.62.418.229.075.344.112.46.044a.3.3 0 0 0 .046-.034c.102-.09.102-.232.102-.516V5.649c0-.187 0-.28-.04-.35a.3.3 0 0 0-.11-.11c-.07-.04-.163-.04-.35-.04a.35.35 0 1 1 0-.699c.187 0 .28 0 .35-.04a.3.3 0 0 0 .11-.11c.04-.07.04-.163.04-.35V3.9a.1.1 0 0 0-.058-.092c-.4-.165-.69-.539-.736-.986L3.8 2.7A1.2 1.2 0 0 1 5 1.5zM5 2.2a.5.5 0 1 0 0 1 .5.5 0 0 0 0-1"/></svg>