<svg xmlns="http://www.w3.org/2000/svg" width="24" height="24" fill="currentColor" viewBox="1.77 1.49 6.52 6.52"><path d="M5.1 1.903c0 .2.149.37.344.416 1.233.285 1.842 1.058 2.06 2.038.08.362.12.543.002.72a1 1 0 0 1-.056.07c-.147.153-.365.153-.8.153H5.6a.5.5 0 0 0 0 1h1.907c.327 0 .491 0 .585.054a.4.4 0 0 1 .195.396c-.014.107-.113.237-.311.497-.181.237-.272.355-.38.447-.161.135-.353.23-.558.275C6.899 8 6.751 8 6.453 8H3.57c-.288 0-.432 0-.566-.029a1.3 1.3 0 0 1-.611-.316c-.101-.093-.185-.211-.351-.447-.168-.238-.253-.358-.266-.455a.4.4 0 0 1 .212-.408c.087-.045.233-.045.525-.045h.838c.423 0 .634 0 .774-.12a1 1 0 0 0 .056-.055c.12-.14.12-.352.12-.775V1.9a.4.4 0 1 1 .8.003"/></svg>