<svg xmlns="http://www.w3.org/2000/svg" width="24" height="24" fill="currentColor" viewBox="2.00 2.00 6.00 6.00"><path d="M5.815 2c.662 0 .994 0 1.217.186a1 1 0 0 1 .088.087c.087.099.135.22.164.386.027.151.119.285.261.342l.185.074a.35.35 0 0 1 .22.324v.745c0 .11-.052.214-.14.28l-.385.289a.02.02 0 0 1-.027-.004.02.02 0 0 0-.035.012l.02.84c.008.35.012.525-.003.698a3 3 0 0 1-.078.486v.01c-.003.022-.003.046-.003.092v.554a.6.6 0 0 1-1.2 0c0-.111-.09-.201-.2-.201H4.1c-.111 0-.201.09-.201.201a.6.6 0 0 1-1.2 0v-.554L2.7 6.754l-.001-.01c-.003-.022-.009-.047-.019-.096a3 3 0 0 1-.06-.389c-.014-.173-.01-.349-.002-.698l.02-.885a.02.02 0 0 0-.035-.012.02.02 0 0 1-.028.004L2.19 4.38a.35.35 0 0 1-.14-.278v-.702a.35.35 0 0 1 .22-.324L2.455 3a.44.44 0 0 0 .26-.341.76.76 0 0 1 .165-.386 1 1 0 0 1 .088-.087c.223-.186.555-.185 1.217-.185zM3.56 6.034a.331.331 0 1 0-.033.66l.457.004a.313.313 0 0 0 .03-.623zm2.42.04a.311.311 0 0 0 .026.62l.457.004a.334.334 0 1 0-.027-.664zM4.31 3c-.406 0-.61 0-.748.113a1 1 0 0 0-.055.053c-.12.133-.128.337-.145.743l-.018.4c-.019.439-.029.66.09.807q.027.03.057.057c.142.127.362.126.802.126h1.415c.44 0 .66 0 .802-.126a1 1 0 0 0 .057-.057c.12-.148.11-.368.09-.808l-.017-.4c-.018-.405-.026-.61-.146-.742a1 1 0 0 0-.055-.053C6.3 3 6.096 3 5.69 3z"/></svg>