<svg xmlns="http://www.w3.org/2000/svg" width="24" height="24" fill="currentColor" viewBox="2.05 2.10 5.80 5.80"><path d="M5.79 2.1c.761 0 1.142 0 1.395.216a1 1 0 0 1 .1.1c.215.252.215.633.215 1.394v2.38c0 .76 0 1.142-.216 1.394a1 1 0 0 1-.1.1c-.252.216-.633.216-1.394.216H4.11c-.761 0-1.143 0-1.395-.215a1 1 0 0 1-.1-.1C2.4 7.331 2.4 6.95 2.4 6.19v-.127c0-.359 0-.538.044-.71q.01-.037.022-.074c.053-.169.148-.322.338-.625l1.094-1.75c.232-.372.348-.558.525-.668a1 1 0 0 1 .08-.044c.187-.092.407-.092.845-.092zm.01 3.65a.45.45 0 0 0 0 .9h.5a.45.45 0 0 0 0-.9zM5.524 2.9c-.196 0-.294 0-.377.042l-.036.02c-.08.049-.13.132-.234.298l-.36.58c-.298.483-.448.725-.367.916a.4.4 0 0 0 .042.074c.12.17.403.17.972.17h.776c.338 0 .508 0 .62-.095a.4.4 0 0 0 .044-.045c.096-.113.096-.281.096-.62v-.58c0-.338 0-.508-.096-.62a.4.4 0 0 0-.044-.044C6.448 2.9 6.278 2.9 5.94 2.9z"/></svg>