<svg xmlns="http://www.w3.org/2000/svg" width="24" height="24" fill="currentColor" viewBox="1.10 1.20 7.80 7.80"><path d="M5.471 3.2c.383 0 .576 0 .74.079l.07.039c.156.096.26.257.468.58l.227.352c.105.163.157.244.233.3l.034.023c.08.048.176.065.367.098l.663.118c.283.05.425.075.515.169L8.824 5c.076.105.077.25.077.537v.028c0 .337 0 .507-.096.62a.4.4 0 0 1-.045.044c-.082.07-.194.089-.38.094-.077.002-.116.002-.14.018l-.01.008c-.021.02-.035.064-.063.155a.697.697 0 0 1-1.334.001c-.028-.091-.043-.138-.065-.157l-.01-.007c-.025-.016-.063-.016-.139-.016H3.38c-.076 0-.114 0-.139.016l-.01.007c-.022.02-.036.066-.064.157a.697.697 0 0 1-1.336 0c-.028-.092-.041-.137-.063-.156l-.01-.008c-.024-.016-.063-.016-.14-.018-.184-.005-.296-.024-.378-.094a.4.4 0 0 1-.043-.045c-.096-.112-.097-.28-.097-.619v-.268c0-.184 0-.277.03-.35a.4.4 0 0 1 .218-.218c.073-.03.166-.03.35-.03.097 0 .146 0 .188-.013a.3.3 0 0 0 .145-.099.7.7 0 0 0 .084-.167l.11-.275c.177-.433.267-.65.44-.783a1 1 0 0 1 .078-.053c.188-.11.423-.11.891-.11zm-2.06.5c-.188 0-.282 0-.355.046l-.03.022c-.067.055-.096.144-.156.321l-.103.311c-.072.215-.108.323-.063.401l.023.03c.06.069.173.069.4.069h.393c.169 0 .253 0 .31-.048l.022-.022c.048-.056.048-.14.048-.31v-.44c0-.17 0-.254-.048-.31l-.023-.022C3.773 3.7 3.69 3.7 3.52 3.7zm1.47 0c-.17 0-.254 0-.31.048l-.023.022c-.048.056-.048.14-.048.31v.44c0 .17 0 .254.048.31l.023.022c.056.048.14.048.31.048h1.058c.277 0 .415 0 .475-.083a.2.2 0 0 0 .02-.036c.042-.094-.028-.213-.167-.452l-.147-.252c-.101-.174-.153-.26-.233-.313l-.036-.021C5.766 3.7 5.664 3.7 5.463 3.7z"/></svg>