<svg xmlns="http://www.w3.org/2000/svg" width="24" height="24" fill="currentColor" viewBox="1.78 1.98 6.43 6.43"><path d="M6.149 2.7c.475 0 .714 0 .893.122a1 1 0 0 1 .074.059c.161.146.216.378.327.84l.237.997c.014.058.02.088.032.116a.3.3 0 0 0 .083.127c.021.022.09.074.225.177.117.09.19.226.196.374.003.068-.014.144-.049.295L8 6.54l-.06.196c-.022.067-.032.1-.037.135l-.001.015c-.003.035 0 .07.006.14l.001.024a.6.6 0 0 1-1.196.1.175.175 0 0 0-.174-.16H3.462c-.091 0-.167.069-.175.16a.6.6 0 0 1-1.195-.1l.002-.02c.005-.07.008-.104.005-.139l-.002-.015a1 1 0 0 0-.035-.134L2 6.54l-.168-.732a1.2 1.2 0 0 1-.048-.296.5.5 0 0 1 .196-.374c.136-.104.204-.156.225-.178a.3.3 0 0 0 .082-.127c.012-.028.019-.057.033-.115l.237-.996c.11-.463.166-.695.326-.841a1 1 0 0 1 .074-.059c.18-.122.418-.122.894-.122zM2.47 5.85c0 .221.179.4.4.4h.63a.4.4 0 1 0 0-.8h-.63a.4.4 0 0 0-.4.4m3.63 0c0 .221.179.4.4.4h.63a.4.4 0 1 0 0-.8H6.5a.4.4 0 0 0-.4.4M3.833 3.47c-.218 0-.327 0-.406.058l-.032.028c-.07.068-.088.175-.124.39l-.03.18c-.049.29-.073.436-.001.537a.3.3 0 0 0 .033.04c.087.087.235.087.53.087h2.395c.294 0 .441 0 .529-.087a.3.3 0 0 0 .034-.04c.071-.1.047-.246-.002-.537l-.03-.18c-.035-.214-.053-.322-.123-.39l-.032-.028c-.08-.058-.189-.058-.407-.058z"/></svg>