<svg xmlns="http://www.w3.org/2000/svg" width="24" height="24" fill="currentColor" viewBox="1.40 1.50 7.20 7.20"><path d="M5 1.5c1.788 0 1.977.959 1.997 1.876.003.127.004.19.027.243l.01.022c.028.051.074.09.166.17l1.159.985a.4.4 0 1 1-.518.61c-.295-.252-.443-.377-.568-.365a.3.3 0 0 0-.182.084c-.09.088-.09.282-.09.67V7.5c0 .8-.516 1.2-2 1.2-1.485 0-2-.4-2-1.2V5.794c0-.388 0-.582-.092-.67a.3.3 0 0 0-.18-.084c-.126-.012-.274.114-.57.365a.4.4 0 0 1-.518-.61L2.8 3.81c.092-.078.138-.118.165-.168l.011-.023c.023-.053.024-.116.027-.243C3.023 2.46 3.213 1.5 5 1.5m-.6 4.8c-.28 0-.42 0-.522.067a.4.4 0 0 0-.11.11c-.067.101-.067.242-.067.523 0 .4 0 .8 1.3.8s1.3-.4 1.3-.8c0-.28 0-.422-.068-.522a.4.4 0 0 0-.11-.11C6.021 6.3 5.88 6.3 5.6 6.3zM5 3.2c-.494 0-1.328.068-1.382.876-.015.227-.023.34.063.435a.3.3 0 0 0 .04.037c.1.077.265.052.592.003a4.6 4.6 0 0 1 1.372 0c.33.049.495.074.596-.004a.3.3 0 0 0 .04-.036c.086-.095.078-.21.062-.438C6.327 3.268 5.494 3.2 5 3.2"/></svg>