<svg xmlns="http://www.w3.org/2000/svg" width="24" height="24" fill="currentColor" viewBox="1.00 1.37 8.01 8.01"><path d="M4.477 4.263c.1 0 .15 0 .188.015a.2.2 0 0 1 .12.148.5.5 0 0 1-.025.187c-.027.123-.04.184-.03.229a.2.2 0 0 0 .152.147c.045.01.106-.004.227-.033l.282-.067c.175-.042.263-.063.352-.064h.04c.088.004.177.027.352.073.237.063.567.15.92.241.054.014.08.021.105.022h.01c.024-.001.067-.013.153-.037a.696.696 0 0 1 .658.169 1 1 0 0 0 .13.111c.02.01.047.017.101.03.202.05.383.094.527.127a.322.322 0 0 1-.065.64h-.402c-.076 0-.114 0-.143.009l-.013.004a1 1 0 0 0-.176.13.7.7 0 0 1-.879 0 1 1 0 0 0-.176-.13l-.013-.004c-.029-.01-.067-.01-.143-.01H3.172c-.077 0-.115 0-.144.01l-.013.004a1 1 0 0 0-.176.13.695.695 0 0 1-1.058-.222c-.085-.165-.128-.247-.16-.273l-.014-.011a.6.6 0 0 0-.19-.055l-.111-.022c-.139-.027-.208-.041-.252-.088l-.017-.02C1 5.6 1 5.53 1 5.388v-.463c0-.148 0-.222.043-.276l.02-.022c.052-.048.121-.053.26-.064.386-.03.977-.034.977.236 0 .206.282.057.555-.136.293-.206.439-.309.557-.35l.053-.017c.12-.034.261-.034.544-.034z"/></svg>