<svg xmlns="http://www.w3.org/2000/svg" width="24" height="24" fill="currentColor" viewBox="1.40 1.40 7.20 7.20"><path d="M4.7 2.1c0 .094 0 .14.015.177a.2.2 0 0 0 .109.108A.5.5 0 0 0 5 2.4c.093 0 .14 0 .176-.015a.2.2 0 0 0 .109-.108C5.3 2.24 5.3 2.194 5.3 2.1v-.32c0-.17 0-.254.048-.31l.022-.023c.056-.048.14-.048.31-.048h.038c.153 0 .23 0 .284.042l.022.02c.047.05.055.126.072.278l.686 6.44c.02.185.03.277-.018.34l-.022.025c-.058.055-.151.055-.338.055h-.471c-.157 0-.236 0-.29-.044l-.022-.02c-.047-.05-.054-.129-.067-.285l-.025-.303c-.013-.156-.02-.234-.067-.285l-.022-.02C5.385 7.6 5.307 7.6 5.15 7.6h-.3c-.157 0-.236 0-.29.043l-.022.02c-.048.05-.054.129-.067.285l-.025.303c-.013.156-.02.235-.067.285l-.022.02c-.055.044-.133.044-.29.044h-.471c-.187 0-.28 0-.338-.055l-.022-.025c-.048-.063-.038-.155-.018-.34l.687-6.44c.016-.152.025-.229.072-.278l.022-.02c.054-.042.13-.042.284-.042h.037c.17 0 .254 0 .31.048l.022.023c.048.056.048.14.048.31zM2.505 8.256c-.017.16-.025.24-.08.291l-.024.02c-.062.042-.133.033-.276.017-.14-.016-.236-.05-.31-.12a1 1 0 0 1-.055-.062c-.12-.158-.095-.391-.043-.856l.589-5.3c.042-.38.063-.57.181-.692a1 1 0 0 1 .055-.049.5.5 0 0 1 .272-.092c.176-.019.264-.028.33.027l.024.025c.055.065.044.162.023.357zm4.303-6.434c-.021-.195-.032-.292.023-.357l.025-.025c.065-.055.153-.046.33-.027a.5.5 0 0 1 .272.092q.03.022.055.049c.118.122.14.313.181.692l.59 5.3c.05.465.076.698-.044.856a1 1 0 0 1-.055.063c-.074.07-.171.103-.31.119-.143.016-.214.025-.276-.017l-.025-.02c-.054-.05-.062-.13-.08-.29zm-2.28 4.572c-.012.18-.018.27.03.33l.022.025c.057.052.148.052.328.052h.184c.18 0 .27 0 .328-.052l.022-.024c.048-.061.042-.151.029-.331l-.046-.64c-.01-.158-.016-.237-.064-.288l-.022-.02C5.284 5.4 5.205 5.4 5.046 5.4h-.093c-.158 0-.237 0-.292.044l-.022.02c-.048.052-.053.131-.065.29zM5 3.2c-.107 0-.16 0-.202.02a.2.2 0 0 0-.084.08c-.024.04-.028.093-.035.2l-.05.7c-.013.173-.02.26.025.319a.2.2 0 0 0 .03.032c.056.049.143.049.316.049s.26 0 .316-.049a.2.2 0 0 0 .03-.032c.044-.06.038-.146.026-.319l-.05-.7c-.008-.107-.012-.16-.036-.2a.2.2 0 0 0-.084-.08C5.16 3.2 5.107 3.2 5 3.2"/></svg>