<svg xmlns="http://www.w3.org/2000/svg" width="24" height="24" fill="currentColor" viewBox="1.73 1.80 6.48 6.48"><path d="M4.93 1.8c.42 0 .84.177 1.054.283.04.02.061.03.085.049.026.02.056.054.073.082.016.026.024.051.042.101.04.112.06.168.093.21a.3.3 0 0 0 .16.1c.05.013.11.006.228-.007l.14-.015a.4.4 0 0 1 .088.794.252.252 0 0 0-.21.334l.087.246c.027.074.04.112.043.15a.3.3 0 0 1-.02.135.7.7 0 0 1-.082.133l-.3.418c-.074.106-.112.158-.125.22l-.005.027c-.008.061.012.123.049.248l.193.646c.04.133.06.2.048.27l-.007.03c-.02.068-.064.116-.151.212-.15.163-.374.39-.622.582-.13.1-.195.151-.225.206l-.013.025c-.024.057-.024.129-.024.27v.13a.6.6 0 1 1-1.2 0v-.13c0-.142 0-.213-.025-.27l-.011-.025c-.03-.055-.095-.105-.225-.206a5.3 5.3 0 0 1-.645-.607c-.077-.085-.116-.128-.136-.19l-.008-.025c-.014-.063-.002-.124.022-.247l.146-.73c.02-.097.03-.146.023-.194q0-.011-.004-.022a.6.6 0 0 0-.083-.178l-.263-.461c-.042-.073-.063-.11-.073-.148a.3.3 0 0 1-.008-.098.6.6 0 0 1 .044-.157l.132-.375a.166.166 0 0 0-.135-.22.4.4 0 1 1 .1-.793l.019.003c.111.014.167.02.217.01a.3.3 0 0 0 .171-.106.7.7 0 0 0 .088-.198c.017-.047.025-.07.04-.095a.3.3 0 0 1 .077-.087.4.4 0 0 1 .078-.045c.213-.106.636-.285 1.06-.285m.84 1.803a.4.4 0 0 0-.538.178l-.102.203a.1.1 0 0 1-.088.056h-.103a.1.1 0 0 1-.089-.056l-.102-.203a.4.4 0 1 0-.715.358l.101.204a.9.9 0 0 0 .805.497h.103a.9.9 0 0 0 .804-.497l.102-.204a.4.4 0 0 0-.179-.536"/></svg>