<svg xmlns="http://www.w3.org/2000/svg" width="24" height="24" fill="currentColor" viewBox="1.15 1.06 7.78 7.78"><path d="M4.85 3.1a.35.35 0 0 1 0 .7.35.35 0 0 0 0 .7h.147a1.3 1.3 0 0 1 .313.024c.067.02.13.056.253.126l.033.019c.188.107.281.161.385.173l.046.003c.104.001.203-.04.403-.123l1.96-.81a.37.37 0 1 1 .281.682l-.963.397c-.238.098-.357.147-.457.226l-.043.036c-.094.085-.163.194-.3.413l-.039.063c-.31.495-.464.743-.7.89q-.052.032-.106.059c-.25.122-.543.122-1.127.122H2.898a.5.5 0 0 1-.498-.498c0-.32 0-.48-.08-.604l-.037-.05c-.095-.113-.248-.16-.553-.254l-.035-.011c-.255-.078-.382-.117-.458-.21a.4.4 0 0 1-.055-.085c-.05-.108-.032-.24.006-.504l.003-.02c.044-.309.066-.463.159-.557a.4.4 0 0 1 .125-.086c.12-.053.273-.017.576.053l.31.07c.14.033.239.158.239.302 0 .085.07.154.154.154h.697a.35.35 0 1 0-.001-.7.35.35 0 0 1 0-.7zm3.475 2.258c.12.012.187.116.32.325.134.207.255.432.255.567 0 .3-.224.55-.6.55s-.6-.25-.6-.55c0-.135.121-.36.254-.567.134-.208.2-.312.32-.325a.3.3 0 0 1 .05 0"/></svg>