<svg xmlns="http://www.w3.org/2000/svg" width="24" height="24" fill="currentColor" viewBox="1.05 1.05 7.90 7.90"><path d="M5 2.5a2.5 2.5 0 1 1 0 5 2.5 2.5 0 0 1 0-5m-3.148.353a.35.35 0 0 1 .496.493l-.002.003-.015.016-.064.078a2.3 2.3 0 0 0-.21.323A2.6 2.6 0 0 0 1.75 5c0 .53.155.948.309 1.234a2.3 2.3 0 0 0 .273.401l.015.017.046.055a.35.35 0 0 1-.54.44L2.1 6.9l-.248.247H1.85l-.001-.002-.013-.013a2 2 0 0 1-.123-.145 3 3 0 0 1-.273-.421A3.3 3.3 0 0 1 1.05 5c0-.67.195-1.202.391-1.566a3 3 0 0 1 .396-.567zm5.8 0a.35.35 0 0 1 .495 0l.015.014a2 2 0 0 1 .123.146c.076.097.175.239.273.42.196.365.391.897.391 1.567a3.3 3.3 0 0 1-.391 1.566 3 3 0 0 1-.396.566l-.013.013v.002h-.002L7.9 6.9l.248.248a.35.35 0 0 1-.54-.44l.045-.055.001-.001.015-.017q.022-.025.064-.078c.056-.071.132-.18.21-.323A2.6 2.6 0 0 0 8.25 5c0-.53-.155-.949-.309-1.234a2.3 2.3 0 0 0-.273-.4l-.015-.017-.002-.003a.35.35 0 0 1 .001-.493m-2.45.397c-.565 0-.847 0-1.039.154a.7.7 0 0 0-.11.109c-.152.192-.153.474-.153 1.038V6.3a.35.35 0 0 0 .7.01v-.09c0-.254 0-.38.072-.465l.033-.033c.084-.072.212-.071.465-.071H5.2a1.201 1.201 0 0 0 0-2.4m0 .701a.5.5 0 0 1 0 1H5.1a.5.5 0 0 1 0-1z"/></svg>