<svg xmlns="http://www.w3.org/2000/svg" width="24" height="24" fill="currentColor" viewBox="1.80 1.80 6.40 6.40"><path d="M6.423 1.8c.444 0 .667 0 .837.086a.8.8 0 0 1 .353.353c.086.17.086.393.086.837V6.3c0 .845 0 1.268-.239 1.549q-.052.06-.111.111c-.28.24-.704.24-1.55.24H4.2c-.845 0-1.268 0-1.549-.24a1 1 0 0 1-.11-.111c-.24-.28-.24-.704-.24-1.55V4.903c0-.467 0-.702.076-.886.101-.244.296-.438.539-.54.185-.076.419-.077.887-.077h.384a.8.8 0 0 0 .725-.603c.006-.024.011-.052.022-.108l.027-.133a1 1 0 0 1 .907-.753c.031-.002.067-.002.137-.002zM4.966 4.206c-.056.012-.094.036-.1.04a.664.664 0 0 0-.1.087 2 2 0 0 0-.104.12c-.074.093-.167.22-.263.359-.184.268-.404.624-.493.894-.087.267-.128.65.024.986a.97.97 0 0 0 .401.444q.286.165.696.164.41 0 .697-.164a.97.97 0 0 0 .401-.444c.152-.335.112-.719.024-.986-.088-.27-.308-.626-.493-.894a7 7 0 0 0-.263-.359 2 2 0 0 0-.102-.12.7.7 0 0 0-.1-.087C5.18 4.24 5.115 4.2 5.026 4.2zM4.45 5.282c-.073.12-.14.241-.191.35l.007-.017c.05-.105.115-.219.184-.333M5.9 2.3a.401.401 0 0 0 0 .8h.9a.401.401 0 0 0 0-.8zM3.9 1.95a.45.45 0 0 1 0 .9h-1a.45.45 0 0 1 0-.9z"/></svg>