<svg xmlns="http://www.w3.org/2000/svg" width="24" height="24" fill="currentColor" viewBox="1.26 1.30 7.45 7.45"><path d="M4.987 1.3c.3 0 .827.41.966 1.709.037.351.056.527.127.643.011.018.02.031.033.048.081.108.217.179.487.32l1.36.71c.179.093.268.14.336.209a.6.6 0 0 1 .082.105c.05.083.073.181.118.377.072.313.108.47.048.573a.3.3 0 0 1-.113.11c-.104.058-.26.019-.571-.059L6.558 5.72c-.293-.073-.44-.11-.547-.045a.3.3 0 0 0-.043.032c-.093.084-.1.235-.117.536l-.044.827c-.009.173-.013.26.016.338l.02.046c.04.074.107.129.244.238l.575.46a.334.334 0 0 1-.298.583l-1.146-.319-.087-.022a.7.7 0 0 0-.375.022l-1.145.319a.335.335 0 0 1-.299-.583l.57-.456c.141-.113.212-.17.251-.247l.016-.035c.032-.08.027-.17.018-.351l-.043-.82c-.016-.301-.025-.452-.118-.536a.3.3 0 0 0-.042-.032c-.108-.066-.255-.028-.548.045l-1.301.325c-.312.078-.468.117-.572.059a.3.3 0 0 1-.113-.11c-.06-.103-.023-.26.05-.573.044-.196.067-.294.117-.377a.6.6 0 0 1 .082-.105c.068-.07.156-.117.334-.21l1.362-.71c.27-.14.406-.211.487-.319l.033-.048c.07-.116.09-.292.127-.643.139-1.298.664-1.709.965-1.709"/></svg>