<svg xmlns="http://www.w3.org/2000/svg" width="24" height="24" fill="currentColor" viewBox="1.00 0.99 8.00 8.00"><path d="M2.336 3.6c.168 0 .329.071.442.195l.744.81a.6.6 0 0 0 .442.195H7.05c.29 0 .57.105.789.296a.076.076 0 0 1-.055.134l-.24-.015a.23.23 0 1 0 .01.456l.676-.078a.4.4 0 0 1 .138-.005l.03.01c.032.012.058.035.111.081.34.296.508.444.487.557a.2.2 0 0 1-.041.087c-.072.09-.294.056-.739-.013l-.475-.073a3 3 0 0 0-.486-.037H4.3c-1.242 0-2.509-.571-3.174-.926-.19-.1-.154-.366.053-.425l.323-.092a.3.3 0 0 0 .217-.262l.05-.55c.014-.155.02-.232.068-.283l.022-.02c.054-.042.132-.042.288-.042z"/></svg>