<svg xmlns="http://www.w3.org/2000/svg" width="24" height="24" fill="currentColor" viewBox="1.00 1.19 8.13 8.13"><path d="M1.675 3.6a.4.4 0 0 1 .262.096l1.055.91c.05.044.103.093.17.093h.976a1 1 0 0 0 .316-.05l.592-.198a1 1 0 0 1 .316-.051h.426c.135 0 .266.054.362.15s.227.15.362.15h.912c.007 0 .304-.006.584.144.145.078.067.256-.097.256h-.393a.241.241 0 1 0 .022.48l1.017-.092a.2.2 0 0 1 .152.05c.22.195.416.373.416.762-.001.612-1.101.6-1.101.6h-3c-.788 0-1.61-.3-2.304-.651a.204.204 0 0 0-.282.104l-.041.104a.3.3 0 0 1-.352.18L1.7 6.55a.3.3 0 0 1-.226-.253L1.37 5.5a.2.2 0 0 0-.081-.137l-.18-.134A.29.29 0 0 1 .999 5c0-.082.034-.157.088-.211.079-.079.167-.177.153-.288l-.087-.676a.2.2 0 0 1 .199-.225z"/></svg>