<svg xmlns="http://www.w3.org/2000/svg" width="24" height="24" fill="currentColor" viewBox="1.00 0.94 8.03 8.03"><path d="M1.63 3.2a.8.8 0 0 1 .635.314l.88 1.15a.6.6 0 0 0 .476.236h3.6c.526 0 1.065.122 1.432.498.064.065.006.164-.084.15l-.633-.1a.27.27 0 1 0-.028.536l.915-.048c.102-.005.202.06.202.164 0 .59-.966.6-1 .6h-4.1C2.72 6.7 1.587 5.905 1.1 5.513a.28.28 0 0 1 0-.43l.177-.156a.3.3 0 0 0 .09-.316l-.232-.74c-.08-.256-.12-.385-.081-.484a.3.3 0 0 1 .09-.121c.082-.068.217-.068.486-.068"/></svg>