<svg xmlns="http://www.w3.org/2000/svg" width="24" height="24" fill="currentColor" viewBox="1.68 1.69 6.63 6.63"><path d="M5.524 2.217c-.5-.9 2.5-.7 2.5 1.2 0 .84-1.001 1.525-1.71 1.654a.35.35 0 0 0-.26.242c-.053.176.04.397.222.421.487.066.988.088 1.525-.21.899-.5.699 2.5-1.2 2.5-.825 0-1.446-.965-1.587-1.672a.4.4 0 0 0-.29-.288c-.198-.051-.444.052-.47.255-.062.473-.073.96.216 1.481.5.9-2.5.7-2.5-1.2 0-.829.975-1.451 1.682-1.588a.38.38 0 0 0 .282-.282c.048-.19-.052-.42-.246-.445-.476-.062-.965-.075-1.488.215C1.3 5 1.5 2 3.4 2c.817 0 1.433.947 1.582 1.652.03.138.151.247.288.282.2.05.445-.053.471-.256.06-.467.07-.945-.217-1.461"/></svg>