<svg xmlns="http://www.w3.org/2000/svg" width="24" height="24" fill="currentColor" viewBox="1.45 1.43 7.15 7.15"><path d="M7.174 2.181a.35.35 0 0 0-.547.438l.029.036A.22.22 0 0 1 6.49 3h-.24a.4.4 0 0 0 0 .801h.066c.284 0 .427 0 .493.079a.2.2 0 0 1 .04.074c.032.097-.043.218-.194.46a.5.5 0 0 1-.116.149l-.035.02c-.042.018-.091.018-.188.018H6.25a.4.4 0 0 0 0 .8h.084c.093 0 .14 0 .181.018l.035.019a.5.5 0 0 1 .116.142c.162.243.244.365.214.464a.2.2 0 0 1-.041.077c-.066.08-.213.08-.505.08H6.25a.401.401 0 0 0 0 .8h.23a1 1 0 0 1 .137.006c.127.03.2.164.157.287a1 1 0 0 1-.069.119.35.35 0 0 0 .591.376l.378-.594c.057-.09.085-.134.128-.16l.02-.011C7.867 7 7.92 7 8.027 7H8.1a.4.4 0 0 0 0-.8c-.06 0-.09 0-.118-.008a.2.2 0 0 1-.09-.048c-.021-.019-.038-.044-.071-.094l-.038-.057c-.145-.218-.217-.327-.199-.416a.2.2 0 0 1 .06-.111c.064-.065.194-.065.456-.065a.4.4 0 0 0 0-.8h-.015c-.284 0-.427 0-.493-.08a.2.2 0 0 1-.04-.073c-.032-.098.043-.218.194-.46a.5.5 0 0 1 .116-.15l.035-.02c.042-.018.09-.018.188-.018H8.2a.4.4 0 0 0 0-.8h-.17c-.094 0-.14 0-.182-.018l-.018-.009c-.04-.021-.069-.057-.127-.13zm-3.024-.08c-.7-.3-2.7 1-2.7 2.9s2 3.198 2.7 2.899c.7-.3 1-1.523 1-2.9 0-1.376-.3-2.6-1-2.9"/></svg>