<svg xmlns="http://www.w3.org/2000/svg" width="24" height="24" fill="currentColor" viewBox="1.42 1.45 7.15 7.15"><path d="M5 1.448c.332 0 1.478.68 1.591 3.965.009.26.014.39.06.495l.022.046c.055.1.149.179.336.336l.082.068c.19.16.286.239.34.345l.023.048c.046.11.046.234.046.482v.097c0 .253 0 .38-.072.465l-.033.033c-.084.072-.211.072-.465.072h-.504c-.124 0-.186 0-.24.022a.3.3 0 0 0-.1.066c-.041.04-.066.098-.115.212-.065.152-.097.228-.151.282a.4.4 0 0 1-.136.09c-.071.028-.154.028-.32.028h-.729c-.165 0-.248 0-.32-.028a.4.4 0 0 1-.134-.09c-.054-.054-.087-.13-.152-.282-.05-.114-.074-.171-.115-.212a.3.3 0 0 0-.101-.066c-.054-.022-.116-.022-.24-.022H3.07c-.254 0-.381 0-.465-.072l-.033-.033C2.5 7.71 2.5 7.583 2.5 7.33v-.097c0-.248 0-.372.046-.482l.023-.048c.055-.106.15-.186.34-.345l.082-.068c.188-.157.282-.235.336-.336l.023-.046c.046-.105.05-.236.06-.495C3.521 2.127 4.668 1.448 5 1.448M5 3.7a.7.7 0 1 0 0 1.4.7.7 0 0 0 0-1.4"/></svg>