<svg xmlns="http://www.w3.org/2000/svg" width="24" height="24" fill="currentColor" viewBox="1.90 2.15 6.20 6.20"><path d="M5 3.3c2.598 0 2 1.399 2.5 1.5s.6.2.6.6c0 .236-.129.61-.235.877a1 1 0 0 0-.05.14l-.01.054c-.005.033-.005.069-.005.139a.59.59 0 0 1-1.144.207.33.33 0 0 0-.312-.217H3.655a.33.33 0 0 0-.312.217.59.59 0 0 1-1.144-.207.5.5 0 0 0-.033-.181C2.069 6.172 1.9 5.686 1.9 5.4c0-.4.1-.5.6-.6S2.4 3.3 5 3.3M2.954 5.207a.3.3 0 0 0-.444.194.47.47 0 0 0 .396.57l.669.093a.222.222 0 0 0 .142-.412zm4.533.196a.3.3 0 0 0-.444-.196l-.762.445a.223.223 0 0 0 .142.414l.661-.088a.477.477 0 0 0 .403-.575M4.98 3.91c-1.29 0-1.576.412-1.613.714-.023.195.169.316.365.316h2.496c.196 0 .387-.121.364-.316-.037-.302-.323-.714-1.612-.714"/></svg>