<svg xmlns="http://www.w3.org/2000/svg" width="24" height="24" fill="currentColor" viewBox="1.55 1.55 6.89 6.89"><path d="M5.247 1.728c.108-.099.248-.196.392-.17.492.092.948.285 1.345.559.12.083.152.25.158.395q.005.094.032.211a.14.14 0 0 0 .107.109q.117.026.21.03c.145.007.311.038.394.157.274.4.468.858.558 1.352.025.142-.068.28-.165.386a1 1 0 0 0-.128.171.14.14 0 0 0 0 .153q.064.1.127.17c.097.106.19.244.164.385a3.5 3.5 0 0 1-.565 1.356c-.08.117-.242.149-.384.155a1 1 0 0 0-.211.031.14.14 0 0 0-.107.108 1 1 0 0 0-.031.21c-.007.142-.039.303-.156.384-.4.277-.862.473-1.36.563-.14.025-.275-.066-.38-.161a1 1 0 0 0-.17-.127.14.14 0 0 0-.152 0 1 1 0 0 0-.171.126c-.105.096-.242.187-.381.162a3.5 3.5 0 0 1-1.36-.563c-.117-.081-.149-.242-.155-.384a1 1 0 0 0-.031-.21.14.14 0 0 0-.107-.108 1 1 0 0 0-.212-.03c-.142-.007-.304-.04-.385-.156a3.5 3.5 0 0 1-.564-1.355c-.026-.141.068-.28.165-.385a1 1 0 0 0 .126-.17.14.14 0 0 0 0-.153 1 1 0 0 0-.127-.171c-.097-.106-.19-.244-.165-.386a3.5 3.5 0 0 1 .556-1.352c.082-.12.249-.151.394-.158a1 1 0 0 0 .211-.03.14.14 0 0 0 .108-.108q.027-.117.03-.21c.007-.147.038-.314.158-.397A3.5 3.5 0 0 1 4.36 1.56c.143-.027.283.07.391.168q.07.063.172.127c.046.03.105.03.152 0q.102-.064.171-.127m-.495 4.571a.4.4 0 0 0-.12.015l-.036.016c-.048.025-.093.076-.184.176-.2.222-.3.333-.275.476a.4.4 0 0 0 .032.09c.069.13.192.151.438.194a2.3 2.3 0 0 0 .784 0c.247-.043.37-.065.44-.193a.4.4 0 0 0 .031-.09c.025-.144-.074-.255-.274-.478-.09-.1-.135-.15-.184-.175l-.035-.016a.4.4 0 0 0-.121-.015zM7.3 5c0-.194-.209-.305-.387-.226l-.3.133c-.125.055-.188.082-.227.12l-.026.031c-.033.044-.063.14-.122.33l-.009.029c-.064.19-.095.286-.094.34l.004.04c.01.053.043.112.11.229.15.256.224.385.367.406a.4.4 0 0 0 .1-.002c.141-.026.2-.136.316-.355.17-.32.268-.686.268-1.074m-4.215-.226c-.178-.08-.385.032-.385.227 0 .387.096.753.266 1.073.116.219.174.328.316.355a.4.4 0 0 0 .1.002c.142-.021.217-.15.365-.406.067-.117.101-.175.11-.229l.004-.04c.002-.054-.03-.149-.094-.338l-.01-.03c-.058-.191-.087-.287-.12-.33-.011-.014-.014-.018-.027-.03-.039-.038-.102-.065-.225-.12zM5 4.3A.7.7 0 1 0 5 5.7.7.7 0 0 0 5 4.3m-.548-1.465c-.131-.063-.243-.008-.466.102a2.3 2.3 0 0 0-.634.462c-.172.178-.26.267-.24.41.003.029.016.07.028.096.065.129.21.16.498.222.132.028.199.043.252.035l.04-.01c.053-.014.132-.075.292-.193l.027-.019c.163-.116.246-.173.276-.219l.02-.033c.024-.049.032-.117.046-.253.03-.295.045-.443-.059-.545a.4.4 0 0 0-.08-.055m1.561.102c-.223-.11-.335-.165-.466-.102a.4.4 0 0 0-.08.055c-.104.102-.089.25-.058.545.014.135.021.203.046.252.007.015.01.02.02.034.03.046.112.104.276.22l.024.018c.16.12.242.179.294.194.016.005.021.005.038.008.054.008.12-.006.253-.034.29-.063.436-.094.5-.224a.4.4 0 0 0 .028-.094c.02-.144-.067-.233-.24-.412a2.3 2.3 0 0 0-.635-.46"/></svg>