<svg xmlns="http://www.w3.org/2000/svg" width="24" height="24" fill="currentColor" viewBox="1.55 1.55 6.89 6.89"><path d="M5.247 1.728c.108-.099.248-.195.392-.169.492.09.949.284 1.345.558.12.083.152.25.158.395q.004.095.031.212a.14.14 0 0 0 .108.108q.117.027.21.03c.146.006.312.037.394.157.275.398.468.856.558 1.35.026.143-.069.281-.166.388a1 1 0 0 0-.127.172.14.14 0 0 0 0 .152q.063.1.126.17c.098.106.192.244.166.386a3.5 3.5 0 0 1-.565 1.355c-.081.117-.243.149-.385.155a1 1 0 0 0-.211.032.14.14 0 0 0-.108.106 1 1 0 0 0-.03.21c-.007.143-.04.304-.157.385-.4.277-.861.472-1.359.562-.14.026-.276-.065-.38-.161a1 1 0 0 0-.17-.127.14.14 0 0 0-.153 0 1 1 0 0 0-.17.127c-.106.096-.242.187-.382.161a3.5 3.5 0 0 1-1.36-.563c-.117-.081-.148-.242-.155-.384a1 1 0 0 0-.03-.21.14.14 0 0 0-.108-.107 1 1 0 0 0-.21-.032c-.143-.006-.305-.038-.386-.155a3.5 3.5 0 0 1-.563-1.355c-.026-.141.067-.279.164-.385a1 1 0 0 0 .127-.17.14.14 0 0 0 0-.152 1 1 0 0 0-.128-.172c-.097-.106-.19-.244-.165-.385a3.5 3.5 0 0 1 .556-1.351c.082-.12.25-.152.395-.158q.094-.004.21-.031a.14.14 0 0 0 .108-.109q.027-.116.031-.21c.006-.146.037-.313.157-.396a3.5 3.5 0 0 1 1.345-.558c.144-.026.285.07.393.17q.069.062.171.126c.047.03.106.03.152 0q.102-.064.171-.127m.457 4.314c-.05 0-.139.031-.316.093A1.2 1.2 0 0 1 5 6.2l-.123-.007a1.2 1.2 0 0 1-.265-.058c-.179-.062-.269-.093-.319-.093h-.021a.8.8 0 0 0-.22.077l-.116.05c-.305.13-.458.196-.486.354a.4.4 0 0 0-.005.066c.006.16.126.233.364.378a2.29 2.29 0 0 0 2.38 0c.24-.145.36-.217.366-.378a.4.4 0 0 0-.005-.066c-.029-.158-.181-.224-.486-.354l-.117-.05c-.113-.048-.17-.073-.22-.076zM5 4.4a.6.6 0 1 0 0 1.2.6.6 0 0 0 0-1.2m1.107-1.415c-.244-.133-.366-.2-.508-.126a.4.4 0 0 0-.055.037c-.123.105-.103.269-.063.597l.014.124a.8.8 0 0 0 .044.229l.01.02c.025.042.096.105.238.229.253.22.413.544.413.905a.14.14 0 0 0 .056.12l.288.216c.267.2.4.3.552.245a.4.4 0 0 0 .059-.028c.136-.087.14-.227.145-.506V5c0-.869-.482-1.624-1.193-2.015M4.4 2.86c-.143-.075-.265-.008-.51.126A2.3 2.3 0 0 0 2.702 5v.045c.006.28.009.42.145.506.016.01.042.022.06.028.152.054.285-.045.551-.245l.287-.215a.14.14 0 0 0 .056-.12c0-.36.16-.684.412-.903.142-.124.213-.186.237-.229l.01-.02a.8.8 0 0 0 .044-.227l.016-.126c.04-.329.058-.493-.065-.598a.4.4 0 0 0-.053-.036"/></svg>