<svg xmlns="http://www.w3.org/2000/svg" width="24" height="24" fill="currentColor" viewBox="1.65 1.65 6.70 6.70"><path d="M6.098 1.648c1.903.116 1.903 4.092 0 4.208-.118.007-.2-.107-.197-.226.005-.286-.114-.467-.303-.58-.101-.062-.152-.092-.25-.083a.37.37 0 0 0-.214.12c-.058.08-.058.17-.058.352v2.213a.7.7 0 0 1-1.4 0V5.287c0-.155 0-.233-.026-.29a.28.28 0 0 0-.105-.127c-.052-.035-.14-.052-.318-.086-.604-.115-.752-.401-.752-1.031 0-.706.184-.981.986-1.068a.237.237 0 0 0 .214-.232.7.7 0 0 1 1.4 0c0 .085.076.152.16.134.386-.082.675-.271.666-.713-.003-.12.079-.233.197-.226"/></svg>