<svg xmlns="http://www.w3.org/2000/svg" width="24" height="24" fill="currentColor" viewBox="2.04 2.04 5.93 5.93"><path d="M7.264 5.051c.13.006.22.052.3.156.043.057.074.155.134.35q.08.256.148.606c.124.642.187.963.006 1.283a1.1 1.1 0 0 1-.223.27c-.28.238-.663.239-1.429.239H3.8c-.765 0-1.15 0-1.43-.239a1.1 1.1 0 0 1-.222-.27c-.18-.32-.119-.641.005-1.283q.069-.349.15-.606c.06-.195.09-.292.133-.35.08-.104.17-.15.301-.156.072-.003.185.034.41.107.266.086.571.159.92.207a.27.27 0 0 1 .234.264.7.7 0 1 0 1.399 0 .27.27 0 0 1 .234-.264c.347-.048.651-.12.916-.206.228-.074.342-.11.414-.108M3.7 2.091a.657.657 0 0 1 .856.389c.045.122.145.23.275.226a8 8 0 0 1 .346.001c.127.003.227-.1.27-.22a.66.66 0 0 1 .856-.388.65.65 0 0 1 .41.596v.013a.58.58 0 0 0 .17.42c.173.158.278.366.34.634q.016.075.033.145a.24.24 0 0 1-.118.27c-.416.218-1.102.452-2.138.452-1.037 0-1.723-.234-2.139-.453a.24.24 0 0 1-.117-.268l.033-.145c.061-.269.167-.477.34-.636A.6.6 0 0 0 3.29 2.7v-.014a.65.65 0 0 1 .41-.595"/></svg>