<svg xmlns="http://www.w3.org/2000/svg" width="24" height="24" fill="currentColor" viewBox="1.66 1.66 6.67 6.67"><path d="M4.65 7.75c0 .283 0 .424-.099.514a.3.3 0 0 1-.044.033c-.114.07-.234.034-.475-.037a3.4 3.4 0 0 1-.687-.289c-.204-.113-.305-.17-.343-.278l-.012-.047c-.02-.112.061-.243.223-.505a3.6 3.6 0 0 0 .478-1.352c.026-.164.038-.246.07-.298a.3.3 0 0 1 .138-.118c.056-.024.131-.024.281-.024.159 0 .238 0 .3.03a.3.3 0 0 1 .141.141c.03.061.03.14.03.3zm1.17-2.4c.15 0 .225 0 .281.023.06.026.103.062.138.118.032.052.044.134.07.298.086.558.261 1.001.477 1.352.162.262.243.393.223.505l-.012.047c-.037.108-.14.165-.343.278q-.323.18-.686.289c-.24.071-.361.107-.475.037a.3.3 0 0 1-.044-.033c-.1-.09-.1-.23-.1-.514V5.82c0-.16 0-.239.03-.3a.3.3 0 0 1 .141-.141c.062-.03.141-.03.3-.03m-3.395 0c.276 0 .415 0 .503.093a.3.3 0 0 1 .034.042c.07.108.042.228-.015.47a3 3 0 0 1-.226.635c-.11.22-.166.33-.326.348a.4.4 0 0 1-.065 0c-.16-.015-.22-.13-.341-.358a3.4 3.4 0 0 1-.25-.612c-.071-.24-.107-.361-.037-.475a.3.3 0 0 1 .033-.045c.09-.099.23-.099.513-.099zm5.327 0c.282 0 .424 0 .513.099.011.012.025.03.033.044.07.114.034.234-.038.475a3.4 3.4 0 0 1-.25.612c-.12.228-.18.343-.34.359a.4.4 0 0 1-.066-.001c-.16-.02-.215-.13-.325-.349a3 3 0 0 1-.226-.634c-.056-.242-.084-.363-.014-.47a.3.3 0 0 1 .034-.042c.088-.094.227-.094.503-.094zM1.989 3.42c.12-.229.18-.343.34-.36a.4.4 0 0 1 .066.001c.16.02.216.13.326.349.09.18.169.389.226.635.057.241.085.362.015.47a.3.3 0 0 1-.034.042c-.089.093-.227.093-.503.093h-.177c-.282 0-.424 0-.513-.099a.3.3 0 0 1-.033-.045c-.07-.113-.034-.234.037-.474q.097-.321.25-.612m2.661.76c0 .159 0 .238-.029.3a.3.3 0 0 1-.141.14c-.062.03-.141.03-.3.03-.15 0-.225 0-.281-.024a.3.3 0 0 1-.138-.118c-.032-.052-.044-.133-.07-.297a3.6 3.6 0 0 0-.477-1.352c-.162-.262-.243-.393-.223-.506l.012-.047c.038-.107.14-.164.343-.277a3.4 3.4 0 0 1 .686-.288c.24-.072.361-.107.475-.038a.3.3 0 0 1 .044.034c.1.09.1.23.1.513zm.7-1.93c0-.283 0-.424.099-.513a.3.3 0 0 1 .044-.034c.114-.07.234-.033.475.038q.361.107.685.288c.204.113.305.17.343.277q.008.023.012.047c.02.113-.06.244-.222.506-.216.35-.391.794-.477 1.352-.026.163-.038.245-.07.297a.3.3 0 0 1-.138.118c-.056.024-.131.024-.281.024-.159 0-.238 0-.3-.03a.3.3 0 0 1-.141-.14c-.03-.062-.03-.141-.03-.3zm1.929 1.16c.11-.22.164-.329.325-.348a.4.4 0 0 1 .065-.001c.16.016.221.13.342.359q.154.291.25.612c.07.24.107.36.037.474a.3.3 0 0 1-.033.045c-.09.1-.23.1-.513.1h-.176c-.276 0-.415 0-.503-.094a.3.3 0 0 1-.034-.042c-.07-.108-.042-.229.014-.47.058-.246.136-.455.226-.635"/></svg>