<svg xmlns="http://www.w3.org/2000/svg" width="24" height="24" fill="currentColor" viewBox="1.96 1.75 6.08 6.08"><path d="M4.217 4.975c.207.041.311.062.377.132l.026.031c.055.079.055.184.055.396v.856c0 .58 0 .87-.158.955a.3.3 0 0 1-.067.026c-.174.045-.37-.168-.764-.595l-.97-1.05c-.461-.5-.693-.751-.62-.928a.3.3 0 0 1 .036-.065c.113-.153.447-.086 1.116.047zm2.098 1.8c-.394.427-.59.64-.764.595a.3.3 0 0 1-.067-.026c-.158-.085-.158-.375-.158-.955v-.856c0-.21 0-.317.055-.395l.026-.031c.066-.07.17-.09.377-.132l.968-.194c.668-.134 1.002-.201 1.115-.048a.3.3 0 0 1 .037.065c.072.177-.16.427-.621.928zM3.389 3.139c.342.47.512.704.434.866a.3.3 0 0 1-.038.06c-.115.139-.4.082-.969-.032l-.208-.042c-.367-.073-.55-.11-.616-.238a.3.3 0 0 1-.022-.056c-.04-.139.069-.291.286-.596l.088-.123c.198-.277.297-.416.433-.43a.3.3 0 0 1 .056 0c.136.013.236.15.436.426zM7.743 3.1c.218.305.327.457.287.596a.3.3 0 0 1-.022.056c-.066.128-.25.165-.617.238l-.207.042c-.57.114-.854.17-.969.032a.3.3 0 0 1-.038-.06c-.078-.162.093-.397.434-.866l.12-.165c.2-.275.3-.412.435-.425a.3.3 0 0 1 .057 0c.136.014.234.152.432.43zm-2.374-.9c.462 0 .692 0 .781.136a.3.3 0 0 1 .03.058c.057.152-.078.338-.35.711l-.369.508c-.198.273-.298.41-.432.423a.3.3 0 0 1-.057 0c-.135-.013-.234-.15-.433-.423l-.369-.508c-.271-.373-.407-.56-.35-.71a.3.3 0 0 1 .03-.06c.09-.135.32-.135.781-.135z"/></svg>