<svg xmlns="http://www.w3.org/2000/svg" width="24" height="24" fill="currentColor" viewBox="1.50 1.40 7.20 7.20"><path d="M7.2 2.8a.6.6 0 0 1 .6.6c0 .129.21.22.337.204A.5.5 0 0 1 8.7 4.1v1.8a.5.5 0 0 1-.56.496c-.129-.016-.34.076-.34.205a.6.6 0 0 1-1.2 0V6.36c0-.339 0-.508-.095-.62a.4.4 0 0 0-.045-.045C6.348 5.6 6.18 5.6 5.84 5.6H4.36c-.339 0-.508 0-.62.095a.4.4 0 0 0-.045.045c-.095.112-.095.281-.095.62v.24a.6.6 0 0 1-1.2 0c0-.128-.21-.22-.339-.204a.5.5 0 0 1-.561-.497V4.1a.5.5 0 0 1 .564-.495c.127.016.336-.075.336-.204a.6.6 0 1 1 1.2 0v.24c0 .339 0 .508.095.62a.4.4 0 0 0 .045.045c.112.095.281.095.62.095h1.48c.339 0 .508 0 .62-.095a.4.4 0 0 0 .045-.045c.096-.112.096-.281.096-.62V3.4a.6.6 0 0 1 .6-.6"/></svg>