<svg xmlns="http://www.w3.org/2000/svg" width="24" height="24" fill="currentColor" viewBox="1.60 1.60 6.80 6.80"><path d="M3.478 3.64c.04.36.061.54.156.639a.4.4 0 0 0 .043.038c.108.083.266.083.583.083h1.48c.317 0 .475 0 .583-.083a.4.4 0 0 0 .043-.038c.095-.098.115-.278.156-.638.056-.488.25-.641.928-.641.95 0 .95.3.95 2s0 2-.95 2c-.678 0-.872-.153-.928-.64-.04-.36-.061-.54-.156-.639a.4.4 0 0 0-.043-.038C6.215 5.6 6.057 5.6 5.74 5.6H4.26c-.317 0-.475 0-.583.083a.4.4 0 0 0-.043.038c-.095.098-.115.278-.156.638-.056.488-.25.641-.928.641-.95 0-.95-.3-.95-2s0-2 .95-2c.678 0 .872.153.928.64"/></svg>