<svg xmlns="http://www.w3.org/2000/svg" width="24" height="24" fill="currentColor" viewBox="1.90 1.91 6.18 6.18"><path d="M7.926 2.058a.5.5 0 0 1 0 .707c-.04.04-.06.06-.074.084a.2.2 0 0 0-.018.044c-.007.027-.007.055-.007.112v2.846c0 .035 0 .052.002.068l.002.007c.003.017.025.074.07.19a.4.4 0 0 1 .026.141v.521a1.3 1.3 0 0 1-.017.18 1.6 1.6 0 0 1-.117.416c-.069.157-.18.334-.361.472a1.14 1.14 0 0 1-.706.224 1.14 1.14 0 0 1-.704-.224 1.2 1.2 0 0 1-.363-.472 1.6 1.6 0 0 1-.13-.553l-.002-.043-.001-.013v-.007a.4.4 0 0 1 .8-.001v.014a.9.9 0 0 0 .067.282q.048.106.113.155c.039.03.102.062.22.062a.35.35 0 0 0 .22-.062.4.4 0 0 0 .114-.155.8.8 0 0 0 .065-.282l.001-.015v-.498q0-.075.027-.142a3 3 0 0 0 .07-.189l.002-.007c.002-.016.002-.034.002-.07V4.382c0-.368 0-.552-.102-.609a.2.2 0 0 0-.043-.018c-.113-.032-.243.098-.503.358L4.288 6.403c-.05.05-.074.074-.088.1l-.006.011a1 1 0 0 0-.035.186.76.76 0 0 1-.215.428l-.707.707A.77.77 0 1 1 2.15 6.747l.707-.708a.76.76 0 0 1 .428-.214 1 1 0 0 0 .197-.041.5.5 0 0 0 .1-.088l3.638-3.638a.5.5 0 0 1 .707 0"/></svg>