<svg xmlns="http://www.w3.org/2000/svg" width="24" height="24" fill="currentColor" viewBox="1.96 2.00 6.18 6.18"><path d="M4 2c.321 0 1.941.31 2.99.517.41.08.615.122.747.261q.027.03.052.064c.112.156.112.367.112.788v.302c0 .394-.001.592-.104.745a1 1 0 0 1-.049.062c-.122.138-.31.185-.687.28-.479.121-1.097.268-1.674.384-.124.025-.187.17-.187.297a.5.5 0 0 1-.5.5.31.31 0 0 0-.298.238l-.289 1.267A.637.637 0 0 1 2.86 7.51l.147-1.723c.016-.188.024-.282.002-.355l-.01-.032c-.029-.07-.123-.171-.31-.37A1.8 1.8 0 0 1 4 2m0 .8A.9.9 0 1 0 4 4.6.9.9 0 0 0 4 2.8"/></svg>