<svg xmlns="http://www.w3.org/2000/svg" width="24" height="24" fill="currentColor" viewBox="1.70 1.50 6.60 6.60"><path d="M5.8 6.9c.11 0 .2.09.2.2a1 1 0 0 1-2 0 .2.2 0 0 1 .199-.2zM5 1.5a2 2 0 0 1 2 2c0 .864-.612 1.11-.83 1.895-.117.42-.176.63-.267.708a.3.3 0 0 1-.042.031c-.1.066-.258.067-.573.067h-.575c-.308 0-.462-.001-.561-.065-.018-.012-.025-.015-.041-.03-.09-.075-.156-.287-.286-.71C3.6 4.67 3 4.5 3 3.5a2 2 0 0 1 2-2m-.15.612a.401.401 0 0 0 0 .8c.152 0 .34.08.495.237.156.156.236.342.236.495a.401.401 0 0 0 .8 0c0-.413-.202-.793-.47-1.062-.268-.268-.648-.47-1.06-.47"/></svg>