<svg xmlns="http://www.w3.org/2000/svg" width="24" height="24" fill="currentColor" viewBox="1.80 1.80 6.40 6.40"><path d="M5.2 6.5v1a.7.7 0 0 1-1.4 0v-1c0-.125.063-.242.167-.311a.3.3 0 0 0 .133-.25v-.104c0-.682.553-1.235 1.236-1.235h.914a.65.65 0 0 0 .65-.65v-.261a.39.39 0 0 0-.389-.389h-.208a.24.24 0 0 0-.236.2.48.48 0 0 1-.473.4h-2.45c-.322 0-.482 0-.6-.07a.5.5 0 0 1-.173-.173c-.071-.119-.071-.28-.071-.6v-.414c0-.32 0-.481.07-.6a.5.5 0 0 1 .173-.172c.119-.071.28-.071.6-.071h2.452c.234 0 .433.17.472.4.019.115.119.2.236.2h.273c.62 0 1.124.503 1.124 1.124V3.9a1.5 1.5 0 0 1-1.5 1.5h-.844a.456.456 0 0 0-.456.456v.084c0 .1.05.193.133.249.104.07.167.186.167.311"/></svg>