<svg xmlns="http://www.w3.org/2000/svg" width="24" height="24" fill="currentColor" viewBox="1.72 1.61 6.76 6.76"><path d="M8.476 5.059c-.038.332-.486.543-1.381.964L3.916 7.516c-1.148.539-1.722.81-2.013.579a.6.6 0 0 1-.104-.106c-.226-.294.052-.865.607-2.005a.51.51 0 0 1 .378-.278l.369-.058c1.476-.235 2.215-.352 2.252-.608a.4.4 0 0 0 0-.099c-.037-.255-.776-.373-2.252-.607l-.37-.059a.51.51 0 0 1-.377-.279c-.555-1.14-.833-1.71-.607-2.005a.6.6 0 0 1 .104-.104c.29-.23.865.039 2.013.578l3.179 1.494c.895.42 1.343.631 1.38.964a.6.6 0 0 1 0 .136"/></svg>