<svg xmlns="http://www.w3.org/2000/svg" width="24" height="24" fill="currentColor" viewBox="1.41 1.41 6.43 6.43"><path d="M3.189 6.653a.35.35 0 1 0 .494-.495l-.425-.425a.35.35 0 0 1 .496-.496l.071.072a.35.35 0 1 0 .495-.495l-.072-.072a.35.35 0 0 1 .495-.495l.426.426a.35.35 0 1 0 .494-.495l-.425-.425a.35.35 0 0 1 .495-.496l.072.072a.35.35 0 1 0 .495-.494.45.45 0 0 1 0-.64l.213-.213c.358-.358.537-.537.688-.566a.5.5 0 0 1 .505.206c.087.126.09.38.095.885l.038 3.796c.007.69.01 1.034-.185 1.262a1 1 0 0 1-.09.09c-.227.193-.572.19-1.26.183l-3.796-.037c-.506-.005-.76-.008-.886-.096a.5.5 0 0 1-.206-.504c.029-.151.208-.33.566-.688.168-.168.252-.252.345-.29a.5.5 0 0 1 .377 0c.093.038.177.122.345.29zm2.366-.948c-.52.52-.78.78-.717 1.006q.014.046.036.087c.115.205.483.205 1.218.205h.151c.338 0 .507 0 .62-.096a.4.4 0 0 0 .044-.045c.096-.112.096-.282.096-.62v-.15c0-.735 0-1.103-.204-1.218a.4.4 0 0 0-.087-.036c-.226-.064-.486.196-1.006.716z"/></svg>