<svg xmlns="http://www.w3.org/2000/svg" width="24" height="24" fill="currentColor" viewBox="1.53 1.50 7.00 7.00"><path d="M5.052 7.45a.35.35 0 1 0 0-.7h-.801a.35.35 0 1 1 0-.7h.301a.35.35 0 1 0 0-.7H4.25a.35.35 0 1 1 0-.7h.802a.35.35 0 0 0 0-.7h-.801a.35.35 0 0 1 0-.7h.301a.35.35 0 1 0 0-.7h-.127c-.116 0-.174 0-.222-.012a.4.4 0 0 1-.29-.29C3.9 2.2 3.9 2.142 3.9 2.025s0-.175.012-.223a.4.4 0 0 1 .29-.29c.049-.012.107-.012.223-.012h.968c.338 0 .508 0 .62.095a.4.4 0 0 1 .044.045c.096.112.096.281.096.62v5.48c0 .338 0 .507-.096.62a.4.4 0 0 1-.044.044c-.112.096-.282.096-.62.096h-.968c-.116 0-.174 0-.222-.012a.4.4 0 0 1-.291-.291C3.9 8.149 3.9 8.09 3.9 7.975s0-.174.012-.222a.4.4 0 0 1 .29-.291c.049-.012.107-.012.223-.012z"/></svg>