<svg xmlns="http://www.w3.org/2000/svg" width="24" height="24" fill="currentColor" viewBox="1.23 0.99 7.57 7.57"><path d="M8.178 7c.128 0 .191 0 .258-.019a.54.54 0 0 0 .356-.393.8.8 0 0 0-.003-.227 7 7 0 0 0-.044-.345.343.343 0 0 0-.46-.264l-.01.004a.35.35 0 0 1-.239-.658l.058-.021a.385.385 0 0 0 .23-.519 4 4 0 0 0-.48-.794c-.138-.174-.399-.15-.526.032l-.005.007A.35.35 0 0 1 6.74 3.4l.027-.039c.132-.187.078-.449-.13-.542a3.6 3.6 0 0 0-.874-.26c-.218-.036-.406.141-.405.363v.029a.35.35 0 0 1-.7.005v-.035c-.001-.222-.19-.399-.41-.363a3.6 3.6 0 0 0-.89.265c-.21.094-.262.356-.13.544l.028.041a.35.35 0 1 1-.574.4c-.127-.182-.39-.208-.526-.033a4 4 0 0 0-.466.782.387.387 0 0 0 .233.519l.06.021a.35.35 0 1 1-.242.656c-.203-.074-.429.048-.46.263a7 7 0 0 0-.04.35.8.8 0 0 0-.003.223.54.54 0 0 0 .358.392C1.662 7 1.725 7 1.85 7zm-4.486-.798c-.318 0-.478 0-.597-.132a1 1 0 0 1-.044-.06c-.092-.151-.056-.275.018-.522.175-.589.653-1.327 1.941-1.327s1.765.738 1.94 1.327c.074.247.11.37.018.523a1 1 0 0 1-.044.06c-.119.131-.278.131-.596.131z"/></svg>