<svg xmlns="http://www.w3.org/2000/svg" width="24" height="24" fill="currentColor" viewBox="2.26 2.16 5.49 5.49"><path d="M6.044 2.202a.2.2 0 0 1 .314.085c.01.026.014.076.022.176.014.159.02.238.02.316.003.362-.093.718-.276 1.03-.04.066-.086.132-.177.263l-.107.152c-.105.15-.158.225-.163.31v.036c.005.085.058.16.163.31l.473.673c.042.06.114.09.187.09a1 1 0 1 1-.992.882c.02-.165.029-.247.024-.285a.2.2 0 0 0-.016-.064 1 1 0 0 0-.098-.157c-.155-.22-.233-.331-.333-.361a.3.3 0 0 0-.17 0c-.101.03-.178.14-.333.36a1 1 0 0 0-.098.157.2.2 0 0 0-.016.064c-.005.038.005.12.024.285q.008.058.008.12a1 1 0 1 1-1-1c.073 0 .145-.03.187-.09l.473-.677c.105-.149.157-.224.162-.308v-.037c-.005-.084-.057-.159-.162-.308l-.106-.152c-.091-.13-.138-.197-.178-.264A2 2 0 0 1 3.6 2.78c0-.078.007-.157.02-.316.009-.1.014-.15.023-.176a.2.2 0 0 1 .315-.085c.02.018.05.059.107.14l.469.67c.2.287.3.43.438.443a.3.3 0 0 0 .057 0c.138-.013.238-.156.439-.442l.469-.67a1 1 0 0 1 .108-.141"/></svg>