<svg xmlns="http://www.w3.org/2000/svg" width="24" height="24" fill="currentColor" viewBox="1.55 1.55 6.90 6.90"><path d="M5 1.55c.148 0 .222 0 .283.028a.3.3 0 0 1 .113.092c.04.053.055.126.085.271l.122.584a1 1 0 0 1 .018.112.3.3 0 0 1-.06.188c-.016.022-.037.042-.08.08-.034.032-.05.047-.064.064a.3.3 0 0 0-.064.145c-.003.022-.003.045-.003.09v1.404c0 .205.13.387.322.455.278.099.404.421.267.682l-.191.363a.4.4 0 0 0-.048.196V7.75a.7.7 0 0 1-1.4 0V6.304a.4.4 0 0 0-.048-.196l-.192-.363a.484.484 0 0 1 .268-.682.48.48 0 0 0 .322-.456V3.204c0-.045 0-.068-.003-.09a.3.3 0 0 0-.064-.145 1 1 0 0 0-.064-.063 1 1 0 0 1-.08-.081.3.3 0 0 1-.06-.187c0-.028.006-.056.018-.113l.121-.584c.03-.145.046-.218.086-.271a.3.3 0 0 1 .113-.092c.06-.028.135-.028.283-.028"/></svg>