<svg xmlns="http://www.w3.org/2000/svg" width="24" height="24" fill="currentColor" viewBox="1.62 1.58 6.80 6.80"><path d="M5.02 1.579a3.4 3.4 0 1 1-.001 6.801 3.4 3.4 0 0 1 0-6.801m-.489 4.93c-.073 0-.11 0-.144.01a.3.3 0 0 0-.086.036c-.03.019-.056.045-.108.097-.092.094-.138.14-.16.196a.3.3 0 0 0-.02.153c.008.06.042.116.108.23l.172.296c.016.026.024.04.063.073l.018.014c.042.03.047.032.058.035.092.027.273.058.612.055.35-.003.53-.04.62-.069.005-.002.008-.003.049-.033l.017-.014a.2.2 0 0 0 .056-.067l.171-.305c.065-.115.097-.173.104-.232a.3.3 0 0 0-.021-.152c-.024-.056-.07-.102-.165-.194a.6.6 0 0 0-.11-.096.3.3 0 0 0-.086-.035c-.035-.008-.072-.008-.145-.007zM2.34 5.052a.2.2 0 0 0-.05.083l-.009.021c-.016.049-.015.054-.015.065.002.096.028.278.136.6.112.334.203.494.259.569a.704.704 0 0 0 .065.047.2.2 0 0 0 .077.032l.346.069c.13.026.194.039.252.027a.3.3 0 0 0 .14-.068c.044-.039.074-.098.132-.216.033-.065.05-.098.058-.133a.3.3 0 0 0 .006-.093.6.6 0 0 0-.038-.14l-.318-.95a.6.6 0 0 0-.054-.135.3.3 0 0 0-.061-.07c-.027-.023-.06-.04-.126-.073-.118-.059-.177-.088-.237-.092a.3.3 0 0 0-.151.029c-.054.026-.098.075-.185.174zm4.554-.398c-.065.034-.098.05-.125.074a.3.3 0 0 0-.06.072.6.6 0 0 0-.051.135l-.302.956c-.022.07-.033.105-.035.14a.3.3 0 0 0 .008.094c.008.034.025.067.059.132.06.117.091.176.137.214a.3.3 0 0 0 .14.066c.058.01.123-.004.252-.032l.333-.072c.03-.007.046-.01.09-.037l.018-.013c.042-.03.045-.035.051-.044.055-.08.14-.241.242-.565.104-.329.126-.511.126-.606 0-.008 0-.012-.017-.06l-.008-.022a.2.2 0 0 0-.048-.077l-.236-.255c-.089-.097-.133-.145-.187-.17a.3.3 0 0 0-.153-.027c-.06.006-.118.036-.234.097M4.24 4.401c-.153.11-.23.166-.261.247l-.012.036c-.022.085.008.175.066.354l.162.499c.058.18.087.269.155.325l.03.022c.074.046.168.046.357.046h.524c.189 0 .283 0 .357-.046l.03-.023c.068-.055.097-.145.155-.325l.162-.498c.058-.18.087-.27.065-.354l-.011-.036c-.032-.08-.109-.136-.262-.247l-.424-.308c-.152-.11-.229-.166-.316-.171h-.037c-.087.005-.163.06-.316.171zM4.09 2.429c-.029-.012-.043-.018-.094-.022h-.023c-.052 0-.057 0-.067.005-.09.032-.255.113-.527.314-.284.21-.408.346-.462.422a.69.69 0 0 0-.025.076.2.2 0 0 0-.006.085l.04.35c.016.13.024.196.053.248a.3.3 0 0 0 .107.11c.051.031.116.041.247.06.073.012.11.017.145.014a.3.3 0 0 0 .09-.023.6.6 0 0 0 .122-.08l.805-.596c.06-.043.089-.065.111-.092a.3.3 0 0 0 .049-.08.6.6 0 0 0 .03-.142c.019-.13.029-.195.014-.253a.3.3 0 0 0-.074-.136c-.042-.043-.102-.07-.222-.122zm1.506.127c-.12.055-.18.083-.22.127a.3.3 0 0 0-.072.136c-.014.058-.003.123.02.253a.6.6 0 0 0 .031.142.3.3 0 0 0 .05.079c.023.027.053.048.113.09l.816.583c.06.042.09.063.123.077a.3.3 0 0 0 .09.02.6.6 0 0 0 .145-.015c.13-.021.195-.032.245-.064a.3.3 0 0 0 .106-.113c.028-.052.035-.118.048-.249l.034-.34c.003-.03.004-.046-.008-.096l-.006-.022c-.016-.05-.02-.053-.026-.062-.059-.076-.186-.207-.462-.404-.287-.204-.454-.28-.543-.309-.006-.002-.009-.003-.059-.001l-.022.001a.2.2 0 0 0-.083.02z"/></svg>