<svg xmlns="http://www.w3.org/2000/svg" width="24" height="24" fill="currentColor" viewBox="2.10 2.10 5.80 5.80"><path d="M2.1 6.102c0-.118.182-.202.3-.202h1.75a.25.25 0 0 1 .25.25.6.6 0 1 0 1.2 0 .25.25 0 0 1 .25-.25H7.6c.118 0 .3.084.3.202v.028c0 .677 0 1.015-.192 1.24a1 1 0 0 1-.088.088c-.225.192-.563.192-1.24.192H3.62c-.677 0-1.015 0-1.24-.192a1 1 0 0 1-.088-.088C2.1 7.145 2.1 6.806 2.1 6.13zM5 2.35c.75 0 1.125 0 1.388.192q.129.093.22.22c.136.187.175.43.187.825.005.196.008.294.056.358l.022.026c.055.056.167.076.39.117a.72.72 0 0 1 .446.243c.113.133.159.307.177.568.008.116-.17.201-.286.201H2.4c-.117 0-.295-.086-.286-.202.018-.26.064-.434.178-.567a.723.723 0 0 1 .444-.242c.223-.042.335-.062.39-.118l.022-.026c.048-.064.05-.162.056-.358.012-.394.052-.638.187-.825q.094-.128.222-.22C3.876 2.35 4.25 2.35 5 2.35m0 .8c-.47 0-.707 0-.853.146a.48.48 0 0 0-.124.28c-.03.19-.045.287.015.37q.012.016.028.033c.073.071.186.071.411.071h1.047c.225 0 .338 0 .411-.071q.015-.017.028-.033c.06-.083.045-.18.015-.37a.48.48 0 0 0-.124-.28C5.708 3.15 5.472 3.15 5 3.15"/></svg>