<svg xmlns="http://www.w3.org/2000/svg" width="24" height="24" fill="currentColor" viewBox="1.67 1.67 6.66 6.66"><path d="M5.5 2.434c0-.407 0-.61.223-.72a.5.5 0 0 1 .093-.033c.244-.052.336.065.52.297a1.694 1.694 0 0 1-.225 2.337c-.22.19-.331.286-.367.356l-.014.031c-.03.073-.03.17-.03.366V7.63a.7.7 0 0 1-1.4 0V5.069c0-.195 0-.293-.03-.365l-.014-.032c-.035-.07-.146-.165-.367-.356a1.693 1.693 0 0 1-.224-2.337c.183-.233.275-.35.519-.298.024.006.07.022.093.033.223.11.223.313.223.72v.397a.5.5 0 0 0 1 0z"/></svg>