<svg xmlns="http://www.w3.org/2000/svg" width="24" height="24" fill="currentColor" viewBox="2.00 2.00 6.00 6.00"><path d="M3.4 2a.7.7 0 0 1 .7.7v2.316c0 .122 0 .183.033.224l.015.017c.039.035.105.04.237.05.125.01.21.034.274.09a.4.4 0 0 1 .045.044c.096.113.096.282.096.62v.08c0 .338 0 .507-.096.619a.4.4 0 0 1-.045.045c-.065.055-.149.078-.274.088-.132.01-.198.015-.237.05l-.015.017c-.032.04-.032.102-.032.224V7.3a.7.7 0 0 1-1.4 0v-.116c0-.122 0-.183-.033-.224l-.016-.017c-.038-.035-.104-.04-.236-.05-.126-.01-.21-.033-.275-.088a.4.4 0 0 1-.045-.045C2 6.648 2 6.479 2 6.14v-.08c0-.337 0-.506.096-.619a.4.4 0 0 1 .045-.045c.065-.055.15-.078.275-.088.132-.01.198-.016.236-.051l.016-.017c.032-.04.032-.102.032-.224V2.7a.7.7 0 0 1 .7-.7m3.2 0a.7.7 0 0 1 .7.7v.116c0 .122 0 .183.033.224l.016.016c.038.036.104.041.236.052.125.01.21.033.274.088a.4.4 0 0 1 .045.045c.096.112.096.281.096.62v.08c0 .337 0 .506-.096.619a.4.4 0 0 1-.045.044c-.065.056-.149.079-.274.088-.132.01-.198.016-.236.051l-.016.017c-.032.04-.032.102-.032.224V7.3a.701.701 0 0 1-1.4 0V4.984c0-.122 0-.183-.033-.224l-.016-.017c-.038-.036-.104-.04-.236-.05-.126-.01-.21-.033-.275-.089a.4.4 0 0 1-.045-.044C5.2 4.447 5.2 4.278 5.2 3.94v-.08c0-.338 0-.507.096-.619a.4.4 0 0 1 .045-.045c.065-.055.15-.079.275-.088.132-.01.198-.016.237-.052l.015-.016C5.9 3 5.9 2.938 5.9 2.816V2.7a.7.7 0 0 1 .7-.7"/></svg>