<svg xmlns="http://www.w3.org/2000/svg" width="24" height="24" fill="currentColor" viewBox="2.50 2.52 4.88 4.88"><path d="M7.265 7.066a.8.8 0 0 1-.221.221c-.245.163-.604.122-1.322.038l-2.291-.268a.664.664 0 1 1 .163-1.32l.028.004c.498.065.746.098.826-.022a.2.2 0 0 0 .025-.052c.047-.136-.13-.313-.485-.668L2.704 3.715a.7.7 0 0 1 .99-.99l1.349 1.349c.332.332.499.499.633.456a.2.2 0 0 0 .05-.024c.12-.074.1-.309.061-.778l-.018-.215a.632.632 0 0 1 1.258-.126l.276 2.357c.084.718.125 1.077-.038 1.322"/></svg>