<svg xmlns="http://www.w3.org/2000/svg" width="24" height="24" fill="currentColor" viewBox="2.47 2.49 5.22 5.22"><path d="M2.74 2.645c.27-.228.7-.172 1.559-.06l1.145.148c.724.095 1.086.142 1.238.356.055.078.09.168.105.262.018.127-.028.26-.134.43-.222.355-.333.532-.326.688a1 1 0 0 0 .008.067c.028.153.153.279.404.53l.352.352c.378.378.568.567.588.8a1 1 0 0 1 0 .11c-.02.232-.21.422-.589.8-.372.372-.558.559-.787.579a1 1 0 0 1-.109 0c-.228-.02-.415-.207-.787-.579l-.366-.366c-.248-.248-.372-.372-.523-.4a1 1 0 0 0-.066-.008c-.154-.009-.334.1-.696.318-.15.09-.27.13-.386.118a.6.6 0 0 1-.294-.118c-.2-.152-.245-.5-.336-1.194l-.154-1.18c-.112-.86-.168-1.29.06-1.56a1 1 0 0 1 .094-.093"/></svg>