<svg xmlns="http://www.w3.org/2000/svg" width="24" height="24" fill="currentColor" viewBox="2.62 2.52 4.88 4.88"><path d="M2.728 7.066a.8.8 0 0 0 .222.221c.245.164.604.122 1.322.038l2.29-.268a.664.664 0 1 0-.162-1.32l-.028.005c-.498.065-.747.097-.826-.023a.2.2 0 0 1-.025-.051c-.047-.137.13-.314.485-.669L7.29 3.715a.7.7 0 0 0-.99-.99L4.95 4.074c-.333.332-.499.499-.633.456a.2.2 0 0 1-.05-.024c-.12-.074-.1-.309-.061-.778l.018-.215a.632.632 0 0 0-1.258-.126L2.69 5.744c-.084.718-.126 1.077.037 1.322"/></svg>