<svg xmlns="http://www.w3.org/2000/svg" width="24" height="24" fill="currentColor" viewBox="2.62 2.59 4.88 4.88"><path d="M2.728 2.924a.8.8 0 0 1 .222-.222c.245-.163.604-.121 1.322-.037l2.29.268A.664.664 0 1 1 6.4 4.252l-.028-.004c-.498-.065-.747-.097-.826.023a.2.2 0 0 0-.025.051c-.047.136.13.313.485.668L7.29 6.274a.7.7 0 0 1-.99.99L4.95 5.916c-.333-.333-.499-.5-.633-.456a.2.2 0 0 0-.05.023c-.12.075-.1.31-.061.778l.018.215a.632.632 0 0 1-1.258.126L2.69 4.245c-.084-.718-.126-1.077.037-1.321"/></svg>