<svg xmlns="http://www.w3.org/2000/svg" width="24" height="24" fill="currentColor" viewBox="2.52 2.61 4.88 4.88"><path d="M7.068 2.726a.8.8 0 0 1 .222.222c.163.244.12.604.037 1.322l-.268 2.29a.664.664 0 1 1-1.319-.162l.004-.029c.065-.497.097-.746-.023-.825a.2.2 0 0 0-.051-.025c-.137-.047-.314.13-.669.485L3.717 7.288a.7.7 0 0 1-.99-.99l1.349-1.349c.333-.333.499-.5.456-.633a.2.2 0 0 0-.024-.05c-.074-.12-.309-.1-.778-.061l-.215.018a.632.632 0 0 1-.126-1.259l2.357-.275c.718-.084 1.077-.126 1.322.037"/></svg>