<svg xmlns="http://www.w3.org/2000/svg" width="24" height="24" fill="currentColor" viewBox="2.31 2.29 5.22 5.22"><path d="M7.26 7.355c-.27.228-.699.172-1.558.06l-1.146-.149c-.724-.094-1.086-.14-1.237-.355a.6.6 0 0 1-.105-.261c-.018-.128.028-.261.134-.431.221-.355.332-.533.325-.689a1 1 0 0 0-.008-.066c-.028-.154-.153-.28-.404-.53l-.351-.351c-.378-.378-.568-.567-.589-.8a1 1 0 0 1 0-.11c.02-.233.21-.422.588-.8.373-.373.56-.56.788-.58a1 1 0 0 1 .108 0c.23.02.416.206.788.579l.366.366c.248.248.372.371.523.4a1 1 0 0 0 .066.008c.154.009.334-.1.696-.318.15-.09.27-.131.386-.118a.6.6 0 0 1 .295.119c.2.152.245.499.335 1.193l.154 1.18c.112.86.168 1.29-.06 1.56a1 1 0 0 1-.094.093"/></svg>