<svg xmlns="http://www.w3.org/2000/svg" width="24" height="24" fill="currentColor" viewBox="1.88 1.88 6.25 6.25"><path d="M5.067 1.879c.352.029.617.372 1.145 1.058l.704.916c.446.578.668.868.624 1.126a.6.6 0 0 1-.11.26c-.077.103-.204.164-.4.21-.408.094-.612.141-.717.256a1 1 0 0 0-.041.053c-.089.128-.089.306-.089.66v.497c0 .535 0 .803-.15.981a1 1 0 0 1-.078.079c-.178.15-.446.15-.981.15-.527 0-.791 0-.967-.148a1 1 0 0 1-.076-.077c-.148-.175-.148-.44-.148-.966v-.517c0-.35 0-.525-.087-.652a1 1 0 0 0-.04-.052c-.103-.115-.308-.166-.718-.269-.17-.042-.283-.1-.356-.19a.6.6 0 0 1-.125-.291c-.034-.249.18-.527.607-1.082l.726-.944c.529-.686.793-1.029 1.145-1.058a1 1 0 0 1 .132 0"/></svg>