<svg xmlns="http://www.w3.org/2000/svg" width="24" height="24" fill="currentColor" viewBox="1.88 1.88 6.25 6.25"><path d="M5.067 8.122c.352-.03.616-.373 1.145-1.06l.705-.915c.445-.578.668-.868.624-1.127a.6.6 0 0 0-.112-.258c-.077-.103-.204-.165-.399-.21-.407-.094-.611-.141-.716-.257a1 1 0 0 1-.042-.052c-.089-.128-.089-.306-.089-.66v-.498c0-.535 0-.803-.15-.982a1 1 0 0 0-.078-.078c-.179-.15-.447-.15-.982-.15-.526 0-.79 0-.965.148a1 1 0 0 0-.078.077c-.147.176-.147.44-.147.966v.518c0 .35 0 .525-.087.653a1 1 0 0 1-.04.052c-.103.115-.308.165-.718.267-.17.042-.284.099-.356.19a.6.6 0 0 0-.124.29c-.034.25.179.528.606 1.083l.726.943c.528.687.793 1.03 1.145 1.06a1 1 0 0 0 .132 0"/></svg>