<svg xmlns="http://www.w3.org/2000/svg" width="24" height="24" fill="currentColor" viewBox="1.57 1.56 6.94 6.94"><path d="M7.33 4.378c.915 1.624 1.371 2.437 1.1 3.072a1.4 1.4 0 0 1-.176.302C7.834 8.3 6.9 8.3 5.037 8.3s-2.797 0-3.217-.548a1.4 1.4 0 0 1-.177-.302c-.27-.635.186-1.448 1.1-3.072.946-1.682 1.418-2.522 2.116-2.612a1.4 1.4 0 0 1 .355 0c.698.09 1.17.93 2.117 2.612M5.03 6.43a.56.56 0 1 0 0 1.12.56.56 0 0 0 0-1.12m0-3.43c-.448 0-.7.32-.7.63 0 .309.14 1.44.21 1.75.07.309.182.56.49.56.31 0 .421-.251.491-.56s.21-1.441.21-1.75c0-.31-.251-.63-.7-.63"/></svg>