<svg xmlns="http://www.w3.org/2000/svg" width="24" height="24" fill="currentColor" viewBox="2.00 2.00 6.00 6.00"><path d="M7.4 4.8a.6.6 0 0 1-.6-.6V4c0-.186 0-.279-.021-.355a.6.6 0 0 0-.425-.424C6.278 3.2 6.185 3.2 6 3.2h-.2a.6.6 0 0 1-.6-.6V2.6a.6.6 0 0 1 .6-.6h1.03c.112 0 .25-.002.369.013a.9.9 0 0 1 .586.302.9.9 0 0 1 .203.487c.014.118.012.256.012.368V4.2a.6.6 0 0 1-.6.6M3.17 8c-.111 0-.25.002-.368-.013a.9.9 0 0 1-.586-.302.9.9 0 0 1-.203-.487C2 7.08 2 6.942 2 6.83V5.8a.6.6 0 0 1 1.2 0V6c0 .186 0 .279.021.355a.6.6 0 0 0 .424.424c.077.02.17.02.355.02h.2a.6.6 0 0 1 .6.6V7.4a.6.6 0 0 1-.6.6z"/></svg>