<svg xmlns="http://www.w3.org/2000/svg" width="24" height="24" fill="currentColor" viewBox="2.02 2.02 5.95 5.95"><path d="M3.814 5.45c.118.025.217.124.416.322.198.199.298.298.322.417q.015.079 0 .156c-.024.12-.124.219-.322.417l-.085.085a.206.206 0 0 0-.007.28q.054.058.076.097a.5.5 0 0 1-.299.726c-.066.019-.182.02-.413.021l-.518.002c-.426.002-.64.003-.78-.118a1 1 0 0 1-.056-.056c-.121-.14-.12-.354-.119-.78l.002-.518c.002-.231.003-.347.022-.414a.5.5 0 0 1 .725-.298.6.6 0 0 1 .096.075.206.206 0 0 0 .28-.007l.085-.085c.199-.199.3-.298.418-.321a.4.4 0 0 1 .157 0m2.533 0c.119.024.218.124.417.323l.085.085a.205.205 0 0 0 .28.006.6.6 0 0 1 .096-.076.502.502 0 0 1 .726.3c.019.066.02.181.02.412l.004.518c.002.427.002.64-.118.781a1 1 0 0 1-.056.056c-.141.12-.355.12-.781.118L6.5 7.97c-.23 0-.346-.002-.412-.02a.502.502 0 0 1-.3-.727.6.6 0 0 1 .076-.095.205.205 0 0 0-.007-.28l-.084-.085c-.199-.198-.298-.298-.322-.417a.4.4 0 0 1 0-.156c.024-.119.123-.219.322-.417.198-.199.298-.299.417-.322a.4.4 0 0 1 .156 0m.672-3.422c.426-.002.64-.002.78.118q.03.026.057.056c.12.141.119.354.117.781l-.002.519c-.001.23-.003.345-.022.412a.5.5 0 0 1-.725.3.6.6 0 0 1-.096-.076.206.206 0 0 0-.28.007l-.085.085c-.198.198-.298.297-.417.32a.4.4 0 0 1-.156 0c-.12-.023-.218-.123-.416-.32-.199-.2-.299-.299-.323-.418a.4.4 0 0 1 0-.156c.024-.119.123-.218.322-.416l.085-.085a.206.206 0 0 0 .006-.28.6.6 0 0 1-.076-.097.5.5 0 0 1 .299-.727c.066-.018.182-.019.413-.02zm-3.52.002c.23.001.347.002.413.021a.5.5 0 0 1 .298.725.6.6 0 0 1-.075.097.207.207 0 0 0 .006.28l.085.086c.198.198.298.298.322.417q.015.078 0 .155c-.024.119-.123.219-.321.417-.199.198-.299.298-.417.321a.4.4 0 0 1-.157 0c-.118-.023-.218-.122-.417-.32l-.085-.086a.206.206 0 0 0-.28-.007.6.6 0 0 1-.097.076.5.5 0 0 1-.725-.297c-.019-.066-.02-.183-.02-.414l-.004-.519c-.002-.426-.003-.64.118-.781a1 1 0 0 1 .055-.057c.142-.12.356-.12.783-.117z"/></svg>