<svg xmlns="http://www.w3.org/2000/svg" width="24" height="24" fill="currentColor" viewBox="1.80 1.80 6.40 6.40"><path d="M1.8 5c0-.328 0-.492.081-.608a.5.5 0 0 1 .11-.11c.117-.082.281-.082.609-.082s.492 0 .608.081a.5.5 0 0 1 .11.11c.082.117.082.281.082.609s0 .492-.081.608a.5.5 0 0 1-.11.11c-.117.082-.281.082-.609.082s-.492 0-.608-.081a.5.5 0 0 1-.11-.11C1.8 5.491 1.8 5.327 1.8 5M4.2 5c0-.328 0-.492.081-.608a.5.5 0 0 1 .11-.11C4.509 4.2 4.673 4.2 5 4.2s.492 0 .608.081a.5.5 0 0 1 .11.11c.082.117.082.281.082.609s0 .492-.081.608a.5.5 0 0 1-.11.11C5.491 5.8 5.327 5.8 5 5.8s-.492 0-.608-.081a.5.5 0 0 1-.11-.11C4.2 5.491 4.2 5.327 4.2 5M6.6 5c0-.328 0-.492.081-.608a.5.5 0 0 1 .11-.11c.117-.082.281-.082.609-.082s.492 0 .608.081a.5.5 0 0 1 .11.11c.082.117.082.281.082.609s0 .492-.081.608a.5.5 0 0 1-.11.11c-.117.082-.281.082-.609.082s-.492 0-.608-.081a.5.5 0 0 1-.11-.11C6.6 5.491 6.6 5.327 6.6 5"/></svg>