<svg xmlns="http://www.w3.org/2000/svg" width="24" height="24" fill="currentColor" viewBox="2.00 2.00 6.00 6.00"><path d="M4.3 5.4c.563 0 .844 0 1.036.153a.7.7 0 0 1 .111.11c.153.192.153.474.153 1.037s0 .845-.153 1.036a.7.7 0 0 1-.111.11C5.144 8 4.863 8 4.3 8h-1c-.563 0-.845 0-1.036-.153a.7.7 0 0 1-.112-.11C2 7.544 2 7.262 2 6.7s0-.845.152-1.037a.7.7 0 0 1 .112-.11c.191-.153.473-.154 1.036-.154zm2.9 1c.328 0 .491 0 .608.081q.065.046.11.11c.082.117.082.282.082.61 0 .327 0 .49-.081.607a.5.5 0 0 1-.111.11C7.69 7.999 7.528 8 7.2 8s-.492 0-.608-.082a.5.5 0 0 1-.11-.11C6.4 7.69 6.4 7.528 6.4 7.2s0-.492.081-.608a.5.5 0 0 1 .11-.11c.117-.082.281-.083.61-.083m0-2.2c.328 0 .491 0 .608.081q.065.046.11.11C8 4.509 8 4.673 8 5s0 .492-.081.608a.5.5 0 0 1-.111.11c-.117.082-.28.082-.608.082s-.492 0-.608-.081a.5.5 0 0 1-.11-.11C6.4 5.491 6.4 5.327 6.4 5s0-.492.081-.608a.5.5 0 0 1 .11-.11c.117-.082.281-.082.61-.082M4.3 2c.563 0 .844 0 1.036.152q.061.05.111.112c.153.191.153.473.153 1.036s0 .844-.153 1.036a.7.7 0 0 1-.111.111C5.144 4.6 4.863 4.6 4.3 4.6h-1c-.563 0-.845 0-1.036-.153a.7.7 0 0 1-.112-.111C2 4.144 2 3.863 2 3.3s0-.845.152-1.036a.7.7 0 0 1 .112-.112C2.455 2 2.737 2 3.3 2zm2.9 0c.328 0 .491 0 .608.081q.064.046.11.11c.081.117.082.28.082.609s0 .492-.082.608a.5.5 0 0 1-.11.11c-.117.082-.28.082-.608.082s-.492 0-.608-.081a.5.5 0 0 1-.11-.11c-.082-.117-.083-.281-.083-.61 0-.327.001-.491.082-.608a.5.5 0 0 1 .11-.11C6.709 2 6.873 2 7.202 2"/></svg>