<svg xmlns="http://www.w3.org/2000/svg" width="24" height="24" fill="currentColor" viewBox="1.98 1.98 6.05 6.05"><path d="M5 1.975a1.85 1.85 0 0 1 1.85 1.85v.197c0 .14 0 .21.025.261l.012.022c.03.05.143.12.367.263a.803.803 0 0 1 .155.138c.191.224.191.562.191 1.239v.56c0 .677 0 1.015-.191 1.24a1 1 0 0 1-.09.088c-.224.192-.562.192-1.238.192H3.92c-.677 0-1.016 0-1.24-.192a1 1 0 0 1-.09-.088C2.4 7.52 2.4 7.182 2.4 6.505v-.56c0-.676 0-1.015.191-1.24a.8.8 0 0 1 .155-.137c.224-.143.336-.214.367-.263l.012-.022c.025-.051.025-.121.025-.261v-.196c0-1.022.829-1.85 1.85-1.85M4.8 5.75a.601.601 0 0 0 0 1.2h.4a.6.6 0 1 0 0-1.2zM5 2.875a.95.95 0 0 0-.95.95v.125c0 .212 0 .318.06.388l.028.027c.07.06.176.06.387.06h.95c.211 0 .317 0 .387-.06l.028-.027c.06-.07.06-.176.06-.388v-.124a.95.95 0 0 0-.95-.95"/></svg>