<svg xmlns="http://www.w3.org/2000/svg" width="24" height="24" fill="currentColor" viewBox="1.50 1.50 7.00 7.00"><path d="M7.474 2.525a3.5 3.5 0 1 1-4.95 4.95 3.5 3.5 0 0 1 4.95-4.95m-3.887 1.91c-.297-.297-.446-.446-.659-.4a.5.5 0 0 0-.084.028c-.197.092-.221.26-.269.597a2.44 2.44 0 0 0 .692 2.073 2.44 2.44 0 0 0 2.073.691c.336-.047.505-.071.596-.269a.5.5 0 0 0 .028-.084c.046-.213-.103-.361-.4-.659zm3.145-1.168a2.44 2.44 0 0 0-2.073-.691c-.336.047-.505.071-.596.269a.5.5 0 0 0-.028.084c-.046.212.103.361.4.659l1.977 1.976c.297.298.446.447.659.4a.5.5 0 0 0 .084-.027c.197-.092.221-.26.269-.597a2.44 2.44 0 0 0-.692-2.073"/></svg>