<svg xmlns="http://www.w3.org/2000/svg" width="24" height="24" fill="currentColor" viewBox="2.00 2.00 6.00 6.00"><path d="M3.63 5.2c.111 0 .25-.001.368.013a.9.9 0 0 1 .586.303.9.9 0 0 1 .203.486c.014.118.013.257.013.368V7.4a.6.6 0 0 1-1.2 0v-.2c0-.186 0-.279-.02-.355a.6.6 0 0 0-.425-.424c-.076-.02-.17-.02-.355-.02h-.2a.6.6 0 0 1 0-1.2zM5.8 2a.6.6 0 0 1 .6.6v.2c0 .186 0 .279.02.355a.6.6 0 0 0 .425.424c.076.02.17.02.355.02h.2a.6.6 0 0 1 0 1.2H6.37c-.111 0-.25.002-.368-.012a.9.9 0 0 1-.586-.303.9.9 0 0 1-.203-.486C5.199 3.88 5.2 3.741 5.2 3.63V2.6a.6.6 0 0 1 .6-.6"/></svg>