<svg xmlns="http://www.w3.org/2000/svg" width="24" height="24" fill="currentColor" viewBox="2.03 2.03 5.95 5.95"><path d="M3.604 5.443c.427-.002.64-.002.782.119q.03.025.056.055c.12.141.12.355.117.781l-.002.518c-.001.232-.002.348-.021.414a.5.5 0 0 1-.725.298.6.6 0 0 1-.097-.075.206.206 0 0 0-.28.007l-.085.085c-.198.198-.299.297-.418.32a.4.4 0 0 1-.155 0c-.119-.023-.219-.122-.417-.32-.199-.199-.298-.299-.321-.417a.4.4 0 0 1 0-.157c.023-.119.122-.218.32-.417l.086-.085a.206.206 0 0 0 .007-.28.6.6 0 0 1-.076-.097.5.5 0 0 1 .298-.725c.067-.02.183-.02.414-.02zm3.314.003c.23.001.346.002.413.02.31.09.457.446.3.727a.6.6 0 0 1-.077.095.205.205 0 0 0 .007.28l.085.085c.198.199.297.299.321.417q.015.079 0 .157c-.023.118-.123.218-.321.417-.199.198-.298.298-.417.322a.4.4 0 0 1-.156 0c-.12-.024-.219-.124-.417-.322l-.085-.085a.205.205 0 0 0-.28-.006.6.6 0 0 1-.096.076.5.5 0 0 1-.727-.299c-.019-.066-.02-.182-.02-.413l-.003-.519c-.002-.426-.002-.64.118-.78a1 1 0 0 1 .056-.056c.14-.121.354-.12.78-.119zm-3.99-3.412c.118.024.218.123.416.321l.085.085a.206.206 0 0 0 .28.007q.058-.053.097-.075a.5.5 0 0 1 .726.297c.019.066.02.183.02.415l.003.518c.002.426.004.64-.117.782a1 1 0 0 1-.056.055c-.141.12-.355.12-.782.118l-.517-.003c-.232-.002-.348-.003-.415-.022a.5.5 0 0 1-.297-.724.6.6 0 0 1 .075-.096.207.207 0 0 0-.006-.281l-.085-.085c-.198-.199-.299-.298-.322-.417a.4.4 0 0 1 0-.157c.024-.118.123-.218.321-.417s.298-.297.417-.32a.4.4 0 0 1 .156 0m4.3.001c.119.024.219.123.417.321.198.199.298.298.321.417q.015.079 0 .157c-.024.118-.123.218-.321.416l-.085.085a.206.206 0 0 0-.006.28q.054.058.075.097a.5.5 0 0 1-.298.725c-.067.019-.183.02-.414.022l-.517.002c-.427.002-.641.003-.782-.118a1 1 0 0 1-.056-.055c-.12-.142-.12-.355-.117-.781l.003-.519c0-.23.001-.347.02-.413a.5.5 0 0 1 .726-.299q.038.022.096.075a.206.206 0 0 0 .28-.007l.085-.085c.198-.198.299-.296.418-.32a.4.4 0 0 1 .155 0"/></svg>