<svg xmlns="http://www.w3.org/2000/svg" width="24" height="24" fill="currentColor" viewBox="2.20 2.20 5.60 5.60"><path d="M5.475 2.348c.383 0 .575 0 .749.066q.038.014.075.032c.167.08.298.221.56.5l.426.453c.24.256.36.385.43.541q.016.035.028.07c.057.162.057.339.057.69v1.432c0 .677 0 1.016-.192 1.241a1 1 0 0 1-.088.089c-.225.192-.564.191-1.242.19l-2.56-.003c-.675 0-1.013-.001-1.238-.193a1 1 0 0 1-.088-.089C2.2 7.143 2.2 6.805 2.2 6.13V3.867c0-.676 0-1.015.192-1.24a1 1 0 0 1 .088-.088c.225-.192.563-.191 1.24-.191zM5 5.25a.8.8 0 1 0 0 1.6.8.8 0 0 0 0-1.6m-1.35-2a.55.55 0 1 0 0 1.1h1.8a.55.55 0 0 0 0-1.1z"/></svg>