<svg xmlns="http://www.w3.org/2000/svg" width="24" height="24" fill="currentColor" viewBox="1.30 1.30 7.40 7.40"><path d="M4.05 3c.423 0 .635 0 .775.12a1 1 0 0 1 .055.055c.083.097.109.228.116.44.005.13.008.195.044.235l.016.016c.042.034.104.034.229.034H7.6a1.1 1.1 0 0 1 0 2.2H5.285c-.125 0-.187 0-.229.034l-.016.016c-.036.04-.039.105-.044.234-.007.213-.033.344-.116.441a1 1 0 0 1-.055.055C4.685 7 4.473 7 4.05 7s-.634 0-.775-.12a1 1 0 0 1-.055-.055c-.083-.097-.109-.228-.117-.44-.005-.13-.007-.195-.043-.235l-.017-.016C3.002 6.1 2.94 6.1 2.815 6.1H2.4a1.1 1.1 0 1 1 0-2.2h.415c.125 0 .187 0 .228-.034l.017-.016c.036-.04.038-.105.043-.234.008-.213.034-.344.117-.441a1 1 0 0 1 .055-.055C3.415 3 3.627 3 4.05 3M5.2 4.6a.2.2 0 0 0-.199.2v.4c0 .11.089.2.2.2h2.4a.4.4 0 0 0 0-.8z"/></svg>