<svg xmlns="http://www.w3.org/2000/svg" width="24" height="24" fill="currentColor" viewBox="1.60 1.60 6.80 6.80"><path d="M7.26 3.8c.508 0 .762 0 .93.143q.036.031.066.068c.144.168.144.423.144.93v1.54c0 .676 0 1.014-.191 1.239a1 1 0 0 1-.09.089C7.896 8 7.557 8 6.88 8H3.12c-.676 0-1.014 0-1.239-.191a1 1 0 0 1-.088-.09C1.6 7.496 1.6 7.158 1.6 6.48V4.94c0-.507 0-.76.144-.93a1 1 0 0 1 .066-.067c.168-.143.422-.143.93-.143zm-3.91.8c-.423 0-.635-.001-.775.119a1 1 0 0 0-.055.055c-.12.14-.12.353-.12.776v.699c0 .423 0 .635.12.775q.025.03.055.055c.14.12.352.12.775.12h.5c.423 0 .634 0 .775-.12a1 1 0 0 0 .055-.055c.12-.14.12-.352.12-.775v-.7c0-.422 0-.634-.12-.775a1 1 0 0 0-.055-.055c-.14-.12-.352-.12-.775-.12zM5.9 6.2a.4.4 0 0 0 0 .799h.6a.4.4 0 0 0 0-.8zm0-1.4a.4.4 0 1 0 0 .8h1.3a.4.4 0 1 0 0-.8zm2-2.8a.5.5 0 0 1 0 1H2.1a.5.5 0 0 1 0-1z"/></svg>