<svg xmlns="http://www.w3.org/2000/svg" width="24" height="24" fill="currentColor" viewBox="1.67 1.67 6.65 6.65"><path d="M5 1.675c1.022 0 1.85.829 1.85 1.85a.45.45 0 0 1-.9 0 .95.95 0 1 0-1.9 0v.726c0 .211 0 .317.06.387l.028.028c.07.06.176.06.387.06h1.556c.676 0 1.014 0 1.239.191a1 1 0 0 1 .089.089c.191.224.191.563.191 1.24v.56c0 .676 0 1.015-.191 1.239a1 1 0 0 1-.09.089c-.224.191-.562.191-1.238.191H3.92c-.677 0-1.016 0-1.24-.191a1 1 0 0 1-.09-.09C2.4 7.822 2.4 7.483 2.4 6.807v-.56c0-.677 0-1.016.191-1.24a.8.8 0 0 1 .155-.138c.224-.142.336-.213.367-.262l.012-.022c.025-.052.025-.122.025-.262v-.797c0-1.021.829-1.85 1.85-1.85M4.8 6.05a.601.601 0 0 0 0 1.2h.4a.6.6 0 1 0 0-1.2z"/></svg>