<svg xmlns="http://www.w3.org/2000/svg" width="24" height="24" fill="currentColor" viewBox="1.50 1.44 7.08 7.08"><path d="M5.174 5.306c.102.019.16.066.277.16.63.506.669 1.244.669 1.364 0 .185-.185.924-2.31.924S1.5 7.014 1.5 6.83c0-.12.04-.858.669-1.364.116-.094.175-.141.277-.16l.045-.006c.104-.008.227.045.474.153a2.1 2.1 0 0 0 1.69 0c.247-.108.37-.161.474-.153zM7.77 3.157a.474.474 0 1 1 .671.671c-.15.15-.224.225-.241.314a.3.3 0 0 0 0 .116c.018.09.092.164.241.313a.474.474 0 1 1-.67.671c-.15-.149-.224-.223-.314-.241a.3.3 0 0 0-.116 0c-.09.017-.164.092-.314.241a.474.474 0 1 1-.67-.67c.148-.15.223-.224.24-.314a.3.3 0 0 0 0-.116c-.017-.09-.092-.164-.24-.314a.474.474 0 1 1 .67-.67c.15.148.225.223.314.24a.3.3 0 0 0 .116 0c.09-.017.164-.092.313-.24M3.811 2.2a1.294 1.294 0 1 1-.002 2.588A1.294 1.294 0 0 1 3.81 2.2"/></svg>