<svg xmlns="http://www.w3.org/2000/svg" width="24" height="24" fill="currentColor" viewBox="1.30 1.25 7.45 7.45"><path d="M4.974 5.306c.102.019.16.066.277.16.63.506.669 1.244.669 1.364 0 .185-.185.924-2.31.924S1.3 7.014 1.3 6.83c0-.12.04-.858.669-1.364.116-.094.175-.141.277-.16l.045-.006c.104-.008.227.045.474.153a2.1 2.1 0 0 0 1.69 0c.247-.108.37-.161.474-.153zm3.326.343a.45.45 0 0 1 0 .9H7.2a.45.45 0 0 1 0-.9zm0-1.699a.45.45 0 0 1 0 .9H6.6a.451.451 0 0 1 0-.9zM3.61 2.2a1.294 1.294 0 1 1-.001 2.588A1.294 1.294 0 0 1 3.61 2.2m4.69.05a.45.45 0 0 1 0 .9H6a.45.45 0 0 1 0-.9z"/></svg>