<svg xmlns="http://www.w3.org/2000/svg" width="24" height="24" fill="currentColor" viewBox="1.50 1.53 6.89 6.89"><path d="M5.174 5.305c.102.02.16.067.277.16.63.506.669 1.244.669 1.365 0 .185-.185.924-2.31.924S1.5 7.014 1.5 6.83c0-.12.04-.859.669-1.364.116-.094.175-.141.277-.16l.045-.006c.104-.009.227.045.474.153a2.1 2.1 0 0 0 1.69 0c.247-.108.37-.161.474-.153zm2.423-1.888a.476.476 0 0 1 .672.672l-.862.862c-.051.051-.12.12-.186.173a.67.67 0 0 1-.471.15.67.67 0 0 1-.365-.15 2 2 0 0 1-.188-.173l-.367-.367a.475.475 0 0 1 .672-.672.8.8 0 0 0 .168.145.3.3 0 0 0 .265 0c.044-.022.085-.063.168-.146zM3.81 2.2a1.294 1.294 0 1 1-.001 2.587A1.294 1.294 0 0 1 3.81 2.2"/></svg>