<svg xmlns="http://www.w3.org/2000/svg" width="24" height="24" fill="currentColor" viewBox="0 0 10 10"><path d="M6.848 6.88c.033.01.05.014.065.02a.31.31 0 0 1 .187.3c0 1.4-4.2 1.4-4.2 0 0-.207.02-.469.057-.764.034-.267.05-.4.146-.476a.3.3 0 0 1 .043-.029c.107-.058.241-.02.51.055zm-.862-2.778c.227-.05.34-.074.435-.027l.04.023c.086.062.116.17.178.386.08.283.15.57.211.849.078.355.116.533.018.646a.3.3 0 0 1-.045.043c-.119.09-.3.04-.66-.061l-2.701-.758a.284.284 0 0 1 .016-.55zM5 1.9c.345 0 .664.323.944.815.14.245.209.368.166.495a.3.3 0 0 1-.023.051c-.066.117-.215.15-.513.215l-1.055.232c-.42.092-.63.138-.745.02a.3.3 0 0 1-.042-.052c-.087-.141.002-.323.179-.687C4.224 2.346 4.595 1.9 5 1.9"/></svg>