<svg xmlns="http://www.w3.org/2000/svg" width="24" height="24" fill="currentColor" viewBox="0 0 10 10"><path d="M4.845 5.603c.25.25.375.376.37.508q-.002.028-.008.055c-.03.13-.194.22-.521.403-.23.128-.458.273-.591.406s-.278.361-.406.59c-.182.327-.273.491-.402.522a.3.3 0 0 1-.056.007c-.132.006-.257-.12-.508-.37l-.65-.65c-.25-.25-.376-.376-.37-.508a.3.3 0 0 1 .008-.055c.03-.129.194-.22.52-.402.23-.128.458-.274.591-.407s.279-.36.407-.59c.182-.327.274-.491.403-.522a.3.3 0 0 1 .054-.007c.132-.006.258.12.508.37zm3.372.554c.156.055.234.082.263.18.003.011.007.03.008.042.007.102-.056.155-.183.261a2.7 2.7 0 0 1-1.254.6c-.794.14-1.082-.219-1.164-.363a.14.14 0 0 1-.018-.052l-.002-.013a.14.14 0 0 1 0-.055c.028-.16.179-.586.97-.725a2.76 2.76 0 0 1 1.38.125m-.685-3.24c.25.25.375.375.37.507q-.002.028-.008.055c-.03.13-.194.22-.521.403-.23.128-.458.273-.591.406s-.278.36-.406.59c-.182.327-.273.491-.402.522a.3.3 0 0 1-.055.007c-.133.006-.258-.119-.509-.37l-.65-.65c-.25-.25-.376-.376-.37-.509q.002-.027.008-.054c.03-.129.194-.22.521-.403.23-.128.457-.273.59-.406s.279-.36.407-.59c.182-.327.273-.491.402-.521a.3.3 0 0 1 .055-.008c.132-.006.258.12.508.37z"/></svg>