<svg xmlns="http://www.w3.org/2000/svg" width="24" height="24" fill="currentColor" viewBox="0 0 10 10"><path d="M5 6.02c.694 0 1.224.084 1.617.19.119.033.178.05.232.098l.022.022c.048.053.064.115.097.238.063.237.132.56.132.832 0 .5-.5.891-2.1.89-1.6 0-2.1-.39-2.1-.89 0-.272.069-.594.13-.831.033-.124.05-.185.098-.239l.022-.022c.053-.049.113-.065.232-.097.393-.107.923-.19 1.618-.19m-.8.58c-.3 0-.4.2-.4.5s.1.5.4.5.4-.2.4-.5-.1-.5-.4-.5m1.6 0c-.3 0-.4.2-.4.5s.1.5.4.5.4-.2.4-.5-.1-.5-.4-.5M6 2.3c.3 0 .8-.7 1.2-.5s-.5 1 0 1.3 1.175.005 1.1.6c-.1.8-1 .5-1.3 1.2-.132.309-.198.463-.273.512a.2.2 0 0 1-.042.023c-.081.037-.222.015-.504-.028A8 8 0 0 0 5 5.32c-.454 0-.85.033-1.192.087-.291.045-.436.068-.522.026l-.035-.02C3.17 5.36 3.114 5.205 3 4.9c-.3-.8-1.1-.4-1.2-1.2-.074-.595.5-.3 1-.6s-.4-1.1 0-1.3.9.5 1.2.5.4-.2 1-.2.7.2 1 .2M4.1 3.8c-.4 0-.6.2-.6.4s.1.6.5.6.5-.4.5-.6 0-.4-.4-.4m1.8 0c-.4 0-.4.2-.4.4s.1.6.5.6.5-.4.5-.6-.2-.4-.6-.4"/></svg>