<svg xmlns="http://www.w3.org/2000/svg" width="24" height="24" fill="currentColor" viewBox="0 0 10 10"><path d="M5.7 3c.159 0 .251.175.184.319A4 4 0 0 0 5.525 5c0 .572.116 1.164.359 1.68.067.144-.025.32-.184.32-2.2 0-1.8-1.4-3.1-.9-.944.363-1.308-.012-1.054-.513.172-.339.259-.509.262-.573v-.028c-.003-.064-.09-.234-.262-.573-.254-.5.11-.876 1.054-.513 1.3.5.9-.9 3.1-.9m.915.429c.073-.126.11-.19.2-.229l.039-.014c.094-.026.166 0 .311.054C8.268 3.648 8.7 4.486 8.7 5s-.432 1.35-1.535 1.759c-.145.054-.217.08-.311.054l-.04-.014c-.09-.04-.126-.103-.2-.229-.252-.435-.39-.99-.39-1.57s.138-1.136.39-1.571m.785 1.17A.5.5 0 1 0 7.401 5.6a.5.5 0 0 0 0-1"/></svg>