<svg xmlns="http://www.w3.org/2000/svg" width="24" height="24" fill="currentColor" viewBox="0 0 10 10"><path d="M3.4 6.7c1 0 2.3.9 3.2.9s1.3-.4 1.9-.6S8 8.4 6.6 8.4c-1 0-2.3-.9-3.2-.9s-1.3.3-1.9.5.5-1.3 1.9-1.3m2.53-5.22a1 1 0 0 1 .113.03c.257.09.424.345.759.856l1.051 1.608a.44.44 0 0 1-.428.676.44.44 0 0 0-.486.32l-.114.415c-.074.27-.111.404-.03.504.009.012.024.027.036.037.1.08.218.048.453-.016.47-.13.793-.369 1.216-.51.6-.2-.5 1.4-1.9 1.4-1 0-2.3-.9-3.2-.9s-1.3.3-1.9.5c-.512.17.215-.897 1.31-1.213.156-.045.234-.068.277-.108l.018-.018c.039-.044.057-.11.092-.243l.208-.772a.446.446 0 0 0-.257-.526.446.446 0 0 1-.026-.808l1.722-.87c.545-.276.819-.414 1.086-.363m-.68 2.758a.667.667 0 0 0-.816.472l-.033.125c-.052.195-.078.292-.045.37q.007.018.017.033c.045.074.142.11.336.184q.172.065.34.133c.213.083.32.125.412.088l.037-.019c.085-.052.115-.163.175-.385l.05-.184a.667.667 0 0 0-.472-.817"/></svg>