<svg xmlns="http://www.w3.org/2000/svg" width="24" height="24" fill="currentColor" viewBox="0 0 10 10"><path d="M5.074 2.107c.565.115 1.357 1.48 1.459 2.666l.01.246c0 .218-.026.427-.086.616-.09.282-.252.52-.51.683l-.259.168a.5.5 0 0 0-.102.093q-.008.01-.015.019l-.015.029q-.006.018-.01.04a1 1 0 0 0 .002.283q.012.13.03.263c.028.21.043.315.03.379a.38.38 0 0 1-.266.304l-.053.012a2 2 0 0 1-.29.009l-.218-.003-.07-.006a.376.376 0 0 1-.32-.316.5.5 0 0 1 0-.135l.03-.244.03-.263q.007-.09.01-.153a.5.5 0 0 0-.006-.13l-.012-.04-.005-.01q-.003-.009-.009-.02a.4.4 0 0 0-.118-.11 6 6 0 0 0-.259-.169 1.213 1.213 0 0 1-.48-.595 1.9 1.9 0 0 1-.115-.65c-.013-.629.206-1.347.504-1.92q.145-.28.307-.5C4.515 2.315 4.78 2.1 5 2.1q.036 0 .074.007M2.344 3.42c.124 0 .267.09.41.242.071.076.107.115.128.178l.008.028c.014.066-.001.134-.032.27-.088.395-.13.81-.087 1.209.036.341.138.693.338 1.001.069.105.069.252-.037.319-.174.11-.262.164-.29.215l-.011.022c-.023.054-.017.12-.006.25q.008.099.023.201c.021.161.033.242.024.291a.29.29 0 0 1-.205.235c-.048.016-.12.015-.264.015-.143 0-.216 0-.263-.015a.29.29 0 0 1-.204-.235c-.01-.049 0-.13.022-.29q.015-.103.022-.203c.012-.13.018-.195-.004-.249l-.012-.022c-.029-.05-.116-.105-.29-.215-1.115-.705.066-3.247.73-3.247m5.3 0c.662 0 1.843 2.542.728 3.247-.174.11-.26.164-.29.215l-.01.022c-.023.054-.017.12-.006.25q.009.099.022.201c.022.161.033.242.024.291a.29.29 0 0 1-.205.235c-.048.016-.12.015-.264.015s-.216 0-.264-.015a.29.29 0 0 1-.204-.235c-.009-.049.002-.13.024-.29q.014-.103.022-.203c.012-.13.017-.195-.006-.249l-.01-.022c-.029-.05-.117-.105-.29-.215-.102-.064-.102-.204-.036-.304.207-.312.312-.669.35-1.016.042-.402 0-.82-.09-1.218-.031-.138-.047-.207-.032-.273l.008-.028c.022-.064.058-.102.131-.178.138-.144.276-.23.397-.23"/></svg>