<svg xmlns="http://www.w3.org/2000/svg" width="24" height="24" fill="currentColor" viewBox="0 0 10 10"><path d="M5 6.42c.449 0 .83.026 1.152.065.22.027.331.04.406.124q.016.017.03.038c.06.093.044.208.013.436-.028.198-.062.42-.101.617-.1.5-.8.79-1.5.79S3.6 8.2 3.5 7.7a11 11 0 0 1-.102-.616c-.032-.229-.048-.343.013-.437l.03-.038c.074-.083.185-.097.406-.124A10 10 0 0 1 5 6.42m-.6.48c-.2 0-.3.2-.3.5s.2.4.4.4.2-.2.2-.4-.1-.5-.3-.5m1.2 0c-.2 0-.3.3-.3.5s0 .4.2.4.4-.1.4-.4-.1-.5-.3-.5m1.1-5.5c.3 0 .5.9.3 1.3s.4 1.1 0 2c-.06.135-.113.345-.157.575-.051.268-.077.401-.157.47l-.036.026c-.088.056-.225.04-.498.01-.332-.037-.715-.06-1.152-.06-.432 0-.81.022-1.138.058-.274.03-.41.045-.499-.01l-.036-.025c-.079-.067-.106-.203-.162-.474A3 3 0 0 0 3 4.7c-.4-.9.2-1.7 0-2.1s0-1.2.3-1.2.6.4.6.8c0 .3.494-.1 1.1-.1.605 0 1.1.5 1.1.1s.3-.8.6-.8M4 3.5c-.3 0-.4.101-.4.4s.1.7.4.7.399-.4.399-.7-.1-.4-.4-.4m2 0c-.3 0-.4.1-.4.4s.1.7.4.7.4-.4.4-.7-.1-.4-.4-.4"/></svg>