<svg xmlns="http://www.w3.org/2000/svg" width="24" height="24" fill="currentColor" viewBox="0 0 10 10"><path d="M7.634 2.366c.354.353.282 2.97-.99 4.243-.571.57-1.38.71-2.112.477-.391-.125-.587-.187-.7-.158l-.047.016c-.108.044-.198.17-.377.42l-.14.196c-.121.17-.182.254-.255.297a.4.4 0 0 1-.346.029c-.08-.03-.153-.104-.3-.252-.148-.147-.222-.22-.252-.3a.4.4 0 0 1 .028-.346c.043-.073.128-.134.298-.255l.215-.154c.248-.177.372-.266.415-.374l.016-.047c.03-.113-.03-.304-.152-.685-.234-.738-.108-1.552.456-2.117 1.273-1.272 3.89-1.344 4.243-.99m-.637.637a.4.4 0 0 0-.566 0l-.509.508a.215.215 0 0 1-.366-.128.4.4 0 0 0-.795.088l.08.718c.019.169.028.253.005.332l-.012.033c-.03.076-.09.136-.211.257l-.737.737a.401.401 0 0 0 .566.566l.101-.101c.12-.12.18-.18.257-.21l.033-.013c.079-.023.163-.014.332.005l.717.08a.4.4 0 0 0 .088-.795.215.215 0 0 1-.128-.366L6.997 3.57a.4.4 0 0 0 0-.566"/></svg>