<svg xmlns="http://www.w3.org/2000/svg" width="24" height="24" fill="currentColor" viewBox="0 0 10 10"><path d="M5 2c.297 0 .283.452.033.611a2.3 2.3 0 0 0 1.234 4.24c.262 0 .393 0 .416.003.267.041.357.334.158.518a2 2 0 0 1-.164.115A3 3 0 1 1 5 2m1.639.935c.14.022.225.237.395.668.034.086.051.13.081.163l.02.018c.033.03.077.047.163.081.43.17.645.255.668.396a.3.3 0 0 1 0 .078c-.022.141-.238.226-.668.395a.5.5 0 0 0-.163.081l-.02.02a.5.5 0 0 0-.08.163c-.17.43-.255.646-.396.668a.3.3 0 0 1-.078 0c-.141-.022-.226-.238-.396-.668-.034-.086-.051-.13-.081-.163l-.019-.02c-.033-.03-.076-.047-.163-.08-.43-.17-.645-.255-.668-.396a.3.3 0 0 1 0-.078c.023-.141.238-.226.668-.396.086-.034.13-.05.163-.08l.019-.02c.03-.033.047-.076.081-.162.17-.43.255-.646.396-.668a.3.3 0 0 1 .078 0"/></svg>