<svg xmlns="http://www.w3.org/2000/svg" width="24" height="24" fill="currentColor" viewBox="0 0 10 10"><path d="M6.39 2.629c.98-1.21 2.91.17 1.838 1.542a1.6 1.6 0 0 1-.19.206.39.39 0 0 0-.116.418c.168.437.235.864.178 1.205C7.9 7.2 7 7.878 5 7.878S2 7.2 1.9 6c-.027-.327.043-.733.2-1.152.057-.154-.01-.328-.137-.432-.488-.393-.718-1.156-.207-1.787.552-.683 1.405-.541 1.853-.042a.41.41 0 0 0 .445.12c.291-.114.608-.18.947-.18.363 0 .702.076 1.014.206a.33.33 0 0 0 .375-.104M5 6.399c-.399 0-.6.101-.6.35 0 .25.3.55.6.55s.6-.3.6-.55c0-.249-.2-.35-.6-.35M3.763 4.5c-.6.001-.9.65-1 1s.1 1 .7 1 .9-.65 1-1-.1-.999-.7-1m2.477 0c-.6.001-.799.65-.7 1 .101.35.401 1 1 1 .6 0 .8-.65.7-1s-.4-.999-1-1M3.65 5c.25 0 .25.152.25.3 0 .15 0 .5-.25.5s-.25-.35-.25-.5c0-.148 0-.3.25-.3m2.7 0c.25.001.25.152.25.3 0 .15 0 .5-.25.5s-.25-.35-.25-.5c0-.148 0-.3.25-.3"/></svg>