<svg xmlns="http://www.w3.org/2000/svg" width="24" height="24" fill="currentColor" viewBox="0 0 10 10"><path d="M7.6 2.1c1.3 0 1.3 2.299.9 3.2-.089.2-.226.283-.386.293a3 3 0 0 0-.221.017c-.118.027-.148.063-.155.184-.001.016.003.054.011.131.033.31.051.583.051.775 0 .8-.374 1.233-2.793 1.233S2.201 7.5 2.2 6.7c0-.195.018-.47.051-.784.009-.078.013-.118.012-.134-.008-.122-.047-.165-.167-.185a3 3 0 0 0-.214-.002c-.17 0-.31-.081-.382-.296-.3-.9-.4-3.2.9-3.2.444.04.767.147.993.296.04.026.06.039.069.043.06.032.084.034.149.015.01-.002.03-.01.073-.028.275-.11.677-.172 1.323-.172.628 0 1.023.067 1.295.178l.074.03c.066.02.09.017.151-.016q.012-.005.07-.045c.228-.152.553-.26 1.003-.3M6.525 6.782c-.026-2.033-3.08-2.033-3.08 0 0 .216.024.58 1.54.58 1.515 0 1.54-.364 1.54-.58M4.4 5.9c.3 0 .3.3.3.5s0 .5-.3.5-.3-.3-.3-.5 0-.5.3-.5m1.2 0c.3 0 .3.3.3.5s0 .5-.3.5-.3-.3-.3-.5 0-.5.3-.5M3.8 4c-.4 0-.5.399-.5.6s0 .4.5.4.5-.2.5-.4-.1-.6-.5-.6m2.4 0c-.4 0-.5.399-.5.6s0 .4.5.4.5-.2.5-.4-.1-.6-.5-.6"/></svg>