<svg xmlns="http://www.w3.org/2000/svg" width="24" height="24" fill="currentColor" viewBox="0 0 10 10"><path d="M7.413 6.498a.3.3 0 0 1 .325.395c-.013.04-.064.113-.165.258a1 1 0 0 0-.053.082.3.3 0 0 0 .029.31 1 1 0 0 0 .066.072l.012.011c.121.122.183.184.205.229a.3.3 0 0 1-.177.417c-.048.015-.135.014-.307.01l-.782-.014c-.095-.002-.157-.102-.13-.193a1.8 1.8 0 0 0 .06-.588c-.02-.307-.029-.46.01-.535l.02-.031c.048-.07.153-.115.361-.206l.242-.105c.161-.07.243-.106.284-.112m-3.218.9c.175-.202.262-.303.33-.33l.031-.01c.071-.02.193.007.436.06q.165.037.328.053c.203.02.304.029.378.096l.03.031c.063.077.066.135.071.251l.002.051c0 .198-.051.376-.13.493a.31.31 0 0 1-.239.153 5.2 5.2 0 0 1-1.43-.244c-.155-.051-.17-.256-.047-.363q.127-.11.24-.24M2.67 4.072c.194-.237.292-.355.438-.352q.03 0 .06.008c.142.032.238.235.43.641.083.176.185.341.297.49.075.1.112.15.12.163.1.167.088.25-.059.379-.011.01-.07.053-.19.138-.323.23-.348.499-.195.75.137.227.206.34.202.43l-.004.039c-.015.089-.058.135-.145.228a1.7 1.7 0 0 1-.402.317c-.103.058-.154.087-.247.078l-.04-.006c-.09-.02-.134-.068-.223-.164-.855-.926-.762-2.264-.042-3.139m1.119-2.255c1.382-.425 2.489-.178 3.127.353.315.263.526.609.558.978a1.05 1.05 0 0 1-.25.782l-.002.003-.03.045-.025.036A2.63 2.63 0 0 1 5.39 5.052c-.077.01-.115.015-.156.01l-.02-.005c-.042-.008-.066-.022-.115-.048a2 2 0 0 1-.645-.57 1.9 1.9 0 0 1-.367-.813c-.024-.138-.036-.207.02-.302l.026-.038c.07-.084.157-.101.333-.134.77-.147 1.38-.18 1.85-.162.173.007.284-.17.15-.282-.412-.343-1.256-.597-2.473-.222a.35.35 0 1 1-.205-.67M5.9 3.3a.4.4 0 1 0 0 .802.4.4 0 0 0 0-.802"/></svg>