<svg xmlns="http://www.w3.org/2000/svg" width="24" height="24" fill="currentColor" viewBox="0 0 10 10"><path d="M6 2.507a1.5 1.5 0 0 1 1.489 1.68c-.024.194-.036.291-.018.338l.01.02c.022.045.103.1.265.21A1.5 1.5 0 0 1 6.9 7.493H3.1a1.5 1.5 0 0 1-.565-2.888.11.11 0 0 0 .065-.098 1.5 1.5 0 0 1 1.85-1.458c.159.04.238.059.283.05l.019-.006c.043-.013.103-.07.222-.18.268-.252.63-.406 1.026-.406M5.1 3.6a.4.4 0 0 0-.4.4c0 .14 0 .21-.023.253a.2.2 0 0 1-.184.107c-.05-.002-.11-.037-.232-.107a.401.401 0 0 0-.4.693c.121.07.182.106.209.148a.2.2 0 0 1 0 .212c-.027.043-.088.078-.21.148a.4.4 0 0 0 .4.692c.122-.07.183-.105.233-.107a.2.2 0 0 1 .184.107c.023.043.023.114.023.254a.4.4 0 1 0 .8 0c0-.14 0-.21.024-.255a.2.2 0 0 1 .184-.106c.05.002.11.037.231.107a.4.4 0 0 0 .4-.692c-.122-.07-.182-.105-.209-.148a.2.2 0 0 1 0-.212c.027-.042.088-.077.21-.148a.4.4 0 1 0-.4-.692c-.122.07-.182.105-.232.107a.2.2 0 0 1-.184-.106C5.5 4.21 5.5 4.14 5.5 4c0-.22-.18-.4-.4-.4"/></svg>