<svg xmlns="http://www.w3.org/2000/svg" width="24" height="24" fill="currentColor" viewBox="0 0 10 10"><path d="M3.848 5.846c.096.022.144.033.18.062l.015.014c.033.033.05.08.08.172l.406 1.185c.05.147.075.22.06.278a.2.2 0 0 1-.083.116c-.05.034-.128.034-.283.034-.367 0-.551 0-.719-.062l-.072-.03C3.27 7.54 3.14 7.41 2.88 7.15l-.057-.058c-.406-.406-.61-.61-.679-.869a.859.859 0 0 1-.008-.423c.028-.134.043-.2.102-.246l.027-.017c.065-.035.142-.018.295.017zM4.851 2.8c.832-.394 1.248-.59 1.623-.472a1 1 0 0 1 .153.063c.35.18.508.611.823 1.477l.278.765c.098.27.147.405.156.545q.003.03.003.062c.001.14-.038.279-.115.554l-.147.525c-.176.631-.265.947-.493 1.143a1 1 0 0 1-.102.08c-.251.165-.58.165-1.235.165-.024 0-.037 0-.048-.002a.2.2 0 0 1-.158-.113c-.005-.01-.01-.022-.017-.045l-.71-2.077a.65.65 0 0 0-.472-.424L2.812 4.69l-.031-.007a.2.2 0 0 1-.133-.254l.012-.03c.129-.323.194-.485.305-.613q.025-.03.052-.055c.12-.12.279-.194.594-.343z"/></svg>