<svg xmlns="http://www.w3.org/2000/svg" width="24" height="24" fill="currentColor" viewBox="0 0 10 10"><path d="M3.25 1.75a.7.7 0 0 1 .7.7V5.2c0 .167 0 .25.022.314l.01.027c.027.062.12.165.307.372a1.4 1.4 0 1 1-2.079 0c.188-.207.281-.31.308-.372l.01-.027c.022-.063.022-.147.022-.313V2.45a.7.7 0 0 1 .7-.701m3.3.65a.5.5 0 0 1 .5.5c0 .186 0 .28.03.353a.4.4 0 0 0 .217.217c.073.03.167.03.353.03a.5.5 0 0 1 0 1c-.187 0-.28 0-.354.03a.4.4 0 0 0-.216.216c-.03.074-.03.168-.03.355a.5.5 0 0 1-1 0c0-.187 0-.28-.03-.354a.4.4 0 0 0-.217-.217c-.074-.03-.167-.03-.353-.03a.5.5 0 0 1 0-1c.186 0 .28 0 .353-.03a.4.4 0 0 0 .216-.217c.03-.074.03-.167.03-.353a.5.5 0 0 1 .5-.5"/></svg>