<svg xmlns="http://www.w3.org/2000/svg" width="24" height="24" fill="currentColor" viewBox="0 0 10 10"><path d="M6 2.507a1.5 1.5 0 0 1 1.489 1.68c-.024.194-.036.291-.018.338l.01.02c.022.045.103.1.265.21A1.5 1.5 0 0 1 6.9 7.493H3.1a1.5 1.5 0 0 1-.565-2.888.11.11 0 0 0 .065-.098 1.5 1.5 0 0 1 1.85-1.458c.159.04.238.059.283.05l.019-.006c.043-.013.103-.07.222-.18.268-.252.63-.406 1.026-.406m-.515 1.5a.35.35 0 0 0-.603-.223 3 3 0 0 0-.157.234l-.636.989c-.037.057-.056.085-.066.106a.35.35 0 0 0 .272.496c.023.003.057.003.125.003.038 0 .057 0 .072.002a.3.3 0 0 1 .27.303c0 .016-.004.035-.008.073l-.004.037c-.036.3-.054.451-.043.507a.35.35 0 0 0 .573.194c.043-.038.12-.17.273-.431l.593-1.015c.04-.07.06-.105.07-.132a.35.35 0 0 0-.27-.47 1 1 0 0 0-.153-.005c-.044 0-.067 0-.084-.002a.3.3 0 0 1-.265-.304 1 1 0 0 1 .01-.082c.022-.164.033-.247.031-.28"/></svg>