<svg xmlns="http://www.w3.org/2000/svg" width="24" height="24" fill="currentColor" viewBox="0 0 10 10"><path d="M6.63 3.344a.23.23 0 0 1-.166.388.23.23 0 0 0-.156.4l.602.55c.174.16.061.45-.175.45a.259.259 0 0 0-.176.449l.379.352c.25.232.376.348.393.447a.3.3 0 0 1-.115.292c-.08.06-.25.06-.592.06h-.451c-.095 0-.143 0-.184.013a.31.31 0 0 0-.216.262.6.6 0 0 0 .022.17c.097.493.146.74.056.876a.4.4 0 0 1-.052.064c-.117.115-.345.116-.799.116s-.682 0-.799-.116a.4.4 0 0 1-.052-.064c-.09-.137-.041-.383.056-.876a.6.6 0 0 0 .022-.17.31.31 0 0 0-.216-.262c-.04-.012-.088-.012-.184-.012h-.45c-.342 0-.513 0-.593-.06a.3.3 0 0 1-.115-.293c.017-.099.143-.215.393-.447l.379-.352a.259.259 0 0 0-.176-.449.259.259 0 0 1-.175-.45l.602-.55a.23.23 0 0 0-.156-.4.23.23 0 0 1-.166-.388l1.217-1.278c.183-.192.275-.289.389-.298h.048c.114.01.206.106.389.298z"/></svg>