<svg xmlns="http://www.w3.org/2000/svg" width="24" height="24" fill="currentColor" viewBox="0 0 10 10"><path d="M4.845 2.49a.22.22 0 0 0 .254.001c1.05-.743 1.825-.37 2.207-.064.125.1.05.281-.107.307a4.4 4.4 0 0 0-.63.15c-.189.06-.146.315.043.37 1.143.328 1.169 1.202 1.094 1.665-.023.143-.193.188-.307.1-.3-.234-.859-.6-1.508-.699-.12-.018-.218.085-.207.206.064.721.139 1.707.165 2.714.01.333.013.5-.083.615a.4.4 0 0 1-.045.046C5.608 8 5.44 8 5.1 8c-.462 0-.694 0-.811-.116a.4.4 0 0 1-.045-.053c-.095-.135-.052-.388.034-.893.157-.916.148-1.868.118-2.48a.183.183 0 0 0-.206-.177c-.638.088-1.187.471-1.485.719-.114.095-.29.051-.313-.095-.069-.448-.038-1.256.96-1.61.183-.064.219-.317.034-.376a4.5 4.5 0 0 0-.65-.153c-.163-.026-.236-.219-.102-.317.415-.305 1.223-.67 2.212.04"/></svg>