<svg xmlns="http://www.w3.org/2000/svg" width="24" height="24" fill="currentColor" viewBox="0 0 10 10"><path d="M7.01 6.35c.074.025.12.11.213.28.193.355.445.765.776 1.23a.528.528 0 0 1-.427.84H2.396a.495.495 0 0 1-.496-.496.52.52 0 0 1 .143-.352c.364-.39.63-.776.825-1.136.098-.18.147-.271.22-.297l.032-.008c.077-.013.158.04.321.144l.068.043c.226.145.34.218.466.227l.054.001c.127-.004.243-.072.475-.209l.012-.006c.221-.13.332-.196.454-.203h.058c.122.008.232.074.452.206.23.138.345.205.47.211h.06c.125-.01.237-.081.463-.224l.193-.122c.158-.1.237-.15.313-.137q.016.002.032.008M5.55 4.8c.458 0 .687 0 .805.07.024.014.028.018.05.034.076.06.152.214.266.493.052.127.078.191.063.254l-.007.026c-.024.06-.082.099-.2.176l-.01.007c-.23.15-.345.224-.473.234h-.056c-.128-.004-.246-.075-.481-.216l-.014-.009c-.227-.136-.34-.204-.466-.21h-.055c-.125.007-.238.077-.464.215-.233.143-.35.214-.479.22h-.056c-.129-.009-.244-.083-.474-.23-.096-.063-.145-.093-.17-.14a.2.2 0 0 1-.017-.049c-.012-.052.005-.106.038-.214.091-.3.155-.468.24-.54a.4.4 0 0 1 .053-.04c.124-.081.34-.081.768-.081zM5 1.3c.323 0 .611.153.794.392.074.096.111.145.133.162l.01.007c.022.014.087.037.218.082A.8.8 0 0 1 5.9 3.5h-.134c-.105.01-.146.046-.173.147-.003.01-.007.032-.014.077-.036.215-.054.322-.124.39l-.032.028c-.08.058-.188.058-.405.058h-.036c-.217 0-.326 0-.405-.058l-.032-.028c-.07-.068-.088-.175-.124-.39l-.015-.08c-.028-.098-.067-.131-.17-.143H4.1a.8.8 0 0 1-.256-1.558c.13-.045.196-.067.219-.081l.008-.007c.022-.016.06-.066.134-.163A1 1 0 0 1 5 1.3"/></svg>