<svg xmlns="http://www.w3.org/2000/svg" width="24" height="24" fill="currentColor" viewBox="0 0 10 10"><path d="M5.41 2.534c.099.026.148.04.184.036l.015-.002c.036-.006.074-.029.151-.074.506-.296 1.182-.579 1.759-.432.139.035.203.186.165.324l-.37 1.333a.66.66 0 0 0 .22.67c.168.14.368.327.522.522.205.26-.035.5-.352.597-.464.142-.068.502.059.785.07.158-.113.243-.285.252-1.32.071-.926 1.433-2.478 1.433-1.551 0-1.158-1.362-2.478-1.433-.172-.009-.38-.063-.39-.236-.016-.364.606-.692.166-.812-.32-.088-.558-.326-.354-.586.154-.195.354-.381.522-.523a.66.66 0 0 0 .22-.669l-.37-1.333c-.038-.138.027-.288.165-.324.574-.146 1.245.132 1.75.427a.5.5 0 0 0 .164.074c.035.004.083-.009.18-.033a1.65 1.65 0 0 1 .836.004m-.848 4.013a.194.194 0 0 0-.19.222.64.64 0 0 0 .628.549.64.64 0 0 0 .629-.549.194.194 0 0 0-.19-.222zm-1.05-1.82a.181.181 0 0 0-.272.156v.27c0 .316.178.604.46.745l.06.03c.367.183.8-.084.8-.495a.17.17 0 0 0-.082-.143zm3.248.156a.181.181 0 0 0-.273-.156l-.965.563a.17.17 0 0 0-.082.143c0 .411.433.678.8.494l.06-.029c.282-.14.46-.43.46-.744z"/></svg>